<svg width="480px" height="360px" xmlns="http://www.w3.org/2000/svg"><rect x="216" y="124" width="80.5" height="80.5" fill-opacity="0"/><path fill="#F00" d="M256.881 169.774L256.881 169.774Q258.936 171.339 258.936 173.639L258.936 173.639Q258.936 176.428 256.538 178.483Q254.141 180.538 250.667 180.538L250.667 180.538Q249.003 180.538 246.875 179.902Q244.746 179.266 243.083 178.043L243.083 178.043Q242.740 177.798 242.716 177.407Q242.691 177.015 242.936 176.722L242.936 176.722Q243.572 175.988 244.012 175.547L244.012 175.547Q244.550 174.911 245.235 175.401L245.235 175.401Q247.682 177.113 250.667 177.113L250.667 177.113Q251.939 177.113 253.064 176.697Q254.190 176.281 254.850 175.474Q255.511 174.667 255.511 173.639L255.511 173.639Q255.511 172.856 254.336 172.122L254.336 172.122Q253.407 171.584 250.128 170.508L250.128 170.508Q246.752 169.382 245.235 168.306L245.235 168.306Q242.446 166.349 242.446 163.266L242.446 163.266Q242.446 160.477 244.844 158.422Q247.242 156.367 250.716 156.367L250.716 156.367Q252.379 156.367 254.508 157.003Q256.636 157.639 258.300 158.862L258.300 158.862Q258.642 159.107 258.667 159.498Q258.691 159.890 258.446 160.183L258.446 160.183Q257.713 160.966 257.321 161.407L257.321 161.407Q256.783 161.994 256.147 161.602L256.147 161.602Q253.064 159.743 250.716 159.743L250.716 159.743Q248.709 159.743 247.291 160.746Q245.872 161.749 245.872 163.266L245.872 163.266Q245.872 164.832 247.780 165.908L247.780 165.908Q248.514 166.300 249.346 166.618Q250.177 166.936 251.498 167.376Q252.820 167.817 253.211 167.963L253.211 167.963Q255.657 168.844 256.881 169.774Z"/></svg>