<svg width="480px" height="360px" xmlns="http://www.w3.org/2000/svg"><rect x="216" y="124" width="80.5" height="80.5" fill-opacity="0"/><path fill="#F00" d="M258.104 163.021L257.517 163.266Q257.664 163.315 257.884 163.413Q258.104 163.511 258.765 163.853Q259.425 164.196 260.037 164.587Q260.648 164.979 261.382 165.639Q262.116 166.300 262.630 167.058Q263.144 167.817 263.511 168.893Q263.878 169.969 263.878 171.095L263.878 171.095Q263.878 174.960 260.771 177.749Q257.664 180.538 253.260 180.538L253.260 180.538Q250.960 180.538 248.049 179.560Q245.138 178.581 242.887 176.722L242.887 176.722Q242.593 176.477 242.593 176.061Q242.593 175.645 242.838 175.401L242.838 175.401Q243.034 175.156 244.012 174.226L244.012 174.226Q244.550 173.639 245.235 174.128L245.235 174.128Q249.394 177.113 253.260 177.113L253.260 177.113Q255.217 177.113 256.856 176.330Q258.495 175.547 259.474 174.153Q260.453 172.758 260.453 171.095L260.453 171.095Q260.453 168.306 257.713 166.544L257.713 166.544Q255.413 165.125 252.673 165.125L252.673 165.125Q251.841 165.125 250.226 165.125L250.226 165.125Q249.835 165.125 249.566 164.832Q249.297 164.538 249.297 164.196L249.297 164.196L249.297 162.630Q249.297 162.239 249.566 161.969Q249.835 161.700 250.226 161.700L250.226 161.700L252.232 161.700Q255.168 161.700 257.517 160.037L257.517 160.037Q259.670 158.520 259.670 156.269L259.670 156.269Q259.670 153.969 257.664 152.404Q255.657 150.838 252.820 150.838L252.820 150.838Q251.107 150.838 248.979 151.523Q246.850 152.208 245.187 153.480L245.187 153.480Q244.550 154.067 243.963 153.431L243.963 153.431Q243.621 153.138 242.936 152.355L242.936 152.355Q242.642 152.061 242.667 151.645Q242.691 151.229 243.034 150.985L243.034 150.985Q248.220 147.462 252.820 147.462L252.820 147.462Q257.076 147.462 260.086 150.055Q263.095 152.648 263.095 156.269L263.095 156.269Q263.095 157.639 262.508 158.838Q261.920 160.037 261.113 160.820Q260.306 161.602 259.498 162.190Q258.691 162.777 258.104 163.021L258.104 163.021Z"/></svg>