<svg width="480px" height="360px" xmlns="http://www.w3.org/2000/svg"><rect x="216" y="124" width="80.5" height="80.5" fill-opacity="0"/><path fill="#F00" d="M260.910 158.113L260.910 158.113Q262.718 160.214 261.985 162.852L261.985 162.852L259.444 177.020Q259.249 177.753 259.249 179.365L259.249 179.365Q259.249 179.756 259.102 179.902L259.102 179.902Q259.005 179.902 258.809 180Q258.614 180.098 258.565 180.098L258.565 180.098L256.708 180.098Q256.464 180.098 256.220 179.878Q255.976 179.658 255.976 179.365L255.976 179.365Q255.976 178.925 256.073 177.973Q256.171 177.020 256.171 176.482L256.171 176.482L256.171 176.092Q252.116 180.440 247.426 180.440L247.426 180.440Q244.348 180.440 242.736 178.827L242.736 178.827Q240.928 177.069 241.466 173.551L241.466 173.551Q242.443 168.324 248.012 166.467L248.012 166.467Q249.136 166.027 250.235 165.783Q251.334 165.539 252.507 165.441Q253.679 165.344 254.388 165.319Q255.096 165.295 256.366 165.344Q257.637 165.392 257.979 165.392L257.979 165.392L258.174 165.392L258.711 162.656Q259.005 161.289 258.101 160.507Q257.197 159.725 255.292 159.725L255.292 159.725Q253.191 159.725 251.310 160.507Q249.429 161.289 248.354 162.656L248.354 162.656Q247.670 163.292 247.084 162.998L247.084 162.998Q246.889 162.901 246.449 162.632Q246.009 162.363 245.814 162.266L245.814 162.266Q245.667 162.266 245.569 162.070Q245.472 161.875 245.472 161.728L245.472 161.728Q245.276 161.533 245.618 160.849L245.618 160.849Q246.449 159.823 247.548 158.968Q248.647 158.113 249.966 157.527Q251.285 156.940 252.776 156.623Q254.266 156.305 255.829 156.305L255.829 156.305Q259.102 156.305 260.910 158.113ZM256.904 173.014L256.904 173.014L257.979 167.737Q253.289 167.737 250.699 168.275L250.699 168.275Q248.696 168.715 247.084 170.156Q245.472 171.597 245.081 173.551L245.081 173.551Q244.544 175.456 245.618 176.287L245.618 176.287Q246.302 177.166 248.159 177.166L248.159 177.166Q250.260 177.166 252.702 176.018Q255.145 174.870 256.904 173.014Z"/></svg>