<svg width="480px" height="360px" xmlns="http://www.w3.org/2000/svg"><rect x="216" y="124" width="80.5" height="80.5" fill-opacity="0"/><path fill="#F00" d="M269.994 164.772L269.994 164.772Q269.994 173.621 265.878 177.376L265.878 177.376Q265.672 177.531 265.518 177.633L265.518 177.633Q267.113 178.817 268.039 179.486L268.039 179.486Q268.296 179.691 268.347 180.051Q268.399 180.412 268.193 180.720L268.193 180.720Q266.907 182.418 265.826 183.910L265.826 183.910Q265.621 184.167 265.260 184.219Q264.900 184.270 264.643 184.064L264.643 184.064L259.447 180.257Q258.109 180.463 256.566 180.514L256.566 180.514L256.463 180.514Q250.444 180.360 247.151 177.376L247.151 177.376Q243.035 173.621 243.035 164.772L243.035 164.772Q243.035 164.360 243.035 164L243.035 164Q243.035 163.588 243.035 163.228L243.035 163.228Q243.035 154.379 247.151 150.624L247.151 150.624Q250.444 147.588 256.463 147.486L256.463 147.486L256.566 147.486Q262.585 147.588 265.878 150.624L265.878 150.624Q269.994 154.379 269.994 163.228L269.994 163.228Q269.994 163.486 269.994 164L269.994 164Q269.994 164.514 269.994 164.772ZM264.283 164.772L264.283 164.772Q264.283 164.412 264.283 164.103L264.283 164.103L264.283 163.897Q264.283 163.434 264.283 163.228L264.283 163.228Q264.283 160.090 263.846 158.084Q263.408 156.077 262.071 154.842L262.071 154.842Q260.322 153.299 256.514 153.196L256.514 153.196Q252.707 153.299 250.958 154.842L250.958 154.842Q249.621 156.077 249.183 158.084Q248.746 160.090 248.746 163.228L248.746 163.228Q248.746 163.537 248.746 163.897L248.746 163.897L248.746 164.103Q248.746 164.412 248.746 164.772L248.746 164.772Q248.746 167.910 249.183 169.916Q249.621 171.923 250.958 173.158L250.958 173.158Q252.707 174.701 256.514 174.804L256.514 174.804Q260.322 174.701 262.071 173.158L262.071 173.158Q263.408 171.923 263.846 169.916Q264.283 167.910 264.283 164.772Z"/></svg>