<svg width="480px" height="360px" xmlns="http://www.w3.org/2000/svg"><rect x="216" y="124" width="80.5" height="80.5" fill-opacity="0"/><path fill="#F00" d="M263.792 156.647L266.724 156.647Q267.359 156.647 267.798 157.527L267.798 157.527Q267.798 157.820 267.701 158.357Q267.603 158.895 267.603 159.188L267.603 159.188Q267.603 159.579 267.285 159.847Q266.968 160.116 266.528 160.116L266.528 160.116L263.255 160.116L261.056 167.347L264.183 167.347Q264.916 167.347 264.916 168.275L264.916 168.275Q264.916 168.568 264.818 169.105Q264.721 169.643 264.721 169.936L264.721 169.936Q264.721 170.327 264.379 170.571Q264.037 170.815 263.646 170.815L263.646 170.815L259.982 170.815Q258.174 177.020 257.441 179.169L257.441 179.169Q257.099 179.902 256.366 179.902L256.366 179.902L254.705 179.902Q254.363 179.902 253.973 179.560L253.973 179.560Q253.826 179.365 253.826 178.827L253.826 178.827Q254.070 177.753 254.656 175.725Q255.243 173.698 255.682 172.183L255.682 172.183L256.171 170.620L249.087 170.620Q247.279 176.824 246.547 179.023L246.547 179.023Q246.156 179.707 245.423 179.707L245.423 179.707L243.811 179.707Q243.420 179.707 243.078 179.365L243.078 179.365Q242.882 179.169 242.882 178.632L242.882 178.632Q243.029 177.997 243.347 176.898Q243.664 175.798 243.982 174.724Q244.299 173.649 244.592 172.672Q244.885 171.695 245.081 171.060L245.081 171.060L245.276 170.473L242.882 170.473Q242.540 170.473 242.345 170.278Q242.150 170.082 242.150 169.545L242.150 169.545Q242.150 169.252 242.247 168.715Q242.345 168.177 242.345 167.933L242.345 167.933Q242.345 167.542 242.736 167.200L242.736 167.200Q242.785 167.200 243.078 167.102Q243.371 167.005 243.420 167.005L243.420 167.005L246.156 167.005L248.354 159.725L245.814 159.725Q245.081 159.725 245.081 158.797L245.081 158.797Q245.081 158.602 245.130 158.308Q245.179 158.015 245.227 157.722Q245.276 157.429 245.276 157.185L245.276 157.185Q245.276 156.794 245.594 156.525Q245.911 156.256 246.351 156.256L246.351 156.256L249.429 156.256Q251.090 150.638 251.823 148.440L251.823 148.440Q252.165 147.707 252.898 147.707L252.898 147.707L254.510 147.707Q254.901 147.707 255.243 148.098L255.243 148.098Q255.438 148.293 255.438 148.831L255.438 148.831L253.093 156.452L260.177 156.452Q261.789 150.834 262.522 148.635L262.522 148.635Q262.913 147.902 263.646 147.902L263.646 147.902L265.258 147.902Q265.600 147.902 265.991 148.293L265.991 148.293Q266.186 148.440 266.186 149.026L266.186 149.026L263.792 156.647ZM250.162 167.347L257.246 167.347L259.444 160.116L252.360 160.116L250.162 167.347Z"/></svg>