<svg width="480px" height="360px" xmlns="http://www.w3.org/2000/svg"><rect x="216" y="124" width="80.5" height="80.5" fill-opacity="0"/><path fill="#F00" d="M262.894 174.289Q263.254 174.289 263.511 174.547Q263.768 174.804 263.768 175.164L263.768 175.164L263.768 179.125Q263.768 179.383 263.666 179.588Q263.563 179.794 263.357 179.897Q263.151 180 262.894 180L262.894 180L244.990 180Q244.785 180 244.630 179.923Q244.476 179.846 244.373 179.743Q244.270 179.640 244.193 179.486Q244.116 179.331 244.116 179.125L244.116 179.125L244.116 148.823Q244.116 148.463 244.373 148.232Q244.630 148 244.990 148L244.990 148L261.711 148Q262.071 148 262.328 148.232Q262.585 148.463 262.585 148.823L262.585 148.823L262.585 152.836Q262.585 153.042 262.482 153.248Q262.379 153.453 262.174 153.556Q261.968 153.659 261.711 153.659L261.711 153.659L249.826 153.659L249.826 160.810L259.344 160.810Q259.704 160.810 259.961 161.068Q260.219 161.325 260.219 161.685L260.219 161.685L260.219 165.698Q260.219 166.006 259.961 166.264Q259.704 166.521 259.344 166.521L259.344 166.521L249.826 166.521L249.826 174.289L262.894 174.289Z"/></svg>