<svg width="480px" height="360px" xmlns="http://www.w3.org/2000/svg"><rect x="216" y="124" width="80.5" height="80.5" fill-opacity="0"/><path fill="#F00" d="M262.815 157.380L262.815 157.380Q262.815 157.918 262.424 158.113L262.424 158.113L248.256 183.908Q247.279 185.863 245.179 187.377L245.179 187.377Q242.980 188.745 240.635 188.452L240.635 188.452Q240.342 188.452 239.829 188.379Q239.316 188.305 239.169 188.305L239.169 188.305Q239.072 188.305 238.950 188.232Q238.827 188.159 238.730 188.085Q238.632 188.012 238.632 187.915L238.632 187.915L238.632 187.182Q238.827 186.840 239.169 185.716L239.169 185.716L239.707 185.179Q239.902 185.032 240.440 185.032L240.440 185.032Q240.586 185.032 241.099 185.105Q241.612 185.179 241.905 185.179L241.905 185.179Q242.882 185.179 243.713 184.641L243.713 184.641Q244.885 183.762 245.374 182.834L245.374 182.834L247.524 178.827Q244.250 162.803 243.371 158.113L243.371 158.113Q243.371 157.576 243.713 157.380L243.713 157.380Q244.446 156.989 244.641 156.989L244.641 156.989L246.253 156.989Q246.986 156.989 246.986 157.576L246.986 157.576L250.455 174.089Q257.881 160.653 259.542 157.576L259.542 157.576Q259.786 156.989 260.421 156.989L260.421 156.989L262.082 156.989Q262.424 156.989 262.815 157.380Z"/></svg>