<svg width="480px" height="360px" xmlns="http://www.w3.org/2000/svg"><rect x="216" y="124" width="80.5" height="80.5" fill-opacity="0"/><path fill="#F00" d="M262.637 159.987L262.637 159.987Q262.945 160.141 263.048 160.502Q263.151 160.862 262.945 161.170L262.945 161.170Q262.585 161.788 260.939 164.617L260.939 164.617Q260.785 164.926 260.450 165.003Q260.116 165.080 259.807 164.926L259.807 164.926Q259.550 164.772 259.241 164.592Q258.932 164.412 258.598 164.232Q258.264 164.051 258.109 163.949L258.109 163.949Q257.646 163.691 257.132 163.331L257.132 163.331L255.588 162.251L255.743 164.154Q255.794 164.720 255.794 165.286L255.794 165.286L255.794 167.241Q255.794 167.447 255.666 167.653Q255.537 167.859 255.357 167.961Q255.177 168.064 254.920 168.064L254.920 168.064L250.907 168.064Q250.598 168.064 250.341 167.833Q250.084 167.601 250.084 167.241L250.084 167.241L250.084 165.286Q250.084 164.772 250.135 164.154L250.135 164.154L250.289 162.251L248.695 163.331Q248.232 163.640 247.768 163.949L247.768 163.949Q246.740 164.514 246.071 164.926L246.071 164.926Q245.762 165.080 245.402 165.003Q245.042 164.926 244.887 164.617L244.887 164.617Q244.527 163.949 242.881 161.119L242.881 161.119Q242.727 160.810 242.804 160.476Q242.881 160.141 243.190 159.987L243.190 159.987Q243.395 159.884 244.887 159.010L244.887 159.010Q245.350 158.752 245.916 158.495L245.916 158.495L247.614 157.672L245.916 156.849Q245.402 156.592 244.887 156.283L244.887 156.283Q244.322 155.974 243.190 155.357L243.190 155.357Q242.881 155.151 242.804 154.817Q242.727 154.482 242.881 154.174L242.881 154.174Q243.293 153.505 244.887 150.727L244.887 150.727Q245.042 150.418 245.402 150.315Q245.762 150.212 246.071 150.392Q246.379 150.572 246.997 150.932Q247.614 151.293 247.768 151.395L247.768 151.395Q248.232 151.653 248.695 151.961L248.695 151.961L250.289 153.042L250.135 151.138Q250.084 150.572 250.084 150.006L250.084 150.006L250.084 148.051Q250.084 147.743 250.341 147.486Q250.598 147.228 250.907 147.228L250.907 147.228L254.920 147.228Q255.280 147.228 255.537 147.486Q255.794 147.743 255.794 148.051L255.794 148.051L255.794 150.006Q255.794 150.624 255.743 151.138L255.743 151.138L255.588 153.042L257.132 151.961Q257.646 151.653 258.109 151.395L258.109 151.395Q259.087 150.830 259.807 150.418L259.807 150.418Q260.116 150.212 260.450 150.315Q260.785 150.418 260.939 150.727L260.939 150.727Q261.350 151.395 262.945 154.174L262.945 154.174Q263.151 154.482 263.048 154.817Q262.945 155.151 262.637 155.357L262.637 155.357Q262.431 155.460 260.939 156.334L260.939 156.334Q260.476 156.592 259.961 156.849L259.961 156.849L258.212 157.672L259.961 158.495Q260.476 158.701 260.939 159.010L260.939 159.010Q261.556 159.370 262.637 159.987Z"/></svg>