<svg width="480px" height="360px" xmlns="http://www.w3.org/2000/svg"><rect x="216" y="124" width="80.5" height="80.5" fill-opacity="0"/><path fill="#F00" d="M248.283 165.749L248.283 165.749Q248.849 181.389 248.849 181.492L248.849 181.492Q248.849 181.749 248.849 181.955L248.849 181.955L248.849 186.431Q248.849 186.791 248.592 187.048Q248.334 187.305 247.974 187.305L247.974 187.305L244.116 187.305Q243.756 187.305 243.498 187.048Q243.241 186.791 243.241 186.431L243.241 186.431L243.241 181.955Q243.241 181.698 243.241 181.492L243.241 181.492Q243.293 180.566 243.524 173.904Q243.756 167.241 243.807 165.749L243.807 165.749Q243.807 165.389 244.064 165.158Q244.322 164.926 244.630 164.926L244.630 164.926L247.460 164.926Q247.666 164.926 247.871 165.029Q248.077 165.132 248.180 165.312Q248.283 165.492 248.283 165.749ZM248.077 155.305Q248.437 155.305 248.695 155.537Q248.952 155.768 248.952 156.129L248.952 156.129L248.952 160.347Q248.952 160.707 248.695 160.965Q248.437 161.222 248.077 161.222L248.077 161.222L244.116 161.222Q243.756 161.222 243.498 160.965Q243.241 160.707 243.241 160.347L243.241 160.347L243.241 156.129Q243.241 155.768 243.498 155.537Q243.756 155.305 244.116 155.305L244.116 155.305L248.077 155.305Z"/></svg>