<svg width="480px" height="360px" xmlns="http://www.w3.org/2000/svg"><rect x="216" y="124" width="80.5" height="80.5" fill-opacity="0"/><path fill="#F00" d="M258.887 156.905Q259.376 156.905 259.670 157.297Q259.963 157.688 259.817 158.128L259.817 158.128Q257.566 164.783 252.673 179.364L252.673 179.364Q252.477 180 251.792 180L251.792 180L249.541 180Q248.905 180 248.661 179.364L248.661 179.364Q247.829 176.869 241.566 158.128L241.566 158.128Q241.419 157.688 241.688 157.297Q241.957 156.905 242.446 156.905L242.446 156.905L244.061 156.905Q244.746 156.905 244.942 157.541L244.942 157.541L250.667 174.618Q255.364 160.673 256.391 157.541L256.391 157.541Q256.636 156.905 257.272 156.905L257.272 156.905L258.887 156.905Z"/></svg>