<svg width="480px" height="360px" xmlns="http://www.w3.org/2000/svg"><rect x="216" y="124" width="80.5" height="80.5" fill-opacity="0"/><path fill="#F00" d="M261.692 157.185L261.692 157.185Q261.936 157.429 261.692 157.918L261.692 157.918Q261.301 159.383 261.301 160.116L261.301 160.116Q261.301 160.263 260.959 160.653L260.959 160.653Q259.982 161.533 255.878 165.539Q251.774 169.545 248.208 173.111L248.208 173.111L244.592 176.629L257.490 176.629Q257.832 176.629 258.027 176.824Q258.223 177.020 258.223 177.557L258.223 177.557Q258.223 177.850 258.125 178.388Q258.027 178.925 258.027 179.169L258.027 179.169Q258.027 179.560 257.685 179.902L257.685 179.902Q257.588 179.902 257.319 180Q257.050 180.098 256.953 180.098L256.953 180.098L240.928 180.098Q240.586 180.098 240.391 179.927Q240.195 179.756 240.195 179.169L240.195 179.169Q240.586 177.753 240.586 177.020L240.586 177.020Q240.586 176.824 240.928 176.482L240.928 176.482Q241.905 175.554 246.009 171.573Q250.113 167.591 253.679 164.024L253.679 164.024L257.295 160.458L244.592 160.458Q243.860 160.458 243.860 159.579L243.860 159.579Q243.860 159.285 243.957 158.748Q244.055 158.211 244.055 157.918L244.055 157.918Q244.055 157.576 244.397 157.185L244.397 157.185Q244.495 157.185 244.763 157.087Q245.032 156.989 245.130 156.989L245.130 156.989L261.105 156.989Q261.496 156.989 261.692 157.185Z"/></svg>