<svg width="480px" height="360px" xmlns="http://www.w3.org/2000/svg"><rect x="216" y="124" width="80.5" height="80.5" fill-opacity="0"/><path fill="#F00" d="M258.521 177.479L258.521 177.479Q258.727 177.788 258.650 178.148Q258.572 178.508 258.264 178.714L258.264 178.714Q255.023 180.514 251.781 180.514L251.781 180.514Q248.540 180.514 246.688 178.405L246.688 178.405Q244.733 176.244 244.733 172.180L244.733 172.180L244.733 161.531L243.138 161.531Q242.778 161.531 242.521 161.299Q242.264 161.068 242.264 160.707L242.264 160.707L242.264 156.695Q242.264 156.489 242.367 156.283Q242.469 156.077 242.675 155.974Q242.881 155.871 243.138 155.871L243.138 155.871L244.733 155.871L244.733 149.595Q244.733 149.235 244.990 149.003Q245.248 148.772 245.556 148.720L245.556 148.720L249.569 148.720L249.621 148.720Q249.878 148.772 250.084 148.875L250.084 148.875L250.084 148.926L250.084 148.926L250.135 148.926L250.135 148.926Q250.186 148.977 250.212 149.003Q250.238 149.029 250.238 149.029L250.238 149.029L250.238 149.080L250.289 149.080L250.289 149.080L250.289 149.080L250.289 149.132Q250.392 149.286 250.444 149.492L250.444 149.492L250.444 149.492L250.444 149.543Q250.444 149.543 250.444 149.595L250.444 149.595L250.444 155.871L257.080 155.871Q257.389 155.871 257.646 156.103Q257.904 156.334 257.904 156.695L257.904 156.695L257.904 160.707Q257.904 161.068 257.672 161.325Q257.441 161.582 257.080 161.582L257.080 161.582L250.444 161.582L250.444 172.746Q250.444 173.775 251.318 174.367Q252.193 174.958 253.170 174.598L253.170 174.598Q253.582 174.444 254.277 174.161Q254.971 173.878 255.125 173.826L255.125 173.826Q255.743 173.569 256.154 174.135L256.154 174.135Q256.772 175.010 258.521 177.479Z"/></svg>