<svg width="480px" height="360px" xmlns="http://www.w3.org/2000/svg"><rect x="216" y="124" width="80.5" height="80.5" fill-opacity="0"/><path fill="#F00" d="M255.691 148Q259.859 148 262.765 150.907Q265.672 153.814 265.672 157.929L265.672 157.929L265.672 158.598Q265.672 162.714 262.765 165.621Q259.859 168.527 255.691 168.527L255.691 168.527L249.775 168.527L249.775 179.125Q249.775 179.486 249.518 179.743Q249.260 180 248.900 180L248.900 180L244.939 180Q244.579 180 244.322 179.743Q244.064 179.486 244.064 179.125L244.064 179.125L244.064 148.823Q244.064 148.463 244.322 148.232Q244.579 148 244.939 148L244.939 148L255.691 148ZM260.013 158.598L260.013 158.598L260.013 157.929Q260.013 156.180 258.752 154.920Q257.492 153.659 255.691 153.659L255.691 153.659L249.775 153.659L249.775 162.868L255.691 162.868Q257.492 162.868 258.752 161.608Q260.013 160.347 260.013 158.598Z"/></svg>