<svg width="480px" height="360px" xmlns="http://www.w3.org/2000/svg"><rect x="216" y="124" width="80.5" height="80.5" fill-opacity="0"/><path fill="#F00" d="M269.994 163.228L269.994 163.228Q269.994 163.691 269.994 164L269.994 164Q269.994 164.309 269.994 164.772L269.994 164.772Q269.994 173.621 265.878 177.376L265.878 177.376Q262.585 180.360 256.566 180.514L256.566 180.514L256.463 180.514Q250.444 180.360 247.151 177.376L247.151 177.376Q243.035 173.621 243.035 164.772L243.035 164.772Q243.035 164.309 243.035 164L243.035 164Q243.035 163.640 243.035 163.228L243.035 163.228Q243.035 154.379 247.151 150.624L247.151 150.624Q250.444 147.588 256.463 147.486L256.463 147.486L256.566 147.486Q262.585 147.588 265.878 150.624L265.878 150.624Q269.994 154.379 269.994 163.228ZM264.283 164.772L264.283 164.772Q264.283 164.412 264.283 164.103L264.283 164.103L264.283 163.897Q264.283 163.640 264.283 163.228L264.283 163.228Q264.283 160.090 263.820 158.084Q263.357 156.077 262.019 154.842L262.019 154.842Q260.322 153.299 256.514 153.196L256.514 153.196Q252.707 153.299 250.958 154.842L250.958 154.842Q249.621 156.077 249.183 158.084Q248.746 160.090 248.746 163.228L248.746 163.228Q248.746 163.588 248.746 163.897L248.746 163.897L248.746 164.103Q248.746 164.360 248.746 164.772L248.746 164.772Q248.746 166.830 248.875 168.219Q249.003 169.608 249.518 170.945Q250.032 172.283 250.958 173.158L250.958 173.158Q252.707 174.701 256.514 174.804L256.514 174.804Q260.322 174.701 262.019 173.158L262.019 173.158Q262.945 172.283 263.460 170.945Q263.974 169.608 264.129 168.219Q264.283 166.830 264.283 164.772Z"/></svg>