<svg width="480px" height="360px" xmlns="http://www.w3.org/2000/svg"><rect x="216" y="124" width="80.5" height="80.5" fill-opacity="0"/><path fill="#F00" d="M268.043 148.049Q268.385 148.049 268.580 148.220Q268.776 148.391 268.776 148.928L268.776 148.928Q268.385 150.394 268.385 151.127L268.385 151.127Q268.336 151.224 268.238 151.395Q268.140 151.566 268.043 151.664L268.043 151.664L243.518 176.580L262.962 176.580Q263.695 176.580 263.695 177.508L263.695 177.508Q263.695 177.753 263.597 178.315Q263.499 178.876 263.499 179.121L263.499 179.121Q263.499 179.511 263.108 179.853L263.108 179.853Q263.060 179.853 262.766 179.951Q262.473 180.049 262.424 180.049L262.424 180.049L239.853 180.049Q239.511 180.049 239.316 179.853Q239.121 179.658 239.121 179.121L239.121 179.121Q239.511 177.655 239.511 176.922L239.511 176.922Q239.609 176.873 239.682 176.678Q239.756 176.482 239.853 176.385L239.853 176.385L264.232 151.469L244.934 151.469Q244.592 151.469 244.397 151.298Q244.202 151.127 244.202 150.589L244.202 150.589Q244.202 150.296 244.299 149.759Q244.397 149.221 244.397 148.928L244.397 148.928Q244.397 148.586 244.788 148.195L244.788 148.195Q244.837 148.195 245.130 148.122Q245.423 148.049 245.472 148.049L245.472 148.049L268.043 148.049Z"/></svg>