<svg width="480px" height="360px" xmlns="http://www.w3.org/2000/svg"><rect x="216" y="124" width="80.5" height="80.5" fill-opacity="0"/><path fill="#F00" d="M258.740 158.813L258.740 158.813Q259.034 159.009 259.156 159.376Q259.278 159.743 259.083 160.086L259.083 160.086Q258.936 160.281 258.667 160.722Q258.398 161.162 258.300 161.407L258.300 161.407Q258.104 161.700 257.737 161.823Q257.370 161.945 257.028 161.749L257.028 161.749L255.804 161.015L252.330 158.765L252.526 162.924L252.526 164.343Q252.526 164.734 252.257 165.003Q251.988 165.272 251.596 165.272L251.596 165.272L250.080 165.272Q249.688 165.272 249.419 165.003Q249.150 164.734 249.150 164.343L249.150 164.343L249.150 162.924L249.346 158.765L245.872 161.015Q245.235 161.407 244.648 161.749L244.648 161.749Q244.306 161.945 243.939 161.823Q243.572 161.700 243.376 161.407L243.376 161.407Q243.278 161.162 243.009 160.722Q242.740 160.281 242.642 160.086L242.642 160.086Q242.446 159.743 242.544 159.376Q242.642 159.009 242.985 158.813L242.985 158.813L244.159 158.080L247.878 156.220L244.159 154.312Q243.523 153.920 242.985 153.627L242.985 153.627Q242.642 153.431 242.544 153.040Q242.446 152.648 242.642 152.355L242.642 152.355Q242.740 152.110 243.009 151.670Q243.278 151.229 243.376 151.034L243.376 151.034Q243.572 150.691 243.939 150.593Q244.306 150.495 244.648 150.691L244.648 150.691L245.872 151.376L249.346 153.627L249.150 149.468L249.150 148.098Q249.150 147.706 249.419 147.437Q249.688 147.168 250.080 147.168L250.080 147.168L251.596 147.168Q251.988 147.168 252.257 147.437Q252.526 147.706 252.526 148.098L252.526 148.098L252.526 149.468L252.330 153.627L255.804 151.376Q256.489 150.985 257.028 150.691L257.028 150.691Q257.370 150.495 257.737 150.593Q258.104 150.691 258.300 151.034L258.300 151.034Q258.398 151.229 258.667 151.670Q258.936 152.110 259.083 152.355L259.083 152.355Q259.278 152.648 259.156 153.040Q259.034 153.431 258.740 153.627L258.740 153.627L257.517 154.312L253.798 156.220L257.517 158.080Q258.153 158.471 258.740 158.813Z"/></svg>