<svg width="480px" height="360px" xmlns="http://www.w3.org/2000/svg"><rect x="216" y="124" width="80.5" height="80.5" fill-opacity="0"/><path fill="#F00" d="M241.661 175.750L243.273 175.750Q243.713 175.750 243.933 176.018Q244.153 176.287 244.006 176.824L244.006 176.824L243.469 180.440Q243.273 181.466 241.466 183.713L241.466 183.713Q241.124 184.104 240.733 184.104L240.733 184.104Q240.586 184.104 240.195 183.713L240.195 183.713Q239.951 183.224 240.391 182.834L240.391 182.834Q241.612 181.563 241.856 180.293L241.856 180.293L241.856 180.098L240.928 180.098Q240.195 180.098 240.195 179.169L240.195 179.169Q240.195 178.095 240.586 176.629L240.586 176.629Q240.586 176.238 240.904 175.994Q241.221 175.750 241.661 175.750L241.661 175.750ZM245.130 156.452L246.742 156.452Q246.889 156.452 247.011 156.550Q247.133 156.647 247.231 156.769Q247.328 156.892 247.402 157.063Q247.475 157.234 247.475 157.380L247.475 157.380Q247.475 158.455 247.133 159.921L247.133 159.921Q247.133 160.311 246.791 160.556Q246.449 160.800 246.009 160.800L246.009 160.800L244.397 160.800Q243.664 160.800 243.664 159.921L243.664 159.921Q243.664 158.797 244.006 157.380L244.006 157.380Q244.006 156.989 244.348 156.721Q244.690 156.452 245.130 156.452L245.130 156.452Z"/></svg>