<svg width="480px" height="360px" xmlns="http://www.w3.org/2000/svg"><rect x="216" y="124" width="80.5" height="80.5" fill-opacity="0"/><path fill="#F00" d="M270.302 159.730Q270.920 159.730 271.125 160.270Q271.331 160.810 270.868 161.222L270.868 161.222L263.048 168.013Q267.627 171.974 270.199 174.186L270.199 174.186Q270.662 174.598 270.457 175.164Q270.251 175.730 269.633 175.730L269.633 175.730L263.563 175.730Q263.254 175.730 262.997 175.524L262.997 175.524Q260.579 173.415 257.132 170.431L257.132 170.431Q256.823 170.174 256.823 169.762L256.823 169.762L256.823 166.264Q256.823 165.852 257.132 165.595L257.132 165.595Q259.447 163.588 263.666 159.936L263.666 159.936Q263.923 159.730 264.232 159.730L264.232 159.730L270.302 159.730ZM249.878 159.730L255.949 159.730Q256.566 159.730 256.772 160.296Q256.977 160.862 256.514 161.222L256.514 161.222L248.695 168.013Q253.273 171.974 255.846 174.186L255.846 174.186Q256.309 174.598 256.103 175.164Q255.897 175.730 255.280 175.730L255.280 175.730L249.209 175.730Q248.900 175.730 248.643 175.524L248.643 175.524Q246.225 173.415 242.778 170.431L242.778 170.431Q242.469 170.174 242.469 169.762L242.469 169.762L242.469 166.264Q242.469 165.852 242.778 165.595L242.778 165.595Q245.093 163.588 249.312 159.936L249.312 159.936Q249.569 159.730 249.878 159.730L249.878 159.730Z"/></svg>