<svg width="480px" height="360px" xmlns="http://www.w3.org/2000/svg"><rect x="216" y="124" width="80.5" height="80.5" fill-opacity="0"/><path fill="#F00" d="M264.514 163.168L264.514 163.168Q264.514 163.511 264.514 164L264.514 164Q264.514 164.440 264.514 164.832L264.514 164.832Q264.514 175.352 260.061 178.679L260.061 178.679Q257.713 180.440 254.043 180.538L254.043 180.538L253.945 180.538Q250.324 180.440 247.927 178.679L247.927 178.679Q243.474 175.352 243.474 164.832L243.474 164.832Q243.474 164.343 243.474 164L243.474 164Q243.474 163.511 243.474 163.168L243.474 163.168Q243.474 152.648 247.927 149.321L247.927 149.321Q250.324 147.560 253.945 147.462L253.945 147.462L254.043 147.462Q257.713 147.560 260.061 149.321L260.061 149.321Q264.514 152.648 264.514 163.168ZM261.138 164.832L261.138 164.832Q261.138 164.489 261.138 164.049L261.138 164.049L261.138 163.951Q261.138 163.511 261.138 163.168L261.138 163.168Q261.138 160.820 260.966 159.131Q260.795 157.443 260.355 155.829Q259.914 154.214 259.131 153.187Q258.349 152.159 257.076 151.547Q255.804 150.936 253.994 150.838L253.994 150.838Q252.232 150.936 250.936 151.547Q249.639 152.159 248.856 153.187Q248.073 154.214 247.633 155.829Q247.193 157.443 247.046 159.131Q246.899 160.820 246.899 163.168L246.899 163.168Q246.899 163.609 246.899 163.951L246.899 163.951L246.899 164.049Q246.899 164.489 246.899 164.832L246.899 164.832Q246.899 167.180 247.046 168.869Q247.193 170.557 247.633 172.171Q248.073 173.786 248.856 174.813Q249.639 175.841 250.936 176.453Q252.232 177.064 253.994 177.162L253.994 177.162Q255.804 177.064 257.076 176.453Q258.349 175.841 259.131 174.813Q259.914 173.786 260.355 172.171Q260.795 170.557 260.966 168.869Q261.138 167.180 261.138 164.832Z"/></svg>