<svg width="480px" height="360px" xmlns="http://www.w3.org/2000/svg"><rect x="216" y="124" width="80.5" height="80.5" fill-opacity="0"/><path fill="#F00" d="M241.661 175.750L243.322 175.750Q243.762 175.750 243.982 175.994Q244.202 176.238 244.055 176.629L244.055 176.629Q244.055 177.753 243.664 179.169L243.664 179.169Q243.664 179.560 243.347 179.829Q243.029 180.098 242.589 180.098L242.589 180.098L240.977 180.098Q240.244 180.098 240.244 179.169L240.244 179.169Q240.244 178.095 240.586 176.629L240.586 176.629Q240.586 176.238 240.928 175.994Q241.270 175.750 241.661 175.750L241.661 175.750ZM245.130 156.452L246.791 156.452Q247.182 156.452 247.402 156.769Q247.621 157.087 247.475 157.380L247.475 157.380Q247.475 158.455 247.133 159.921L247.133 159.921Q247.133 160.311 246.791 160.556Q246.449 160.800 246.058 160.800L246.058 160.800L244.397 160.800Q243.664 160.800 243.664 159.921L243.664 159.921Q243.664 158.797 244.055 157.380L244.055 157.380Q244.055 156.989 244.373 156.721Q244.690 156.452 245.130 156.452L245.130 156.452Z"/></svg>