<svg version="1.1" xmlns="http://www.w3.org/2000/svg" xmlns:xlink="http://www.w3.org/1999/xlink" width="28.992" height="27.36342" viewBox="0,0,28.992,27.36342"><g transform="translate(-305.50399,-166.31829)"><g data-paper-data="{&quot;isPaintingLayer&quot;:true}" fill="#ff7319" fill-rule="nonzero" stroke="none" stroke-width="1" stroke-linecap="butt" stroke-linejoin="miter" stroke-miterlimit="10" stroke-dasharray="" stroke-dashoffset="0" style="mix-blend-mode: normal"><path d="M334.49599,184.17906c0,7.18431 -6.49645,9.50265 -14.496,9.50265c-7.99955,0 -14.496,-2.29287 -14.496,-9.50265c0,-3.38834 0.9681,-7.23526 3.03167,-10.39432l-1.70691,-5.70668c-0.33119,-1.09548 0.76429,-2.08905 1.78334,-1.65596l5.63026,2.34382c1.65596,-0.73881 3.56668,-1.17191 5.75764,-1.17191c2.14001,0 4.05072,0.4331 5.70669,1.19738l5.6812,-2.36929c1.01905,-0.40762 2.11453,0.58595 1.78334,1.65596l-1.73239,5.78311c2.06358,3.1081 3.05715,6.95503 3.05715,10.31789z"/></g></g></svg>