<svg width="480px" height="360px" xmlns="http://www.w3.org/2000/svg"><rect x="216" y="124" width="80.5" height="80.5" fill-opacity="0"/><path fill="#F00" d="M270.971 178.817L270.971 178.817Q271.125 179.280 270.868 179.640Q270.611 180 270.148 180L270.148 180L265.878 180Q265.312 180 265.106 179.434L265.106 179.434L262.379 172.334L249.929 172.334Q247.871 177.685 247.203 179.434L247.203 179.434Q246.997 180 246.431 180L246.431 180L242.161 180Q241.698 180 241.441 179.640Q241.183 179.280 241.338 178.817L241.338 178.817Q242.315 176.296 247.228 163.357Q252.141 150.418 252.913 148.514L252.913 148.514Q253.119 148 253.685 148L253.685 148L258.624 148Q259.190 148 259.395 148.514L259.395 148.514Q260.064 150.264 265.003 163.177Q269.942 176.090 270.971 178.817ZM256.154 155.974L252.090 166.624L260.219 166.624L256.154 155.974Z"/></svg>