<svg width="480px" height="360px" xmlns="http://www.w3.org/2000/svg"><rect x="216" y="124" width="80.5" height="80.5" fill-opacity="0"/><path fill="#F00" d="M251.139 176.629L257.490 176.629Q257.783 176.629 257.979 176.898Q258.174 177.166 258.076 177.557L258.076 177.557Q258.076 177.802 257.979 178.363Q257.881 178.925 257.881 179.169L257.881 179.169Q257.881 179.560 257.539 179.829Q257.197 180.098 256.757 180.098L256.757 180.098L240.782 180.098Q240.049 180.098 240.049 179.169L240.049 179.169Q240.049 178.925 240.147 178.363Q240.244 177.802 240.244 177.557L240.244 177.557Q240.244 177.166 240.562 176.898Q240.879 176.629 241.319 176.629L241.319 176.629L247.670 176.629L252.067 152.104Q248.403 154.107 246.791 154.986L246.791 154.986Q246.595 155.182 246.058 155.182Q245.521 155.182 245.521 154.840L245.521 154.840Q245.423 154.644 245.227 154.180Q245.032 153.716 244.983 153.569L244.983 153.569Q244.739 153.081 245.521 152.299L245.521 152.299Q245.960 152.006 246.693 151.591Q247.426 151.176 248.183 150.736Q248.940 150.296 249.673 149.856Q250.406 149.417 251.066 149.026Q251.725 148.635 252.067 148.440L252.067 148.440Q252.800 148.098 253.337 148.098L253.337 148.098L255.145 148.098Q255.682 148.098 255.878 148.269Q256.073 148.440 256.073 149.026L256.073 149.026L251.139 176.629Z"/></svg>