<svg width="480px" height="360px" xmlns="http://www.w3.org/2000/svg"><rect x="216" y="124" width="80.5" height="80.5" fill-opacity="0"/><path fill="#F00" d="M248.416 152.599L248.416 152.599Q248.758 153.089 248.514 153.578Q248.269 154.067 247.682 154.067L247.682 154.067L246.606 154.067Q246.165 154.067 245.872 153.774L245.872 153.774Q245.578 153.382 241.566 148.685L241.566 148.685Q241.223 148.245 241.468 147.706Q241.713 147.168 242.300 147.168L242.300 147.168L244.012 147.168Q244.502 147.168 244.795 147.560L244.795 147.560Q245.089 147.951 245.725 148.832Q246.361 149.713 247.168 150.862Q247.976 152.012 248.416 152.599Z"/></svg>