<svg width="480px" height="360px" xmlns="http://www.w3.org/2000/svg"><rect x="216" y="124" width="80.5" height="80.5" fill-opacity="0"/><path fill="#F00" d="M264.465 170.508L264.465 170.508Q264.465 170.703 264.465 170.948L264.465 170.948Q264.465 171.193 264.465 171.388L264.465 171.388Q264.465 175.743 262.214 177.945L262.214 177.945Q259.621 180.440 253.847 180.538L253.847 180.538L253.798 180.538Q247.976 180.440 245.431 177.945L245.431 177.945Q243.131 175.743 243.131 171.388L243.131 171.388Q243.131 171.193 243.131 170.948L243.131 170.948Q243.131 170.703 243.131 170.508L243.131 170.508Q243.131 168.795 243.621 167.401Q244.110 166.006 244.795 165.199Q245.480 164.391 246.165 163.804Q246.850 163.217 247.291 163.021L247.291 163.021L247.780 162.826Q247.731 162.777 247.609 162.703Q247.486 162.630 247.144 162.361Q246.801 162.092 246.483 161.774Q246.165 161.456 245.774 160.893Q245.382 160.330 245.089 159.719Q244.795 159.107 244.599 158.251Q244.404 157.394 244.404 156.465L244.404 156.465Q244.404 156.269 244.453 156.073L244.453 156.073Q244.404 155.682 244.404 155.682L244.404 155.682Q244.404 151.768 246.459 149.761L246.459 149.761Q248.709 147.511 253.798 147.462L253.798 147.462L253.847 147.462Q258.887 147.511 261.187 149.761L261.187 149.761Q263.193 151.768 263.193 155.682L263.193 155.682Q263.193 155.878 263.193 156.073L263.193 156.073Q263.193 156.465 263.193 156.465L263.193 156.465Q263.193 157.786 262.850 158.887Q262.508 159.988 262.018 160.697Q261.529 161.407 261.015 161.896Q260.502 162.385 260.159 162.630L260.159 162.630L259.817 162.826Q260.012 162.875 260.330 163.021Q260.648 163.168 261.456 163.804Q262.263 164.440 262.875 165.223Q263.486 166.006 263.976 167.401Q264.465 168.795 264.465 170.508ZM247.829 155.682L247.829 155.682Q247.829 155.927 247.829 156.024L247.829 156.024L247.829 156.171Q247.829 156.269 247.829 156.465L247.829 156.465Q247.829 158.960 248.856 159.988L248.856 159.988Q250.128 161.260 253.798 161.358L253.798 161.358Q257.468 161.260 258.789 159.988L258.789 159.988Q259.768 158.960 259.768 156.465L259.768 156.465Q259.768 156.318 259.768 156.171L259.768 156.171L259.768 156.024Q259.768 155.682 259.768 155.682L259.768 155.682Q259.768 153.187 258.789 152.208L258.789 152.208Q257.468 150.887 253.798 150.838L253.798 150.838L253.700 150.838Q250.128 150.936 248.856 152.208L248.856 152.208Q247.829 153.187 247.829 155.682ZM261.089 171.388L261.089 171.388Q261.089 171.242 261.089 170.997L261.089 170.997L261.089 170.850Q261.089 170.654 261.089 170.508L261.089 170.508Q261.089 167.572 259.817 166.349L259.817 166.349Q258.202 164.832 253.798 164.734L253.798 164.734Q249.394 164.832 247.780 166.349L247.780 166.349Q246.557 167.572 246.557 170.508L246.557 170.508Q246.557 170.654 246.557 170.850L246.557 170.850L246.557 170.997Q246.557 171.242 246.557 171.388L246.557 171.388Q246.557 174.324 247.780 175.498L247.780 175.498Q249.394 177.064 253.798 177.113L253.798 177.113Q258.202 177.064 259.817 175.498L259.817 175.498Q261.089 174.324 261.089 171.388Z"/></svg>