<svg width="480px" height="360px" xmlns="http://www.w3.org/2000/svg"><rect x="216" y="124" width="80.5" height="80.5" fill-opacity="0"/><path fill="#F00" d="M264.183 150.638L264.183 150.638Q265.844 152.837 265.258 157.380L265.258 157.380Q264.525 164.708 262.351 169.447Q260.177 174.186 257.246 176.824L257.246 176.824Q255.243 178.583 252.873 179.511Q250.504 180.440 248.989 180.611Q247.475 180.782 246.156 180.635L246.156 180.635Q246.009 180.635 245.618 180.293L245.618 180.293Q245.618 180.244 245.594 180.073Q245.569 179.902 245.569 179.756Q245.569 179.609 245.618 179.560L245.618 179.560Q245.814 179.169 246.156 178.095L246.156 178.095Q246.547 177.362 247.279 177.362L247.279 177.362Q251.774 177.362 255.096 174.479L255.096 174.479Q256.562 173.307 258.150 170.815Q259.737 168.324 260.373 165.344L260.373 165.344Q257.881 168.275 252.702 168.617L252.702 168.617Q250.846 168.763 249.136 168.324Q247.426 167.884 246.034 166.858Q244.641 165.832 244.006 163.829Q243.371 161.826 243.811 159.188L243.811 159.188Q244.006 158.992 244.006 158.650L244.006 158.650L244.006 158.113Q244.837 153.227 247.426 150.638L247.426 150.638Q250.846 147.560 256.366 147.560L256.366 147.560Q262.180 147.805 264.183 150.638ZM261.643 158.455L261.643 157.918Q261.936 156.354 261.911 155.035Q261.887 153.716 261.252 152.837L261.252 152.837Q259.737 150.980 255.829 150.980L255.829 150.980Q251.432 150.980 249.624 152.837L249.624 152.837Q248.061 154.156 247.426 157.918L247.426 157.918L247.426 158.650L247.426 159.188Q246.791 162.852 247.817 164.269L247.817 164.269Q249.331 166.076 253.289 166.076L253.289 166.076Q257.637 166.076 259.444 164.269L259.444 164.269Q261.008 162.950 261.643 159.188L261.643 159.188L261.643 158.455Z"/></svg>