<svg width="480px" height="360px" xmlns="http://www.w3.org/2000/svg"><rect x="216" y="124" width="80.5" height="80.5" fill-opacity="0"/><path fill="#F00" d="M261.969 156.661L264.856 156.661Q265.248 156.661 265.517 156.930Q265.786 157.199 265.786 157.590L265.786 157.590L265.786 159.107Q265.786 159.498 265.517 159.768Q265.248 160.037 264.856 160.037L264.856 160.037L261.578 160.037L260.648 167.327L263.829 167.327Q264.220 167.327 264.489 167.621Q264.758 167.914 264.758 168.257L264.758 168.257L264.758 169.823Q264.758 170.214 264.489 170.483Q264.220 170.752 263.829 170.752L263.829 170.752L260.257 170.752Q259.474 176.917 259.229 179.168L259.229 179.168Q259.180 179.560 258.911 179.780Q258.642 180 258.300 180L258.300 180L256.734 180Q256.294 180 256.024 179.682Q255.755 179.364 255.804 178.972L255.804 178.972L256.832 170.752L249.639 170.752Q248.856 176.917 248.612 179.168L248.612 179.168Q248.563 179.560 248.294 179.780Q248.024 180 247.682 180L247.682 180L246.116 180Q245.676 180 245.407 179.682Q245.138 179.364 245.187 178.972L245.187 178.972L246.214 170.752L243.865 170.752Q243.474 170.752 243.205 170.483Q242.936 170.214 242.936 169.823L242.936 169.823L242.936 168.257Q242.936 167.914 243.205 167.621Q243.474 167.327 243.865 167.327L243.865 167.327L246.606 167.327L247.535 160.037L244.893 160.037Q244.502 160.037 244.232 159.768Q243.963 159.498 243.963 159.107L243.963 159.107L243.963 157.590Q243.963 157.199 244.232 156.930Q244.502 156.661 244.893 156.661L244.893 156.661L247.927 156.661Q248.612 150.936 248.905 148.783L248.905 148.783Q248.954 148.440 249.199 148.220Q249.443 148 249.835 148L249.835 148L251.352 148Q251.792 148 252.061 148.294Q252.330 148.587 252.281 149.028L252.281 149.028L251.352 156.661L258.544 156.661Q259.229 150.936 259.523 148.783L259.523 148.783Q259.572 148.440 259.817 148.220Q260.061 148 260.453 148L260.453 148L261.969 148Q262.410 148 262.679 148.294Q262.948 148.587 262.899 149.028L262.899 149.028L261.969 156.661ZM250.031 167.327L257.223 167.327L258.104 160.037L250.960 160.037L250.031 167.327Z"/></svg>