<svg width="480px" height="360px" xmlns="http://www.w3.org/2000/svg"><rect x="216" y="124" width="80.5" height="80.5" fill-opacity="0"/><path fill="#F00" d="M257.286 155.666L257.286 155.666Q264.489 155.871 264.489 167.550L264.489 167.550L264.489 179.125Q264.489 179.486 264.232 179.743Q263.974 180 263.666 180L263.666 180L259.653 180Q259.293 180 259.061 179.743Q258.830 179.486 258.830 179.125L258.830 179.125L258.830 167.550Q258.830 164.875 257.775 163.151Q256.720 161.428 254.868 161.376L254.868 161.376Q253.685 161.376 252.682 161.788Q251.678 162.199 251.035 162.920Q250.392 163.640 250.032 164.180Q249.672 164.720 249.466 165.286L249.466 165.286L249.466 179.125Q249.466 179.486 249.209 179.743Q248.952 180 248.592 180L248.592 180L244.630 180Q244.270 180 244.013 179.743Q243.756 179.486 243.756 179.125L243.756 179.125L243.756 157.055Q243.756 156.695 244.013 156.437Q244.270 156.180 244.630 156.180L244.630 156.180L248.592 156.180Q248.952 156.180 249.209 156.437Q249.466 156.695 249.466 157.055L249.466 157.055L249.466 158.855Q252.759 155.563 257.286 155.666Z"/></svg>