<svg width="480px" height="360px" xmlns="http://www.w3.org/2000/svg"><rect x="216" y="124" width="80.5" height="80.5" fill-opacity="0"/><path fill="#F00" d="M263.563 148Q263.923 148 264.180 148.232Q264.437 148.463 264.437 148.823L264.437 148.823L264.437 152.424Q264.437 152.579 264.386 152.733L264.386 152.733Q264.232 153.042 253.531 179.486L253.531 179.486Q253.325 180 252.759 180L252.759 180L248.437 180Q247.974 180 247.717 179.614Q247.460 179.228 247.666 178.817L247.666 178.817L257.852 153.659L243.190 153.659Q242.830 153.659 242.572 153.428Q242.315 153.196 242.315 152.836L242.315 152.836L242.315 148.823Q242.315 148.463 242.572 148.232Q242.830 148 243.190 148L243.190 148L263.563 148Z"/></svg>