<svg width="480px" height="360px" xmlns="http://www.w3.org/2000/svg"><rect x="216" y="124" width="80.5" height="80.5" fill-opacity="0"/><path fill="#F00" d="M260.373 162.070L260.373 162.070Q260.373 162.656 260.006 163.023Q259.640 163.389 259.102 163.389L259.102 163.389L257.490 163.389Q257.050 163.389 256.757 162.803L256.757 162.803L253.289 151.176Q247.279 160.458 245.863 162.803L245.863 162.803Q245.569 163.389 244.934 163.389L244.934 163.389L243.322 163.389Q242.931 163.389 242.589 162.998L242.589 162.998Q242.589 162.461 242.736 162.070L242.736 162.070Q248.208 153.472 252.018 147.707L252.018 147.707Q252.311 147.169 252.947 147.169L252.947 147.169L255.487 147.169Q255.927 147.169 256.220 147.707L256.220 147.707Q258.174 154.156 260.373 162.070Z"/></svg>