<svg width="480px" height="360px" xmlns="http://www.w3.org/2000/svg"><rect x="216" y="124" width="80.5" height="80.5" fill-opacity="0"/><path fill="#F00" d="M242.980 167.737L262.620 167.737Q263.011 167.737 263.255 168.055Q263.499 168.373 263.353 168.617L263.353 168.617Q263.353 168.861 263.304 169.154Q263.255 169.447 263.206 169.740Q263.157 170.034 263.157 170.278L263.157 170.278Q263.157 170.669 262.840 170.937Q262.522 171.206 262.082 171.206L262.082 171.206L242.443 171.206Q241.710 171.206 241.710 170.278L241.710 170.278Q241.710 169.985 241.808 169.447Q241.905 168.910 241.905 168.617L241.905 168.617Q241.905 168.226 242.247 167.982Q242.589 167.737 242.980 167.737L242.980 167.737ZM244.641 158.650L264.281 158.650Q265.014 158.650 265.014 159.530L265.014 159.530Q265.014 159.823 264.916 160.360Q264.818 160.898 264.818 161.191L264.818 161.191Q264.818 161.582 264.476 161.826Q264.134 162.070 263.744 162.070L263.744 162.070L244.104 162.070Q243.371 162.070 243.371 161.191L243.371 161.191Q243.371 160.947 243.420 160.653Q243.469 160.360 243.493 160.067Q243.518 159.774 243.518 159.530L243.518 159.530Q243.518 159.139 243.860 158.895Q244.202 158.650 244.641 158.650L244.641 158.650Z"/></svg>