<svg width="480px" height="360px" xmlns="http://www.w3.org/2000/svg"><rect x="216" y="124" width="80.5" height="80.5" fill-opacity="0"/><path fill="#F00" d="M254.728 185.138L254.728 185.138Q255.511 185.284 255.511 186.067L255.511 186.067L255.511 187.584Q255.511 187.976 255.168 188.269Q254.826 188.563 254.385 188.465L254.385 188.465Q251.303 187.878 249.835 186.312L249.835 186.312Q247.486 183.670 247.486 180.636L247.486 180.636L247.486 173.688Q247.486 171.535 245.969 170.018L245.969 170.018Q244.795 168.795 243.083 168.550L243.083 168.550Q242.936 168.502 242.789 168.428Q242.642 168.355 242.544 168.232Q242.446 168.110 242.373 167.963Q242.300 167.817 242.300 167.621L242.300 167.621Q242.300 167.131 242.300 165.908L242.300 165.908Q242.300 165.566 242.520 165.297Q242.740 165.028 243.083 164.979L243.083 164.979Q244.991 164.734 246.239 163.266Q247.486 161.798 247.486 159.841L247.486 159.841L247.486 154.850Q247.486 153.529 247.853 152.404Q248.220 151.278 248.807 150.495Q249.394 149.713 250.080 149.101Q250.765 148.489 251.596 148.073Q252.428 147.657 253.064 147.437Q253.700 147.217 254.336 147.070L254.336 147.070Q254.777 146.972 255.144 147.242Q255.511 147.511 255.511 147.951L255.511 147.951Q255.511 148.489 255.511 149.517L255.511 149.517Q255.511 150.202 254.826 150.398L254.826 150.398Q254.190 150.544 253.627 150.838Q253.064 151.131 252.404 151.621Q251.743 152.110 251.327 152.942Q250.911 153.774 250.911 154.850L250.911 154.850L250.911 159.841Q250.911 161.945 249.982 163.755Q249.052 165.566 247.437 166.789L247.437 166.789Q247.927 167.131 248.367 167.572L248.367 167.572Q250.911 170.116 250.911 173.688L250.911 173.688L250.911 180.636Q250.911 182.446 252.232 183.865L252.232 183.865Q253.162 184.844 254.728 185.138Z"/></svg>