<svg width="480px" height="360px" xmlns="http://www.w3.org/2000/svg"><rect x="216" y="124" width="80.5" height="80.5" fill-opacity="0"/><path fill="#F00" d="M243.344 174.084L247.305 174.084Q247.666 174.084 247.923 174.315Q248.180 174.547 248.180 174.907L248.180 174.907L248.180 179.125Q248.180 179.486 247.923 179.743Q247.666 180 247.305 180L247.305 180L243.344 180Q242.984 180 242.727 179.743Q242.469 179.486 242.469 179.125L242.469 179.125L242.469 174.907Q242.469 174.547 242.727 174.315Q242.984 174.084 243.344 174.084L243.344 174.084ZM247.305 153.762Q247.666 153.762 247.923 153.994Q248.180 154.225 248.180 154.585L248.180 154.585L248.180 158.804Q248.180 159.164 247.923 159.421Q247.666 159.678 247.305 159.678L247.305 159.678L243.344 159.678Q242.984 159.678 242.727 159.421Q242.469 159.164 242.469 158.804L242.469 158.804L242.469 154.585Q242.469 154.225 242.727 153.994Q242.984 153.762 243.344 153.762L243.344 153.762L247.305 153.762Z"/></svg>