<svg width="480px" height="360px" xmlns="http://www.w3.org/2000/svg"><rect x="216" y="124" width="80.5" height="80.5" fill-opacity="0"/><path fill="#F00" d="M247.339 176.575L259.817 176.575Q260.208 176.575 260.477 176.844Q260.746 177.113 260.746 177.505L260.746 177.505L260.746 179.070Q260.746 179.462 260.477 179.731Q260.208 180 259.865 180L259.865 180L244.844 180Q244.453 180 244.183 179.731Q243.914 179.462 243.914 179.070L243.914 179.070L243.914 148.930Q243.914 148.538 244.183 148.269Q244.453 148 244.844 148L244.844 148L246.410 148Q246.752 148 247.046 148.269Q247.339 148.538 247.339 148.930L247.339 148.930L247.339 176.575Z"/></svg>