<svg width="480px" height="360px" xmlns="http://www.w3.org/2000/svg"><rect x="216" y="124" width="80.5" height="80.5" fill-opacity="0"/><path fill="#F00" d="M242.936 175.645L244.502 175.645Q244.844 175.645 245.138 175.939Q245.431 176.232 245.431 176.575L245.431 176.575L245.431 179.070Q245.431 179.462 245.138 179.731Q244.844 180 244.502 180L244.502 180L242.936 180Q242.544 180 242.275 179.731Q242.006 179.462 242.006 179.070L242.006 179.070L242.006 176.575Q242.006 176.232 242.275 175.939Q242.544 175.645 242.936 175.645L242.936 175.645ZM242.936 156.465L244.502 156.465Q244.844 156.465 245.138 156.734Q245.431 157.003 245.431 157.394L245.431 157.394L245.431 159.890Q245.431 160.281 245.138 160.550Q244.844 160.820 244.502 160.820L244.502 160.820L242.936 160.820Q242.544 160.820 242.275 160.550Q242.006 160.281 242.006 159.890L242.006 159.890L242.006 157.394Q242.006 157.003 242.275 156.734Q242.544 156.465 242.936 156.465L242.936 156.465Z"/></svg>