<svg width="480px" height="360px" xmlns="http://www.w3.org/2000/svg"><rect x="216" y="124" width="80.5" height="80.5" fill-opacity="0"/><path fill="#F00" d="M258.109 155.563L267.215 155.563Q267.524 155.563 267.781 155.794Q268.039 156.026 268.039 156.386L268.039 156.386L268.039 160.399Q268.039 160.759 267.781 160.990Q267.524 161.222 267.215 161.222L267.215 161.222L258.109 161.222L258.109 186.431Q258.109 186.637 258.006 186.842Q257.904 187.048 257.698 187.151Q257.492 187.254 257.286 187.254L257.286 187.254L253.273 187.254Q252.913 187.254 252.682 187.023Q252.450 186.791 252.450 186.431L252.450 186.431L252.450 161.222L243.395 161.222Q243.035 161.222 242.778 160.990Q242.521 160.759 242.521 160.399L242.521 160.399L242.521 156.386Q242.521 156.026 242.778 155.794Q243.035 155.563 243.395 155.563L243.395 155.563L252.450 155.563L252.450 148.360Q252.450 148 252.682 147.743Q252.913 147.486 253.273 147.486L253.273 147.486L257.286 147.486Q257.646 147.486 257.878 147.743Q258.109 148 258.109 148.360L258.109 148.360L258.109 155.563Z"/></svg>