<svg width="480px" height="360px" xmlns="http://www.w3.org/2000/svg"><rect x="216" y="124" width="80.5" height="80.5" fill-opacity="0"/><path fill="#F00" d="M266.226 148.930L266.226 151.083Q266.226 151.376 265.982 151.621L265.982 151.621L245.872 176.575L265.297 176.575Q265.639 176.575 265.933 176.844Q266.226 177.113 266.226 177.505L266.226 177.505L266.226 179.070Q266.226 179.462 265.933 179.731Q265.639 180 265.297 180L265.297 180L242.642 180Q242.251 180 241.982 179.731Q241.713 179.462 241.713 179.070L241.713 179.070L241.713 176.917Q241.713 176.575 241.908 176.330L241.908 176.330L261.969 151.376L242.642 151.376Q242.251 151.376 241.982 151.107Q241.713 150.838 241.713 150.446L241.713 150.446L241.713 148.930Q241.713 148.538 241.982 148.269Q242.251 148 242.642 148L242.642 148L265.297 148Q265.639 148 265.933 148.269Q266.226 148.538 266.226 148.930L266.226 148.930Z"/></svg>