<svg width="480px" height="360px" xmlns="http://www.w3.org/2000/svg"><rect x="216" y="124" width="80.5" height="80.5" fill-opacity="0"/><path fill="#F00" d="M262.018 162.336L262.018 162.336Q264.220 165.272 264.220 169.920L264.220 169.920Q264.220 172.416 262.801 174.862Q261.382 177.309 258.911 178.924Q256.440 180.538 253.602 180.538L253.602 180.538Q251.254 180.538 248.367 179.560Q245.480 178.581 243.229 176.722L243.229 176.722Q242.936 176.477 242.936 176.086Q242.936 175.694 243.180 175.401L243.180 175.401Q243.621 174.960 244.306 174.275L244.306 174.275Q244.893 173.639 245.529 174.177L245.529 174.177Q249.394 177.113 253.602 177.113L253.602 177.113Q256.489 177.113 258.642 174.838Q260.795 172.563 260.795 169.920L260.795 169.920Q260.795 166.398 259.278 164.343L259.278 164.343Q257.419 161.896 253.309 161.358L253.309 161.358Q250.422 161.015 246.997 161.602L246.997 161.602Q246.801 161.602 246.654 161.602L246.654 161.602Q246.508 161.554 246.239 161.505Q245.969 161.456 245.676 161.407Q245.382 161.358 245.015 161.309Q244.648 161.260 244.404 161.211L244.404 161.211Q244.012 161.113 243.792 160.795Q243.572 160.477 243.670 160.086L243.670 160.086L245.969 148L262.997 148Q263.388 148 263.657 148.269Q263.927 148.538 263.927 148.930L263.927 148.930L263.927 150.446Q263.927 150.838 263.657 151.107Q263.388 151.376 262.997 151.376L262.997 151.376L248.807 151.376L247.486 158.080Q250.862 157.639 253.700 157.982L253.700 157.982Q259.278 158.716 262.018 162.336Z"/></svg>