<svg width="480px" height="360px" xmlns="http://www.w3.org/2000/svg"><rect x="216" y="124" width="80.5" height="80.5" fill-opacity="0"/><path fill="#F00" d="M250.992 148.098L250.992 148.098Q253.289 148.098 254.705 149.783Q256.122 151.469 255.682 153.911L255.682 153.911Q255.292 156.403 253.362 158.064Q251.432 159.725 248.989 159.725L248.989 159.725Q246.644 159.725 245.252 158.040Q243.860 156.354 244.250 153.911L244.250 153.911Q244.446 152.739 245.081 151.640Q245.716 150.540 246.595 149.783Q247.475 149.026 248.623 148.562Q249.771 148.098 250.992 148.098ZM252.263 153.765L252.263 153.765Q252.409 152.739 251.847 152.055Q251.285 151.371 250.260 151.371L250.260 151.371Q249.624 151.371 249.014 151.689Q248.403 152.006 248.012 152.568Q247.621 153.130 247.524 153.740Q247.426 154.351 247.670 154.913Q247.915 155.475 248.403 155.792Q248.892 156.110 249.527 156.110Q250.162 156.110 250.748 155.792Q251.334 155.475 251.750 154.913Q252.165 154.351 252.263 153.765Z"/></svg>