<svg width="480px" height="360px" xmlns="http://www.w3.org/2000/svg"><rect x="216" y="124" width="80.5" height="80.5" fill-opacity="0"/><path fill="#F00" d="M247.279 150.638L248.208 150.638Q248.452 150.638 248.672 150.736Q248.892 150.834 248.940 150.956Q248.989 151.078 248.940 151.176L248.940 151.176Q248.940 152.299 248.550 153.765L248.550 153.765Q248.550 154.156 248.232 154.400Q247.915 154.644 247.475 154.644L247.475 154.644L245.863 154.644Q245.130 154.644 245.130 153.765L245.130 153.765L245.667 150.638Q246.107 149.319 247.670 147.365L247.670 147.365Q248.012 147.023 248.403 147.023L248.403 147.023Q248.550 147.023 248.696 147.121Q248.843 147.218 248.892 147.267L248.892 147.267L248.940 147.365Q248.940 148.098 248.745 148.293L248.745 148.293Q248.696 148.391 248.305 148.928Q247.915 149.466 247.646 149.905Q247.377 150.345 247.279 150.638L247.279 150.638Z"/></svg>