<svg width="480px" height="360px" xmlns="http://www.w3.org/2000/svg"><rect x="216" y="124" width="80.5" height="80.5" fill-opacity="0"/><path fill="#F00" d="M264.220 177.064L264.220 177.064L264.563 177.456L264.563 179.070Q264.563 179.511 264.318 179.755Q264.073 180 263.682 180L263.682 180L243.621 180Q243.229 180 242.985 179.755Q242.740 179.511 242.740 179.070L242.740 179.070L242.740 178.385Q242.740 174.275 246.018 170.703L246.018 170.703Q247.829 168.893 252.575 165.615L252.575 165.615Q252.869 165.370 253.798 164.783Q254.728 164.196 255.168 163.878Q255.609 163.560 256.318 163.046Q257.028 162.532 257.566 162.067Q258.104 161.602 258.544 161.064L258.544 161.064Q260.942 159.009 260.942 156.514L260.942 156.514Q260.942 155.046 260.159 153.774Q259.376 152.502 257.884 151.694Q256.391 150.887 254.532 150.887L254.532 150.887Q252.624 150.887 250.765 151.621Q248.905 152.355 247.927 153.064Q246.948 153.774 246.165 154.508L246.165 154.508Q245.627 155.046 244.893 154.703L244.893 154.703Q244.355 154.165 243.621 153.774L243.621 153.774Q243.278 153.431 243.278 153.040L243.278 153.040Q243.278 152.991 243.352 152.599Q243.425 152.208 243.278 152.159L243.278 152.159Q248.612 147.413 254.190 147.413L254.190 147.413Q258.495 147.413 261.260 150.153Q264.024 152.893 264.024 156.514L264.024 156.514Q264.024 160.330 260.746 163.609L260.746 163.609Q260.257 164.147 259.719 164.636Q259.180 165.125 258.446 165.688Q257.713 166.251 257.223 166.593Q256.734 166.936 255.755 167.596Q254.777 168.257 254.385 168.550L254.385 168.550Q254.092 168.746 253.309 169.235Q252.526 169.725 252.183 169.969Q251.841 170.214 251.180 170.679Q250.520 171.144 250.128 171.486Q249.737 171.829 249.248 172.294Q248.758 172.758 248.367 173.248L248.367 173.248Q246.654 174.960 246.165 176.917L246.165 176.917L263.486 176.917Q264.024 176.917 264.220 177.064Z"/></svg>