<svg width="480px" height="360px" xmlns="http://www.w3.org/2000/svg"><rect x="216" y="124" width="80.5" height="80.5" fill-opacity="0"/><path fill="#F00" d="M271.280 148Q271.743 148 272 148.386Q272.257 148.772 272.051 149.235L272.051 149.235Q270.662 151.961 264.154 164.900Q257.646 177.839 256.772 179.537L256.772 179.537Q256.566 180 256.051 180L256.051 180L251.576 180Q251.061 180 250.830 179.588Q250.598 179.177 250.804 178.765L250.804 178.765Q251.936 176.450 258.521 163.383Q265.106 150.315 266.032 148.463L266.032 148.463Q266.289 148 266.804 148L266.804 148L271.280 148ZM257.441 156.540L257.441 156.540Q257.441 161.016 255.228 163.074L255.228 163.074Q253.376 164.823 250.238 164.926L250.238 164.926L250.135 164.926Q246.997 164.823 245.145 163.074L245.145 163.074Q242.932 161.016 242.932 156.540L242.932 156.540Q242.932 156.386 242.932 156.180L242.932 156.180Q242.932 156.026 242.932 155.871L242.932 155.871Q242.932 151.395 245.145 149.286L245.145 149.286Q246.997 147.537 250.135 147.486L250.135 147.486L250.238 147.486Q253.376 147.537 255.228 149.286L255.228 149.286Q257.441 151.395 257.441 155.871L257.441 155.871Q257.441 155.871 257.389 156.180L257.389 156.180Q257.441 156.540 257.441 156.540ZM251.730 156.540L251.730 156.540Q251.730 156.540 251.730 156.283L251.730 156.283L251.730 156.129Q251.730 155.974 251.730 155.871L251.730 155.871Q251.730 154.842 251.601 154.225Q251.473 153.608 251.318 153.453L251.318 153.453Q251.061 153.196 250.186 153.196L250.186 153.196Q249.312 153.196 249.055 153.453L249.055 153.453Q248.849 153.608 248.746 154.225L248.746 154.225Q248.643 154.842 248.643 155.871L248.643 155.871Q248.643 155.923 248.643 156Q248.643 156.077 248.643 156.129L248.643 156.129L248.643 156.283Q248.643 156.334 248.643 156.412Q248.643 156.489 248.643 156.540L248.643 156.540Q248.643 157.518 248.746 158.135L248.746 158.135Q248.849 158.804 249.055 158.958L249.055 158.958Q249.312 159.215 250.186 159.215L250.186 159.215Q251.061 159.215 251.318 158.958L251.318 158.958Q251.473 158.804 251.576 158.135L251.576 158.135Q251.730 157.518 251.730 156.540ZM276.733 164.875L276.733 164.875Q278.945 166.984 278.945 171.460L278.945 171.460Q278.945 171.460 278.945 171.768L278.945 171.768Q278.945 172.129 278.945 172.129L278.945 172.129Q278.945 176.605 276.733 178.714L276.733 178.714Q274.932 180.412 271.794 180.514L271.794 180.514L271.640 180.514Q268.502 180.412 266.701 178.714L266.701 178.714Q264.489 176.605 264.489 172.129L264.489 172.129Q264.489 172.129 264.489 171.768L264.489 171.768Q264.489 171.460 264.489 171.460L264.489 171.460Q264.489 166.984 266.701 164.875L266.701 164.875Q268.502 163.125 271.640 163.074L271.640 163.074L271.794 163.074Q274.932 163.125 276.733 164.875ZM273.286 172.129L273.286 172.129Q273.286 172.077 273.260 172Q273.235 171.923 273.235 171.871L273.235 171.871L273.235 171.717Q273.235 171.666 273.260 171.588Q273.286 171.511 273.286 171.460L273.286 171.460Q273.286 170.482 273.158 169.839Q273.029 169.196 272.823 169.042L272.823 169.042Q272.617 168.785 271.743 168.785L271.743 168.785Q270.868 168.785 270.611 169.042L270.611 169.042Q270.405 169.196 270.302 169.814L270.302 169.814Q270.199 170.482 270.199 171.460L270.199 171.460L270.199 171.717L270.199 171.871Q270.199 172.129 270.199 172.129L270.199 172.129Q270.199 173.106 270.302 173.775L270.302 173.775Q270.405 174.392 270.611 174.547L270.611 174.547Q270.868 174.804 271.743 174.804L271.743 174.804Q272.617 174.804 272.823 174.547L272.823 174.547Q273.029 174.392 273.158 173.749Q273.286 173.106 273.286 172.129ZM295.408 171.460L295.408 171.460Q295.408 171.666 295.408 171.794Q295.408 171.923 295.408 172.129L295.408 172.129Q295.408 176.605 293.196 178.714L293.196 178.714Q291.344 180.412 288.206 180.514L288.206 180.514L288.103 180.514Q284.965 180.412 283.113 178.714L283.113 178.714Q280.900 176.605 280.900 172.129L280.900 172.129Q280.900 171.923 280.900 171.794Q280.900 171.666 280.900 171.460L280.900 171.460Q280.900 166.984 283.113 164.875L283.113 164.875Q284.965 163.125 288.103 163.074L288.103 163.074L288.206 163.074Q291.344 163.125 293.196 164.875L293.196 164.875Q295.408 166.984 295.408 171.460ZM289.698 172.129L289.698 172.129Q289.698 171.974 289.698 171.871L289.698 171.871L289.698 171.717Q289.698 171.614 289.698 171.460L289.698 171.460Q289.698 170.431 289.569 169.814Q289.441 169.196 289.286 169.042L289.286 169.042Q289.029 168.785 288.154 168.785L288.154 168.785Q287.280 168.785 287.023 169.042L287.023 169.042Q286.868 169.196 286.740 169.839Q286.611 170.482 286.611 171.460L286.611 171.460Q286.611 171.614 286.611 171.717L286.611 171.717L286.611 171.871Q286.611 171.974 286.611 172.129L286.611 172.129Q286.611 173.106 286.740 173.749Q286.868 174.392 287.023 174.547L287.023 174.547Q287.280 174.804 288.154 174.804L288.154 174.804Q289.029 174.804 289.286 174.547L289.286 174.547Q289.441 174.392 289.569 173.749Q289.698 173.106 289.698 172.129Z"/></svg>