<svg width="480px" height="360px" xmlns="http://www.w3.org/2000/svg"><rect x="216" y="124" width="80.5" height="80.5" fill-opacity="0"/><path fill="#F00" d="M246.351 147.218L247.963 147.218Q248.940 147.218 248.696 148.489L248.696 148.489L248.159 151.566Q247.719 152.885 246.156 154.840L246.156 154.840Q245.814 155.182 245.423 155.182L245.423 155.182Q245.276 155.182 245.130 155.108Q244.983 155.035 244.934 154.937L244.934 154.937L244.885 154.840Q244.885 154.107 245.081 153.911L245.081 153.911Q245.130 153.863 245.521 153.301Q245.911 152.739 246.180 152.324Q246.449 151.908 246.547 151.566L246.547 151.566L245.618 151.566Q244.885 151.566 244.885 150.638L244.885 150.638Q244.885 149.563 245.227 148.098L245.227 148.098Q245.227 147.707 245.569 147.463Q245.911 147.218 246.351 147.218L246.351 147.218ZM252.702 147.218L254.363 147.218Q255.243 147.218 255.243 148.293L255.243 148.293L254.705 151.371Q254.266 152.690 252.702 154.644L252.702 154.644Q252.360 155.035 251.969 155.035L251.969 155.035Q251.823 155.035 251.676 154.937Q251.530 154.840 251.481 154.742L251.481 154.742L251.432 154.644Q251.090 154.302 251.432 153.911L251.432 153.911Q251.481 153.863 251.896 153.301Q252.311 152.739 252.556 152.324Q252.800 151.908 252.898 151.566L252.898 151.566L251.969 151.566Q251.237 151.566 251.237 150.638L251.237 150.638Q251.237 149.563 251.627 148.098L251.627 148.098Q251.627 147.707 251.945 147.463Q252.263 147.218 252.702 147.218L252.702 147.218Z"/></svg>