<svg width="480px" height="360px" xmlns="http://www.w3.org/2000/svg"><rect x="216" y="124" width="80.5" height="80.5" fill-opacity="0"/><path fill="#F00" d="M245.196 150.675L246.894 150.675Q247.254 150.675 247.511 150.932Q247.768 151.190 247.768 151.550L247.768 151.550L247.768 155.768Q247.768 156.129 247.511 156.386Q247.254 156.643 246.894 156.643L246.894 156.643L242.932 156.643Q242.572 156.643 242.315 156.386Q242.058 156.129 242.058 155.768L242.058 155.768Q242.109 154.019 242.109 152.682L242.109 152.682Q242.161 151.190 242.984 149.955L242.984 149.955Q244.270 148.154 244.682 147.588L244.682 147.588Q244.939 147.228 245.350 147.203Q245.762 147.177 246.019 147.537L246.019 147.537Q246.277 147.794 246.482 148.051L246.482 148.051Q246.945 148.617 246.431 149.183L246.431 149.183Q245.505 150.161 245.196 150.675L245.196 150.675ZM255.588 150.675Q255.949 150.675 256.180 150.932Q256.412 151.190 256.412 151.550L256.412 151.550L256.412 155.768Q256.412 156.129 256.180 156.386Q255.949 156.643 255.588 156.643L255.588 156.643L251.576 156.643Q251.215 156.643 250.984 156.386Q250.752 156.129 250.752 155.768L250.752 155.768Q250.752 154.019 250.804 152.682L250.804 152.682Q250.804 151.190 251.678 149.955L251.678 149.955Q251.936 149.543 252.527 148.720Q253.119 147.897 253.325 147.588L253.325 147.588Q253.582 147.228 253.994 147.203Q254.405 147.177 254.714 147.537L254.714 147.537Q254.920 147.794 255.125 148.051L255.125 148.051Q255.640 148.617 255.125 149.183L255.125 149.183Q254.199 150.161 253.891 150.675L253.891 150.675L255.588 150.675Z"/></svg>