<svg width="480px" height="360px" xmlns="http://www.w3.org/2000/svg"><rect x="216" y="124" width="80.5" height="80.5" fill-opacity="0"/><path fill="#F00" d="M243.293 157.775L263.974 157.775Q264.334 157.775 264.592 158.032Q264.849 158.289 264.797 158.650L264.797 158.650L264.797 162.662Q264.797 162.868 264.695 163.074Q264.592 163.280 264.386 163.383Q264.180 163.486 263.974 163.486L263.974 163.486L243.293 163.486Q242.932 163.486 242.675 163.228Q242.418 162.971 242.418 162.662L242.418 162.662L242.418 158.650Q242.418 158.289 242.675 158.032Q242.932 157.775 243.293 157.775L243.293 157.775ZM243.293 166.161L263.974 166.161Q264.334 166.161 264.592 166.418Q264.849 166.675 264.797 167.035L264.797 167.035L264.797 170.997Q264.797 171.203 264.746 171.357Q264.695 171.511 264.566 171.614Q264.437 171.717 264.283 171.794Q264.129 171.871 263.974 171.871L263.974 171.871L243.293 171.871Q242.932 171.871 242.675 171.614Q242.418 171.357 242.418 170.997L242.418 170.997L242.418 167.035Q242.418 166.675 242.675 166.418Q242.932 166.161 243.293 166.161L243.293 166.161Z"/></svg>