<svg width="480px" height="360px" xmlns="http://www.w3.org/2000/svg"><rect x="216" y="124" width="80.5" height="80.5" fill-opacity="0"/><path fill="#F00" d="M261.936 158.308L261.936 158.308Q262.082 158.553 262.058 158.992Q262.034 159.432 261.740 159.579L261.740 159.579L253.924 166.125Q257.930 170.815 259.395 172.672L259.395 172.672Q259.933 173.209 259.200 173.942L259.200 173.942Q259.005 174.089 258.565 174.455Q258.125 174.821 257.930 175.017L257.930 175.017Q257.295 175.652 256.660 175.017L256.660 175.017L251.188 168.470Q245.569 173.209 243.371 175.017L243.371 175.017Q242.736 175.652 242.101 175.017L242.101 175.017Q241.954 174.821 241.661 174.455Q241.368 174.089 241.221 173.942L241.221 173.942Q240.684 173.356 241.368 172.672L241.368 172.672L249.234 166.125Q245.227 161.386 243.762 159.579L243.762 159.579Q243.224 158.992 243.957 158.308L243.957 158.308Q244.104 158.113 244.568 157.747Q245.032 157.380 245.227 157.185L245.227 157.185Q245.863 156.550 246.498 157.185L246.498 157.185L251.921 163.731Q257.588 158.992 259.737 157.185L259.737 157.185Q260.373 156.550 261.008 157.185L261.008 157.185Q261.203 157.380 261.472 157.747Q261.740 158.113 261.936 158.308Z"/></svg>