<svg width="480px" height="360px" xmlns="http://www.w3.org/2000/svg"><rect x="216" y="124" width="80.5" height="80.5" fill-opacity="0"/><path fill="#F00" d="M242.349 175.645L243.914 175.645Q244.159 175.645 244.379 175.768Q244.599 175.890 244.722 176.110Q244.844 176.330 244.844 176.575L244.844 176.575L244.844 180.196Q244.844 181.419 243.425 183.572L243.425 183.572Q243.229 183.914 242.838 183.939Q242.446 183.963 242.202 183.670L242.202 183.670Q241.859 183.229 242.202 182.838L242.202 182.838Q243.278 181.615 243.278 180.196L243.278 180.196L243.278 180L242.349 180Q241.957 180 241.688 179.731Q241.419 179.462 241.419 179.070L241.419 179.070L241.419 176.575Q241.419 176.232 241.688 175.939Q241.957 175.645 242.349 175.645L242.349 175.645Z"/></svg>