<svg version="1.1" xmlns="http://www.w3.org/2000/svg" xmlns:xlink="http://www.w3.org/1999/xlink" width="33.01886" height="33.01886" viewBox="0,0,33.01886,33.01886"><g transform="translate(-303.49057,-163.49057)"><g data-paper-data="{&quot;isPaintingLayer&quot;:true}" fill-rule="nonzero" stroke-miterlimit="10" stroke-dasharray="" stroke-dashoffset="0" style="mix-blend-mode: normal"><path d="M303.49057,180c0,-9.1179 7.39153,-16.50943 16.50943,-16.50943c9.1179,0 16.50943,7.39153 16.50943,16.50943c0,9.1179 -7.39153,16.50943 -16.50943,16.50943c-9.1179,0 -16.50943,-7.39153 -16.50943,-16.50943z" fill="#f9af36" stroke="none" stroke-width="0" stroke-linecap="butt" stroke-linejoin="miter"/><path d="M329.94338,179.00211c0.00362,1.38904 -0.32091,2.75929 -0.94717,3.99917c-1.51446,3.03024 -4.61071,4.94502 -7.99832,4.94633c-1.38904,0.00362 -2.75929,-0.32091 -3.99917,-0.94717l-5.99874,1.99958l1.99958,-5.99874c-0.62626,-1.23986 -0.95079,-2.61011 -0.94717,-3.99917c0.00131,-3.38761 1.91609,-6.48386 4.94633,-7.99832c1.23986,-0.62626 2.61011,-0.95079 3.99917,-0.94717h0.52621c4.54201,0.25058 8.16871,3.87728 8.41929,8.41929z" fill="none" stroke="#ffffff" stroke-width="2.5" stroke-linecap="round" stroke-linejoin="round"/><path d="M320.9375,184.04481v-9.96462" fill="none" stroke="#ffffff" stroke-width="3" stroke-linecap="round" stroke-linejoin="miter"/><path d="M325.91981,179.0625h-9.96462" fill="none" stroke="#ffffff" stroke-width="3" stroke-linecap="round" stroke-linejoin="miter"/></g></g></svg>