<svg width="480px" height="360px" xmlns="http://www.w3.org/2000/svg"><rect x="216" y="124" width="80.5" height="80.5" fill-opacity="0"/><path fill="#F00" d="M259.737 148.098L259.737 148.098L259.737 148.635Q259.640 148.879 259.518 149.148Q259.395 149.417 259.224 149.710Q259.053 150.003 259.005 150.101L259.005 150.101Q258.858 150.492 258.418 150.638Q257.979 150.785 257.734 150.638L257.734 150.638Q255.780 149.905 254.266 149.905L254.266 149.905Q251.285 150.198 250.992 152.104L250.992 152.104L250.260 156.452L255.731 156.452Q256.073 156.452 256.269 156.647Q256.464 156.843 256.464 157.380L256.464 157.380Q256.464 157.624 256.366 158.186Q256.269 158.748 256.269 158.992L256.269 158.992Q256.269 159.383 255.927 159.725L255.927 159.725Q255.829 159.725 255.560 159.823Q255.292 159.921 255.194 159.921L255.194 159.921L249.722 159.921Q246.986 175.554 246.302 179.169L246.302 179.169Q246.302 179.463 245.985 179.682Q245.667 179.902 245.374 179.902L245.374 179.902L243.908 179.902Q243.566 179.902 243.176 179.560L243.176 179.560Q243.029 179.365 243.029 178.827L243.029 178.827L246.302 159.921L244.446 159.921Q243.713 159.921 243.713 158.992L243.713 158.992Q243.713 158.748 243.811 158.186Q243.908 157.624 243.908 157.380L243.908 157.380Q243.908 156.989 244.250 156.721Q244.592 156.452 244.983 156.452L244.983 156.452L246.840 156.452L247.573 152.104Q248.208 149.515 249.918 148.293L249.918 148.293Q251.579 146.925 254.461 146.632L254.461 146.632Q256.855 146.632 259.347 147.560L259.347 147.560Q259.737 147.902 259.737 148.098Z"/></svg>