<svg version="1.1" xmlns="http://www.w3.org/2000/svg" xmlns:xlink="http://www.w3.org/1999/xlink" width="27.49998" height="29.5" viewBox="0,0,27.49998,29.5"><g transform="translate(-306.25,-165.26786)"><g data-paper-data="{&quot;isPaintingLayer&quot;:true}" fill="none" fill-rule="nonzero" stroke="#ffffff" stroke-width="1.5" stroke-linecap="round" stroke-linejoin="round" stroke-miterlimit="10" stroke-dasharray="" stroke-dashoffset="0" style="mix-blend-mode: normal"><path d="M307,186.01786c2.66667,0.66667 2.66667,6 9.33333,4M316.33333,194.01786v-5.16c-0.0895,-1.2726 0.36616,-2.52325 1.25333,-3.44c-4.18667,-0.52 -8.58667,-2.10667 -8.58667,-9.33333c-0.00997,-1.87538 0.70684,-3.68173 2,-5.04c-0.60781,-1.62866 -0.56483,-3.42887 0.12,-5.02667c0,0 1.57333,-0.46667 5.21333,1.97333c3.05599,-0.82824 6.27735,-0.82824 9.33333,0c3.64,-2.44 5.21333,-1.97333 5.21333,-1.97333c0.68483,1.5978 0.72781,3.39801 0.12,5.02667c1.28359,1.34827 1.99966,3.13844 2,5c0,7.28 -4.4,8.86667 -8.58667,9.33333c0.89799,0.92628 1.35451,2.19386 1.25333,3.48v5.16"/></g></g></svg>