<svg width="480px" height="360px" xmlns="http://www.w3.org/2000/svg"><rect x="216" y="124" width="80.5" height="80.5" fill-opacity="0"/><path fill="#F00" d="M257.286 155.666L257.286 155.666Q257.595 155.717 257.826 155.923Q258.058 156.129 258.058 156.437L258.058 156.437L258.058 161.839Q258.058 162.302 257.698 162.559Q257.338 162.817 256.926 162.662L256.926 162.662Q255.743 162.251 254.868 162.251L254.868 162.251Q253.685 162.199 252.682 162.637Q251.678 163.074 251.035 163.794Q250.392 164.514 250.032 165.055Q249.672 165.595 249.466 166.161L249.466 166.161L249.466 179.125Q249.466 179.486 249.209 179.743Q248.952 180 248.592 180L248.592 180L244.630 180Q244.270 180 244.013 179.743Q243.756 179.486 243.756 179.125L243.756 179.125L243.756 157.055Q243.756 156.695 244.013 156.437Q244.270 156.180 244.630 156.180L244.630 156.180L248.592 156.180Q248.952 156.180 249.209 156.437Q249.466 156.695 249.466 157.055L249.466 157.055L249.466 158.855Q252.759 155.563 257.286 155.666Z"/></svg>