<svg width="480px" height="360px" xmlns="http://www.w3.org/2000/svg"><rect x="216" y="124" width="80.5" height="80.5" fill-opacity="0"/><path fill="#F00" d="M246.018 159.596L246.018 159.596Q246.508 160.037 248.024 161.333Q249.541 162.630 251.278 164.122Q253.015 165.615 253.651 166.202L253.651 166.202Q254.336 166.789 254.336 167.621L254.336 167.621L254.336 169.089Q254.336 169.969 253.651 170.508L253.651 170.508Q249.052 174.520 246.752 176.526L246.752 176.526Q246.508 176.722 246.116 176.722L246.116 176.722L243.768 176.722Q243.131 176.722 242.911 176.110Q242.691 175.498 243.180 175.107L243.180 175.107L250.960 168.355Q245.431 163.560 242.446 160.966L242.446 160.966Q241.957 160.575 242.177 159.963Q242.398 159.352 243.034 159.352L243.034 159.352L245.382 159.352Q245.725 159.352 246.018 159.596ZM265.394 166.202L265.394 166.202Q266.031 166.740 266.031 167.621L266.031 167.621L266.031 169.089Q266.031 169.969 265.394 170.508L265.394 170.508Q262.067 173.394 258.446 176.526L258.446 176.526Q258.202 176.722 257.859 176.722L257.859 176.722L255.462 176.722Q254.826 176.722 254.606 176.110Q254.385 175.498 254.875 175.107L254.875 175.107L262.654 168.355Q257.125 163.560 254.141 160.966L254.141 160.966Q253.651 160.575 253.872 159.963Q254.092 159.352 254.728 159.352L254.728 159.352L257.125 159.352Q257.468 159.352 257.713 159.596L257.713 159.596Q259.621 161.260 265.394 166.202Z"/></svg>