<svg width="480px" height="360px" xmlns="http://www.w3.org/2000/svg"><rect x="216" y="124" width="80.5" height="80.5" fill-opacity="0"/><path fill="#F00" d="M258.614 163.536L258.614 163.536Q259.298 163.878 259.005 164.464L259.005 164.464Q258.907 164.708 258.809 165.344Q258.711 165.979 258.614 166.272L258.614 166.272Q258.614 166.907 258.076 167.200L258.076 167.200Q256.806 167.786 250.357 170.913Q243.908 174.040 242.247 174.821L242.247 174.821Q241.661 175.115 241.368 174.821L241.368 174.821Q240.977 174.626 240.977 174.089L240.977 174.089Q241.368 172.623 241.368 172.281L241.368 172.281Q241.368 171.646 241.905 171.353L241.905 171.353Q243.029 170.864 246.180 169.374Q249.331 167.884 251.872 166.614L251.872 166.614L254.461 165.344Q246.107 160.653 244.104 159.383L244.104 159.383Q243.713 159.188 243.713 158.455L243.713 158.455Q243.811 158.162 243.908 157.527Q244.006 156.892 244.104 156.647L244.104 156.647Q244.104 156.208 244.641 155.915L244.641 155.915Q245.227 155.621 245.521 155.915L245.521 155.915Q257.148 162.754 258.614 163.536Z"/></svg>