<svg width="480px" height="360px" xmlns="http://www.w3.org/2000/svg"><rect x="216" y="124" width="80.5" height="80.5" fill-opacity="0"/><path fill="#F00" d="M244.844 185.089L263.291 185.089Q263.682 185.089 263.951 185.358Q264.220 185.627 264.220 186.018L264.220 186.018L264.220 187.584Q264.220 187.829 264.098 188.024Q263.976 188.220 263.755 188.367Q263.535 188.514 263.291 188.514L263.291 188.514L244.844 188.514Q244.453 188.514 244.183 188.220Q243.914 187.927 243.914 187.584L243.914 187.584L243.914 186.018Q243.914 185.627 244.183 185.358Q244.453 185.089 244.844 185.089L244.844 185.089Z"/></svg>