<svg width="480px" height="360px" xmlns="http://www.w3.org/2000/svg"><rect x="216" y="124" width="80.5" height="80.5" fill-opacity="0"/><path fill="#F00" d="M260.208 157.003L261.823 157.003Q262.263 157.003 262.508 157.248Q262.752 157.492 262.752 157.933L262.752 157.933L262.752 181.566Q262.752 183.963 260.746 185.969L260.746 185.969Q257.908 188.514 252.722 188.514L252.722 188.514Q250.765 188.514 249.076 188.049Q247.388 187.584 246.263 186.826Q245.138 186.067 244.453 185.382Q243.768 184.697 243.278 183.963L243.278 183.963Q243.083 183.768 243.083 183.229L243.083 183.229L243.621 182.691Q243.621 182.691 245.089 181.957L245.089 181.957Q245.627 181.664 246.557 182.300L246.557 182.300Q248.514 185.235 252.917 185.235L252.917 185.235Q255.804 185.235 258.006 183.963L258.006 183.963Q259.474 183.083 259.474 181.761L259.474 181.761L259.474 178.141Q255.853 180.685 251.841 180.685L251.841 180.685Q250.031 180.685 248.367 179.829Q246.703 178.972 245.407 177.407Q244.110 175.841 243.327 173.370Q242.544 170.899 242.544 167.914L242.544 167.914Q242.544 162.875 245.138 159.743Q247.731 156.612 251.645 156.465L251.645 156.465Q256.391 156.465 259.278 159.352L259.278 159.352L259.278 157.933Q259.278 157.492 259.547 157.248Q259.817 157.003 260.208 157.003L260.208 157.003ZM259.278 172.856L259.278 172.856L259.131 172.856L259.131 165.370Q258.887 164.734 258.471 164Q258.055 163.266 257.199 162.214Q256.343 161.162 254.875 160.502Q253.407 159.841 251.645 159.890L251.645 159.890Q249.052 159.890 247.437 162.141Q245.823 164.391 245.823 167.914L245.823 167.914Q245.823 172.171 247.462 174.691Q249.101 177.211 251.645 177.211L251.645 177.211Q256.685 177.211 259.278 172.856Z"/></svg>