<svg width="480px" height="360px" xmlns="http://www.w3.org/2000/svg"><rect x="216" y="124" width="80.5" height="80.5" fill-opacity="0"/><path fill="#F00" d="M265.835 176.673L265.835 176.673Q266.275 177.749 266.422 178.092L266.422 178.092Q266.520 178.336 266.495 178.581Q266.471 178.826 266.300 179.021Q266.128 179.217 265.933 179.315L265.933 179.315L265.199 179.609Q262.850 180.538 259.523 180.538L259.523 180.538Q254.287 180.538 251.009 177.945L251.009 177.945Q246.948 174.813 246.116 168.012L246.116 168.012L243.523 168.012Q243.131 168.012 242.862 167.743Q242.593 167.474 242.593 167.083L242.593 167.083L242.593 166.153Q242.593 165.761 242.862 165.492Q243.131 165.223 243.523 165.223L243.523 165.223L245.872 165.223L245.872 162.434L243.523 162.434Q243.131 162.434 242.862 162.141Q242.593 161.847 242.593 161.505L242.593 161.505L242.593 160.575Q242.593 160.183 242.862 159.914Q243.131 159.645 243.523 159.645L243.523 159.645L246.165 159.645Q247.095 153.040 251.009 150.006L251.009 150.006Q254.287 147.462 259.523 147.462L259.523 147.462Q262.850 147.462 265.199 148.391L265.199 148.391Q265.541 148.538 265.933 148.685L265.933 148.685Q266.275 148.832 266.422 149.174Q266.569 149.517 266.422 149.859L266.422 149.859Q266.324 150.104 266.128 150.593Q265.933 151.083 265.835 151.327L265.835 151.327Q265.688 151.670 265.346 151.817Q265.003 151.963 264.661 151.817L264.661 151.817L263.927 151.523Q262.214 150.838 259.523 150.838L259.523 150.838Q255.462 150.838 253.064 152.697L253.064 152.697Q250.275 154.899 249.541 159.645L249.541 159.645L259.083 159.645Q259.474 159.645 259.743 159.914Q260.012 160.183 260.012 160.575L260.012 160.575L260.012 161.505Q260.012 161.847 259.743 162.141Q259.474 162.434 259.083 162.434L259.083 162.434L249.297 162.434Q249.248 163.119 249.248 163.902L249.248 163.902L249.248 164Q249.248 164.636 249.297 165.223L249.297 165.223L259.083 165.223Q259.474 165.223 259.743 165.492Q260.012 165.761 260.012 166.153L260.012 166.153L260.012 167.083Q260.012 167.474 259.743 167.743Q259.474 168.012 259.083 168.012L259.083 168.012L249.492 168.012Q250.177 173.003 253.113 175.254L253.113 175.254Q255.462 177.113 259.523 177.113L259.523 177.113Q262.214 177.113 263.927 176.428L263.927 176.428Q264.269 176.281 264.661 176.135L264.661 176.135Q264.807 176.086 265.003 176.086Q265.199 176.086 265.346 176.159Q265.492 176.232 265.639 176.355Q265.786 176.477 265.835 176.673Z"/></svg>