<svg width="480px" height="360px" xmlns="http://www.w3.org/2000/svg"><rect x="216" y="124" width="80.5" height="80.5" fill-opacity="0"/><path fill="#F00" d="M265.209 173.981L265.209 173.981Q266.084 176.141 266.701 177.685L266.701 177.685Q266.855 177.994 266.727 178.328Q266.598 178.662 266.238 178.817L266.238 178.817L264.386 179.537Q262.019 180.514 258.675 180.514L258.675 180.514Q253.479 180.514 250.084 177.839L250.084 177.839Q245.968 174.701 245.093 167.807L245.093 167.807L243.859 167.807Q243.498 167.807 243.241 167.576Q242.984 167.344 242.984 166.984L242.984 166.984L242.984 165.852Q242.984 165.492 243.241 165.235Q243.498 164.977 243.859 164.977L243.859 164.977L244.836 164.977L244.836 162.662L243.859 162.662Q243.498 162.662 243.241 162.431Q242.984 162.199 242.984 161.839L242.984 161.839L242.984 160.707Q242.984 160.347 243.241 160.090Q243.498 159.833 243.859 159.833L243.859 159.833L245.145 159.833Q246.071 153.196 250.084 150.109L250.084 150.109Q253.479 147.486 258.675 147.486L258.675 147.486Q262.019 147.486 264.386 148.463L264.386 148.463Q265.466 148.875 266.238 149.183L266.238 149.183Q266.598 149.338 266.727 149.646Q266.855 149.955 266.701 150.315L266.701 150.315Q266.495 150.778 265.955 152.141Q265.415 153.505 265.209 154.019L265.209 154.019Q265.106 154.328 264.772 154.457Q264.437 154.585 264.129 154.482L264.129 154.482L262.277 153.711Q260.887 153.196 258.675 153.196L258.675 153.196Q255.434 153.196 253.582 154.637L253.582 154.637Q251.421 156.283 250.804 159.833L250.804 159.833L258.469 159.833Q258.675 159.833 258.881 159.936Q259.087 160.039 259.190 160.244Q259.293 160.450 259.293 160.707L259.293 160.707L259.293 161.839Q259.293 162.045 259.190 162.251Q259.087 162.457 258.881 162.559Q258.675 162.662 258.469 162.662L258.469 162.662L250.547 162.662Q250.547 163.125 250.547 164L250.547 164Q250.547 164.617 250.547 164.977L250.547 164.977L258.469 164.977Q258.830 164.977 259.061 165.235Q259.293 165.492 259.293 165.852L259.293 165.852L259.293 166.984Q259.293 167.344 259.061 167.576Q258.830 167.807 258.469 167.807L258.469 167.807L250.752 167.807Q251.318 171.614 253.582 173.363L253.582 173.363Q255.434 174.804 258.675 174.804L258.675 174.804Q260.887 174.804 262.277 174.238L262.277 174.238Q263.357 173.826 264.129 173.518L264.129 173.518Q264.437 173.363 264.772 173.518Q265.106 173.672 265.209 173.981Z"/></svg>