<svg width="480px" height="360px" xmlns="http://www.w3.org/2000/svg"><rect x="216" y="124" width="80.5" height="80.5" fill-opacity="0"/><path fill="#F00" d="M247.182 147.169L248.843 147.169Q248.989 147.169 249.160 147.292Q249.331 147.414 249.453 147.682Q249.576 147.951 249.576 148.293L249.576 148.293L248.989 151.908Q248.794 152.934 246.986 155.182L246.986 155.182Q246.644 155.573 246.302 155.573L246.302 155.573Q246.107 155.573 245.716 155.182L245.716 155.182Q245.472 154.693 245.911 154.253L245.911 154.253Q247.133 153.032 247.377 151.713L247.377 151.713L247.377 151.566L246.449 151.566Q245.716 151.566 245.716 150.638L245.716 150.638Q245.716 149.563 246.107 148.098L246.107 148.098Q246.107 147.707 246.424 147.438Q246.742 147.169 247.182 147.169L247.182 147.169Z"/></svg>