<svg width="480px" height="360px" xmlns="http://www.w3.org/2000/svg"><rect x="216" y="124" width="80.5" height="80.5" fill-opacity="0"/><path fill="#F00" d="M260.942 162.581L260.942 176.722Q260.942 177.945 261.187 179.168L261.187 179.168Q261.235 179.511 261.040 179.755Q260.844 180 260.502 180L260.502 180L258.593 180Q257.957 180 257.810 179.315L257.810 179.315Q257.517 177.945 257.517 176.526L257.517 176.526L257.517 176.232Q254.092 180.538 249.492 180.538L249.492 180.538Q246.459 180.538 244.502 178.875L244.502 178.875Q242.300 176.966 242.300 173.541L242.300 173.541Q242.300 168.453 247.584 166.495L247.584 166.495Q248.661 166.104 249.688 165.835Q250.716 165.566 251.963 165.468Q253.211 165.370 253.774 165.346Q254.336 165.321 255.780 165.346Q257.223 165.370 257.370 165.370L257.370 165.370Q257.468 165.370 257.517 165.370L257.517 165.370L257.517 162.581Q257.517 161.309 256.489 160.550Q255.462 159.792 253.554 159.792L253.554 159.792Q251.450 159.792 249.713 160.526Q247.976 161.260 247.095 162.581L247.095 162.581Q246.654 163.266 245.969 162.924L245.969 162.924Q245.578 162.777 244.502 162.287L244.502 162.287Q244.110 162.141 243.988 161.749Q243.865 161.358 244.061 160.966L244.061 160.966Q245.382 158.911 247.902 157.639Q250.422 156.367 253.554 156.367L253.554 156.367Q256.979 156.367 258.985 158.128L258.985 158.128Q260.942 159.841 260.942 162.581L260.942 162.581ZM257.517 173.003L257.517 173.003L257.517 167.817Q252.966 167.768 250.422 168.306L250.422 168.306Q248.465 168.697 247.095 170.141Q245.725 171.584 245.725 173.541L245.725 173.541Q245.725 175.450 246.703 176.281L246.703 176.281Q247.682 177.113 249.492 177.113L249.492 177.113Q251.645 177.113 253.920 175.988Q256.196 174.862 257.517 173.003Z"/></svg>