<svg width="480px" height="360px" xmlns="http://www.w3.org/2000/svg"><rect x="216" y="124" width="80.5" height="80.5" fill-opacity="0"/><path fill="#F00" d="M273.810 156.905Q274.251 156.905 274.544 157.297Q274.838 157.688 274.691 158.128L274.691 158.128Q272.440 164.832 267.547 179.364L267.547 179.364Q267.352 180 266.667 180L266.667 180L264.416 180Q263.780 180 263.535 179.364L263.535 179.364L258.104 163.119L252.673 179.364Q252.477 180 251.792 180L251.792 180L249.541 180Q248.905 180 248.661 179.364L248.661 179.364Q248.122 177.651 245.138 168.795Q242.153 159.939 241.566 158.128L241.566 158.128Q241.419 157.688 241.688 157.297Q241.957 156.905 242.446 156.905L242.446 156.905L244.061 156.905Q244.746 156.905 244.942 157.541L244.942 157.541L250.667 174.618Q255.364 160.673 256.391 157.541L256.391 157.541Q256.587 156.905 257.272 156.905L257.272 156.905L258.936 156.905Q259.621 156.905 259.865 157.541L259.865 157.541L265.541 174.618Q270.239 160.673 271.266 157.541L271.266 157.541Q271.511 156.905 272.147 156.905L272.147 156.905L273.810 156.905Z"/></svg>