<svg width="480px" height="360px" xmlns="http://www.w3.org/2000/svg"><rect x="216" y="124" width="80.5" height="80.5" fill-opacity="0"/><path fill="#F00" d="M244.795 147.853L255.462 147.853Q259.376 147.853 262.679 149.786Q265.982 151.719 267.914 155.021Q269.847 158.324 269.847 162.239L269.847 162.239L269.847 165.468Q269.847 171.437 265.615 175.670Q261.382 179.902 255.462 179.902L255.462 179.902L244.795 179.902Q244.404 179.902 244.135 179.609Q243.865 179.315 243.865 178.972L243.865 178.972L243.865 148.783Q243.865 148.391 244.135 148.122Q244.404 147.853 244.795 147.853L244.795 147.853ZM266.422 165.468L266.422 165.468L266.422 162.239Q266.422 157.688 263.217 154.483Q260.012 151.278 255.462 151.278L255.462 151.278L247.291 151.278L247.291 176.477L255.462 176.477Q260.012 176.477 263.217 173.248Q266.422 170.018 266.422 165.468Z"/></svg>