<svg width="480px" height="360px" xmlns="http://www.w3.org/2000/svg"><rect x="216" y="124" width="80.5" height="80.5" fill-opacity="0"/><path fill="#F00" d="M242.691 147.168L244.257 147.168Q244.502 147.168 244.697 147.291Q244.893 147.413 245.040 147.609Q245.187 147.804 245.187 148.098L245.187 148.098L245.187 151.670Q245.187 152.893 243.768 155.046L243.768 155.046Q243.572 155.388 243.180 155.413Q242.789 155.437 242.544 155.144L242.544 155.144Q242.202 154.703 242.544 154.312L242.544 154.312Q243.621 153.089 243.621 151.670L243.621 151.670L243.621 151.474L242.691 151.474Q242.300 151.474 242.031 151.205Q241.761 150.936 241.761 150.544L241.761 150.544L241.761 148.098Q241.761 147.706 242.031 147.437Q242.300 147.168 242.691 147.168L242.691 147.168Z"/></svg>