<svg width="480px" height="360px" xmlns="http://www.w3.org/2000/svg"><rect x="216" y="124" width="80.5" height="80.5" fill-opacity="0"/><path fill="#F00" d="M249.158 159.730Q249.466 159.730 249.723 159.936Q249.981 160.141 252.785 162.559Q255.588 164.977 256.257 165.595L256.257 165.595Q256.566 165.852 256.566 166.264L256.566 166.264L256.566 169.762Q256.566 170.174 256.257 170.431L256.257 170.431Q250.958 175.010 250.392 175.524L250.392 175.524Q250.135 175.730 249.826 175.730L249.826 175.730L243.756 175.730Q243.138 175.730 242.932 175.164Q242.727 174.598 243.190 174.186L243.190 174.186L250.341 168.013Q245.248 163.588 242.521 161.222L242.521 161.222Q242.058 160.862 242.264 160.296Q242.469 159.730 243.087 159.730L243.087 159.730L249.158 159.730ZM270.611 165.595L270.611 165.595Q270.920 165.852 270.920 166.264L270.920 166.264L270.920 169.762Q270.920 170.174 270.611 170.431L270.611 170.431Q265.312 175.010 264.746 175.473L264.746 175.473Q264.489 175.730 264.180 175.730L264.180 175.730L258.109 175.730Q257.492 175.730 257.286 175.164Q257.080 174.598 257.543 174.186L257.543 174.186L264.695 168.013Q259.601 163.588 256.875 161.222L256.875 161.222Q256.412 160.810 256.617 160.270Q256.823 159.730 257.441 159.730L257.441 159.730L263.511 159.730Q263.820 159.730 264.077 159.936L264.077 159.936Q269.736 164.823 270.611 165.595Z"/></svg>