<svg width="480px" height="360px" xmlns="http://www.w3.org/2000/svg"><rect x="216" y="124" width="80.5" height="80.5" fill-opacity="0"/><path fill="#F00" d="M262.361 176.575Q262.703 176.575 262.997 176.869Q263.291 177.162 263.242 177.505L263.242 177.505L263.242 179.070Q263.242 179.462 262.972 179.731Q262.703 180 262.361 180L262.361 180L243.914 180Q243.523 180 243.254 179.731Q242.985 179.462 242.985 179.070L242.985 179.070L242.985 177.505Q242.985 177.113 243.254 176.844Q243.523 176.575 243.914 176.575L243.914 176.575L244.697 176.575Q244.991 176.575 245.235 176.477Q245.480 176.379 245.676 176.183Q245.872 175.988 245.994 175.719Q246.116 175.450 246.116 175.205L246.116 175.205L246.116 166.642L243.914 166.642Q243.523 166.642 243.254 166.373Q242.985 166.104 242.985 165.713L242.985 165.713L242.985 164.196Q242.985 163.804 243.254 163.535Q243.523 163.266 243.914 163.266L243.914 163.266L246.116 163.266L246.116 155.144Q246.116 151.963 248.391 149.713Q250.667 147.462 253.896 147.462Q257.125 147.462 259.425 149.713Q261.725 151.963 261.725 155.144L261.725 155.144L261.725 155.927Q261.725 156.269 261.456 156.563Q261.187 156.856 260.795 156.856L260.795 156.856L259.229 156.856Q258.838 156.856 258.569 156.563Q258.300 156.269 258.300 155.927L258.300 155.927L258.300 155.144Q258.300 153.333 257.003 152.086Q255.706 150.838 253.896 150.838Q252.086 150.838 250.789 152.086Q249.492 153.333 249.492 155.144L249.492 155.144L249.492 163.266L256.538 163.266Q256.930 163.266 257.199 163.535Q257.468 163.804 257.468 164.196L257.468 164.196L257.468 165.713Q257.468 166.104 257.199 166.373Q256.930 166.642 256.538 166.642L256.538 166.642L249.492 166.642L249.492 175.205Q249.492 175.890 249.297 176.575L249.297 176.575L262.361 176.575Z"/></svg>