<svg version="1.1" xmlns="http://www.w3.org/2000/svg" xmlns:xlink="http://www.w3.org/1999/xlink" width="166.4358" height="156.21981" viewBox="0,0,166.4358,156.21981"><g transform="translate(-230.43826,-106.51566)"><g data-paper-data="{&quot;isPaintingLayer&quot;:true}" fill-rule="nonzero" stroke-linejoin="miter" stroke-miterlimit="10" stroke-dasharray="" stroke-dashoffset="0" style="mix-blend-mode: normal"><path d="M332.50364,216.06888l23.4314,-64.24739l5.38032,1.96224l-23.4314,64.24739z" fill="#a5a5a5" stroke="#828282" stroke-width="2.5" stroke-linecap="butt"/><path d="M341.81239,220.99002c0,24.47103 -22.06404,32.36059 -49.34322,32.36059c-27.27918,0 -49.34322,-7.88957 -49.34322,-32.36059c0,-11.50005 3.20932,-24.73847 10.29655,-35.43619l-5.75002,-19.38961c-1.06977,-3.61048 2.67443,-7.08724 6.15119,-5.6163l19.12217,8.02329c5.6163,-2.54071 12.03493,-4.01164 19.52333,-4.01164c7.35468,0 13.77331,1.60466 19.38961,4.14537l19.25589,-8.02329c3.47676,-1.47094 7.22096,2.00582 6.15119,5.6163l-5.88374,19.65705c6.95352,10.564 10.29655,23.6687 10.43027,35.03502z" fill="#ff7319" stroke="none" stroke-width="1" stroke-linecap="butt"/><path d="M330.98095,236.50171c0,12.83726 -17.25007,16.98263 -38.6455,16.98263c-21.39543,0 -38.6455,-4.14537 -38.6455,-16.98263c0,-12.83726 11.50005,-29.55244 38.6455,-29.55244c26.61057,0 38.6455,16.71518 38.6455,29.55244z" fill="#ffffff" stroke="none" stroke-width="1" stroke-linecap="butt"/><path d="M288.05636,212.83301c0,-1.73838 1.8721,-2.27326 4.27909,-2.27326c2.40699,0 4.27909,0.53489 4.27909,2.27326c0,1.73838 -1.33721,3.87792 -4.27909,3.87792c-2.94187,0 -4.27909,-2.13954 -4.27909,-3.87792z" fill="#945600" stroke="#000000" stroke-width="1.5" stroke-linecap="butt"/><path d="M284.98077,225.67027c4.01164,0 7.35468,-3.34304 7.35468,-7.35468c0,-0.26744 0,-0.26744 0,-0.26744c0,-0.26744 0,-0.40116 0,-0.40116c0,0 0,0.13372 0,0.40116c0,0 0,0 0,0.26744c0,4.14537 3.34304,7.35468 7.35468,7.35468" fill="none" stroke="#000000" stroke-width="2.5" stroke-linecap="round"/><path d="M279.80862,198.12365c0,-2.28942 1.85595,-4.14537 4.14537,-4.14537c2.28942,0 4.14537,1.85595 4.14537,4.14537c0,2.28942 -1.85595,4.14537 -4.14537,4.14537c-2.28942,0 -4.14537,-1.85595 -4.14537,-4.14537z" fill="#000000" stroke="none" stroke-width="1" stroke-linecap="butt"/><path d="M296.92497,198.12365c0,-2.28942 1.85595,-4.14537 4.14537,-4.14537c2.28942,0 4.14537,1.85595 4.14537,4.14537c0,2.28942 -1.85595,4.14537 -4.14537,4.14537c-2.28942,0 -4.14537,-1.85595 -4.14537,-4.14537z" fill="#000000" stroke="none" stroke-width="1" stroke-linecap="butt"/><path d="M262.38184,175.92589c-2.80815,2.40699 -5.08142,4.68025 -7.22096,8.15701l-5.21514,-18.0524c-0.40116,-2.13954 1.60466,-4.01164 3.7442,-3.34304l17.25007,7.22096c-3.87792,1.60466 -6.15119,3.7442 -8.55817,6.01747z" fill="#77500c" stroke="none" stroke-width="1" stroke-linecap="butt"/><path d="M314.26577,169.90842l17.25007,-7.22096c2.13954,-0.66861 4.14537,1.20349 3.7442,3.34304l-5.08142,18.0524c-2.00582,-3.47676 -4.41281,-5.75002 -7.08724,-8.15701c-2.67443,-2.27326 -4.94769,-4.41281 -8.82562,-6.01747z" fill="#77500c" stroke="none" stroke-width="1" stroke-linecap="butt"/><path d="M288.05219,196.50689c0.26744,0 0.26744,0 0.26744,0c0.26744,0 0.40116,0 0.40116,0c0,0 -0.13372,0 -0.40116,0c0,0 0,0 -0.26744,0c-4.01164,0 -7.35468,-3.34304 -7.35468,-7.35468" fill="none" stroke="#000000" stroke-width="2.5" stroke-linecap="round"/><path d="M304.2178,188.92242c0,4.01164 -3.34304,7.35468 -7.35468,7.35468c-0.26744,0 -0.26744,0 -0.26744,0c-0.26744,0 -0.40116,0 -0.40116,0c0,0 0.13372,0 0.40116,0c0,0 0,0 0.26744,0" data-paper-data="{&quot;index&quot;:null}" fill="none" stroke="#000000" stroke-width="2.5" stroke-linecap="round"/><g stroke-linecap="butt"><path d="M344.85862,156.19361l-6.74589,-20.40006l7.8087,-18.91914l19.48504,-8.99491l22.35224,9.22568l7.77267,20.85191l-7.27386,17.62331l-18.19581,11.01555z" fill="#f40000" stroke="#820000" stroke-width="2.5"/><text transform="translate(346.18453,135.41759) rotate(22.42795) scale(0.41244,0.41569)" font-size="40" xml:space="preserve" fill="#f5f5f5" fill-rule="nonzero" stroke="none" stroke-width="1" stroke-linecap="butt" stroke-linejoin="miter" stroke-miterlimit="10" stroke-dasharray="" stroke-dashoffset="0" font-family="Sans Serif" font-weight="normal" text-anchor="start" style="mix-blend-mode: normal"><tspan x="0" dy="0">STOP</tspan></text></g><path d="M330.88688,237.73764v0" fill="#ffffff" stroke="none" stroke-width="1" stroke-linecap="butt"/><path d="M244.00416,237.73764" fill="#ffffff" stroke="none" stroke-width="1" stroke-linecap="butt"/><path d="M342.92852,225.696c0,27.89393 -25.15026,36.88705 -56.24513,36.88705c-31.09487,0 -56.24513,-8.99312 -56.24513,-36.88705c0,-13.10862 3.65822,-28.19878 11.73679,-40.39284l-6.55431,-22.10174c-1.21941,-4.1155 3.04852,-8.07857 7.01159,-6.40188l21.79689,9.14555c6.40188,-2.89609 13.71832,-4.57277 22.25417,-4.57277c8.38342,0 15.69986,1.82911 22.10174,4.7252l21.94932,-9.14555c3.96307,-1.67668 8.23099,2.28639 7.01159,6.40188l-6.70674,22.4066c8.07857,12.04164 11.88921,26.97937 11.88921,39.93557z" fill="#ff7319" stroke="none" stroke-width="1" stroke-linecap="butt"/><path d="M330.73445,243.3774c0,14.63288 -19.66293,19.35808 -44.05106,19.35808c-24.38813,0 -44.05106,-4.7252 -44.05106,-19.35808c0,-14.63288 13.10862,-33.68611 44.05106,-33.68611c30.18031,0 44.05106,19.05323 44.05106,33.68611z" fill="#ffffff" stroke="none" stroke-width="1" stroke-linecap="butt"/><path d="M281.80576,216.39803c0,-1.98154 2.13396,-2.59124 4.87763,-2.59124c2.74366,0 4.87763,0.6097 4.87763,2.59124c0,1.98154 -1.52426,4.42035 -4.87763,4.42035c-3.35337,0 -4.87763,-2.43881 -4.87763,-4.42035z" fill="#945600" stroke="#000000" stroke-width="1.5" stroke-linecap="butt"/><path d="M269.91655,228.80911c0,-4.7252 3.81065,-8.38342 8.38342,-8.38342c4.57277,0 8.38342,3.81065 8.38342,8.38342c0,0.30485 0,0.30485 0,0.30485c0,0.30485 0,0.45728 0,0.45728c0,0 0,-0.15243 0,-0.45728c0,0 0,0 0,-0.30485c0,-4.7252 3.81065,-8.38342 8.38342,-8.38342c4.57277,0 8.38342,3.81065 8.38342,8.38342" data-paper-data="{&quot;index&quot;:null}" fill="none" stroke="#000000" stroke-width="2.5" stroke-linecap="round"/><path d="M272.20294,199.47876c0,-2.60965 2.11555,-4.7252 4.7252,-4.7252c2.60965,0 4.7252,2.11555 4.7252,4.7252c0,2.60965 -2.11555,1.62884 -4.7252,1.62884c-2.60965,0 -4.7252,0.98081 -4.7252,-1.62884z" fill="#000000" stroke="none" stroke-width="1" stroke-linecap="butt"/><path d="M291.71344,199.47876c0,-2.60965 2.11555,-4.7252 4.7252,-4.7252c2.60965,0 4.7252,2.11555 4.7252,4.7252c0,2.60965 -2.11555,4.7252 -4.7252,4.7252c-2.60965,0 -4.7252,-2.11555 -4.7252,-4.7252z" fill="#000000" stroke="none" stroke-width="1" stroke-linecap="butt"/><path d="M252.38758,174.3285c-3.04852,2.74366 -5.79218,5.3349 -8.07857,9.29798l-5.94461,-20.57749c-0.45728,-2.43881 1.82911,-4.57277 4.26792,-3.81065l19.66293,8.23099c-4.57277,1.82911 -7.01159,4.26792 -9.90768,6.85916z" fill="#77500c" stroke="none" stroke-width="1" stroke-linecap="butt"/><path d="M311.68123,167.46934l19.66293,-8.23099c2.43881,-0.76213 4.7252,1.37183 4.26792,3.81065l-5.79218,20.72991c-2.43881,-3.96307 -5.03005,-6.55431 -8.23099,-9.29798c-2.89609,-2.74366 -5.48733,-5.18248 -9.90768,-7.01159z" fill="#77500c" stroke="none" stroke-width="1" stroke-linecap="butt"/><path d="M291.14397,203.66443c1.44604,-0.48202 1.92806,0.96402 1.92806,0.96402l0.01958,0.56762c2.40151,2.41798 5.09364,3.09542 5.97517,-0.4553c0,0 0.36968,-1.47874 1.84843,-1.10906c1.47875,0.36969 1.10907,1.84843 1.10907,1.84843c-1.52229,6.05152 -7.13795,5.79878 -11.08829,1.87155l-0.75603,-1.75921c0,0 -0.48202,-1.44603 0.96402,-1.92805z" fill-opacity="0.41569" fill="#000000" stroke="none" stroke-width="0.5" stroke-linecap="butt"/><path d="M271.61885,202.56009c1.44604,-0.48202 1.92806,0.96402 1.92806,0.96402l0.01958,0.56762c2.40151,2.41798 5.09364,3.09542 5.97517,-0.4553c0,0 0.36968,-1.47874 1.84843,-1.10906c1.47875,0.36969 1.10907,1.84843 1.10907,1.84843c-1.52229,6.05152 -7.13795,5.79878 -11.08829,1.87155l-0.75603,-1.75921c0,0 -0.48202,-1.44603 0.96402,-1.92805z" fill-opacity="0.51765" fill="#000000" stroke="none" stroke-width="0.5" stroke-linecap="butt"/></g></g></svg>