<svg width="480px" height="360px" xmlns="http://www.w3.org/2000/svg"><rect x="216" y="124" width="80.5" height="80.5" fill-opacity="0"/><path fill="#F00" d="M261.968 163.691L261.968 163.691Q262.122 164.154 261.865 164.540Q261.608 164.926 261.145 164.926L261.145 164.926L256.823 164.926Q256.257 164.926 256.051 164.412L256.051 164.412L252.090 155.151Q248.952 162.405 248.077 164.412L248.077 164.412Q247.871 164.926 247.305 164.926L247.305 164.926L242.984 164.926Q242.521 164.926 242.264 164.540Q242.006 164.154 242.161 163.691L242.161 163.691L249.055 147.743Q249.312 147.228 249.826 147.228L249.826 147.228L254.302 147.228Q254.817 147.228 255.074 147.743L255.074 147.743Q260.270 159.833 261.968 163.691Z"/></svg>