<svg width="480px" height="360px" xmlns="http://www.w3.org/2000/svg"><rect x="216" y="124" width="80.5" height="80.5" fill-opacity="0"/><path fill="#F00" d="M266.528 147.560L266.528 147.560Q266.577 147.609 266.602 147.658Q266.626 147.707 266.626 147.927Q266.626 148.147 266.528 148.293L266.528 148.293Q266.089 150.638 263.817 163.731Q261.545 176.824 261.105 179.169L261.105 179.169Q261.105 179.560 260.715 179.902L260.715 179.902Q260.617 179.902 260.348 180Q260.079 180.098 259.982 180.098L259.982 180.098L258.369 180.098Q257.979 180.098 257.808 179.927Q257.637 179.756 257.637 179.169L257.637 179.169L258.174 176.482Q254.021 180.635 248.354 180.635L248.354 180.635Q244.788 180.635 243.298 177.313Q241.808 173.991 242.931 167.933L242.931 167.933Q243.860 162.608 246.327 159.603Q248.794 156.598 252.556 156.452L252.556 156.452Q258.027 156.256 260.910 161.191L260.910 161.191Q262.718 151.176 263.255 148.293L263.255 148.293Q263.255 147.902 263.597 147.634Q263.939 147.365 264.379 147.365L264.379 147.365L265.991 147.365Q266.382 147.365 266.528 147.560ZM258.907 172.623L258.907 172.623L260.373 165.197Q260.177 164.708 259.957 164.171Q259.737 163.634 259.127 162.754Q258.516 161.875 257.759 161.240Q257.002 160.605 255.756 160.140Q254.510 159.676 253.093 159.725L253.093 159.725Q250.602 159.725 248.916 161.875Q247.231 164.024 246.547 167.737L246.547 167.737Q245.716 172.085 246.620 174.553Q247.524 177.020 250.015 177.020L250.015 177.020Q251.627 177.020 253.240 176.482Q254.852 175.945 256 175.139Q257.148 174.333 257.832 173.722Q258.516 173.111 258.907 172.623Z"/></svg>