<svg width="480px" height="360px" xmlns="http://www.w3.org/2000/svg"><rect x="216" y="124" width="80.5" height="80.5" fill-opacity="0"/><path fill="#F00" d="M268.824 153.325L268.824 153.325Q268.824 153.863 268.678 154.058L268.678 154.058Q268.678 154.107 268.580 154.205Q268.482 154.302 268.336 154.400Q268.189 154.498 268.092 154.595L268.092 154.595Q267.017 154.937 266.675 155.133L266.675 155.133Q265.893 155.377 265.551 154.742L265.551 154.742Q264.916 152.739 263.231 151.835Q261.545 150.931 258.663 150.931L258.663 150.931Q254.852 150.931 252.116 152.739L252.116 152.739Q251.090 153.423 250.260 154.302Q249.429 155.182 248.843 156.208Q248.256 157.234 247.841 158.186Q247.426 159.139 247.108 160.287Q246.791 161.435 246.620 162.241Q246.449 163.047 246.302 164.024L246.302 164.024Q246.009 165.637 245.911 166.858Q245.814 168.079 245.838 169.789Q245.863 171.499 246.449 172.916Q247.035 174.333 248.110 175.310L248.110 175.310Q250.260 177.118 254.119 177.118L254.119 177.118Q256.073 177.118 257.539 176.727Q259.005 176.336 260.202 175.505Q261.398 174.675 262.278 173.307L262.278 173.307Q262.962 172.623 263.548 172.965L263.548 172.965Q263.744 173.014 264.208 173.209Q264.672 173.405 264.818 173.502L264.818 173.502Q265.209 173.844 265.209 174.040L265.209 174.040Q265.209 174.577 265.014 174.773L265.014 174.773Q263.304 177.606 260.666 178.925L260.666 178.925Q257.637 180.586 253.386 180.586L253.386 180.586Q247.915 180.586 245.374 178.046L245.374 178.046Q241.026 173.893 242.834 164.024L242.834 164.024Q244.592 153.911 250.308 150.052L250.308 150.052Q254.412 147.511 259.200 147.511L259.200 147.511Q263.499 147.511 265.942 149.124L265.942 149.124Q267.945 150.394 268.824 153.325Z"/></svg>