<svg width="480px" height="360px" xmlns="http://www.w3.org/2000/svg"><rect x="216" y="124" width="80.5" height="80.5" fill-opacity="0"/><path fill="#F00" d="M260.959 157.380L260.959 157.380Q260.959 158.113 260.763 158.260L260.763 158.260L252.605 168.470Q252.947 169.252 253.508 170.522Q254.070 171.792 255.292 174.528Q256.513 177.264 257.148 178.632L257.148 178.632Q257.148 179.169 256.953 179.560L256.953 179.560Q256.660 180.098 256.024 180.098L256.024 180.098L254.217 180.098Q253.875 180.098 253.484 179.756L253.484 179.756Q253.337 179.463 253.118 179.023Q252.898 178.583 252.653 178.070Q252.409 177.557 252.140 176.971Q251.872 176.385 251.603 175.798Q251.334 175.212 251.090 174.650Q250.846 174.089 250.626 173.600Q250.406 173.111 250.235 172.721Q250.064 172.330 249.966 172.134L249.966 172.134L249.869 171.939Q244.934 178.095 243.518 179.756L243.518 179.756Q243.127 180.098 242.589 180.098L242.589 180.098L240.782 180.098Q240.635 180.098 240.513 180.024Q240.391 179.951 240.342 179.878Q240.293 179.805 240.195 179.707Q240.098 179.609 240.049 179.560L240.049 179.560Q239.853 179.365 240.244 178.632L240.244 178.632L248.403 168.470Q245.325 161.386 243.860 158.260L243.860 158.260Q243.860 157.722 244.055 157.380L244.055 157.380Q244.299 156.843 244.934 156.843L244.934 156.843L246.791 156.843Q247.133 156.843 247.524 157.185L247.524 157.185Q247.670 157.527 247.988 158.137Q248.305 158.748 248.623 159.456Q248.940 160.165 249.307 160.947Q249.673 161.728 249.991 162.437Q250.308 163.145 250.577 163.731Q250.846 164.318 250.992 164.660L250.992 164.660L251.139 165.002Q256.073 158.846 257.490 157.185L257.490 157.185Q257.881 156.843 258.418 156.843L258.418 156.843L260.226 156.843Q260.666 156.843 260.959 157.380Z"/></svg>