<svg width="480px" height="360px" xmlns="http://www.w3.org/2000/svg"><rect x="216" y="124" width="80.5" height="80.5" fill-opacity="0"/><path fill="#F00" d="M259.278 148Q259.768 148 260.061 148.416Q260.355 148.832 260.110 149.321L260.110 149.321Q258.495 152.697 251.792 166.936Q245.089 181.174 244.599 182.202L244.599 182.202Q244.355 182.740 243.768 182.740L243.768 182.740L242.055 182.740Q241.566 182.740 241.272 182.300Q240.979 181.859 241.223 181.419L241.223 181.419Q254.141 153.969 256.734 148.489L256.734 148.489Q256.979 148 257.566 148L257.566 148L259.278 148Z"/></svg>