<svg width="480px" height="360px" xmlns="http://www.w3.org/2000/svg"><rect x="216" y="124" width="80.5" height="80.5" fill-opacity="0"/><path fill="#F00" d="M264.574 156.256L264.574 156.256Q264.330 157.673 263.573 158.895Q262.815 160.116 261.863 160.898Q260.910 161.679 259.982 162.266Q259.053 162.852 258.467 163.096L258.467 163.096L257.832 163.389Q258.076 163.438 258.467 163.634Q258.858 163.829 259.811 164.513Q260.763 165.197 261.447 166.003Q262.131 166.809 262.571 168.202Q263.011 169.594 262.718 171.206L262.718 171.206Q262.034 175.066 258.443 177.850Q254.852 180.635 250.357 180.635L250.357 180.635Q248.061 180.635 245.350 179.682Q242.638 178.730 240.733 176.824L240.733 176.824Q240.537 176.629 240.537 176.092L240.537 176.092Q240.537 175.750 240.928 175.359L240.928 175.359Q241.124 175.163 241.563 174.821Q242.003 174.479 242.198 174.284L242.198 174.284Q242.931 173.551 243.469 174.089L243.469 174.089Q244.544 175.212 246.571 176.189Q248.598 177.166 250.944 177.166L250.944 177.166Q253.973 177.166 256.415 175.456Q258.858 173.747 259.298 171.206L259.298 171.206Q259.737 168.470 257.295 166.663L257.295 166.663Q255.243 165.197 252.556 165.197L252.556 165.197L250.211 165.197Q249.820 165.197 249.649 165.002Q249.478 164.806 249.478 164.269L249.478 164.269Q249.478 164.024 249.576 163.463Q249.673 162.901 249.673 162.656L249.673 162.656Q249.673 162.266 250.015 161.924L250.015 161.924Q250.113 161.924 250.382 161.826Q250.650 161.728 250.748 161.728L250.748 161.728L252.751 161.728Q255.634 161.728 258.369 160.116L258.369 160.116Q260.617 158.504 261.105 156.256L261.105 156.256Q261.350 154.742 260.641 153.496Q259.933 152.250 258.516 151.542Q257.099 150.834 255.292 150.834L255.292 150.834Q253.679 150.834 251.456 151.542Q249.234 152.250 247.279 153.569L247.279 153.569Q246.351 154.205 246.009 153.569L246.009 153.569Q245.960 153.423 245.838 153.276Q245.716 153.130 245.618 152.983Q245.521 152.837 245.374 152.641Q245.227 152.446 245.081 152.299L245.081 152.299Q244.934 152.104 244.934 151.566L244.934 151.566Q245.081 151.176 245.472 150.834L245.472 150.834Q251.237 147.365 255.829 147.365L255.829 147.365Q260.128 147.365 262.693 150.027Q265.258 152.690 264.574 156.256Z"/></svg>