<svg width="480px" height="360px" xmlns="http://www.w3.org/2000/svg"><rect x="216" y="124" width="80.5" height="80.5" fill-opacity="0"/><path fill="#F00" d="M259.982 158.846L259.982 158.846Q260.226 159.041 259.982 159.725L259.982 159.725Q259.982 160.116 259.640 160.458L259.640 160.458L258.369 161.728Q257.832 162.266 257.099 161.924L257.099 161.924Q254.070 160.116 252.018 160.116L252.018 160.116Q250.064 160.116 248.427 161.093Q246.791 162.070 246.547 163.536L246.547 163.536Q246.302 165.099 248.012 166.076L248.012 166.076Q248.843 166.614 250.699 167.224Q252.556 167.835 253.093 168.079L253.093 168.079Q255.292 168.959 256.562 169.936L256.562 169.936Q258.321 171.402 257.832 173.747L257.832 173.747Q257.246 176.531 254.534 178.583Q251.823 180.635 248.354 180.635L248.354 180.635Q246.693 180.635 244.739 180Q242.785 179.365 241.270 178.095L241.270 178.095Q241.075 177.899 241.075 177.362L241.075 177.362Q241.075 177.020 241.466 176.629L241.466 176.629Q241.612 176.482 242.076 176.116Q242.540 175.750 242.736 175.554L242.736 175.554Q243.469 174.821 244.006 175.359L244.006 175.359Q244.690 175.896 245.643 176.287Q246.595 176.678 247.475 176.849Q248.354 177.020 249.087 177.020L249.087 177.020Q251.041 177.020 252.653 176.018Q254.266 175.017 254.559 173.551L254.559 173.551Q254.656 173.063 254.412 172.769Q254.168 172.476 253.631 172.085L253.631 172.085Q253.240 171.792 252.702 171.548Q252.165 171.304 251.115 170.937Q250.064 170.571 249.820 170.473L249.820 170.473Q246.595 169.398 245.276 168.275L245.276 168.275Q242.931 166.223 243.469 163.194L243.469 163.194Q244.006 160.409 246.718 158.357Q249.429 156.305 252.898 156.305L252.898 156.305Q254.559 156.305 256.513 156.940Q258.467 157.576 259.982 158.846Z"/></svg>