<svg width="480px" height="360px" xmlns="http://www.w3.org/2000/svg"><rect x="216" y="124" width="80.5" height="80.5" fill-opacity="0"/><path fill="#F00" d="M266.275 148.538Q266.667 148.538 266.936 148.807Q267.205 149.076 267.205 149.468L267.205 149.468L267.205 179.609Q267.205 180 266.936 180.269Q266.667 180.538 266.275 180.538L266.275 180.538L263.633 180.538Q263.144 180.538 262.850 180.098L262.850 180.098L247.242 154.165L247.242 179.609Q247.242 180 246.972 180.269Q246.703 180.538 246.312 180.538L246.312 180.538L244.746 180.538Q244.355 180.538 244.086 180.269Q243.817 180 243.817 179.609L243.817 179.609L243.817 149.468Q243.817 149.076 244.086 148.807Q244.355 148.538 244.746 148.538L244.746 148.538L247.339 148.538Q247.829 148.538 248.122 148.979L248.122 148.979L263.829 174.911L263.829 149.468Q263.829 149.272 263.902 149.101Q263.976 148.930 264.098 148.807Q264.220 148.685 264.391 148.612Q264.563 148.538 264.758 148.538L264.758 148.538L266.275 148.538Z"/></svg>