<svg width="480px" height="360px" xmlns="http://www.w3.org/2000/svg"><rect x="216" y="124" width="80.5" height="80.5" fill-opacity="0"/><path fill="#F00" d="M249.723 174.238L265.569 174.238Q266.032 174.238 266.264 174.495Q266.495 174.752 266.341 175.215L266.341 175.215L266.341 179.228Q266.341 179.588 266.161 179.794Q265.981 180 265.569 180L265.569 180L243.756 180Q243.550 180 243.190 179.588L243.190 179.588Q242.984 179.383 242.984 179.023L242.984 179.023L242.984 177.119Q242.984 172.849 246.431 169.042L246.431 169.042Q249.466 166.367 253.170 164.103L253.170 164.103Q256.257 162.405 258.675 160.244L258.675 160.244Q260.424 158.547 260.424 157.003L260.424 157.003Q260.424 156.283 260.116 155.588Q259.807 154.894 259.241 154.354Q258.675 153.814 257.826 153.505Q256.977 153.196 256 153.196L256 153.196Q253.788 153.196 251.859 154.508Q249.929 155.820 248.746 157.209L248.746 157.209Q248.592 157.466 248.232 157.518Q247.871 157.569 247.614 157.363L247.614 157.363Q247.100 157.106 245.968 156.232Q244.836 155.357 244.322 155.100L244.322 155.100Q243.961 154.688 243.961 154.534L243.961 154.534Q243.961 153.916 244.322 153.762L244.322 153.762Q244.939 153.093 245.608 152.424Q246.277 151.756 247.511 150.804Q248.746 149.852 250.006 149.158Q251.267 148.463 252.913 147.949Q254.559 147.434 256.206 147.434L256.206 147.434Q259.241 147.434 261.556 148.849Q263.871 150.264 265.029 152.399Q266.186 154.534 266.186 157.003L266.186 157.003Q266.186 162.508 258.881 167.344L258.881 167.344Q258.006 167.961 256.489 168.939Q254.971 169.916 253.762 170.740Q252.553 171.563 251.627 172.334L251.627 172.334Q250.547 173.158 249.723 174.238L249.723 174.238Z"/></svg>