<svg width="480px" height="360px" xmlns="http://www.w3.org/2000/svg"><rect x="216" y="124" width="80.5" height="80.5" fill-opacity="0"/><path fill="#F00" d="M275.447 156.180Q275.859 156.180 276.116 156.540Q276.373 156.900 276.270 157.312L276.270 157.312Q275.550 159.627 272.695 168.887Q269.839 178.148 269.479 179.383L269.479 179.383Q269.273 180 268.656 180L268.656 180L263.974 180Q263.305 180 263.151 179.383L263.151 179.383L258.984 165.904Q255.691 176.707 254.868 179.383L254.868 179.383Q254.662 180 254.045 180L254.045 180L249.312 180Q248.695 180 248.540 179.383L248.540 179.383Q248.129 178.148 246.688 173.441Q245.248 168.733 243.756 163.897Q242.264 159.061 241.749 157.312L241.749 157.312Q241.595 156.900 241.852 156.540Q242.109 156.180 242.572 156.180L242.572 156.180L246.740 156.180Q247.357 156.180 247.563 156.797L247.563 156.797L251.678 170.277Q255.023 159.473 255.846 156.797L255.846 156.797Q256 156.180 256.669 156.180L256.669 156.180L261.350 156.180Q261.968 156.180 262.174 156.797L262.174 156.797L266.289 170.277Q269.633 159.473 270.457 156.797L270.457 156.797Q270.611 156.180 271.280 156.180L271.280 156.180L275.447 156.180Z"/></svg>