<svg width="480px" height="360px" xmlns="http://www.w3.org/2000/svg"><rect x="216" y="124" width="80.5" height="80.5" fill-opacity="0"/><path fill="#F00" d="M258.223 156.452L258.223 156.452Q262.034 156.452 263.426 159.505Q264.818 162.559 263.841 167.933L263.841 167.933Q262.766 174.040 260.153 177.337Q257.539 180.635 254.021 180.635L254.021 180.635Q248.598 180.635 245.667 176.482L245.667 176.482L245.130 179.169Q245.130 179.560 244.739 179.902L244.739 179.902Q244.641 179.902 244.373 180Q244.104 180.098 244.006 180.098L244.006 180.098L242.394 180.098Q242.003 180.098 241.832 179.927Q241.661 179.756 241.661 179.169L241.661 179.169Q242.101 176.824 244.373 163.731Q246.644 150.638 247.133 148.293L247.133 148.293Q247.133 147.902 247.475 147.560L247.475 147.560Q247.573 147.560 247.841 147.463Q248.110 147.365 248.208 147.365L248.208 147.365L249.820 147.365Q250.553 147.365 250.553 148.293L250.553 148.293L248.208 161.191Q252.751 156.256 258.223 156.452ZM260.373 167.933L260.373 167.933Q261.105 164.220 260.153 162.070Q259.200 159.921 256.562 159.921L256.562 159.921Q254.852 159.921 253.191 160.605Q251.530 161.289 250.357 162.266Q249.185 163.243 248.452 164.049Q247.719 164.855 247.475 165.392L247.475 165.392L246.205 172.818Q246.400 173.307 246.864 173.918Q247.328 174.528 248.183 175.334Q249.038 176.140 250.504 176.653Q251.969 177.166 253.679 177.166L253.679 177.166Q255.976 177.166 257.783 174.724Q259.591 172.281 260.373 167.933Z"/></svg>