<svg version="1.1" xmlns="http://www.w3.org/2000/svg" xmlns:xlink="http://www.w3.org/1999/xlink" width="33.01886" height="33.01886" viewBox="0,0,33.01886,33.01886"><g transform="translate(-303.49057,-163.49057)"><g data-paper-data="{&quot;isPaintingLayer&quot;:true}" fill-rule="nonzero" stroke-miterlimit="10" stroke-dasharray="" stroke-dashoffset="0" style="mix-blend-mode: normal"><path d="M303.49057,180c0,-9.11791 7.39153,-16.50943 16.50943,-16.50943c9.11791,0 16.50943,7.39153 16.50943,16.50943c0,9.11791 -7.39153,16.50943 -16.50943,16.50943c-9.11791,0 -16.50943,-7.39153 -16.50943,-16.50943z" fill="#f9af36" stroke="none" stroke-width="0" stroke-linecap="butt" stroke-linejoin="miter"/><g fill="none" stroke="#ffffff" stroke-width="2.5" stroke-linecap="round" stroke-linejoin="round"><path d="M313.25467,171.99857c0,0 0.88904,-0.88904 3.55618,-0.88904c2.66714,0 4.44524,1.7781 7.11238,1.7781c2.66714,0 3.55618,-0.88904 3.55618,-0.88904v10.66857c0,0 -0.88904,0.88904 -3.55618,0.88904c-2.66714,0 -4.44524,-1.7781 -7.11238,-1.7781c-2.66714,0 -3.55618,0.88904 -3.55618,0.88904z"/><path d="M313.25467,182.66714v6.22333"/></g></g></g></svg>