<svg width="480px" height="360px" xmlns="http://www.w3.org/2000/svg"><rect x="216" y="124" width="80.5" height="80.5" fill-opacity="0"/><path fill="#F00" d="M271.280 148Q271.743 148 272 148.386Q272.257 148.772 272.051 149.235L272.051 149.235Q271.125 150.984 267.473 158.264Q263.820 165.543 260.682 171.768Q257.543 177.994 256.772 179.537L256.772 179.537Q256.566 180 256 180L256 180L251.576 180Q251.061 180 250.830 179.588Q250.598 179.177 250.804 178.765L250.804 178.765Q251.576 177.222 258.315 163.846Q265.055 150.469 266.032 148.463L266.032 148.463Q266.289 148 266.804 148L266.804 148L271.280 148ZM278.945 171.460L278.945 171.460Q278.945 171.666 278.945 171.794Q278.945 171.923 278.945 172.129L278.945 172.129Q278.945 176.605 276.733 178.714L276.733 178.714Q274.881 180.412 271.794 180.514L271.794 180.514L271.640 180.514Q268.502 180.412 266.701 178.714L266.701 178.714Q264.489 176.605 264.489 172.129L264.489 172.129Q264.489 171.923 264.489 171.794Q264.489 171.666 264.489 171.460L264.489 171.460Q264.489 166.984 266.701 164.875L266.701 164.875Q268.502 163.125 271.640 163.074L271.640 163.074L271.794 163.074Q274.932 163.125 276.733 164.875L276.733 164.875Q278.945 166.984 278.945 171.460ZM273.235 172.129L273.235 172.129Q273.235 171.974 273.235 171.871L273.235 171.871L273.235 171.717Q273.235 171.614 273.235 171.460L273.235 171.460Q273.235 170.482 273.132 169.839Q273.029 169.196 272.823 169.042L272.823 169.042Q272.566 168.785 271.691 168.785L271.691 168.785Q270.817 168.785 270.611 169.042L270.611 169.042Q270.405 169.196 270.277 169.839Q270.148 170.482 270.148 171.460L270.148 171.460Q270.148 171.614 270.148 171.717L270.148 171.717L270.148 171.871Q270.148 171.974 270.148 172.129L270.148 172.129Q270.148 173.106 270.277 173.749Q270.405 174.392 270.611 174.547L270.611 174.547Q270.817 174.804 271.691 174.804L271.691 174.804Q272.566 174.804 272.823 174.547L272.823 174.547Q273.029 174.392 273.132 173.749Q273.235 173.106 273.235 172.129ZM257.389 156.540L257.389 156.540Q257.389 161.016 255.228 163.074L255.228 163.074Q253.376 164.823 250.238 164.926L250.238 164.926L250.135 164.926Q246.997 164.823 245.145 163.074L245.145 163.074Q242.932 161.016 242.932 156.540L242.932 156.540Q242.932 156.283 242.932 156.180Q242.932 156.077 242.932 155.871L242.932 155.871Q242.932 151.395 245.145 149.286L245.145 149.286Q246.997 147.537 250.135 147.486L250.135 147.486L250.238 147.486Q253.376 147.537 255.228 149.286L255.228 149.286Q257.389 151.395 257.389 155.871L257.389 155.871Q257.389 156.077 257.389 156.180Q257.389 156.283 257.389 156.540ZM251.730 156.540L251.730 156.540Q251.730 156.386 251.730 156.283L251.730 156.283L251.730 156.129Q251.730 156.026 251.730 155.871L251.730 155.871Q251.730 154.842 251.601 154.225Q251.473 153.608 251.267 153.453L251.267 153.453Q251.061 153.196 250.186 153.196L250.186 153.196Q249.312 153.196 249.055 153.453L249.055 153.453Q248.849 153.608 248.746 154.225L248.746 154.225Q248.643 154.894 248.643 155.871L248.643 155.871Q248.643 156.026 248.643 156.129L248.643 156.129L248.643 156.283Q248.643 156.386 248.643 156.540L248.643 156.540Q248.643 157.518 248.746 158.135L248.746 158.135Q248.849 158.804 249.055 158.958L249.055 158.958Q249.312 159.215 250.186 159.215L250.186 159.215Q251.061 159.215 251.267 158.958L251.267 158.958Q251.473 158.804 251.601 158.161Q251.730 157.518 251.730 156.540Z"/></svg>