<svg width="480px" height="360px" xmlns="http://www.w3.org/2000/svg"><rect x="216" y="124" width="80.5" height="80.5" fill-opacity="0"/><path fill="#F00" d="M251.205 160.477L249.688 160.477Q249.297 160.477 249.028 160.208Q248.758 159.939 248.758 159.547L248.758 159.547L248.758 157.052Q248.758 156.709 249.028 156.416Q249.297 156.122 249.688 156.122L249.688 156.122L251.205 156.122Q251.596 156.122 251.865 156.416Q252.135 156.709 252.135 157.052L252.135 157.052L252.135 159.547Q252.135 159.939 251.865 160.208Q251.596 160.477 251.205 160.477L251.205 160.477ZM258.789 179.657Q259.180 179.657 259.450 179.976Q259.719 180.294 259.670 180.734L259.670 180.734Q259.474 181.566 259.205 182.422Q258.936 183.278 258.251 184.428Q257.566 185.578 256.612 186.410Q255.657 187.242 254.043 187.853Q252.428 188.465 250.471 188.465L250.471 188.465Q246.899 188.465 244.379 185.872Q241.859 183.278 241.859 179.609L241.859 179.609Q241.859 176.183 244.893 173.737L244.893 173.737Q246.703 172.269 247.731 170.141Q248.758 168.012 248.758 165.664L248.758 165.664L248.758 164.734Q248.758 164.343 249.028 164.073Q249.297 163.804 249.688 163.804L249.688 163.804L251.205 163.804Q251.596 163.804 251.865 164.073Q252.135 164.343 252.135 164.734L252.135 164.734L252.135 165.664Q252.135 168.795 250.789 171.609Q249.443 174.422 247.046 176.379L247.046 176.379Q245.284 177.798 245.284 179.609L245.284 179.609Q245.284 181.859 246.801 183.450Q248.318 185.040 250.471 185.040L250.471 185.040Q251.988 185.040 253.113 184.550Q254.239 184.061 254.875 183.229Q255.511 182.398 255.804 181.713Q256.098 181.028 256.245 180.294L256.245 180.294Q256.440 179.511 257.223 179.560L257.223 179.560Q258.300 179.609 258.789 179.657L258.789 179.657Z"/></svg>