<svg width="480px" height="360px" xmlns="http://www.w3.org/2000/svg"><rect x="216" y="124" width="80.5" height="80.5" fill-opacity="0"/><path fill="#F00" d="M266.855 148Q267.318 148 267.576 148.334Q267.833 148.669 267.678 149.080L267.678 149.080Q267.010 151.087 262.740 164.180Q258.469 177.273 257.749 179.434L257.749 179.434Q257.543 180 256.926 180L256.926 180L252.193 180Q251.576 180 251.370 179.434L251.370 179.434Q244.579 158.650 241.441 149.080L241.441 149.080Q241.286 148.669 241.543 148.334Q241.801 148 242.264 148L242.264 148L246.431 148Q247.048 148 247.254 148.566L247.254 148.566L254.559 170.842Q260.682 152.116 261.865 148.566L261.865 148.566Q262.071 148 262.637 148L262.637 148L266.855 148Z"/></svg>