<svg width="480px" height="360px" xmlns="http://www.w3.org/2000/svg"><rect x="216" y="124" width="80.5" height="80.5" fill-opacity="0"/><path fill="#F00" d="M254.803 147.560L254.803 147.560Q254.803 147.658 254.803 147.829Q254.803 148 254.803 148.098L254.803 148.098Q254.510 148.440 254.070 149.124Q253.631 149.808 252.385 151.933Q251.139 154.058 250.089 156.256Q249.038 158.455 247.915 161.655Q246.791 164.855 246.253 167.933L246.253 167.933Q245.863 170.131 245.765 172.427Q245.667 174.724 245.789 176.629Q245.911 178.534 246.131 180.293Q246.351 182.052 246.669 183.371Q246.986 184.690 247.255 185.692Q247.524 186.693 247.670 187.231L247.670 187.231L247.866 187.719Q247.866 188.110 247.719 188.256L247.719 188.256Q247.328 188.647 247.133 188.647L247.133 188.647L244.788 188.647Q244.348 188.647 244.055 188.110L244.055 188.110Q241.026 177.802 242.785 167.933L242.785 167.933Q244.544 157.918 251.139 147.707L251.139 147.707Q251.432 147.169 252.067 147.169L252.067 147.169L254.412 147.169Q254.559 147.169 254.681 147.292Q254.803 147.414 254.803 147.560Z"/></svg>