<svg width="480px" height="360px" xmlns="http://www.w3.org/2000/svg"><rect x="216" y="124" width="80.5" height="80.5" fill-opacity="0"/><path fill="#F00" d="M255.194 150.272Q260.128 147.560 265.405 147.560Q270.681 147.560 274.638 150.296Q278.595 153.032 280.354 157.747Q282.113 162.461 281.234 168.079L281.234 168.079Q280.452 172.183 279.011 174.748Q277.569 177.313 275.566 178.827L275.566 178.827Q271.805 181.612 268.140 180.293L268.140 180.293Q266.968 179.902 266.260 179.047Q265.551 178.192 265.405 177.166L265.405 177.166Q261.154 180.831 257.246 180.831L257.246 180.831Q252.947 180.831 250.895 177.118Q248.843 173.405 250.308 168.275L250.308 168.275Q251.676 163.145 255.658 159.627Q259.640 156.110 263.792 156.110L263.792 156.110Q267.847 156.110 269.948 159.383L269.948 159.383L270.290 157.918Q270.290 157.527 270.632 157.258Q270.974 156.989 271.414 156.989L271.414 156.989Q271.560 156.989 272.073 157.087Q272.586 157.185 272.879 157.185L272.879 157.185Q273.026 157.185 273.417 157.527L273.417 157.527Q273.563 157.722 273.563 158.260L273.563 158.260L268.873 176.434Q268.873 176.629 269.020 176.629L269.020 176.629Q269.606 177.166 270.681 177.166L270.681 177.166Q272.831 177.362 274.858 175.115Q276.885 172.867 277.765 168.079L277.765 168.079Q278.351 164.611 277.643 161.435Q276.934 158.260 275.200 155.988Q273.466 153.716 270.779 152.348Q268.092 150.980 264.867 150.980L264.867 150.980Q260.568 150.980 256.489 153.276Q252.409 155.573 249.576 159.505Q246.742 163.438 245.960 168.079L245.960 168.079Q245.130 172.769 246.547 176.678Q247.963 180.586 251.212 182.882Q254.461 185.179 258.858 185.179L258.858 185.179L259.591 185.179Q260.324 185.179 260.324 186.107L260.324 186.107Q260.324 186.351 260.226 186.913Q260.128 187.475 260.128 187.719L260.128 187.719Q260.128 188.110 259.811 188.379Q259.493 188.647 259.053 188.647L259.053 188.647L258.321 188.647Q253.044 188.647 249.038 185.887Q245.032 183.127 243.273 178.388Q241.515 173.649 242.492 168.079L242.492 168.079Q243.469 162.461 246.864 157.722Q250.260 152.983 255.194 150.272ZM267.212 168.275L267.212 168.275Q268.336 164.708 267.115 162.119Q265.893 159.530 263.060 159.530L263.060 159.530Q260.079 159.530 257.295 162.217Q254.510 164.904 253.386 168.617L253.386 168.617Q252.409 172.232 253.582 174.797Q254.754 177.362 257.588 177.362L257.588 177.362Q260.568 177.362 263.353 174.699Q266.137 172.037 267.212 168.275Z"/></svg>