<svg width="480px" height="360px" xmlns="http://www.w3.org/2000/svg"><rect x="216" y="124" width="80.5" height="80.5" fill-opacity="0"/><path fill="#F00" d="M260.666 158.650L260.666 158.650Q263.060 161.289 261.936 167.933L261.936 167.933Q261.740 168.079 261.740 168.470L261.740 168.470Q261.545 168.666 261.545 169.008L261.545 169.008Q260.421 175.359 257.002 178.290L257.002 178.290Q254.363 180.635 250.113 180.635L250.113 180.635Q246.058 180.391 243.908 178.290L243.908 178.290Q241.466 175.554 242.638 169.008L242.638 169.008Q242.834 168.812 242.834 168.470L242.834 168.470Q243.029 168.275 243.029 167.933L243.029 167.933Q244.104 161.533 247.573 158.650L247.573 158.650Q250.211 156.305 254.461 156.305L254.461 156.305Q258.516 156.501 260.666 158.650ZM258.467 167.933L258.467 167.933Q258.956 165.832 258.882 164.024Q258.809 162.217 257.930 161.191L257.930 161.191Q256.660 159.921 253.924 159.921L253.924 159.921Q250.895 159.921 249.380 161.191L249.380 161.191Q247.377 162.950 246.449 167.933L246.449 167.933L246.449 168.666Q246.302 168.812 246.302 169.203L246.302 169.203Q245.814 171.304 245.887 173.111Q245.960 174.919 246.840 175.896L246.840 175.896Q248.110 177.166 250.846 177.166L250.846 177.166Q253.826 177.166 255.389 175.896L255.389 175.896Q257.344 174.137 258.272 169.203L258.272 169.203L258.272 168.470Q258.467 168.275 258.467 167.933Z"/></svg>