<svg width="480px" height="360px" xmlns="http://www.w3.org/2000/svg"><rect x="216" y="124" width="80.5" height="80.5" fill-opacity="0"/><path fill="#F00" d="M264.367 149.419L255.070 164Q261.872 174.667 264.367 178.581L264.367 178.581Q264.661 179.021 264.391 179.511Q264.122 180 263.584 180L263.584 180L261.725 180Q261.235 180 260.942 179.560L260.942 179.560L253.064 167.180Q246.606 177.358 245.187 179.560L245.187 179.560Q244.893 180 244.404 180L244.404 180L242.544 180Q242.006 180 241.737 179.511Q241.468 179.021 241.761 178.581L241.761 178.581L251.058 164Q244.257 153.333 241.761 149.419L241.761 149.419Q241.468 148.930 241.737 148.465Q242.006 148 242.544 148L242.544 148L244.404 148Q244.893 148 245.187 148.391L245.187 148.391L253.064 160.820Q259.523 150.642 260.942 148.391L260.942 148.391Q261.235 148 261.725 148L261.725 148L263.584 148Q264.122 148 264.391 148.465Q264.661 148.930 264.367 149.419L264.367 149.419Z"/></svg>