<svg width="480px" height="360px" xmlns="http://www.w3.org/2000/svg"><rect x="216" y="124" width="80.5" height="80.5" fill-opacity="0"/><path fill="#F00" d="M242.642 147.168L244.208 147.168Q244.453 147.168 244.673 147.291Q244.893 147.413 245.015 147.609Q245.138 147.804 245.138 148.098L245.138 148.098L245.138 151.180Q245.138 152.648 243.817 154.557L243.817 154.557Q243.572 154.899 243.180 154.899L243.180 154.899L242.495 154.654Q242.153 154.214 242.446 153.823L242.446 153.823Q243.523 152.355 243.572 151.474L243.572 151.474L242.642 151.474Q242.251 151.474 241.982 151.205Q241.713 150.936 241.713 150.544L241.713 150.544L241.713 148.098Q241.713 147.706 241.982 147.437Q242.251 147.168 242.642 147.168L242.642 147.168Z"/></svg>