<svg width="480px" height="360px" xmlns="http://www.w3.org/2000/svg"><rect x="216" y="124" width="80.5" height="80.5" fill-opacity="0"/><path fill="#F00" d="M257.295 148L257.295 148Q261.447 148 263.744 150.736Q266.040 153.472 265.453 157.087L265.453 157.087Q264.672 161.093 260.715 164.171L260.715 164.171Q259.835 164.904 258.663 165.661Q257.490 166.418 255.878 167.395Q254.266 168.373 253.435 168.910L253.435 168.910Q253.191 169.056 252.067 169.740Q250.944 170.424 250.528 170.693Q250.113 170.962 249.258 171.499Q248.403 172.037 247.817 172.501Q247.231 172.965 246.742 173.453L246.742 173.453Q244.544 175.603 244.006 177.069L244.006 177.069L261.252 177.069Q261.398 177.069 261.569 177.118Q261.740 177.166 261.838 177.166Q261.936 177.166 261.985 177.069L261.985 177.069Q262.180 177.264 262.180 177.802L262.180 177.802Q261.838 178.876 261.838 179.414L261.838 179.414Q261.838 179.805 261.496 180.073Q261.154 180.342 260.715 180.342L260.715 180.342L240.733 180.342Q240 180.342 240 179.414L240 179.414Q240.195 179.267 240.195 178.730L240.195 178.730Q240.928 174.577 244.739 171.060L244.739 171.060Q247.377 168.861 252.165 165.979L252.165 165.979Q252.556 165.734 253.557 165.148Q254.559 164.562 255.047 164.244Q255.536 163.927 256.293 163.414Q257.050 162.901 257.637 162.437Q258.223 161.973 258.711 161.435L258.711 161.435Q261.301 159.432 261.838 156.892L261.838 156.892Q262.082 155.426 261.545 154.156Q261.008 152.885 259.689 152.079Q258.369 151.273 256.562 151.273L256.562 151.273Q255.096 151.273 253.679 151.640Q252.263 152.006 250.992 152.715Q249.722 153.423 249.136 153.814Q248.550 154.205 247.621 154.889L247.621 154.889Q247.377 155.133 247.011 155.182Q246.644 155.231 246.547 155.084L246.547 155.084Q246.205 154.889 245.472 154.156L245.472 154.156Q245.276 153.960 245.276 153.423L245.276 153.423Q245.276 153.081 245.618 152.690L245.618 152.690Q247.524 151.029 250.602 149.515Q253.679 148 257.295 148Z"/></svg>