<svg width="480px" height="360px" xmlns="http://www.w3.org/2000/svg"><rect x="216" y="124" width="80.5" height="80.5" fill-opacity="0"/><path fill="#F00" d="M256.953 156.452L256.953 156.452Q260.275 156.452 261.545 159.456Q262.815 162.461 261.838 167.737L261.838 167.737L259.835 179.023Q259.835 179.414 259.518 179.658Q259.200 179.902 258.760 179.902L258.760 179.902L257.099 179.902Q256.366 179.902 256.366 179.023L256.366 179.023L258.369 167.737Q259.395 163.389 258.565 161.728L258.565 161.728Q257.734 159.725 255.682 159.725L255.682 159.725Q254.021 159.725 252.385 160.556Q250.748 161.386 249.673 162.461L249.673 162.461Q248.012 164.122 247.670 165.197L247.670 165.197L245.130 179.169Q245.130 179.560 244.739 179.902L244.739 179.902Q244.641 179.902 244.373 180Q244.104 180.098 244.006 180.098L244.006 180.098L242.394 180.098Q242.003 180.098 241.832 179.927Q241.661 179.756 241.661 179.169L241.661 179.169Q244.739 162.070 245.472 157.918L245.472 157.918Q245.472 157.527 245.814 157.258Q246.156 156.989 246.547 156.989L246.547 156.989L248.208 156.989Q248.550 156.989 248.745 157.185Q248.940 157.380 248.940 157.918L248.940 157.918L248.403 160.849L248.745 160.458Q249.966 159.237 250.968 158.455Q251.969 157.673 253.606 157.038Q255.243 156.403 256.953 156.452Z"/></svg>