<svg width="480px" height="360px" xmlns="http://www.w3.org/2000/svg"><rect x="216" y="124" width="80.5" height="80.5" fill-opacity="0"/><path fill="#F00" d="M254.412 165.002L254.412 165.002Q254.754 165.002 254.901 165.319Q255.047 165.637 254.803 165.930L254.803 165.930Q254.754 166.027 254.705 166.247Q254.656 166.467 254.632 166.663Q254.608 166.858 254.559 167.102Q254.510 167.347 254.412 167.542L254.412 167.542Q254.412 167.982 254.168 168.226Q253.924 168.470 253.533 168.470L253.533 168.470Q251.921 168.715 250.455 169.936L250.455 169.936Q248.501 171.499 248.256 173.551L248.256 173.551Q248.061 174.626 247.621 176.995Q247.182 179.365 246.986 180.440L246.986 180.440Q246.498 183.273 243.713 186.107L243.713 186.107Q242.003 187.817 238.779 188.256L238.779 188.256Q238.241 188.256 238.070 188.085Q237.899 187.915 237.899 187.377L237.899 187.377Q237.899 187.182 237.997 186.644Q238.095 186.107 238.095 185.911L238.095 185.911Q238.095 185.618 238.339 185.301Q238.583 184.983 238.974 184.983L238.974 184.983Q240.928 184.495 241.710 183.713L241.710 183.713Q243.469 182.296 243.713 180.440L243.713 180.440Q243.908 179.365 244.348 176.995Q244.788 174.626 244.983 173.551L244.983 173.551Q245.521 170.327 248.598 167.542L248.598 167.542Q248.794 167.444 249.160 167.176Q249.527 166.907 249.722 166.809L249.722 166.809Q246.742 164.122 247.524 159.921L247.524 159.921Q247.719 158.260 248.452 154.644L248.452 154.644Q248.647 153.618 248.379 152.788Q248.110 151.957 247.548 151.469Q246.986 150.980 246.449 150.711Q245.911 150.443 245.325 150.296L245.325 150.296Q244.788 150.003 244.788 149.368L244.788 149.368Q244.885 149.173 244.983 148.660Q245.081 148.147 245.179 147.902L245.179 147.902Q245.325 147.560 245.716 147.169L245.716 147.169Q245.911 147.023 246.449 147.023L246.449 147.023Q247.182 147.218 247.866 147.511Q248.550 147.805 249.453 148.440Q250.357 149.075 250.944 149.881Q251.530 150.687 251.847 151.982Q252.165 153.276 251.872 154.840L251.872 154.840Q251.725 155.524 251.579 156.452Q251.432 157.380 251.285 158.308Q251.139 159.237 250.992 159.921L250.992 159.921Q250.602 161.777 251.627 163.243Q252.653 164.708 254.412 165.002Z"/></svg>