<svg width="480px" height="360px" xmlns="http://www.w3.org/2000/svg"><rect x="216" y="124" width="80.5" height="80.5" fill-opacity="0"/><path fill="#F00" d="M249.380 148.049Q249.722 148.049 249.918 148.220Q250.113 148.391 250.113 148.928L250.113 148.928Q249.185 154.400 244.837 179.121L244.837 179.121Q244.837 179.511 244.495 179.853L244.495 179.853Q244.397 179.853 244.104 179.951Q243.811 180.049 243.762 180.049L243.762 180.049L242.101 180.049Q241.759 180.049 241.563 179.853Q241.368 179.658 241.368 179.121L241.368 179.121Q241.905 175.701 243.933 164.171Q245.960 152.641 246.644 148.928L246.644 148.928Q246.644 148.586 247.035 148.195L247.035 148.195Q247.084 148.195 247.377 148.122Q247.670 148.049 247.719 148.049L247.719 148.049L249.380 148.049Z"/></svg>