<svg width="480px" height="360px" xmlns="http://www.w3.org/2000/svg"><rect x="216" y="124" width="80.5" height="80.5" fill-opacity="0"/><path fill="#F00" d="M263.100 156.180Q263.511 156.180 263.768 156.540Q264.026 156.900 263.871 157.312L263.871 157.312Q263.203 159.164 261.505 163.974Q259.807 168.785 258.084 173.543Q256.360 178.302 255.949 179.434L255.949 179.434Q255.794 180 255.177 180L255.177 180L250.341 180Q249.723 180 249.518 179.434L249.518 179.434Q245.659 168.630 241.595 157.312L241.595 157.312Q241.441 156.900 241.698 156.540Q241.955 156.180 242.418 156.180L242.418 156.180L246.637 156.180Q247.254 156.180 247.460 156.746L247.460 156.746L252.759 171.563Q257.029 159.524 258.058 156.746L258.058 156.746Q258.264 156.180 258.830 156.180L258.830 156.180L263.100 156.180Z"/></svg>