<svg width="480px" height="360px" xmlns="http://www.w3.org/2000/svg"><rect x="216" y="124" width="80.5" height="80.5" fill-opacity="0"/><path fill="#F00" d="M275.670 172.073L275.670 172.073Q275.670 172.269 275.670 172.465L275.670 172.465Q275.670 172.661 275.670 172.807L275.670 172.807Q275.670 177.113 273.713 178.972L273.713 178.972Q272.098 180.489 269.211 180.538L269.211 180.538L269.162 180.538Q266.275 180.489 264.661 178.972L264.661 178.972Q262.703 177.113 262.703 172.807L262.703 172.807Q262.703 172.661 262.703 172.465L262.703 172.465Q262.703 172.269 262.703 172.073L262.703 172.073Q262.703 167.817 264.661 165.957L264.661 165.957Q266.275 164.440 269.162 164.391L269.162 164.391L269.211 164.391Q272.098 164.440 273.713 165.957L273.713 165.957Q275.670 167.817 275.670 172.073ZM272.245 172.807L272.245 172.807Q272.245 172.612 272.245 172.514L272.245 172.514L272.245 172.416Q272.245 172.269 272.245 172.073L272.245 172.073Q272.245 169.284 271.364 168.453L271.364 168.453Q270.728 167.817 269.211 167.768L269.211 167.768Q267.694 167.817 267.009 168.453L267.009 168.453Q266.128 169.284 266.128 172.073L266.128 172.073Q266.128 172.269 266.128 172.416L266.128 172.416L266.128 172.514Q266.128 172.661 266.128 172.807L266.128 172.807Q266.128 175.645 267.009 176.477L267.009 176.477Q267.694 177.113 269.211 177.113L269.211 177.113Q270.728 177.113 271.364 176.477L271.364 176.477Q272.245 175.645 272.245 172.807ZM267.645 148Q268.183 148 268.453 148.440Q268.722 148.881 268.477 149.321L268.477 149.321Q266.911 152.453 260.453 165.321Q253.994 178.190 253.309 179.511L253.309 179.511Q253.064 180 252.477 180L252.477 180L250.765 180Q250.226 180 249.957 179.560Q249.688 179.119 249.933 178.679L249.933 178.679Q251.498 175.498 257.982 162.654Q264.465 149.810 265.101 148.489L265.101 148.489Q265.346 148 265.933 148L265.933 148L267.645 148ZM255.657 155.878L255.657 155.878Q255.657 160.135 253.700 161.994L253.700 161.994Q252.086 163.511 249.199 163.609L249.199 163.609L249.150 163.609Q246.263 163.511 244.648 161.994L244.648 161.994Q242.691 160.135 242.691 155.878L242.691 155.878Q242.691 155.682 242.691 155.535L242.691 155.535Q242.691 155.339 242.691 155.144L242.691 155.144Q242.691 150.887 244.648 149.028L244.648 149.028Q246.263 147.511 249.150 147.462L249.150 147.462L249.199 147.462Q252.086 147.511 253.700 149.028L253.700 149.028Q255.657 150.887 255.657 155.144L255.657 155.144Q255.657 155.339 255.657 155.535L255.657 155.535Q255.657 155.682 255.657 155.878ZM252.232 155.878L252.232 155.878Q252.232 155.731 252.232 155.584L252.232 155.584L252.232 155.486Q252.232 155.291 252.232 155.144L252.232 155.144Q252.232 152.355 251.352 151.523L251.352 151.523Q250.716 150.887 249.150 150.838L249.150 150.838Q247.633 150.887 246.997 151.523L246.997 151.523Q246.116 152.355 246.116 155.144L246.116 155.144Q246.116 155.291 246.116 155.486L246.116 155.486L246.116 155.584Q246.116 155.731 246.116 155.878L246.116 155.878Q246.116 158.667 246.997 159.547L246.997 159.547Q247.633 160.135 249.150 160.183L249.150 160.183Q250.667 160.135 251.352 159.547L251.352 159.547Q252.232 158.667 252.232 155.878Z"/></svg>