<svg width="480px" height="360px" xmlns="http://www.w3.org/2000/svg"><rect x="216" y="124" width="80.5" height="80.5" fill-opacity="0"/><path fill="#F00" d="M255.168 148Q259.083 148 261.847 150.765Q264.612 153.529 264.612 157.443L264.612 157.443L264.612 158.128Q264.612 162.043 261.847 164.807Q259.083 167.572 255.168 167.572L255.168 167.572L247.339 167.572L247.339 179.070Q247.339 179.462 247.046 179.731Q246.752 180 246.410 180L246.410 180L244.844 180Q244.453 180 244.183 179.731Q243.914 179.462 243.914 179.070L243.914 179.070L243.914 148.930Q243.914 148.538 244.183 148.269Q244.453 148 244.844 148L244.844 148L255.168 148ZM261.235 158.128L261.235 158.128L261.235 157.443Q261.235 154.899 259.450 153.138Q257.664 151.376 255.168 151.376L255.168 151.376L247.339 151.376L247.339 164.147L255.168 164.147Q257.664 164.147 259.450 162.385Q261.235 160.624 261.235 158.128Z"/></svg>