<svg width="480px" height="360px" xmlns="http://www.w3.org/2000/svg"><rect x="216" y="124" width="80.5" height="80.5" fill-opacity="0"/><path fill="#F00" d="M262.131 156.989L263.792 156.989Q263.988 156.989 264.134 157.111Q264.281 157.234 264.403 157.502Q264.525 157.771 264.525 158.113L264.525 158.113Q264.134 160.360 261.960 172.647Q259.786 184.934 259.444 187.182L259.444 187.182Q259.444 187.573 259.102 187.841Q258.760 188.110 258.321 188.110L258.321 188.110L256.708 188.110Q255.976 188.110 255.976 187.182L255.976 187.182L257.588 178.095Q253.631 180.635 249.624 180.635L249.624 180.635Q245.960 180.635 243.811 177.191Q241.661 173.747 242.687 167.933L242.687 167.933Q243.518 162.901 246.693 159.750Q249.869 156.598 253.777 156.452L253.777 156.452Q258.076 156.256 260.861 159.383L260.861 159.383Q260.861 158.650 261.056 157.918L261.056 157.918Q261.056 157.527 261.398 157.258Q261.740 156.989 262.131 156.989L262.131 156.989ZM258.516 172.623L258.516 172.623L259.786 165.197Q259.737 164.757 259.542 164.195Q259.347 163.634 258.858 162.779Q258.369 161.924 257.710 161.264Q257.050 160.605 255.878 160.140Q254.705 159.676 253.240 159.725L253.240 159.725Q250.650 159.725 248.647 161.948Q246.644 164.171 245.960 167.737L245.960 167.737Q245.521 170.669 245.911 172.721Q246.302 174.773 247.402 175.896Q248.501 177.020 250.162 177.020L250.162 177.020Q255.047 177.020 258.516 172.623Z"/></svg>