<svg width="480px" height="360px" xmlns="http://www.w3.org/2000/svg"><rect x="216" y="124" width="80.5" height="80.5" fill-opacity="0"/><path fill="#F00" d="M244.579 156.180L248.592 156.180Q248.952 156.180 249.209 156.437Q249.466 156.695 249.466 157.055L249.466 157.055L249.466 181.389Q249.466 184.373 247.614 186.174L247.614 186.174Q246.277 187.511 244.270 187.768L244.270 187.768Q242.161 188.026 239.691 187.305L239.691 187.305Q239.331 187.203 239.177 186.894Q239.023 186.585 239.125 186.225L239.125 186.225Q239.280 185.659 240.360 182.469L240.360 182.469Q240.463 182.109 240.797 181.955Q241.132 181.801 241.441 181.904L241.441 181.904Q241.904 182.058 242.521 182.264L242.521 182.264Q242.984 182.418 243.370 182.135Q243.756 181.852 243.756 181.389L243.756 181.389L243.756 157.055Q243.756 156.695 244.013 156.437Q244.270 156.180 244.579 156.180L244.579 156.180ZM248.592 147.331Q248.952 147.331 249.209 147.563Q249.466 147.794 249.466 148.154L249.466 148.154L249.466 152.373Q249.466 152.733 249.209 152.990Q248.952 153.248 248.592 153.248L248.592 153.248L244.579 153.248Q244.270 153.248 244.013 152.990Q243.756 152.733 243.756 152.373L243.756 152.373L243.756 148.154Q243.756 147.794 244.013 147.563Q244.270 147.331 244.579 147.331L244.579 147.331L248.592 147.331Z"/></svg>