<svg width="480px" height="360px" xmlns="http://www.w3.org/2000/svg"><rect x="216" y="124" width="80.5" height="80.5" fill-opacity="0"/><path fill="#F00" d="M270.611 155.666L270.611 155.666Q274.624 155.768 277.093 158.984Q279.563 162.199 279.511 167.550L279.511 167.550L279.511 179.125Q279.511 179.486 279.280 179.743Q279.048 180 278.688 180L278.688 180L274.675 180Q274.315 180 274.084 179.743Q273.852 179.486 273.852 179.125L273.852 179.125L273.852 167.550Q273.852 165.801 273.389 164.412Q272.926 163.023 272.026 162.225Q271.125 161.428 269.891 161.376L269.891 161.376Q268.707 161.376 267.704 161.788Q266.701 162.199 266.058 162.920Q265.415 163.640 265.055 164.180Q264.695 164.720 264.489 165.286L264.489 165.286L264.489 179.177Q264.489 179.486 264.283 179.691L264.283 179.691L264.283 179.691L264.283 179.743L264.232 179.743L264.232 179.794L264.180 179.794L264.180 179.794Q263.974 180 263.666 180L263.666 180L263.614 180L259.601 180Q259.344 180 259.087 179.794L259.087 179.794L259.087 179.794L259.087 179.794L259.087 179.743L259.035 179.743L258.984 179.691Q258.830 179.486 258.778 179.177L258.778 179.177L258.778 167.550Q258.778 165.801 258.341 164.412Q257.904 163.023 257.003 162.225Q256.103 161.428 254.868 161.376L254.868 161.376Q253.685 161.376 252.682 161.788Q251.678 162.199 251.035 162.920Q250.392 163.640 250.032 164.180Q249.672 164.720 249.466 165.286L249.466 165.286L249.466 179.125Q249.466 179.486 249.209 179.743Q248.952 180 248.592 180L248.592 180L244.630 180Q244.270 180 244.013 179.743Q243.756 179.486 243.756 179.125L243.756 179.125L243.756 157.055Q243.756 156.695 244.013 156.437Q244.270 156.180 244.630 156.180L244.630 156.180L248.592 156.180Q248.952 156.180 249.209 156.437Q249.466 156.695 249.466 157.055L249.466 157.055L249.466 158.855Q251.061 157.260 252.553 156.463Q254.045 155.666 256.412 155.666L256.412 155.666Q258.006 155.666 259.524 156.463Q261.042 157.260 261.762 158.032L261.762 158.032L262.482 158.855Q262.585 158.701 262.740 158.469Q262.894 158.238 263.588 157.698Q264.283 157.158 265.132 156.720Q265.981 156.283 267.447 155.974Q268.913 155.666 270.611 155.666Z"/></svg>