<svg width="480px" height="360px" xmlns="http://www.w3.org/2000/svg"><rect x="216" y="124" width="80.5" height="80.5" fill-opacity="0"/><path fill="#F00" d="M246.693 156.843L248.354 156.843Q248.745 156.843 248.965 157.160Q249.185 157.478 249.038 157.722L249.038 157.722Q248.745 159.383 247.182 168.202Q245.618 177.020 245.227 179.023L245.227 179.023Q245.227 179.414 244.910 179.658Q244.592 179.902 244.153 179.902L244.153 179.902L242.492 179.902Q241.808 179.902 241.808 179.023L241.808 179.023Q242.052 177.460 242.882 172.843Q243.713 168.226 244.495 163.756Q245.276 159.285 245.618 157.722L245.618 157.722Q245.618 157.331 245.936 157.087Q246.253 156.843 246.693 156.843L246.693 156.843ZM248.159 148.293L249.771 148.293Q250.211 148.293 250.431 148.537Q250.650 148.782 250.504 149.173L250.504 149.173L250.162 151.713Q250.162 152.153 249.820 152.397Q249.478 152.641 249.038 152.641L249.038 152.641L247.426 152.641Q246.693 152.641 246.693 151.713L246.693 151.713L247.035 149.173Q247.035 148.782 247.377 148.537Q247.719 148.293 248.159 148.293L248.159 148.293Z"/></svg>