<svg width="480px" height="360px" xmlns="http://www.w3.org/2000/svg"><rect x="216" y="124" width="80.5" height="80.5" fill-opacity="0"/><path fill="#F00" d="M254.581 156.367L254.581 156.367Q258.495 156.465 261.113 159.621Q263.731 162.777 263.731 167.865L263.731 167.865Q263.731 170.263 263.217 172.343Q262.703 174.422 261.823 175.914Q260.942 177.407 259.768 178.459Q258.593 179.511 257.248 180.024Q255.902 180.538 254.532 180.538L254.532 180.538Q250.128 180.538 246.948 177.945L246.948 177.945L246.948 187.046Q246.948 187.388 246.654 187.682Q246.361 187.976 246.018 187.976L246.018 187.976L244.453 187.976Q244.061 187.976 243.792 187.682Q243.523 187.388 243.523 187.046L243.523 187.046L243.523 157.835Q243.523 157.443 243.792 157.174Q244.061 156.905 244.453 156.905L244.453 156.905L246.018 156.905Q246.361 156.905 246.654 157.174Q246.948 157.443 246.948 157.835L246.948 157.835L246.948 159.303Q250.128 156.269 254.581 156.367ZM254.532 177.162L254.532 177.162Q257.028 177.162 258.667 174.618Q260.306 172.073 260.306 167.865L260.306 167.865Q260.306 164.343 258.691 162.092Q257.076 159.841 254.483 159.792L254.483 159.792Q252.771 159.743 251.303 160.379Q249.835 161.015 248.954 162.067Q248.073 163.119 247.633 163.804Q247.193 164.489 246.948 165.174L246.948 165.174L246.948 172.709Q247.242 173.248 247.706 173.835Q248.171 174.422 249.076 175.254Q249.982 176.086 251.401 176.624Q252.820 177.162 254.532 177.162Z"/></svg>