<svg width="480px" height="360px" xmlns="http://www.w3.org/2000/svg"><rect x="216" y="124" width="80.5" height="80.5" fill-opacity="0"/><path fill="#F00" d="M254.119 161.924L254.119 161.924Q252.116 163.536 249.380 163.536L249.380 163.536Q246.302 163.536 245.179 161.924L245.179 161.924Q243.420 159.921 244.299 155.719L244.299 155.719L244.299 155.377L244.299 154.986Q245.179 150.540 247.377 148.831L247.377 148.831Q249.331 147.169 252.116 147.169L252.116 147.169Q254.901 147.463 256.269 148.831L256.269 148.831Q258.027 150.834 257.197 154.986L257.197 154.986L257.197 155.377L257.197 155.719Q256.269 160.214 254.119 161.924ZM247.573 155.573L247.573 155.915Q247.426 157.087 247.377 157.502Q247.328 157.918 247.402 158.553Q247.475 159.188 247.719 159.530L247.719 159.530Q248.208 160.263 249.722 160.263L249.722 160.263Q251.432 159.969 252.116 159.530L252.116 159.530Q252.263 159.432 252.409 159.261Q252.556 159.090 252.653 158.919Q252.751 158.748 252.849 158.504Q252.947 158.260 253.020 158.089Q253.093 157.918 253.166 157.576Q253.240 157.234 253.289 157.063Q253.337 156.892 253.435 156.476Q253.533 156.061 253.533 155.915L253.533 155.915L253.533 155.377L253.533 154.986Q254.168 152.153 253.386 151.371L253.386 151.371Q252.898 150.638 251.383 150.638L251.383 150.638Q249.673 150.931 248.989 151.371L248.989 151.371Q248.794 151.518 248.647 151.689Q248.501 151.860 248.379 152.128Q248.256 152.397 248.183 152.568Q248.110 152.739 247.988 153.130Q247.866 153.521 247.841 153.667Q247.817 153.814 247.695 154.351Q247.573 154.889 247.573 154.986L247.573 154.986L247.573 155.573ZM271.169 148.440L271.169 148.440Q271.414 148.928 271.023 149.368L271.023 149.368Q269.850 151.078 266.553 155.890Q263.255 160.702 260.153 165.246Q257.050 169.789 254.168 174.040Q251.285 178.290 250.455 179.560L250.455 179.560Q250.211 180.098 249.576 180.098L249.576 180.098L247.719 180.098Q247.182 180.098 246.986 179.707L246.986 179.707Q246.986 179.169 247.182 178.827L247.182 178.827Q248.501 176.873 253.386 169.716Q258.272 162.559 262.473 156.403Q266.675 150.247 267.750 148.635L267.750 148.635Q267.994 148.098 268.629 148.098L268.629 148.098L270.437 148.098Q271.023 148.098 271.169 148.440ZM273.368 165.930L273.368 165.930Q275.127 167.884 274.296 172.085L274.296 172.085L274.296 172.476L274.296 172.818Q273.368 177.313 271.169 179.023L271.169 179.023Q269.215 180.635 266.479 180.635L266.479 180.635Q263.646 180.391 262.278 179.023L262.278 179.023Q260.519 177.020 261.350 172.818L261.350 172.818L261.350 172.476L261.350 172.085Q262.278 167.640 264.476 165.930L264.476 165.930Q266.431 164.269 269.166 164.269L269.166 164.269Q272 164.513 273.368 165.930ZM270.827 172.476L270.827 172.085Q271.463 169.252 270.632 168.470L270.632 168.470Q270.144 167.737 268.629 167.737L268.629 167.737Q266.968 168.031 266.284 168.470L266.284 168.470Q266.089 168.617 265.942 168.788Q265.795 168.959 265.649 169.227Q265.502 169.496 265.429 169.667Q265.356 169.838 265.258 170.229Q265.160 170.620 265.111 170.766Q265.063 170.913 264.965 171.450Q264.867 171.988 264.818 172.085L264.818 172.085L264.818 172.623L264.818 173.014Q264.183 175.847 265.014 176.629L265.014 176.629Q265.502 177.362 267.017 177.362L267.017 177.362Q268.727 177.069 269.362 176.629L269.362 176.629Q269.557 176.482 269.704 176.311Q269.850 176.140 269.997 175.872Q270.144 175.603 270.217 175.432Q270.290 175.261 270.388 174.870Q270.485 174.479 270.534 174.333Q270.583 174.186 270.681 173.649Q270.779 173.111 270.827 173.014L270.827 173.014L270.827 172.476Z"/></svg>