<svg width="480px" height="360px" xmlns="http://www.w3.org/2000/svg"><rect x="216" y="124" width="80.5" height="80.5" fill-opacity="0"/><path fill="#F00" d="M242.638 164.806L253.386 164.806Q253.777 164.806 254.021 165.124Q254.266 165.441 254.119 165.734L254.119 165.734Q254.119 165.979 254.021 166.540Q253.924 167.102 253.924 167.347L253.924 167.347Q253.924 167.737 253.582 168.006Q253.240 168.275 252.849 168.275L252.849 168.275L242.101 168.275Q241.368 168.275 241.368 167.347L241.368 167.347Q241.368 167.102 241.466 166.540Q241.563 165.979 241.563 165.734L241.563 165.734Q241.563 165.344 241.905 165.075Q242.247 164.806 242.638 164.806L242.638 164.806Z"/></svg>