<svg width="480px" height="360px" xmlns="http://www.w3.org/2000/svg"><rect x="216" y="124" width="80.5" height="80.5" fill-opacity="0"/><path fill="#F00" d="M240.342 175.750L242.003 175.750Q242.443 175.750 242.663 175.994Q242.882 176.238 242.736 176.629L242.736 176.629Q242.736 177.753 242.345 179.169L242.345 179.169Q242.345 179.560 242.027 179.829Q241.710 180.098 241.270 180.098L241.270 180.098L239.658 180.098Q238.925 180.098 238.925 179.169L238.925 179.169Q238.925 178.095 239.267 176.629L239.267 176.629Q239.267 176.238 239.609 175.994Q239.951 175.750 240.342 175.750L240.342 175.750Z"/></svg>