<svg width="480px" height="360px" xmlns="http://www.w3.org/2000/svg"><rect x="216" y="124" width="80.5" height="80.5" fill-opacity="0"/><path fill="#F00" d="M261.887 158.455L261.887 158.455Q262.278 158.846 262.082 159.188L262.082 159.188L262.082 159.725Q261.936 159.969 261.692 160.214Q261.447 160.458 261.179 160.678Q260.910 160.898 260.812 160.995L260.812 160.995Q260.079 161.728 259.542 161.191L259.542 161.191Q257.783 159.725 255.340 159.725L255.340 159.725Q251.334 159.725 249.185 161.386L249.185 161.386Q248.110 162.168 247.402 163.340Q246.693 164.513 246.351 165.661Q246.009 166.809 245.716 168.470L245.716 168.470Q245.179 170.571 245.325 172.501Q245.472 174.431 246.595 175.554L246.595 175.554Q247.963 177.215 252.067 177.215L252.067 177.215Q254.315 177.215 256.611 175.750L256.611 175.750Q257.637 175.408 257.881 175.945L257.881 175.945Q258.369 176.189 258.809 177.020L258.809 177.020Q259.005 177.215 259.005 177.753L259.005 177.753Q258.809 178.095 258.418 178.485L258.418 178.485Q255.145 180.635 251.530 180.635L251.530 180.635L250.797 184.299Q250.797 184.641 250.455 185.032L250.455 185.032Q250.357 185.032 250.089 185.105Q249.820 185.179 249.722 185.179L249.722 185.179L248.061 185.179Q247.328 185.179 247.328 184.299L247.328 184.299L248.061 180.293Q245.227 179.414 243.908 178.095L243.908 178.095Q241.026 175.261 242.247 168.470L242.247 168.470Q243.469 161.728 247.328 158.846L247.328 158.846Q249.234 157.185 252.263 156.647L252.263 156.647L252.995 152.299Q252.995 151.908 253.337 151.566L253.337 151.566Q253.435 151.566 253.704 151.469Q253.973 151.371 254.070 151.371L254.070 151.371L255.731 151.371Q256.073 151.371 256.244 151.566Q256.415 151.762 256.415 152.299L256.415 152.299L255.731 156.305Q259.102 156.305 261.887 158.455Z"/></svg>