<svg width="480px" height="360px" xmlns="http://www.w3.org/2000/svg"><rect x="216" y="124" width="80.5" height="80.5" fill-opacity="0"/><path fill="#F00" d="M264.489 148Q264.952 148 265.209 148.386Q265.466 148.772 265.260 149.183L265.260 149.183L256.103 168.630L256.103 179.125Q256.103 179.486 255.846 179.743Q255.588 180 255.228 180L255.228 180L251.215 180Q250.907 180 250.650 179.743Q250.392 179.486 250.392 179.125L250.392 179.125L250.392 168.630Q243.293 153.608 241.235 149.183L241.235 149.183Q241.029 148.772 241.260 148.386Q241.492 148 242.006 148L242.006 148L246.379 148Q246.945 148 247.151 148.463L247.151 148.463L253.222 161.325Q258.161 150.881 259.293 148.463L259.293 148.463Q259.550 148 260.064 148L260.064 148L264.489 148Z"/></svg>