<svg version="1.1" xmlns="http://www.w3.org/2000/svg" xmlns:xlink="http://www.w3.org/1999/xlink" width="125.09836" height="70.29597" viewBox="0,0,125.09836,70.29597"><g transform="translate(-257.45082,-145.1207)"><g data-paper-data="{&quot;isPaintingLayer&quot;:true}" fill-rule="nonzero" stroke-linejoin="miter" stroke-miterlimit="10" stroke-dasharray="" stroke-dashoffset="0" style="mix-blend-mode: normal"><path d="M355.60473,198.4793v0" fill="#ffffff" stroke="none" stroke-width="1" stroke-linecap="butt"/><path d="M298.60473,198.4793" fill="#ffffff" stroke="none" stroke-width="1" stroke-linecap="butt"/><path d="M363.50473,190.5793c0,18.3 -16.5,24.2 -36.9,24.2c-20.4,0 -36.9,-5.9 -36.9,-24.2c0,-8.6 2.4,-18.5 7.7,-26.5l-4.3,-14.5c-0.8,-2.7 2,-5.3 4.6,-4.2l14.3,6c4.2,-1.9 9,-3 14.6,-3c5.5,0 10.3,1.2 14.5,3.1l14.4,-6c2.6,-1.1 5.4,1.5 4.6,4.2l-4.4,14.7c5.3,7.9 7.8,17.7 7.8,26.2z" fill="#ff7319" stroke="none" stroke-width="1" stroke-linecap="butt"/><path d="M355.50473,202.1793c0,9.6 -12.9,12.7 -28.9,12.7c-16,0 -28.9,-3.1 -28.9,-12.7c0,-9.6 8.6,-22.1 28.9,-22.1c19.8,0 28.9,12.5 28.9,22.1z" fill="#ffffff" stroke="none" stroke-width="1" stroke-linecap="butt"/><path d="M323.40473,184.4793c0,-1.3 1.4,-1.7 3.2,-1.7c1.8,0 3.2,0.4 3.2,1.7c0,1.3 -1,2.9 -3.2,2.9c-2.2,0 -3.2,-1.6 -3.2,-2.9z" fill="#945600" stroke="#000000" stroke-width="1.5" stroke-linecap="butt"/><path d="M337.60473,188.6793c0,3 -2.5,5.5 -5.5,5.5c-3,0 -5.5,-2.4 -5.5,-5.5c0,-0.2 0,-0.2 0,-0.2c0,-0.2 0,-0.3 0,-0.3c0,0 0,0.1 0,0.3c0,0 0,0 0,0.2c0,3 -2.5,5.5 -5.5,5.5c-3,0 -5.5,-2.4 -5.5,-5.5" fill="none" stroke="#000000" stroke-width="2.5" stroke-linecap="round"/><path d="M317.10473,173.3793c0,-1.71208 1.38792,-3.1 3.1,-3.1c1.71208,0 3.1,1.38792 3.1,3.1c0,1.71208 -1.38792,3.1 -3.1,3.1c-1.71208,0 -3.1,-1.38792 -3.1,-3.1z" fill="#000000" stroke="none" stroke-width="1" stroke-linecap="butt"/><path d="M329.90473,173.3793c0,-1.71208 1.38792,-3.1 3.1,-3.1c1.71208,0 3.1,1.38792 3.1,3.1c0,1.71208 -1.38792,3.1 -3.1,3.1c-1.71208,0 -3.1,-1.38792 -3.1,-3.1z" fill="#000000" stroke="none" stroke-width="1" stroke-linecap="butt"/><path d="M304.10473,156.8793c-2,1.8 -3.8,3.5 -5.3,6.1l-3.9,-13.5c-0.3,-1.6 1.2,-3 2.8,-2.5l12.9,5.4c-3,1.2 -4.6,2.8 -6.5,4.5z" fill="#77500c" stroke="none" stroke-width="1" stroke-linecap="butt"/><path d="M343.00473,152.3793l12.9,-5.4c1.6,-0.5 3.1,0.9 2.8,2.5l-3.8,13.6c-1.6,-2.6 -3.3,-4.3 -5.4,-6.1c-1.9,-1.8 -3.6,-3.4 -6.5,-4.6z" fill="#77500c" stroke="none" stroke-width="1" stroke-linecap="butt"/><path d="M323.40473,194.4793c0,-1.3 1.4,-1.7 3.2,-1.7c1.8,0 3.2,0.4 3.2,1.7c0,1.3 -1,2.9 -3.2,2.9c-2.2,0.1 -3.2,-1.6 -3.2,-2.9z" fill="#000000" stroke="#000000" stroke-width="1.5" stroke-linecap="butt"/><g><path d="M363.30473,189.2793c-0.1,0.1 -0.3,0.2 -0.5,0.3c-0.4,0 -0.8,0 -1.1,-0.2c-0.5,-0.3 -0.9,-0.6 -1.2,-1.1c-0.2,-0.3 -0.3,-0.7 -0.4,-1c0,-0.1 0,-0.2 0.1,-0.4c0.6,-0.8 1.2,-1.6 1.9,-2.2c0.2,-0.2 0.6,-0.4 0.9,-0.2c0.9,0.6 1.8,1.3 2.4,2.3c0.2,0.3 -0.4,0.6 -0.6,0.9c-0.4,0.5 -0.9,1.1 -1.5,1.6z" fill="#ff9400" stroke="none" stroke-width="1" stroke-linecap="butt"/><path d="M366.20473,185.9793c-0.3,0.3 -0.3,0.4 -0.5,0.4c-0.6,-0.2 -1.2,-0.5 -1.7,-0.9c-0.4,-0.4 -0.6,-1 -0.8,-1.5c-0.1,-0.1 -0.3,-0.1 -0.1,-0.4c1,-1.3 2.1,-2.5 3.2,-3.8c3.5,-4.2 7,-8.5 10.5,-12.7c0.9,-1.1 0.4,-0.4 0.6,-0.4c0.6,0 1.1,0.1 1.6,0.4c0.4,0.2 0.7,0.6 1,0.9c0.2,0.2 0.5,0.5 0.5,0.8c0,0.3 0.4,-0.2 -0.4,0.9c-3.4,4.2 -6.8,8.4 -10.3,12.5c-1.2,1.3 -2.4,2.6 -3.6,3.8z" fill="#ffff00" stroke="none" stroke-width="1" stroke-linecap="butt"/><path d="M369.60473,179.1793c-1.6,1.9 -3.2,3.9 -4.9,5.8c-0.4,0.5 -0.3,0.6 -0.6,0.6c-0.2,0 -0.4,-0.2 -0.5,-0.4c-0.3,-0.4 -0.5,-0.8 -0.6,-1.3c0,-0.2 -0.3,0.2 0.2,-0.5c2.1,-2.7 4.3,-5.3 6.5,-8c2.3,-2.8 4.7,-5.7 7.1,-8.5c0.6,-0.7 0.4,-0.2 0.6,-0.2c0.4,0 0.8,-0.1 1.1,0.1c0.4,0.2 0.8,0.4 0.9,0.8c0.1,0.3 0.1,0 -0.5,0.7c-2.3,2.7 -4.6,5.4 -6.9,8.1c-0.8,0.9 -1.6,1.9 -2.4,2.8z" fill="#f6e575" stroke="none" stroke-width="1" stroke-linecap="butt"/><path d="M364.50473,188.0793c-0.1,0.1 -0.1,0.1 -0.2,0.1c-0.5,-0.1 -0.9,-0.3 -1.3,-0.6c-0.4,-0.3 -0.8,-0.7 -1.1,-1.1c-0.2,-0.3 -0.4,-0.6 -0.5,-0.9c0,-0.1 -0.1,0 0,-0.2c0.5,-0.6 1,-1.1 1.5,-1.7c0.1,-0.1 0.1,-0.1 0.2,-0.1c0.2,0.2 0.2,0.5 0.4,0.6c0.4,0.5 0.8,0.9 1.3,1.3c0.3,0.2 0.7,0.3 1,0.4c0.1,0 0.2,0 0.3,0.1c0,0.1 0,0 -0.1,0.1c-0.6,0.9 -1,1.5 -1.5,2z" fill="#c0c8c9" stroke="none" stroke-width="1" stroke-linecap="butt"/><path d="M365.20473,187.0793c0,0 -1.2,-0.3 -1.7,-0.7c-0.6,-0.5 -0.7,-0.5 -1.3,-1.8" fill="none" stroke="#acb3b4" stroke-width="2" stroke-linecap="round"/><path d="M380.00473,168.4793c-0.2,-0.1 -0.5,0.2 -0.6,0.1c-0.2,-0.2 0,-0.8 -0.3,-1c-0.3,-0.2 -0.7,0.4 -0.9,0.2c-0.2,-0.2 0,-0.7 -0.2,-0.9c-0.2,-0.2 -0.6,0 -0.8,-0.2c-0.1,-0.1 -0.1,-0.1 0.2,-0.3c1.5,-0.9 3,-1.9 4.6,-2.7c0.4,-0.2 0.4,0 0.3,0.3c-0.4,1.5 -1,3 -1.5,4.4c-0.1,0.4 -0.2,0.5 -0.3,0.6c-0.1,0.1 -0.2,0.1 -0.2,0c-0.2,-0.1 -0.1,-0.4 -0.3,-0.5z" fill="#ffffcc" stroke="none" stroke-width="1" stroke-linecap="butt"/><path d="M382.50473,163.4793c-0.1,0.3 -0.2,0.6 -0.3,1c0,0.1 0,0.1 -0.1,0.1c-0.1,0 -0.3,-0.1 -0.4,-0.2c-0.1,-0.1 -0.2,-0.2 -0.3,-0.4c0,0 0,0 0.1,-0.1c0.4,-0.2 0.7,-0.4 1,-0.4c0.1,-0.1 0,-0.1 0,0z" fill="#464646" stroke="none" stroke-width="1" stroke-linecap="butt"/><path d="M377.50473,169.6793l-12.1,14.4" fill="none" stroke="#edd571" stroke-width="2" stroke-linecap="round"/></g><path d="M282.40473,197.4793l-24.6,-24.5l15.6,-15.6l24.5,24.5z" fill="#ffffff" stroke="#b5b5b5" stroke-width="0.5" stroke-linecap="butt"/><path d="M274.20473,166.0793c0.3,0.7 -0.3,1 -0.3,1l-1,0.4c-1.3,-0.2 -2.1,3.3 -3.7,3.9c-1.7,0.7 -3.2,-0.7 -3.9,1.5c0,0 -0.2,0.7 -0.9,0.5c-0.7,-0.2 -0.5,-0.9 -0.5,-0.9c0.3,-0.9 0.4,-1.6 1.3,-2.1c1.2,-0.7 2.3,0 3.4,-0.4c2.3,-0.9 1.4,-3.9 4.3,-4.1l0.3,-0.3c0,0.2 0.7,-0.2 1,0.5z" fill="#b5b5b5" stroke="none" stroke-width="1" stroke-linecap="butt"/><path d="M278.00473,172.3793c0,0.8 -0.8,0.8 -0.8,0.8l0.2,-0.2c-1.1,1.1 -2.5,2.3 -3.8,3.1c-0.6,0.3 -1.4,-0.1 -2,0.3c-1,0.8 -0.9,1.8 -2.8,1.8c0,0 -0.8,0 -0.8,-0.8c0,-0.8 0.8,-0.8 0.8,-0.8c0.8,0 1.2,-1.1 1.9,-1.5c0.6,-0.4 1.5,0 2,-0.4c1.2,-0.8 2.5,-1.8 3.5,-2.9l0.9,-0.2c0.1,0.1 0.9,0.1 0.9,0.8z" fill="#b5b5b5" stroke="none" stroke-width="1" stroke-linecap="butt"/><path d="M282.60473,177.1793c0.2,0.7 -0.5,0.9 -0.5,0.9l-1.1,0.4c-0.6,0 -1.3,-0.5 -1.7,-0.1c-0.6,0.5 -0.9,2.6 -1.6,3.3c-1.3,1.1 -2.3,0.3 -3.6,1.6c0,0 -0.5,0.5 -1.1,0c-0.5,-0.5 0,-1.1 0,-1.1c0.2,-0.2 1.4,-1.4 1.6,-1.5c0.7,-0.2 1.6,0.3 2.1,-0.2c1.8,-1.9 0.7,-3.5 4,-3.5l0.9,-0.3c0,0 0.8,-0.2 1,0.5z" fill="#b5b5b5" stroke="none" stroke-width="1" stroke-linecap="butt"/><path d="M288.00473,183.7793c0,0.8 -0.8,0.8 -0.8,0.8l-0.1,-0.2c-1.5,1.5 -1.9,1.8 -3.9,2.5c-0.6,0.2 -0.8,1.1 -1.3,1.3c-1.7,0.7 -2.9,-0.9 -3.6,1.2c0,0 -0.2,0.7 -0.9,0.5c-0.7,-0.2 -0.5,-0.9 -0.5,-0.9c1.1,-3 2.3,-1.3 4.4,-2.1c0.6,-0.2 0.8,-1.1 1.3,-1.3c0.5,-0.2 1.4,0.4 1.7,-0.1c0.1,-0.3 -0.2,-0.7 0,-1c0.4,-0.5 1.3,-0.6 1.7,-1.1l1.2,-0.2c0,-0.2 0.8,-0.2 0.8,0.6z" fill="#b5b5b5" stroke="none" stroke-width="1" stroke-linecap="butt"/><path d="M355.44838,199.01666v0" fill="#ffffff" stroke="none" stroke-width="1" stroke-linecap="butt"/><path d="M298.44838,199.01666" fill="#ffffff" stroke="none" stroke-width="1" stroke-linecap="butt"/><path d="M363.34838,191.11666c0,18.3 -16.5,24.2 -36.9,24.2c-20.4,0 -36.9,-5.9 -36.9,-24.2c0,-8.6 2.4,-18.5 7.7,-26.5l-4.3,-14.5c-0.8,-2.7 2,-5.3 4.6,-4.2l14.3,6c4.2,-1.9 9,-3 14.6,-3c5.5,0 10.3,1.2 14.5,3.1l14.4,-6c2.6,-1.1 5.4,1.5 4.6,4.2l-4.4,14.7c5.3,7.9 7.8,17.7 7.8,26.2z" fill="#ff7319" stroke="none" stroke-width="1" stroke-linecap="butt"/><path d="M355.34838,202.71666c0,9.6 -12.9,12.7 -28.9,12.7c-16,0 -28.9,-3.1 -28.9,-12.7c0,-9.6 8.6,-22.1 28.9,-22.1c19.8,0 28.9,12.5 28.9,22.1z" fill="#ffffff" stroke="none" stroke-width="1" stroke-linecap="butt"/><path d="M323.24838,185.01666c0,-1.3 1.4,-1.7 3.2,-1.7c1.8,0 3.2,0.4 3.2,1.7c0,1.3 -1,2.9 -3.2,2.9c-2.2,0 -3.2,-1.6 -3.2,-2.9z" fill="#945600" stroke="#000000" stroke-width="1.5" stroke-linecap="butt"/><path d="M337.44838,189.21666c0,3 -2.5,5.5 -5.5,5.5c-3,0 -5.5,-2.4 -5.5,-5.5c0,-0.2 0,-0.2 0,-0.2c0,-0.2 0,-0.3 0,-0.3c0,0 0,0.1 0,0.3c0,0 0,0 0,0.2c0,3 -2.5,5.5 -5.5,5.5c-3,0 -5.5,-2.4 -5.5,-5.5" fill="none" stroke="#000000" stroke-width="2.5" stroke-linecap="round"/><path d="M316.94838,173.91666c0,-1.71208 1.38792,-3.1 3.1,-3.1c1.71208,0 3.1,1.38792 3.1,3.1c0,1.71208 -1.38792,1.06861 -3.1,1.06861c-1.71208,0 -3.1,0.64347 -3.1,-1.06861z" fill="#000000" stroke="none" stroke-width="1" stroke-linecap="butt"/><path d="M329.74838,173.91666c0,-1.71208 1.38792,-3.1 3.1,-3.1c1.71208,0 3.1,1.38792 3.1,3.1c0,1.71208 -1.38792,3.1 -3.1,3.1c-1.71208,0 -3.1,-1.38792 -3.1,-3.1z" fill="#000000" stroke="none" stroke-width="1" stroke-linecap="butt"/><path d="M303.94838,157.41666c-2,1.8 -3.8,3.5 -5.3,6.1l-3.9,-13.5c-0.3,-1.6 1.2,-3 2.8,-2.5l12.9,5.4c-3,1.2 -4.6,2.8 -6.5,4.5z" fill="#77500c" stroke="none" stroke-width="1" stroke-linecap="butt"/><path d="M342.84838,152.91666l12.9,-5.4c1.6,-0.5 3.1,0.9 2.8,2.5l-3.8,13.6c-1.6,-2.6 -3.3,-4.3 -5.4,-6.1c-1.9,-1.8 -3.6,-3.4 -6.5,-4.6z" fill="#77500c" stroke="none" stroke-width="1" stroke-linecap="butt"/><path d="M329.37477,176.6627c0.94869,-0.31623 1.26491,0.63245 1.26491,0.63245l0.01285,0.37239c1.57553,1.58633 3.34172,2.03077 3.92005,-0.2987c0,0 0.24253,-0.97014 1.21267,-0.72761c0.97015,0.24254 0.72761,1.21268 0.72761,1.21268c-0.99871,3.97014 -4.6829,3.80433 -7.27455,1.22784l-0.496,-1.15414c0,0 -0.31623,-0.94868 0.63245,-1.26491z" fill-opacity="0.41569" fill="#000000" stroke="none" stroke-width="0.5" stroke-linecap="butt"/><path d="M316.56518,175.93819c0.94869,-0.31623 1.26491,0.63245 1.26491,0.63245l0.01285,0.37239c1.57553,1.58633 3.34172,2.03077 3.92005,-0.2987c0,0 0.24253,-0.97014 1.21267,-0.7276c0.97015,0.24254 0.72761,1.21267 0.72761,1.21267c-0.99871,3.97014 -4.6829,3.80433 -7.27455,1.22784l-0.496,-1.15414c0,0 -0.31623,-0.94868 0.63245,-1.26491z" fill-opacity="0.51765" fill="#000000" stroke="none" stroke-width="0.5" stroke-linecap="butt"/></g></g></svg>