<svg width="480px" height="360px" xmlns="http://www.w3.org/2000/svg"><rect x="216" y="124" width="80.5" height="80.5" fill-opacity="0"/><path fill="#F00" d="M247.768 147.853L258.321 147.853Q262.180 147.853 265.160 149.808Q268.140 151.762 269.508 155.060Q270.876 158.357 270.144 162.217L270.144 162.217L269.606 165.490Q268.482 171.499 263.573 175.676Q258.663 179.853 252.702 179.853L252.702 179.853L242.150 179.853Q241.759 179.853 241.588 179.682Q241.417 179.511 241.417 178.925L241.417 178.925Q241.954 175.505 243.957 163.976Q245.960 152.446 246.693 148.782L246.693 148.782Q246.693 148.391 247.035 148.049L247.035 148.049Q247.133 148.049 247.402 147.951Q247.670 147.853 247.768 147.853L247.768 147.853ZM266.137 165.490L266.675 162.217Q267.505 157.722 264.892 154.522Q262.278 151.322 257.783 151.322L257.783 151.322L249.576 151.322L245.032 176.385L253.240 176.385Q257.734 176.385 261.521 173.185Q265.307 169.985 266.137 165.490L266.137 165.490Z"/></svg>