<svg width="480px" height="360px" xmlns="http://www.w3.org/2000/svg"><rect x="216" y="124" width="80.5" height="80.5" fill-opacity="0"/><path fill="#F00" d="M261.252 169.740L262.180 169.740Q262.229 169.740 262.376 169.789L262.376 169.789Q262.522 169.838 262.522 169.740L262.522 169.740Q262.718 169.936 262.718 170.473L262.718 170.473Q262.718 170.718 262.620 171.279Q262.522 171.841 262.522 172.085L262.522 172.085Q262.522 172.476 262.180 172.818L262.180 172.818Q262.082 172.818 261.814 172.916Q261.545 173.014 261.447 173.014L261.447 173.014L260.519 173.014L259.444 178.827Q259.444 179.169 259.053 179.560L259.053 179.560Q258.956 179.560 258.687 179.634Q258.418 179.707 258.321 179.707L258.321 179.707L256.708 179.707Q256.318 179.707 256.147 179.536Q255.976 179.365 255.976 178.827L255.976 178.827L257.050 173.014L241.808 173.014Q241.417 173.014 241.246 172.818Q241.075 172.623 241.075 172.085L241.075 172.085Q241.124 171.792 241.319 170.693Q241.515 169.594 241.612 169.203L241.612 169.203Q241.612 168.617 242.150 168.079L242.150 168.079Q243.029 167.151 245.887 164.147Q248.745 161.142 251.676 158.040Q254.608 154.937 257.344 152.031Q260.079 149.124 260.910 148.293L260.910 148.293Q261.252 147.902 261.594 147.902L261.594 147.902L264.183 147.902Q264.867 147.902 264.867 148.831L264.867 148.831L261.252 169.740ZM244.885 169.740L257.783 169.740L260.715 152.983L244.885 169.740Z"/></svg>