<svg width="480px" height="360px" xmlns="http://www.w3.org/2000/svg"><rect x="216" y="124" width="80.5" height="80.5" fill-opacity="0"/><path fill="#F00" d="M256 174.341L261.814 174.341Q262.174 174.341 262.431 174.572Q262.688 174.804 262.688 175.164L262.688 175.164L262.688 179.177Q262.688 179.537 262.431 179.768Q262.174 180 261.814 180L261.814 180L244.527 180Q244.167 180 243.910 179.768Q243.653 179.537 243.653 179.177L243.653 179.177L243.653 175.164Q243.653 175.010 243.730 174.855Q243.807 174.701 243.910 174.572Q244.013 174.444 244.167 174.392Q244.322 174.341 244.527 174.341L244.527 174.341L250.341 174.341L250.341 154.637Q247.563 156.232 246.174 157.003L246.174 157.003Q245.865 157.158 245.531 157.055Q245.196 156.952 245.042 156.643L245.042 156.643Q244.733 156.180 244.013 154.920Q243.293 153.659 243.035 153.196L243.035 153.196Q242.881 152.887 242.958 152.553Q243.035 152.219 243.344 152.013L243.344 152.013Q244.013 151.653 246.868 150.032Q249.723 148.412 250.238 148.103L250.238 148.103Q250.444 148 250.701 148L250.701 148L255.177 148Q255.537 148 255.768 148.232Q256 148.463 256 148.823L256 148.823L256 174.341Z"/></svg>