<svg width="480px" height="360px" xmlns="http://www.w3.org/2000/svg"><rect x="216" y="124" width="80.5" height="80.5" fill-opacity="0"/><path fill="#F00" d="M244.795 148L260.208 148Q260.599 148 260.869 148.269Q261.138 148.538 261.138 148.930L261.138 148.930L261.138 150.446Q261.138 150.838 260.869 151.107Q260.599 151.376 260.208 151.376L260.208 151.376L247.291 151.376L247.291 162.483L257.664 162.483Q258.055 162.483 258.324 162.752Q258.593 163.021 258.593 163.413L258.593 163.413L258.593 164.930Q258.593 165.321 258.324 165.590Q258.055 165.859 257.664 165.859L257.664 165.859L247.291 165.859L247.291 179.070Q247.291 179.462 247.021 179.731Q246.752 180 246.361 180L246.361 180L244.795 180Q244.404 180 244.135 179.731Q243.865 179.462 243.865 179.070L243.865 179.070L243.865 148.930Q243.865 148.538 244.135 148.269Q244.404 148 244.795 148L244.795 148Z"/></svg>