<svg width="480px" height="360px" xmlns="http://www.w3.org/2000/svg"><rect x="216" y="124" width="80.5" height="80.5" fill-opacity="0"/><path fill="#F00" d="M265.723 169.968L265.723 169.968Q265.723 170.174 265.723 170.379L265.723 170.379Q265.723 170.585 265.723 170.791L265.723 170.791Q265.723 175.370 263.203 177.788L263.203 177.788Q260.476 180.412 254.662 180.514L254.662 180.514L254.559 180.514Q248.746 180.412 246.019 177.788L246.019 177.788Q243.498 175.370 243.498 170.791L243.498 170.791Q243.498 170.791 243.498 170.379L243.498 170.379Q243.498 170.174 243.498 169.968L243.498 169.968Q243.498 168.322 244.013 166.984Q244.527 165.646 245.273 164.900Q246.019 164.154 246.740 163.614Q247.460 163.074 247.974 162.920L247.974 162.920L248.489 162.714Q248.334 162.662 248.077 162.559Q247.820 162.457 247.177 161.994Q246.534 161.531 246.019 160.965Q245.505 160.399 245.093 159.344Q244.682 158.289 244.682 157.106L244.682 157.106Q244.682 157.106 244.682 156.695L244.682 156.695Q244.682 156.334 244.682 156.334L244.682 156.334Q244.682 152.219 246.945 150.006L246.945 150.006Q249.363 147.537 254.559 147.486L254.559 147.486L254.662 147.486Q259.807 147.537 262.277 150.006L262.277 150.006Q264.540 152.219 264.540 156.334L264.540 156.334Q264.540 156.334 264.489 156.695L264.489 156.695Q264.540 156.900 264.540 157.106L264.540 157.106Q264.540 158.289 264.129 159.318Q263.717 160.347 263.151 160.965Q262.585 161.582 262.045 161.994Q261.505 162.405 261.093 162.559L261.093 162.559L260.682 162.714Q260.887 162.765 261.222 162.894Q261.556 163.023 262.431 163.588Q263.305 164.154 263.974 164.900Q264.643 165.646 265.183 166.984Q265.723 168.322 265.723 169.968ZM250.392 156.334L250.392 156.334Q250.392 156.437 250.392 156.592L250.392 156.592L250.392 156.849Q250.392 157.106 250.392 157.106L250.392 157.106Q250.392 158.855 250.958 159.370L250.958 159.370Q251.781 160.193 254.611 160.244L254.611 160.244L254.714 160.244Q257.441 160.193 258.264 159.370L258.264 159.370Q258.830 158.855 258.830 157.106L258.830 157.106Q258.830 157.106 258.830 156.849L258.830 156.849L258.830 156.592Q258.830 156.489 258.830 156.334L258.830 156.334Q258.830 154.585 258.264 154.071L258.264 154.071Q257.441 153.248 254.714 153.196L254.714 153.196L254.611 153.196Q251.781 153.248 250.958 154.071L250.958 154.071Q250.392 154.585 250.392 156.334ZM260.013 170.791L260.013 170.791Q260.013 170.791 260.013 170.534L260.013 170.534L260.013 170.225Q260.013 170.122 260.013 169.968L260.013 169.968Q260.013 167.807 259.241 167.087L259.241 167.087Q258.161 166.006 254.714 165.955L254.714 165.955L254.611 165.955Q251.061 166.006 249.981 167.087L249.981 167.087Q249.209 167.807 249.209 169.968L249.209 169.968Q249.209 170.174 249.209 170.225L249.209 170.225L249.209 170.534Q249.209 170.585 249.209 170.791L249.209 170.791Q249.209 172.952 249.981 173.672L249.981 173.672Q251.061 174.752 254.611 174.804L254.611 174.804Q258.161 174.752 259.241 173.672L259.241 173.672Q260.013 172.952 260.013 170.791Z"/></svg>