<svg width="480px" height="360px" xmlns="http://www.w3.org/2000/svg"><rect x="216" y="124" width="80.5" height="80.5" fill-opacity="0"/><path fill="#F00" d="M256.669 155.666L256.669 155.666Q260.630 155.768 262.765 158.907Q264.900 162.045 264.900 167.550L264.900 167.550Q264.900 173.775 262.611 177.145Q260.322 180.514 256.566 180.514L256.566 180.514Q251.576 180.514 249.466 177.222L249.466 177.222L249.466 186.431Q249.466 186.791 249.209 187.048Q248.952 187.305 248.592 187.305L248.592 187.305L244.630 187.305Q244.270 187.305 244.013 187.048Q243.756 186.791 243.756 186.431L243.756 186.431L243.756 157.055Q243.756 156.695 244.013 156.437Q244.270 156.180 244.630 156.180L244.630 156.180L248.592 156.180Q248.952 156.180 249.209 156.437Q249.466 156.695 249.466 157.055L249.466 157.055L249.466 159.370Q251.627 155.563 256.669 155.666ZM257.646 173.312L257.646 173.312Q259.190 171.254 259.190 167.550L259.190 167.550Q259.190 165.801 258.727 164.412Q258.264 163.023 257.312 162.225Q256.360 161.428 255.074 161.376L255.074 161.376Q253.839 161.376 252.810 161.788Q251.781 162.199 251.113 162.920Q250.444 163.640 250.058 164.206Q249.672 164.772 249.466 165.286L249.466 165.286L249.466 171.666Q249.826 172.334 250.392 172.926Q250.958 173.518 252.270 174.161Q253.582 174.804 255.177 174.804L255.177 174.804Q256.566 174.804 257.646 173.312Z"/></svg>