<svg width="480px" height="360px" xmlns="http://www.w3.org/2000/svg"><rect x="216" y="124" width="80.5" height="80.5" fill-opacity="0"/><path fill="#F00" d="M256.904 147.560L256.904 147.560Q260.031 147.560 261.911 149.808Q263.792 152.055 263.255 155.182L263.255 155.182L263.060 155.915Q263.060 156.305 262.742 156.574Q262.424 156.843 261.985 156.843L261.985 156.843L260.373 156.843Q259.640 156.843 259.640 155.915L259.640 155.915L259.786 155.182Q260.079 153.325 259.029 152.079Q257.979 150.834 256.171 150.834L256.171 150.834Q254.412 150.834 252.873 152.128Q251.334 153.423 251.090 155.182L251.090 155.182L249.624 163.389L256.708 163.389Q257.441 163.389 257.441 164.269L257.441 164.269Q257.441 164.562 257.344 165.099Q257.246 165.637 257.246 165.930L257.246 165.930Q257.246 166.321 256.928 166.589Q256.611 166.858 256.171 166.858L256.171 166.858L249.087 166.858L247.621 175.359Q247.279 176.482 247.084 176.824L247.084 176.824L260.177 176.824Q260.519 176.824 260.715 177.020Q260.910 177.215 260.910 177.753L260.910 177.753Q260.910 177.997 260.812 178.559Q260.715 179.121 260.715 179.365L260.715 179.365Q260.715 179.756 260.397 180.024Q260.079 180.293 259.640 180.293L259.640 180.293L241.270 180.293Q240.537 180.293 240.537 179.365L240.537 179.365Q240.537 179.121 240.635 178.559Q240.733 177.997 240.733 177.753L240.733 177.753Q240.733 177.362 241.050 177.093Q241.368 176.824 241.808 176.824L241.808 176.824L242.540 176.824Q243.078 176.824 243.566 176.385Q244.055 175.945 244.153 175.359L244.153 175.359L245.618 166.858L243.615 166.858Q243.273 166.858 243.078 166.663Q242.882 166.467 242.882 165.930L242.882 165.930Q242.882 165.637 242.980 165.099Q243.078 164.562 243.078 164.269L243.078 164.269Q243.078 163.927 243.469 163.585L243.469 163.585Q243.518 163.585 243.811 163.487Q244.104 163.389 244.153 163.389L244.153 163.389L246.351 163.389L247.817 155.182Q248.354 152.055 250.992 149.808Q253.631 147.560 256.904 147.560Z"/></svg>