<svg width="480px" height="360px" xmlns="http://www.w3.org/2000/svg"><rect x="216" y="124" width="80.5" height="80.5" fill-opacity="0"/><path fill="#F00" d="M254.581 156.367L254.581 156.367Q257.957 156.465 259.768 159.498Q261.578 162.532 261.578 167.865L261.578 167.865L261.578 179.070Q261.578 179.462 261.309 179.731Q261.040 180 260.648 180L260.648 180L259.083 180Q258.691 180 258.422 179.731Q258.153 179.462 258.153 179.070L258.153 179.070L258.153 167.865Q258.153 166.642 258.153 166.031Q258.153 165.419 258.055 164.514Q257.957 163.609 257.761 162.972Q257.566 162.336 257.223 161.798L257.223 161.798Q256 159.841 253.896 159.792L253.896 159.792Q252.771 159.743 251.645 160.135Q250.520 160.526 249.688 161.113Q248.856 161.700 248.318 162.434L248.318 162.434Q247.437 163.657 246.899 165.125L246.899 165.125L246.899 179.070Q246.899 179.462 246.606 179.731Q246.312 180 245.969 180L245.969 180L244.404 180Q244.012 180 243.743 179.731Q243.474 179.462 243.474 179.070L243.474 179.070L243.474 157.835Q243.474 157.443 243.743 157.174Q244.012 156.905 244.404 156.905L244.404 156.905L245.969 156.905Q246.361 156.905 246.630 157.174Q246.899 157.443 246.899 157.835L246.899 157.835L246.899 160.771Q246.948 160.624 247.144 160.379L247.144 160.379Q250.226 156.269 254.581 156.367Z"/></svg>