<svg width="480px" height="360px" xmlns="http://www.w3.org/2000/svg"><rect x="216" y="124" width="80.5" height="80.5" fill-opacity="0"/><path fill="#F00" d="M240.391 175.750L242.052 175.750Q243.029 175.750 242.785 177.020L242.785 177.020L242.198 180.098Q241.759 181.417 240.244 183.371L240.244 183.371Q239.853 183.762 239.511 183.762L239.511 183.762Q239.316 183.762 239.194 183.664Q239.072 183.566 239.023 183.469L239.023 183.469L238.925 183.371Q238.925 182.638 239.121 182.492L239.121 182.492Q239.169 182.394 239.585 181.832Q240 181.270 240.244 180.855Q240.489 180.440 240.586 180.098L240.586 180.098L239.658 180.098Q238.925 180.098 238.925 179.218L238.925 179.218Q238.925 178.095 239.316 176.629L239.316 176.629Q239.316 176.238 239.634 175.994Q239.951 175.750 240.391 175.750L240.391 175.750ZM246.742 175.750L248.403 175.750Q249.380 175.750 249.136 177.020L249.136 177.020L248.598 180.098Q248.159 181.417 246.595 183.371L246.595 183.371Q246.205 183.762 245.863 183.762L245.863 183.762Q245.716 183.762 245.569 183.664Q245.423 183.566 245.374 183.469L245.374 183.469L245.325 183.371Q245.325 182.638 245.472 182.492L245.472 182.492Q245.569 182.394 245.960 181.832Q246.351 181.270 246.620 180.855Q246.889 180.440 246.937 180.098L246.937 180.098L246.058 180.098Q245.325 180.098 245.325 179.218L245.325 179.218Q245.325 178.095 245.667 176.629L245.667 176.629Q245.667 176.238 246.009 175.994Q246.351 175.750 246.742 175.750L246.742 175.750Z"/></svg>