<svg width="480px" height="360px" xmlns="http://www.w3.org/2000/svg"><rect x="216" y="124" width="80.5" height="80.5" fill-opacity="0"/><path fill="#F00" d="M265.258 166.272L265.258 166.272Q265.649 167.005 265.795 167.737L265.795 167.737Q265.795 167.884 265.722 168.397Q265.649 168.910 265.649 169.203L265.649 169.203Q265.258 170.278 264.721 170.669L264.721 170.669Q261.398 173.307 256.708 176.629L256.708 176.629Q256.366 176.824 255.976 176.824L255.976 176.824L253.631 176.824Q252.898 176.824 252.898 176.287L252.898 176.287Q252.751 175.994 252.873 175.652Q252.995 175.310 253.289 175.212L253.289 175.212L262.180 168.470L254.901 161.191Q254.656 160.653 254.925 160.116Q255.194 159.579 255.829 159.579L255.829 159.579L258.174 159.579Q258.565 159.579 258.711 159.725L258.711 159.725Q259.200 160.165 260.446 161.411Q261.692 162.656 263.279 164.269Q264.867 165.881 265.258 166.272ZM253.631 169.203L253.631 169.203Q253.631 169.398 253.557 169.594Q253.484 169.789 253.411 169.911Q253.337 170.034 253.166 170.302Q252.995 170.571 252.898 170.669L252.898 170.669Q249.576 173.307 244.885 176.629L244.885 176.629Q244.544 176.824 244.202 176.824L244.202 176.824L241.808 176.824Q241.075 176.824 241.075 176.287L241.075 176.287Q240.928 175.994 241.050 175.652Q241.173 175.310 241.466 175.212L241.466 175.212L250.357 168.470L243.078 161.191Q242.834 160.653 243.102 160.116Q243.371 159.579 244.006 159.579L244.006 159.579L246.351 159.579Q246.742 159.579 246.889 159.725L246.889 159.725Q247.377 160.165 248.647 161.411Q249.918 162.656 251.481 164.269Q253.044 165.881 253.435 166.272L253.435 166.272Q254.070 166.907 253.826 167.737L253.826 167.737Q253.826 167.884 253.728 168.397Q253.631 168.910 253.631 169.203Z"/></svg>