<svg width="480px" height="360px" xmlns="http://www.w3.org/2000/svg"><rect x="216" y="124" width="80.5" height="80.5" fill-opacity="0"/><path fill="#F00" d="M266.235 163.389L266.235 163.389Q266.235 163.438 266.333 163.658Q266.431 163.878 266.431 164.073L266.431 164.073Q266.431 164.366 266.333 164.904Q266.235 165.441 266.235 165.734L266.235 165.734Q266.235 166.076 265.893 166.467L265.893 166.467Q265.795 166.467 265.527 166.565Q265.258 166.663 265.160 166.663L265.160 166.663L255.682 166.663L254.070 176.092Q254.070 176.434 253.728 176.824L253.728 176.824Q253.631 176.824 253.337 176.922Q253.044 177.020 252.995 177.020L252.995 177.020L251.334 177.020Q250.992 177.020 250.797 176.824Q250.602 176.629 250.602 176.092L250.602 176.092L252.263 166.663L242.785 166.663Q242.443 166.663 242.247 166.467Q242.052 166.272 242.052 165.734L242.052 165.734Q242.052 165.441 242.150 164.904Q242.247 164.366 242.247 164.073L242.247 164.073Q242.247 163.731 242.638 163.389L242.638 163.389Q242.687 163.389 242.980 163.292Q243.273 163.194 243.322 163.194L243.322 163.194L252.800 163.194L254.412 153.716Q254.412 153.374 254.803 152.983L254.803 152.983Q254.901 152.983 255.169 152.910Q255.438 152.837 255.536 152.837L255.536 152.837L257.148 152.837Q257.539 152.837 257.710 153.008Q257.881 153.179 257.881 153.716L257.881 153.716L256.269 163.194L265.698 163.194Q266.089 163.194 266.235 163.389Z"/></svg>