<svg width="480px" height="360px" xmlns="http://www.w3.org/2000/svg"><rect x="216" y="124" width="80.5" height="80.5" fill-opacity="0"/><path fill="#F00" d="M254.728 178.287L254.728 178.287Q254.875 178.679 254.728 179.046Q254.581 179.413 254.190 179.560L254.190 179.560Q251.450 180.685 249.835 180.538L249.835 180.538Q247.339 180.294 245.920 178.777L245.920 178.777Q244.550 177.260 244.550 174.960L244.550 174.960L244.550 159.939L242.740 159.939Q242.349 159.939 242.080 159.670Q241.810 159.401 241.810 159.009L241.810 159.009L241.810 157.492Q241.810 157.101 242.080 156.832Q242.349 156.563 242.740 156.563L242.740 156.563L244.550 156.563L244.550 150.544Q244.550 150.153 244.820 149.884Q245.089 149.615 245.480 149.615L245.480 149.615L246.997 149.615Q247.388 149.615 247.657 149.884Q247.927 150.153 247.927 150.544L247.927 150.544L247.927 156.563L253.456 156.563Q253.847 156.563 254.116 156.832Q254.385 157.101 254.385 157.492L254.385 157.492L254.385 159.009Q254.385 159.401 254.116 159.670Q253.847 159.939 253.456 159.939L253.456 159.939L247.927 159.939L247.927 174.960Q247.927 175.939 248.416 176.428L248.416 176.428Q248.954 177.015 250.128 177.113L250.128 177.113Q251.009 177.211 252.869 176.428L252.869 176.428Q253.211 176.281 253.554 176.404Q253.896 176.526 254.043 176.869L254.043 176.869Q254.336 177.456 254.728 178.287Z"/></svg>