<svg version="1.1" xmlns="http://www.w3.org/2000/svg" xmlns:xlink="http://www.w3.org/1999/xlink" width="74.00572" height="116.73137" viewBox="0,0,74.00572,116.73137"><g transform="translate(-282.89428,-121.80594)"><g data-paper-data="{&quot;isPaintingLayer&quot;:true}" fill-rule="nonzero" stroke-linejoin="miter" stroke-miterlimit="10" stroke-dasharray="" stroke-dashoffset="0" style="mix-blend-mode: normal"><path d="M356.9,213.37045c0,18.3 -16.5,24.2 -36.9,24.2c-20.4,0 -36.9,-5.9 -36.9,-24.2c0,-8.6 2.4,-18.5 7.7,-26.5l-4.3,-14.5c-0.8,-2.7 2,-5.3 4.6,-4.2l14.3,6c4.2,-1.9 9,-3 14.6,-3c5.5,0 10.3,1.2 14.5,3.1l14.4,-6c2.6,-1.1 5.4,1.5 4.6,4.2l-4.4,14.7c5.2,7.9 7.7,17.7 7.8,26.2z" fill="#ff7319" stroke="none" stroke-width="1" stroke-linecap="butt"/><path d="M348.8,224.97045c0,9.6 -12.9,12.7 -28.9,12.7c-16,0 -28.9,-3.1 -28.9,-12.7c0,-9.6 8.6,-22.1 28.9,-22.1c19.9,0 28.9,12.5 28.9,22.1z" fill="#ffffff" stroke="none" stroke-width="1" stroke-linecap="butt"/><path d="M316.7,207.27045c0,-1.3 1.4,-1.7 3.2,-1.7c1.8,0 3.2,0.4 3.2,1.7c0,1.3 -1,2.9 -3.2,2.9c-2.2,0 -3.2,-1.6 -3.2,-2.9z" fill="#945600" stroke="#000000" stroke-width="1.5" stroke-linecap="butt"/><path d="M314.4,216.87045c3,0 5.5,-2.5 5.5,-5.5c0,-0.2 0,-0.2 0,-0.2c0,-0.2 0,-0.3 0,-0.3c0,0 0,0.1 0,0.3c0,0 0,0 0,0.2c0,3.1 2.5,5.5 5.5,5.5" fill="none" stroke="#000000" stroke-width="2.5" stroke-linecap="round"/><path d="M310.53215,196.27045c0,-1.71208 1.38792,-3.1 3.1,-3.1c1.71208,0 3.1,1.38792 3.1,3.1c0,1.71208 -1.38792,3.1 -3.1,3.1c-1.71208,0 -3.1,-1.38792 -3.1,-3.1z" fill="#000000" stroke="none" stroke-width="1" stroke-linecap="butt"/><path d="M323.33215,196.27045c0,-1.71208 1.38792,-3.1 3.1,-3.1c1.71208,0 3.1,1.38792 3.1,3.1c0,1.71208 -1.38792,3.1 -3.1,3.1c-1.71208,0 -3.1,-1.38792 -3.1,-3.1z" fill="#000000" stroke="none" stroke-width="1" stroke-linecap="butt"/><path d="M297.5,179.67045c-2.1,1.8 -3.8,3.5 -5.4,6.1l-3.9,-13.5c-0.3,-1.6 1.2,-3 2.8,-2.5l12.9,5.4c-2.9,1.2 -4.6,2.8 -6.4,4.5z" fill="#77500c" stroke="none" stroke-width="1" stroke-linecap="butt"/><path d="M336.3,175.17045l12.9,-5.4c1.6,-0.5 3.1,0.9 2.8,2.5l-3.8,13.5c-1.5,-2.6 -3.3,-4.3 -5.3,-6.1c-2,-1.7 -3.7,-3.3 -6.6,-4.5z" fill="#77500c" stroke="none" stroke-width="1" stroke-linecap="butt"/><path d="M330.2464,195.35768c-3,0 -5.5,-2.5 -5.5,-5.5c0,-0.2 0,-0.2 0,-0.2c0,-0.2 0,-0.3 0,-0.3c0,0 0,0.1 0,0.3c0,0 0,0 0,0.2" data-paper-data="{&quot;index&quot;:null}" fill="none" stroke="#000000" stroke-width="2.5" stroke-linecap="round"/><text transform="translate(312.82273,163.90584) rotate(18.59052) scale(1.00451,1.00451)" font-size="40" xml:space="preserve" fill="#ffffff" fill-rule="nonzero" stroke="none" stroke-width="1" stroke-linecap="butt" stroke-linejoin="miter" stroke-miterlimit="10" stroke-dasharray="" stroke-dashoffset="0" font-family="Sans Serif" font-weight="normal" text-anchor="start" style="mix-blend-mode: normal"><tspan x="0" dy="0">?</tspan></text><path d="M348.79428,222.13731v0" fill="#ffffff" stroke="none" stroke-width="1" stroke-linecap="butt"/><path d="M291.79428,222.13731" fill="#ffffff" stroke="none" stroke-width="1" stroke-linecap="butt"/><path d="M356.69428,214.23731c0,18.3 -16.5,24.2 -36.9,24.2c-20.4,0 -36.9,-5.9 -36.9,-24.2c0,-8.6 2.4,-18.5 7.7,-26.5l-4.3,-14.5c-0.8,-2.7 2,-5.3 4.6,-4.2l14.3,6c4.2,-1.9 9,-3 14.6,-3c5.5,0 10.3,1.2 14.5,3.1l14.4,-6c2.6,-1.1 5.4,1.5 4.6,4.2l-4.4,14.7c5.3,7.9 7.8,17.7 7.8,26.2z" fill="#ff7319" stroke="none" stroke-width="1" stroke-linecap="butt"/><path d="M348.69428,225.83731c0,9.6 -12.9,12.7 -28.9,12.7c-16,0 -28.9,-3.1 -28.9,-12.7c0,-9.6 8.6,-22.1 28.9,-22.1c19.8,0 28.9,12.5 28.9,22.1z" fill="#ffffff" stroke="none" stroke-width="1" stroke-linecap="butt"/><path d="M316.59428,208.13731c0,-1.3 1.4,-1.7 3.2,-1.7c1.8,0 3.2,0.4 3.2,1.7c0,1.3 -1,2.9 -3.2,2.9c-2.2,0 -3.2,-1.6 -3.2,-2.9z" fill="#945600" stroke="#000000" stroke-width="1.5" stroke-linecap="butt"/><path d="M308.79428,217.33731c0,-3.1 2.5,-5.5 5.5,-5.5c3,0 5.5,2.5 5.5,5.5c0,0.2 0,0.2 0,0.2c0,0.2 0,0.3 0,0.3c0,0 0,-0.1 0,-0.3c0,0 0,0 0,-0.2c0,-3.1 2.5,-5.5 5.5,-5.5c3,0 5.5,2.5 5.5,5.5" data-paper-data="{&quot;index&quot;:null}" fill="none" stroke="#000000" stroke-width="2.5" stroke-linecap="round"/><path d="M310.29428,197.03731c0,-1.71208 1.38792,-3.1 3.1,-3.1c1.71208,0 3.1,1.38792 3.1,3.1c0,1.71208 -1.38792,1.06861 -3.1,1.06861c-1.71208,0 -3.1,0.64347 -3.1,-1.06861z" fill="#000000" stroke="none" stroke-width="1" stroke-linecap="butt"/><path d="M323.09428,197.03731c0,-1.71208 1.38792,-3.1 3.1,-3.1c1.71208,0 3.1,1.38792 3.1,3.1c0,1.71208 -1.38792,3.1 -3.1,3.1c-1.71208,0 -3.1,-1.38792 -3.1,-3.1z" fill="#000000" stroke="none" stroke-width="1" stroke-linecap="butt"/><path d="M297.29428,180.53731c-2,1.8 -3.8,3.5 -5.3,6.1l-3.9,-13.5c-0.3,-1.6 1.2,-3 2.8,-2.5l12.9,5.4c-3,1.2 -4.6,2.8 -6.5,4.5z" fill="#77500c" stroke="none" stroke-width="1" stroke-linecap="butt"/><path d="M336.19428,176.03731l12.9,-5.4c1.6,-0.5 3.1,0.9 2.8,2.5l-3.8,13.6c-1.6,-2.6 -3.3,-4.3 -5.4,-6.1c-1.9,-1.8 -3.6,-3.4 -6.5,-4.6z" fill="#77500c" stroke="none" stroke-width="1" stroke-linecap="butt"/><path d="M322.72068,199.78335c0.94869,-0.31623 1.26491,0.63245 1.26491,0.63245l0.01285,0.37239c1.57553,1.58633 3.34172,2.03077 3.92005,-0.2987c0,0 0.24253,-0.97014 1.21267,-0.72761c0.97015,0.24254 0.72761,1.21268 0.72761,1.21268c-0.99871,3.97014 -4.6829,3.80433 -7.27455,1.22784l-0.496,-1.15414c0,0 -0.31623,-0.94868 0.63245,-1.26491z" fill-opacity="0.41569" fill="#000000" stroke="none" stroke-width="0.5" stroke-linecap="butt"/><path d="M309.91109,199.05884c0.94869,-0.31623 1.26491,0.63245 1.26491,0.63245l0.01285,0.37239c1.57553,1.58633 3.34172,2.03077 3.92005,-0.2987c0,0 0.24253,-0.97014 1.21267,-0.7276c0.97015,0.24254 0.72761,1.21267 0.72761,1.21267c-0.99871,3.97014 -4.6829,3.80433 -7.27455,1.22784l-0.496,-1.15414c0,0 -0.31623,-0.94868 0.63245,-1.26491z" fill-opacity="0.51765" fill="#000000" stroke="none" stroke-width="0.5" stroke-linecap="butt"/></g></g></svg>