<svg width="480px" height="360px" xmlns="http://www.w3.org/2000/svg"><rect x="216" y="124" width="80.5" height="80.5" fill-opacity="0"/><path fill="#F00" d="M246.842 147.228Q247.203 147.228 247.460 147.486Q247.717 147.743 247.717 148.051L247.717 148.051Q247.666 149.852 247.666 151.190L247.666 151.190Q247.614 152.682 246.740 153.865L246.740 153.865Q246.534 154.225 245.942 155.074Q245.350 155.923 245.093 156.283L245.093 156.283Q244.836 156.592 244.424 156.617Q244.013 156.643 243.756 156.334L243.756 156.334Q243.653 156.232 243.293 155.820L243.293 155.820Q242.830 155.254 243.293 154.688L243.293 154.688Q244.219 153.711 244.579 153.145L244.579 153.145L242.881 153.145Q242.521 153.145 242.264 152.887Q242.006 152.630 242.006 152.322L242.006 152.322L242.006 148.051Q242.006 147.743 242.264 147.486Q242.521 147.228 242.881 147.228L242.881 147.228L246.842 147.228Z"/></svg>