<svg width="480px" height="360px" xmlns="http://www.w3.org/2000/svg"><rect x="216" y="124" width="80.5" height="80.5" fill-opacity="0"/><path fill="#F00" d="M256.669 155.666L256.669 155.666Q259.293 155.768 261.170 157.209Q263.048 158.650 263.974 161.299Q264.900 163.949 264.900 167.550L264.900 167.550Q264.900 173.775 262.611 177.145Q260.322 180.514 256.566 180.514L256.566 180.514Q251.576 180.514 249.466 177.222L249.466 177.222L249.466 178.971Q249.466 179.331 249.209 179.588Q248.952 179.846 248.592 179.846L248.592 179.846L244.630 179.846Q244.270 179.846 244.013 179.588Q243.756 179.331 243.756 178.971L243.756 178.971L243.756 148.103Q243.756 147.743 244.013 147.486Q244.270 147.228 244.630 147.228L244.630 147.228L248.592 147.228Q248.952 147.228 249.209 147.486Q249.466 147.743 249.466 148.051L249.466 148.051L249.466 159.370Q251.627 155.563 256.669 155.666ZM257.698 173.312L257.698 173.312Q259.190 171.254 259.190 167.550L259.190 167.550Q259.190 164.875 258.084 163.151Q256.977 161.428 255.074 161.376L255.074 161.376Q253.839 161.376 252.810 161.788Q251.781 162.199 251.113 162.920Q250.444 163.640 250.058 164.206Q249.672 164.772 249.466 165.286L249.466 165.286L249.466 171.666Q249.878 172.334 250.418 172.926Q250.958 173.518 252.270 174.161Q253.582 174.804 255.177 174.804L255.177 174.804Q256.566 174.804 257.698 173.312Z"/></svg>