<svg width="480px" height="360px" xmlns="http://www.w3.org/2000/svg"><rect x="216" y="124" width="80.5" height="80.5" fill-opacity="0"/><path fill="#F00" d="M252.502 154.071L252.502 154.071Q252.810 154.482 252.553 154.945Q252.296 155.408 251.781 155.408L251.781 155.408L247.974 155.408Q247.563 155.408 247.305 155.100L247.305 155.100Q246.791 154.534 244.605 151.961Q242.418 149.389 241.749 148.617L241.749 148.617Q241.389 148.206 241.621 147.717Q241.852 147.228 242.418 147.228L242.418 147.228L247.151 147.228Q247.563 147.228 247.820 147.588L247.820 147.588Q248.283 148.206 250.135 150.778Q251.987 153.350 252.502 154.071Z"/></svg>