<svg width="480px" height="360px" xmlns="http://www.w3.org/2000/svg"><rect x="216" y="124" width="80.5" height="80.5" fill-opacity="0"/><path fill="#F00" d="M248.540 147.228Q248.900 147.228 249.158 147.486Q249.415 147.743 249.415 148.051L249.415 148.051L249.415 179.125Q249.415 179.486 249.158 179.743Q248.900 180 248.540 180L248.540 180L244.579 180Q244.373 180 244.219 179.923Q244.064 179.846 243.961 179.743Q243.859 179.640 243.781 179.486Q243.704 179.331 243.704 179.125L243.704 179.125L243.704 148.051Q243.704 147.743 243.961 147.486Q244.219 147.228 244.579 147.228L244.579 147.228L248.540 147.228Z"/></svg>