<svg width="480px" height="360px" xmlns="http://www.w3.org/2000/svg"><rect x="216" y="124" width="80.5" height="80.5" fill-opacity="0"/><path fill="#F00" d="M251.730 152.424L251.730 152.424Q250.547 152.424 250.547 153.093L250.547 153.093L250.547 155.871L257.080 155.871Q257.389 155.871 257.646 156.103Q257.904 156.334 257.904 156.695L257.904 156.695L257.904 160.707Q257.904 161.068 257.646 161.325Q257.389 161.582 257.080 161.582L257.080 161.582L250.547 161.582L250.547 179.125Q250.547 179.486 250.315 179.743Q250.084 180 249.723 180L249.723 180L245.711 180Q245.505 180 245.299 179.897Q245.093 179.794 244.990 179.588Q244.887 179.383 244.887 179.125L244.887 179.125L244.887 161.531L243.138 161.531Q242.881 161.531 242.675 161.428Q242.469 161.325 242.367 161.119Q242.264 160.913 242.264 160.707L242.264 160.707L242.264 156.695Q242.264 156.334 242.521 156.103Q242.778 155.871 243.138 155.871L243.138 155.871L244.887 155.871L244.887 153.093Q244.887 150.367 246.740 148.566L246.740 148.566Q248.643 146.714 251.730 146.714L251.730 146.714Q255.691 146.714 258.315 149.492L258.315 149.492Q258.624 149.749 258.572 150.135Q258.521 150.521 258.212 150.752Q257.904 150.984 257.158 151.498Q256.412 152.013 255.820 152.424Q255.228 152.836 254.868 153.093L254.868 153.093Q254.354 153.453 253.839 153.093L253.839 153.093Q252.913 152.424 251.730 152.424Z"/></svg>