<svg width="480px" height="360px" xmlns="http://www.w3.org/2000/svg"><rect x="216" y="124" width="80.5" height="80.5" fill-opacity="0"/><path fill="#F00" d="M267.603 148.049Q267.945 148.049 268.311 148.415Q268.678 148.782 268.140 149.319L268.140 149.319Q260.666 164.220 252.653 179.511L252.653 179.511Q252.409 180.049 251.774 180.049L251.774 180.049L249.576 180.049Q248.843 180.049 248.843 179.511L248.843 179.511Q248.452 177.362 246.400 164.537Q244.348 151.713 243.957 149.319L243.957 149.319Q243.713 148.831 244.153 148.391L244.153 148.391Q244.837 148.049 245.032 148.049L245.032 148.049L246.693 148.049Q247.426 148.049 247.426 148.586L247.426 148.586L251.579 174.577Q263.060 152.592 265.063 148.586L265.063 148.586Q265.307 148.049 265.942 148.049L265.942 148.049L267.603 148.049Z"/></svg>