<svg width="480px" height="360px" xmlns="http://www.w3.org/2000/svg"><rect x="216" y="124" width="80.5" height="80.5" fill-opacity="0"/><path fill="#F00" d="M266.968 159.921L266.968 159.921Q266.968 160.653 266.626 160.995L266.626 160.995L256.806 168.275Q260.959 172.672 263.353 175.017L263.353 175.017Q263.597 175.554 263.328 176.092Q263.060 176.629 262.424 176.629L262.424 176.629L260.079 176.629Q259.689 176.629 259.493 176.482L259.493 176.482Q259.151 176.092 256.831 173.673Q254.510 171.255 253.679 170.473L253.679 170.473Q253.044 169.838 253.337 169.008L253.337 169.008Q253.337 168.861 253.435 168.348Q253.533 167.835 253.533 167.542L253.533 167.542Q253.875 166.467 254.412 166.125L254.412 166.125Q261.643 160.849 263.157 159.579L263.157 159.579Q263.499 159.383 263.890 159.383L263.890 159.383L266.235 159.383Q266.968 159.383 266.968 159.921ZM254.803 160.995L244.983 168.275Q249.136 172.672 251.530 175.017L251.530 175.017Q251.774 175.554 251.505 176.092Q251.237 176.629 250.602 176.629L250.602 176.629L248.256 176.629Q247.866 176.629 247.719 176.482L247.719 176.482Q247.328 176.092 246.180 174.895Q245.032 173.698 243.762 172.403Q242.492 171.108 241.856 170.473L241.856 170.473Q241.221 169.838 241.515 169.008L241.515 169.008Q241.515 168.861 241.612 168.348Q241.710 167.835 241.710 167.542L241.710 167.542Q242.052 166.467 242.589 166.125L242.589 166.125Q249.820 160.849 251.334 159.579L251.334 159.579Q251.676 159.383 252.067 159.383L252.067 159.383L254.412 159.383Q255.145 159.383 255.145 159.921L255.145 159.921Q255.292 160.214 255.169 160.556Q255.047 160.898 254.803 160.995L254.803 160.995Z"/></svg>