<svg width="480px" height="360px" xmlns="http://www.w3.org/2000/svg"><rect x="216" y="124" width="80.5" height="80.5" fill-opacity="0"/><path fill="#F00" d="M263.203 159.473L257.132 165.543Q261.556 170.019 263.203 171.666L263.203 171.666Q263.460 171.871 263.460 172.232Q263.460 172.592 263.203 172.849L263.203 172.849L260.373 175.678Q259.756 176.244 259.138 175.678L259.138 175.678L253.068 169.608L246.997 175.678Q246.740 175.936 246.405 175.936Q246.071 175.936 245.814 175.678L245.814 175.678L242.984 172.849Q242.727 172.592 242.727 172.232Q242.727 171.871 242.984 171.666L242.984 171.666L249.055 165.543L242.984 159.473Q242.727 159.215 242.727 158.881Q242.727 158.547 242.984 158.289L242.984 158.289L245.814 155.460Q246.071 155.203 246.405 155.203Q246.740 155.203 246.997 155.460L246.997 155.460L253.068 161.531Q257.492 157.106 259.138 155.460L259.138 155.460Q259.395 155.203 259.756 155.203Q260.116 155.203 260.373 155.460L260.373 155.460L263.203 158.289Q263.460 158.547 263.460 158.881Q263.460 159.215 263.203 159.473L263.203 159.473Z"/></svg>