<svg width="480px" height="360px" xmlns="http://www.w3.org/2000/svg"><rect x="216" y="124" width="80.5" height="80.5" fill-opacity="0"/><path fill="#F00" d="M248.643 147.691L248.643 147.691Q249.569 149.595 250.469 151.884Q251.370 154.174 252.399 158.701Q253.428 163.228 253.428 167.498L253.428 167.498Q253.428 171.768 252.424 176.296Q251.421 180.823 250.521 183.113Q249.621 185.402 248.643 187.305L248.643 187.305Q248.437 187.768 247.871 187.768L247.871 187.768L243.344 187.768Q242.881 187.768 242.624 187.357Q242.367 186.945 242.624 186.482L242.624 186.482L243.241 185.350Q243.344 185.196 243.498 184.887Q243.653 184.579 244.141 183.550Q244.630 182.521 245.042 181.441Q245.453 180.360 245.968 178.688Q246.482 177.016 246.868 175.344Q247.254 173.672 247.511 171.588Q247.768 169.505 247.768 167.498Q247.768 165.492 247.511 163.434Q247.254 161.376 246.868 159.678Q246.482 157.981 245.994 156.386Q245.505 154.791 245.016 153.608Q244.527 152.424 244.141 151.524Q243.756 150.624 243.498 150.161L243.498 150.161L243.241 149.698Q242.932 149.080 242.572 148.514L242.572 148.514Q242.315 148.051 242.572 147.640Q242.830 147.228 243.344 147.228L243.344 147.228L247.871 147.228Q248.386 147.228 248.643 147.691Z"/></svg>