<svg width="480px" height="360px" xmlns="http://www.w3.org/2000/svg"><rect x="216" y="124" width="80.5" height="80.5" fill-opacity="0"/><path fill="#F00" d="M255.266 164.049L255.266 164.049Q258.300 165.370 259.939 167.083Q261.578 168.795 261.578 171.437L261.578 171.437Q261.578 174.765 259.450 177.284Q257.321 179.804 254.092 180.391L254.092 180.391L254.092 183.425Q254.092 183.817 253.823 184.086Q253.554 184.355 253.162 184.355L253.162 184.355L251.596 184.355Q251.205 184.355 250.936 184.086Q250.667 183.817 250.667 183.425L250.667 183.425L250.667 180.391Q246.410 179.706 243.425 176.869L243.425 176.869Q243.131 176.575 243.156 176.183Q243.180 175.792 243.474 175.547L243.474 175.547Q243.963 175.058 244.599 174.471L244.599 174.471Q245.235 173.933 245.872 174.471L245.872 174.471Q247.291 175.792 249.101 176.477Q250.911 177.162 252.330 177.162L252.330 177.162Q254.777 177.162 256.489 175.498Q258.202 173.835 258.202 171.437L258.202 171.437Q258.202 169.774 256.538 168.550L256.538 168.550Q255.462 167.817 251.694 166.251L251.694 166.251Q249.786 165.419 248.465 164.685Q247.144 163.951 245.823 162.826Q244.502 161.700 243.817 160.135Q243.131 158.569 243.131 156.612L243.131 156.612Q243.131 153.284 245.284 150.740Q247.437 148.196 250.667 147.609L250.667 147.609L250.667 144.624Q250.667 144.232 250.936 143.963Q251.205 143.694 251.596 143.694L251.596 143.694L253.162 143.694Q253.554 143.694 253.823 143.963Q254.092 144.232 254.092 144.624L254.092 144.624L254.092 147.609Q258.300 148.343 261.284 151.180L261.284 151.180Q261.578 151.425 261.578 151.841Q261.578 152.257 261.284 152.502L261.284 152.502Q261.040 152.697 260.110 153.578L260.110 153.578Q259.474 154.116 258.838 153.578L258.838 153.578Q255.755 150.887 252.379 150.887L252.379 150.887Q249.982 150.887 248.269 152.550Q246.557 154.214 246.557 156.612L246.557 156.612Q246.557 159.352 249.052 161.113L249.052 161.113Q249.688 161.554 250.520 161.969Q251.352 162.385 252.037 162.679Q252.722 162.972 253.725 163.388Q254.728 163.804 255.266 164.049Z"/></svg>