<svg width="480px" height="360px" xmlns="http://www.w3.org/2000/svg"><rect x="216" y="124" width="80.5" height="80.5" fill-opacity="0"/><path fill="#F00" d="M262.277 156.180Q262.740 156.180 262.997 156.566Q263.254 156.952 263.100 157.363L263.100 157.363L253.068 183.087Q252.450 184.527 251.370 185.608L251.370 185.608Q248.849 188.232 245.248 187.717L245.248 187.717Q245.196 187.717 243.550 187.460L243.550 187.460Q243.190 187.408 242.958 187.125Q242.727 186.842 242.778 186.482L242.778 186.482Q242.881 185.968 243.087 184.527Q243.293 183.087 243.344 182.572L243.344 182.572Q243.395 182.212 243.678 182.006Q243.961 181.801 244.322 181.852L244.322 181.852Q244.579 181.852 245.299 182.058L245.299 182.058Q246.019 182.212 246.740 181.878Q247.460 181.543 247.820 180.875L247.820 180.875L249.260 177.531Q243.293 161.788 241.595 157.363L241.595 157.363Q241.441 156.952 241.698 156.566Q241.955 156.180 242.418 156.180L242.418 156.180L246.688 156.180Q247.254 156.180 247.460 156.746L247.460 156.746L252.347 169.659Q256.309 159.267 257.235 156.746L257.235 156.746Q257.441 156.180 258.058 156.180L258.058 156.180L262.277 156.180Z"/></svg>