<svg width="480px" height="360px" xmlns="http://www.w3.org/2000/svg"><rect x="216" y="124" width="80.5" height="80.5" fill-opacity="0"/><path fill="#F00" d="M254.852 148.049L256.513 148.049Q256.904 148.049 257.148 148.293Q257.392 148.537 257.392 148.928L257.392 148.928L252.849 174.773Q252.458 177.166 250.235 178.876Q248.012 180.586 244.885 180.586L244.885 180.586Q242.834 180.586 241.539 179.976Q240.244 179.365 238.876 177.850L238.876 177.850Q238.681 177.655 238.681 177.118L238.681 177.118Q238.681 176.776 239.072 176.385L239.072 176.385Q239.218 176.238 239.682 175.872Q240.147 175.505 240.342 175.310L240.342 175.310Q240.977 174.675 241.612 175.310L241.612 175.310Q243.420 177.118 245.423 177.118L245.423 177.118Q247.084 177.118 248.183 176.482Q249.282 175.847 249.429 174.773L249.429 174.773L253.777 148.928Q253.777 148.537 254.119 148.293Q254.461 148.049 254.852 148.049L254.852 148.049Z"/></svg>