<svg width="480px" height="360px" xmlns="http://www.w3.org/2000/svg"><rect x="216" y="124" width="80.5" height="80.5" fill-opacity="0"/><path fill="#F00" d="M268.140 148.293L268.873 148.635Q269.606 149.026 269.069 150.101L269.069 150.101Q268.336 151.176 268.140 151.566L268.140 151.566Q268.043 151.957 267.603 152.104Q267.163 152.250 266.870 152.104L266.870 152.104L266.137 151.762Q264.427 151.029 261.789 151.029L261.789 151.029Q257.783 151.029 255.047 152.837L255.047 152.837Q252.116 154.742 250.308 159.725L250.308 159.725L259.786 159.725Q260.519 159.725 260.519 160.653L260.519 160.653Q260.519 160.849 260.421 161.118Q260.324 161.386 260.324 161.582L260.324 161.582Q260.324 161.924 259.982 162.266L259.982 162.266Q259.884 162.266 259.615 162.363Q259.347 162.461 259.249 162.461L259.249 162.461L249.429 162.461Q249.038 163.585 249.038 163.927L249.038 163.927Q249.038 164.122 248.965 164.562Q248.892 165.002 248.892 165.197L248.892 165.197L258.711 165.197Q259.053 165.197 259.249 165.368Q259.444 165.539 259.444 166.125L259.444 166.125Q259.444 166.272 259.347 166.565Q259.249 166.858 259.249 167.005L259.249 167.005Q259.249 167.395 258.858 167.737L258.858 167.737Q258.760 167.737 258.492 167.835Q258.223 167.933 258.125 167.933L258.125 167.933L248.501 167.933Q248.501 173.063 250.895 175.212L250.895 175.212Q253.289 177.020 257.050 177.020L257.050 177.020Q259.884 177.020 261.594 176.287L261.594 176.287L262.327 175.945Q263.157 175.652 263.402 176.482L263.402 176.482Q263.499 176.727 263.597 177.240Q263.695 177.753 263.792 177.948L263.792 177.948Q263.939 178.339 263.719 178.705Q263.499 179.072 263.060 179.218L263.060 179.218L262.327 179.560Q259.591 180.489 256.513 180.489L256.513 180.489Q251.383 180.489 248.501 177.948L248.501 177.948Q245.081 174.724 245.423 167.933L245.423 167.933L242.882 167.933Q242.150 167.933 242.150 167.005L242.150 167.005Q242.150 166.858 242.247 166.565Q242.345 166.272 242.345 166.125L242.345 166.125Q242.345 165.734 242.663 165.466Q242.980 165.197 243.420 165.197L243.420 165.197L245.765 165.197L246.351 162.461L243.957 162.461Q243.224 162.461 243.224 161.582L243.224 161.582Q243.224 161.386 243.273 161.240Q243.322 161.093 243.371 160.947Q243.420 160.800 243.420 160.653L243.420 160.653Q243.762 159.921 243.957 159.725L243.957 159.725Q244.055 159.725 244.324 159.652Q244.592 159.579 244.690 159.579L244.690 159.579L247.231 159.579Q249.331 152.983 253.777 149.905L253.777 149.905Q257.588 147.365 262.718 147.365L262.718 147.365Q265.747 147.365 268.140 148.293L268.140 148.293Z"/></svg>