<svg width="480px" height="360px" xmlns="http://www.w3.org/2000/svg"><rect x="216" y="124" width="80.5" height="80.5" fill-opacity="0"/><path fill="#F00" d="M245.227 184.983L263.597 184.983Q263.841 184.983 264.085 185.301Q264.330 185.618 264.330 185.911L264.330 185.911Q264.330 186.205 264.232 186.742Q264.134 187.279 264.134 187.524L264.134 187.524Q264.134 187.963 263.792 188.208Q263.450 188.452 263.060 188.452L263.060 188.452L244.690 188.452Q243.957 188.452 243.957 187.524L243.957 187.524Q243.957 187.279 244.055 186.742Q244.153 186.205 244.153 185.911L244.153 185.911Q244.153 185.521 244.470 185.252Q244.788 184.983 245.227 184.983L245.227 184.983Z"/></svg>