<svg width="480px" height="360px" xmlns="http://www.w3.org/2000/svg"><rect x="216" y="124" width="80.5" height="80.5" fill-opacity="0"/><path fill="#F00" d="M244.844 147.168L246.410 147.168Q246.752 147.168 247.046 147.437Q247.339 147.706 247.339 148.098L247.339 148.098L247.339 187.584Q247.339 187.927 247.046 188.220Q246.752 188.514 246.410 188.514L246.410 188.514L244.844 188.514Q244.599 188.514 244.379 188.367Q244.159 188.220 244.037 188.024Q243.914 187.829 243.914 187.584L243.914 187.584L243.914 148.098Q243.914 147.902 243.988 147.731Q244.061 147.560 244.183 147.437Q244.306 147.315 244.477 147.242Q244.648 147.168 244.844 147.168L244.844 147.168Z"/></svg>