<svg width="480px" height="360px" xmlns="http://www.w3.org/2000/svg"><rect x="216" y="124" width="80.5" height="80.5" fill-opacity="0"/><path fill="#F00" d="M263.939 149.905L263.939 149.905Q265.502 151.762 264.672 155.719L264.672 155.719L264.672 156.110L264.672 156.452Q264.476 157.380 264.134 158.235Q263.792 159.090 263.377 159.701Q262.962 160.311 262.498 160.849Q262.034 161.386 261.618 161.753Q261.203 162.119 260.861 162.363Q260.519 162.608 260.324 162.705L260.324 162.705L260.128 162.803Q260.226 162.852 260.373 162.925Q260.519 162.998 260.959 163.292Q261.398 163.585 261.740 163.951Q262.082 164.318 262.547 164.928Q263.011 165.539 263.206 166.321Q263.402 167.102 263.548 168.153Q263.695 169.203 263.402 170.473L263.402 170.473L263.402 170.815L263.402 171.206Q262.473 175.652 259.933 177.753L259.933 177.753Q256.757 180.293 251.188 180.293L251.188 180.293Q245.618 180.293 243.371 177.753L243.371 177.753Q241.466 175.261 242.296 171.206L242.296 171.206L242.296 170.815L242.296 170.473Q242.589 168.763 243.322 167.371Q244.055 165.979 244.885 165.173Q245.716 164.366 246.498 163.805Q247.279 163.243 247.768 163.047L247.768 163.047L248.305 162.803Q248.256 162.803 248.159 162.705Q248.061 162.608 247.744 162.339Q247.426 162.070 247.206 161.753Q246.986 161.435 246.669 160.873Q246.351 160.311 246.229 159.701Q246.107 159.090 246.009 158.235Q245.911 157.380 246.107 156.452L246.107 156.452L246.107 156.110L246.107 155.719Q246.986 151.860 249.185 149.905L249.185 149.905Q251.872 147.560 257.002 147.560L257.002 147.560Q261.887 147.560 263.939 149.905ZM260.128 170.815L260.128 170.473Q260.715 167.689 259.591 166.272L259.591 166.272Q258.223 164.660 253.924 164.660L253.924 164.660Q249.478 164.660 247.573 166.272L247.573 166.272Q246.693 167.005 246.302 167.957Q245.911 168.910 245.569 170.473L245.569 170.473L245.569 171.011L245.569 171.353Q244.983 174.382 246.107 175.554L246.107 175.554Q247.475 177.166 251.774 177.166L251.774 177.166Q256.220 177.166 258.125 175.554L258.125 175.554Q258.956 174.821 259.371 173.869Q259.786 172.916 260.128 171.353L260.128 171.353L260.128 170.815ZM261.398 156.110L261.398 155.719Q261.985 153.325 261.008 152.104L261.008 152.104Q259.982 150.834 256.318 150.834L256.318 150.834L256.122 150.834Q252.409 151.127 251.041 152.299L251.041 152.299Q249.722 153.130 249.380 155.719L249.380 155.719L249.380 156.256L249.380 156.647Q248.794 158.944 249.771 160.116L249.771 160.116Q250.748 161.386 254.461 161.386L254.461 161.386Q258.223 161.386 259.737 160.116L259.737 160.116Q261.056 159.237 261.398 156.647L261.398 156.647L261.398 156.110Z"/></svg>