<svg width="480px" height="360px" xmlns="http://www.w3.org/2000/svg"><rect x="216" y="124" width="80.5" height="80.5" fill-opacity="0"/><path fill="#F00" d="M262.997 167.550L262.997 167.550Q262.997 167.550 262.997 168.116L262.997 168.116Q262.997 168.630 262.997 168.630L262.997 168.630Q262.997 175.164 259.961 178.045L259.961 178.045Q257.441 180.412 253.016 180.514L253.016 180.514L252.913 180.514Q248.489 180.412 245.968 178.045L245.968 178.045Q242.932 175.164 242.932 168.630L242.932 168.630Q242.932 168.322 242.932 168.116L242.932 168.116Q242.932 167.859 242.932 167.550L242.932 167.550Q242.932 161.016 245.968 158.135L245.968 158.135Q248.489 155.768 252.913 155.666L252.913 155.666L253.016 155.666Q257.441 155.768 259.961 158.135L259.961 158.135Q262.997 161.016 262.997 167.550ZM257.286 168.630L257.286 168.630Q257.286 168.424 257.286 168.167L257.286 168.167L257.286 168.013Q257.286 167.550 257.286 167.550L257.286 167.550Q257.286 165.492 257.055 164.257Q256.823 163.023 256.051 162.302L256.051 162.302Q255.125 161.428 252.965 161.376L252.965 161.376Q250.804 161.428 249.878 162.302L249.878 162.302Q249.106 163.023 248.875 164.257Q248.643 165.492 248.643 167.550L248.643 167.550Q248.643 167.807 248.643 168.013L248.643 168.013L248.643 168.167Q248.643 168.373 248.643 168.630L248.643 168.630Q248.643 169.453 248.643 169.968Q248.643 170.482 248.720 171.125Q248.797 171.768 248.926 172.232Q249.055 172.695 249.286 173.132Q249.518 173.569 249.878 173.878L249.878 173.878Q250.804 174.752 252.965 174.804L252.965 174.804Q255.125 174.752 256.051 173.878L256.051 173.878Q256.566 173.363 256.875 172.489Q257.183 171.614 257.235 170.817Q257.286 170.019 257.286 168.630Z"/></svg>