<svg width="480px" height="360px" xmlns="http://www.w3.org/2000/svg"><rect x="216" y="124" width="80.5" height="80.5" fill-opacity="0"/><path fill="#F00" d="M242.624 174.032L246.585 174.032Q246.945 174.032 247.203 174.289L247.203 174.289Q247.460 174.547 247.460 174.907L247.460 174.907Q247.408 176.707 247.408 178.045L247.408 178.045Q247.357 179.486 246.534 180.720L246.534 180.720Q246.122 181.286 244.836 183.087L244.836 183.087Q244.579 183.447 244.167 183.473Q243.756 183.498 243.498 183.138L243.498 183.138Q243.241 182.881 243.035 182.624L243.035 182.624Q242.572 182.058 243.035 181.492L243.035 181.492Q243.447 181.080 243.781 180.695Q244.116 180.309 244.322 180L244.322 180L242.624 180Q242.264 180 242.006 179.743Q241.749 179.486 241.749 179.125L241.749 179.125L241.749 174.907Q241.749 174.547 242.006 174.289Q242.264 174.032 242.624 174.032L242.624 174.032ZM255.280 174.032Q255.640 174.032 255.871 174.289Q256.103 174.547 256.103 174.907L256.103 174.907Q256.103 176.707 256.051 178.045L256.051 178.045Q256.051 179.537 255.177 180.720L255.177 180.720Q253.942 182.521 253.531 183.087L253.531 183.087Q253.273 183.447 252.862 183.473Q252.450 183.498 252.141 183.138L252.141 183.138Q251.936 182.881 251.730 182.624L251.730 182.624Q251.215 182.058 251.730 181.492L251.730 181.492Q252.656 180.514 252.965 180L252.965 180L251.267 180Q250.907 180 250.675 179.743Q250.444 179.486 250.444 179.125L250.444 179.125L250.444 174.907Q250.444 174.547 250.675 174.289Q250.907 174.032 251.267 174.032L251.267 174.032L255.280 174.032Z"/></svg>