<svg width="480px" height="360px" xmlns="http://www.w3.org/2000/svg"><rect x="216" y="124" width="80.5" height="80.5" fill-opacity="0"/><path fill="#F00" d="M264.643 161.685L264.643 161.685Q266.907 164.720 266.907 169.453L266.907 169.453Q266.907 173.518 263.614 177.016Q260.322 180.514 255.846 180.514L255.846 180.514Q253.531 180.514 251.318 179.846Q249.106 179.177 247.511 178.122Q245.916 177.068 244.939 176.219Q243.961 175.370 243.190 174.495L243.190 174.495Q242.932 174.238 242.984 173.852Q243.035 173.466 243.344 173.260L243.344 173.260Q244.630 172.334 246.585 170.945L246.585 170.945Q247.203 170.482 247.717 171.048L247.717 171.048Q251.164 174.804 255.846 174.804L255.846 174.804Q258.006 174.804 259.627 173.106Q261.248 171.408 261.248 169.453L261.248 169.453Q261.248 166.624 260.064 165.080L260.064 165.080Q258.727 163.280 255.434 162.868Q252.141 162.457 248.489 163.331L248.489 163.331Q248.232 163.383 248.026 163.331L248.026 163.331Q247.871 163.331 247.511 163.228Q247.151 163.125 246.791 163.023Q246.431 162.920 245.994 162.817Q245.556 162.714 245.248 162.611L245.248 162.611Q244.939 162.508 244.759 162.225Q244.579 161.942 244.630 161.633L244.630 161.633Q244.733 161.119 245.814 155.614Q246.894 150.109 247.151 148.669L247.151 148.669Q247.305 148 247.974 148L247.974 148L265.518 148Q265.878 148 266.135 148.232Q266.392 148.463 266.392 148.823L266.392 148.823L266.392 152.836Q266.392 153.196 266.135 153.428Q265.878 153.659 265.518 153.659L265.518 153.659L251.987 153.659L251.318 157.158Q253.942 156.900 256.154 157.209L256.154 157.209Q261.814 157.929 264.643 161.685Z"/></svg>