<svg width="480px" height="360px" xmlns="http://www.w3.org/2000/svg"><rect x="216" y="124" width="80.5" height="80.5" fill-opacity="0"/><path fill="#F00" d="M251.156 175.645L251.156 175.645L252.722 175.645Q253.113 175.645 253.382 175.939Q253.651 176.232 253.651 176.575L253.651 176.575L253.651 179.070Q253.651 179.462 253.382 179.731Q253.113 180 252.722 180L252.722 180L251.156 180Q250.765 180 250.495 179.731Q250.226 179.462 250.226 179.070L250.226 179.070L250.226 176.575Q250.226 176.232 250.495 175.939Q250.765 175.645 251.156 175.645ZM252.722 172.318L252.722 172.318Q252.477 172.318 251.939 172.318Q251.401 172.318 251.156 172.318L251.156 172.318Q250.765 172.318 250.495 172.049Q250.226 171.780 250.226 171.388L250.226 171.388L250.226 170.459Q250.226 167.376 251.572 164.563Q252.917 161.749 255.364 159.743L255.364 159.743Q257.125 158.324 257.125 156.563L257.125 156.563Q257.125 155.095 256.440 153.823Q255.755 152.550 254.557 151.817Q253.358 151.083 251.939 151.083L251.939 151.083Q250.422 151.083 249.272 151.596Q248.122 152.110 247.511 152.917Q246.899 153.725 246.581 154.410Q246.263 155.095 246.116 155.829L246.116 155.829Q245.969 156.612 245.187 156.563L245.187 156.563Q244.306 156.563 243.621 156.514L243.621 156.514Q243.180 156.465 242.936 156.147Q242.691 155.829 242.740 155.437L242.740 155.437Q242.887 154.557 243.180 153.725Q243.474 152.893 244.159 151.743Q244.844 150.593 245.774 149.737Q246.703 148.881 248.318 148.294Q249.933 147.706 251.939 147.706L251.939 147.706Q255.511 147.706 258.031 150.300Q260.550 152.893 260.550 156.563L260.550 156.563Q260.550 159.988 257.468 162.434L257.468 162.434Q255.657 163.902 254.654 166.006Q253.651 168.110 253.651 170.459L253.651 170.459L253.651 171.388Q253.651 171.780 253.382 172.049Q253.113 172.318 252.722 172.318Z"/></svg>