<svg width="480px" height="360px" xmlns="http://www.w3.org/2000/svg"><rect x="216" y="124" width="80.5" height="80.5" fill-opacity="0"/><path fill="#F00" d="M261.692 157.380L261.692 157.380Q262.082 157.771 261.350 158.260L261.350 158.260Q255.340 170.278 250.406 179.560L250.406 179.560Q250.162 180.098 249.527 180.098L249.527 180.098L247.328 180.098Q246.595 180.098 246.595 179.560L246.595 179.560Q246.351 177.313 245.154 169.594Q243.957 161.875 243.322 158.260L243.322 158.260Q243.322 157.722 243.713 157.380L243.713 157.380Q244.446 156.989 244.592 156.989L244.592 156.989L246.253 156.989Q246.986 156.989 246.986 157.576L246.986 157.576L249.673 174.626Q256.806 160.653 258.418 157.576L258.418 157.576Q258.711 156.989 259.347 156.989L259.347 156.989L260.959 156.989Q261.350 156.989 261.692 157.380Z"/></svg>