<svg width="480px" height="360px" xmlns="http://www.w3.org/2000/svg"><rect x="216" y="124" width="80.5" height="80.5" fill-opacity="0"/><path fill="#F00" d="M259.963 157.835L259.963 159.939Q259.963 160.281 259.768 160.575L259.768 160.575L246.165 176.575L259.034 176.575Q259.425 176.575 259.694 176.869Q259.963 177.162 259.963 177.505L259.963 177.505L259.963 179.070Q259.963 179.462 259.694 179.731Q259.425 180 259.034 180L259.034 180L242.985 180Q242.593 180 242.324 179.731Q242.055 179.462 242.055 179.070L242.055 179.070L242.055 176.917Q242.055 176.575 242.300 176.330L242.300 176.330L255.804 160.281L242.985 160.281Q242.593 160.281 242.324 160.012Q242.055 159.743 242.055 159.352L242.055 159.352L242.055 157.835Q242.055 157.443 242.324 157.174Q242.593 156.905 242.985 156.905L242.985 156.905L259.034 156.905Q259.425 156.905 259.694 157.174Q259.963 157.443 259.963 157.835L259.963 157.835Z"/></svg>