<svg width="480px" height="360px" xmlns="http://www.w3.org/2000/svg"><rect x="216" y="124" width="80.5" height="80.5" fill-opacity="0"/><path fill="#F00" d="M244.592 148.049L265.649 148.049Q266.284 148.049 266.577 148.928L266.577 148.928Q266.577 149.221 266.479 149.759Q266.382 150.296 266.382 150.589L266.382 150.589Q266.382 150.931 266.040 151.322L266.040 151.322Q265.942 151.322 265.673 151.395Q265.405 151.469 265.307 151.469L265.307 151.469L256.415 151.469L251.481 179.121Q251.481 179.511 251.163 179.780Q250.846 180.049 250.406 180.049L250.406 180.049L248.745 180.049Q248.012 180.049 248.012 179.121L248.012 179.121L252.947 151.469L244.055 151.469Q243.664 151.469 243.493 151.298Q243.322 151.127 243.322 150.589L243.322 150.589Q243.322 150.296 243.395 149.759Q243.469 149.221 243.469 148.928L243.469 148.928Q243.469 148.537 243.811 148.293Q244.153 148.049 244.592 148.049L244.592 148.049Z"/></svg>