<svg width="480px" height="360px" xmlns="http://www.w3.org/2000/svg"><rect x="216" y="124" width="80.5" height="80.5" fill-opacity="0"/><path fill="#F00" d="M254.852 159.530L254.852 159.530Q256.708 159.481 258.394 159.921Q260.079 160.360 261.521 161.386Q262.962 162.412 263.573 164.366Q264.183 166.321 263.744 169.008L263.744 169.008Q263.548 169.203 263.548 169.545L263.548 169.545L263.548 170.082Q262.718 174.968 260.079 177.557L260.079 177.557Q256.708 180.635 251.188 180.635L251.188 180.635Q245.374 180.391 243.371 177.557L243.371 177.557Q241.905 175.310 242.492 171.011L242.492 171.011Q243.860 157.478 250.308 151.371L250.308 151.371Q252.263 149.612 254.656 148.660Q257.050 147.707 258.565 147.560Q260.079 147.414 261.398 147.560L261.398 147.560Q261.545 147.560 261.936 147.902L261.936 147.902Q261.936 147.951 261.960 148.073Q261.985 148.195 262.009 148.293Q262.034 148.391 262.009 148.489Q261.985 148.586 261.936 148.635L261.936 148.635Q261.740 149.026 261.398 150.101L261.398 150.101Q261.008 150.834 260.275 150.834L260.275 150.834Q255.780 150.834 252.458 153.716L252.458 153.716Q250.992 154.889 249.405 157.380Q247.817 159.872 247.182 162.803L247.182 162.803Q249.673 159.921 254.852 159.530ZM260.275 169.545L260.275 169.008Q260.959 165.344 259.933 163.927L259.933 163.927Q258.418 162.070 254.461 162.070L254.461 162.070Q250.113 162.070 248.305 163.927L248.305 163.927Q246.742 165.246 246.107 169.008L246.107 169.008L246.107 169.740L246.107 170.278Q245.423 173.942 246.449 175.359L246.449 175.359Q247.963 177.166 251.921 177.166L251.921 177.166Q256.269 177.166 258.125 175.359L258.125 175.359Q259.640 174.040 260.275 170.278L260.275 170.278L260.275 169.545Z"/></svg>