<svg width="480px" height="360px" xmlns="http://www.w3.org/2000/svg"><rect x="216" y="124" width="80.5" height="80.5" fill-opacity="0"/><path fill="#F00" d="M252.086 150.398L252.086 150.398L247.339 150.398L247.339 185.089L252.086 185.089Q252.477 185.089 252.746 185.358Q253.015 185.627 253.015 186.018L253.015 186.018L253.015 187.584Q253.015 187.927 252.746 188.220Q252.477 188.514 252.086 188.514L252.086 188.514L244.844 188.514Q244.453 188.514 244.183 188.220Q243.914 187.927 243.914 187.584L243.914 187.584L243.914 147.902Q243.914 147.511 244.183 147.242Q244.453 146.972 244.844 146.972L244.844 146.972L252.086 146.972Q252.477 146.972 252.746 147.242Q253.015 147.511 253.015 147.902L253.015 147.902L253.015 149.468Q253.015 149.810 252.746 150.104Q252.477 150.398 252.086 150.398Z"/></svg>