<svg width="480px" height="360px" xmlns="http://www.w3.org/2000/svg"><rect x="216" y="124" width="80.5" height="80.5" fill-opacity="0"/><path fill="#F00" d="M261.480 178.581L261.480 178.581Q261.774 179.021 261.505 179.511Q261.235 180 260.697 180L260.697 180L258.838 180Q258.349 180 258.055 179.560L258.055 179.560L249.835 166.985L246.899 169.872L246.899 179.070Q246.899 179.462 246.606 179.731Q246.312 180 245.969 180L245.969 180L244.404 180Q244.012 180 243.743 179.731Q243.474 179.462 243.474 179.070L243.474 179.070L243.474 148.098Q243.474 147.706 243.743 147.437Q244.012 147.168 244.404 147.168L244.404 147.168L245.969 147.168Q246.361 147.168 246.630 147.437Q246.899 147.706 246.899 148.098L246.899 148.098L246.899 165.125Q253.554 158.569 255.021 157.150L255.021 157.150Q255.266 156.905 255.657 156.905L255.657 156.905L257.859 156.905Q258.495 156.905 258.740 157.492Q258.985 158.080 258.544 158.520L258.544 158.520L252.281 164.587Q258.985 174.716 261.480 178.581Z"/></svg>