<svg width="480px" height="360px" xmlns="http://www.w3.org/2000/svg"><rect x="216" y="124" width="80.5" height="80.5" fill-opacity="0"/><path fill="#F00" d="M269.456 163.119L269.456 163.119Q269.456 163.511 269.456 164L269.456 164Q269.456 164.391 269.456 164.832L269.456 164.832Q269.456 173.835 265.443 177.505L265.443 177.505Q262.214 180.391 256.245 180.538L256.245 180.538L256.147 180.538Q250.177 180.391 246.948 177.505L246.948 177.505Q242.936 173.835 242.936 164.832L242.936 164.832Q242.936 164.391 242.936 164L242.936 164Q242.936 163.609 242.936 163.119L242.936 163.119Q242.936 154.165 246.948 150.495L246.948 150.495Q250.177 147.560 256.147 147.462L256.147 147.462L256.245 147.462Q262.214 147.560 265.443 150.495L265.443 150.495Q269.456 154.165 269.456 163.119ZM266.031 164.832L266.031 164.832Q266.031 164.391 266.031 164.049L266.031 164.049L266.031 163.951Q266.031 163.560 266.031 163.119L266.031 163.119Q266.031 159.498 265.419 157.003Q264.807 154.508 263.144 153.040L263.144 153.040Q260.893 150.936 256.196 150.838L256.196 150.838Q251.498 150.936 249.248 153.040L249.248 153.040Q247.584 154.508 246.972 157.003Q246.361 159.498 246.361 163.119L246.361 163.119Q246.361 163.560 246.361 163.951L246.361 163.951L246.361 164.049Q246.361 164.391 246.361 164.832L246.361 164.832Q246.361 167.229 246.581 168.991Q246.801 170.752 247.462 172.343Q248.122 173.933 249.248 174.960L249.248 174.960Q251.498 177.015 256.196 177.113L256.196 177.113Q260.893 177.015 263.144 174.960L263.144 174.960Q264.807 173.443 265.419 170.972Q266.031 168.502 266.031 164.832Z"/></svg>