<svg width="480px" height="360px" xmlns="http://www.w3.org/2000/svg"><rect x="216" y="124" width="80.5" height="80.5" fill-opacity="0"/><path fill="#F00" d="M262.018 147.168Q262.410 147.168 262.679 147.437Q262.948 147.706 262.948 148.098L262.948 148.098L262.948 179.070Q262.948 179.462 262.679 179.731Q262.410 180 262.018 180L262.018 180L260.453 180Q260.061 180 259.792 179.731Q259.523 179.462 259.523 179.070L259.523 179.070L259.523 176.379Q256 180.538 250.373 180.538L250.373 180.538Q246.850 180.538 244.795 177.235Q242.740 173.933 242.740 167.865L242.740 167.865Q242.740 162.532 244.673 159.498Q246.606 156.465 250.373 156.367L250.373 156.367Q256 156.220 259.523 161.064L259.523 161.064L259.523 148.098Q259.523 147.706 259.792 147.437Q260.061 147.168 260.453 147.168L260.453 147.168L262.018 147.168ZM259.523 172.661L259.523 172.661L259.523 165.174Q259.327 164.587 258.765 163.804Q258.202 163.021 257.199 162.043Q256.196 161.064 254.654 160.404Q253.113 159.743 251.352 159.792L251.352 159.792Q248.807 159.841 247.486 162.018Q246.165 164.196 246.165 167.865L246.165 167.865Q246.165 170.703 246.777 172.807Q247.388 174.911 248.563 176.012Q249.737 177.113 251.303 177.113L251.303 177.113Q253.015 177.113 254.557 176.575Q256.098 176.037 257.101 175.254Q258.104 174.471 258.691 173.810Q259.278 173.150 259.523 172.661Z"/></svg>