<svg width="480px" height="360px" xmlns="http://www.w3.org/2000/svg"><rect x="216" y="124" width="80.5" height="80.5" fill-opacity="0"/><path fill="#F00" d="M250.406 147.560L250.406 147.560Q250.553 147.902 250.553 148.293L250.553 148.293L245.130 179.169Q245.130 179.560 244.739 179.902L244.739 179.902Q244.641 179.902 244.373 180Q244.104 180.098 244.006 180.098L244.006 180.098L242.394 180.098Q242.003 180.098 241.832 179.927Q241.661 179.756 241.661 179.169L241.661 179.169Q242.101 176.824 244.373 163.731Q246.644 150.638 247.133 148.293L247.133 148.293Q247.133 147.902 247.475 147.560L247.475 147.560Q247.573 147.560 247.841 147.463Q248.110 147.365 248.208 147.365L248.208 147.365L249.820 147.365Q250.211 147.365 250.406 147.560Z"/></svg>