<svg width="480px" height="360px" xmlns="http://www.w3.org/2000/svg"><rect x="216" y="124" width="80.5" height="80.5" fill-opacity="0"/><path fill="#F00" d="M277.863 148.049Q278.205 148.049 278.571 148.415Q278.937 148.782 278.595 149.124L278.595 149.124Q270.779 167.982 265.844 179.316L265.844 179.316Q265.698 179.560 265.356 179.805Q265.014 180.049 264.769 180.049L264.769 180.049L262.766 180.049Q262.473 180.049 262.253 179.805Q262.034 179.560 262.034 179.316L262.034 179.316L260.421 155.133Q259.444 157.380 257.979 160.849Q256.513 164.318 253.728 170.913Q250.944 177.508 250.211 179.316L250.211 179.316Q250.064 179.560 249.722 179.805Q249.380 180.049 249.136 180.049L249.136 180.049L247.133 180.049Q246.840 180.049 246.620 179.805Q246.400 179.560 246.400 179.316L246.400 179.316Q246.253 177.655 244.202 149.124L244.202 149.124Q244.202 148.782 244.568 148.415Q244.934 148.049 245.325 148.049L245.325 148.049L246.937 148.049Q247.231 148.049 247.450 148.269Q247.670 148.489 247.670 148.782L247.670 148.782L249.331 172.965Q257.832 152.739 259.689 148.782L259.689 148.782Q259.786 148.489 260.128 148.269Q260.470 148.049 260.763 148.049L260.763 148.049L262.766 148.049Q263.011 148.049 263.255 148.269Q263.499 148.489 263.499 148.782L263.499 148.782L265.111 172.965Q273.661 152.739 275.127 148.782L275.127 148.782Q275.273 148.489 275.615 148.269Q275.957 148.049 276.202 148.049L276.202 148.049L277.863 148.049Z"/></svg>