<svg width="480px" height="360px" xmlns="http://www.w3.org/2000/svg"><rect x="216" y="124" width="80.5" height="80.5" fill-opacity="0"/><path fill="#F00" d="M247.719 148.049L258.663 148.049Q262.034 148.049 263.988 150.394Q265.942 152.739 265.356 156.012L265.356 156.012Q265.209 156.892 264.867 157.673Q264.525 158.455 264.085 159.041Q263.646 159.627 263.133 160.140Q262.620 160.653 262.156 160.995Q261.692 161.337 261.325 161.582Q260.959 161.826 260.715 161.924L260.715 161.924L260.470 162.021Q260.715 162.119 261.081 162.315Q261.447 162.510 262.351 163.218Q263.255 163.927 263.915 164.782Q264.574 165.637 264.940 167.151Q265.307 168.666 265.014 170.376L265.014 170.376Q264.330 174.333 261.008 177.191Q257.685 180.049 253.728 180.049L253.728 180.049L242.101 180.049Q241.759 180.049 241.563 179.853Q241.368 179.658 241.368 179.121L241.368 179.121Q241.905 175.701 243.933 164.171Q245.960 152.641 246.644 148.928L246.644 148.928Q246.644 148.586 247.035 148.195L247.035 148.195Q247.084 148.195 247.377 148.122Q247.670 148.049 247.719 148.049L247.719 148.049ZM261.545 170.376L261.545 170.376Q261.985 167.786 260.519 166.003Q259.053 164.220 256.464 164.220L256.464 164.220L247.573 164.220L245.374 176.580L254.266 176.580Q255.292 176.580 256.318 176.263Q257.344 175.945 258.198 175.383Q259.053 174.821 259.762 174.064Q260.470 173.307 260.934 172.354Q261.398 171.402 261.545 170.376ZM261.936 156.012L261.936 156.012Q262.327 154.156 261.179 152.812Q260.031 151.469 258.125 151.469L258.125 151.469L249.722 151.469L248.110 160.751L256.464 160.751Q258.369 160.751 259.933 159.359Q261.496 157.966 261.936 156.012Z"/></svg>