<svg width="480px" height="360px" xmlns="http://www.w3.org/2000/svg"><rect x="216" y="124" width="80.5" height="80.5" fill-opacity="0"/><path fill="#F00" d="M261.505 176.965L261.505 176.965Q261.762 177.222 261.711 177.582Q261.659 177.942 261.402 178.199L261.402 178.199Q258.315 180.514 254.559 180.514L254.559 180.514Q249.260 180.514 246.328 177.942L246.328 177.942Q242.778 174.907 242.778 168.064L242.778 168.064L242.778 168.013Q242.778 161.222 246.328 158.238L246.328 158.238Q249.260 155.666 254.559 155.666L254.559 155.666Q258.315 155.666 261.402 157.981L261.402 157.981Q261.659 158.238 261.711 158.598Q261.762 158.958 261.505 159.215L261.505 159.215Q260.579 160.296 258.830 162.251L258.830 162.251Q258.367 162.817 257.698 162.405L257.698 162.405Q256.257 161.376 254.559 161.376L254.559 161.376Q251.370 161.376 250.032 162.559L250.032 162.559Q249.363 163.125 249.003 164.077Q248.643 165.029 248.566 165.878Q248.489 166.727 248.489 168.116L248.489 168.116L248.489 168.219Q248.489 169.505 248.566 170.354Q248.643 171.203 249.003 172.129Q249.363 173.055 250.032 173.621L250.032 173.621Q251.370 174.804 254.559 174.804L254.559 174.804Q256.257 174.804 257.698 173.826L257.698 173.826Q258.315 173.363 258.830 173.929L258.830 173.929Q259.653 174.855 261.505 176.965Z"/></svg>