<svg width="480px" height="360px" xmlns="http://www.w3.org/2000/svg"><rect x="216" y="124" width="80.5" height="80.5" fill-opacity="0"/><path fill="#F00" d="M254.199 152.785L254.199 152.785Q252.759 152.785 249.826 152.785L249.826 152.785L249.826 182.109L254.199 182.109Q254.559 182.109 254.817 182.367Q255.074 182.624 255.074 182.984L255.074 182.984L255.074 186.997Q255.074 187.305 254.817 187.563Q254.559 187.820 254.199 187.820L254.199 187.820L244.990 187.820Q244.630 187.820 244.373 187.588Q244.116 187.357 244.116 186.997L244.116 186.997L244.116 147.949Q244.116 147.588 244.373 147.331Q244.630 147.074 244.990 147.074L244.990 147.074L254.199 147.074Q254.559 147.074 254.817 147.331Q255.074 147.588 255.074 147.949L255.074 147.949L255.074 151.910Q255.074 152.270 254.817 152.527Q254.559 152.785 254.199 152.785Z"/></svg>