<svg width="480px" height="360px" xmlns="http://www.w3.org/2000/svg"><rect x="216" y="124" width="80.5" height="80.5" fill-opacity="0"/><path fill="#F00" d="M245.920 152.550L244.404 152.550Q244.012 152.550 243.743 152.257Q243.474 151.963 243.474 151.621L243.474 151.621L243.474 149.125Q243.474 148.734 243.743 148.465Q244.012 148.196 244.404 148.196L244.404 148.196L245.920 148.196Q246.312 148.196 246.581 148.465Q246.850 148.734 246.850 149.125L246.850 149.125L246.850 151.621Q246.850 151.963 246.581 152.257Q246.312 152.550 245.920 152.550L245.920 152.550ZM244.453 156.905L246.018 156.905Q246.410 156.905 246.679 157.174Q246.948 157.443 246.948 157.835L246.948 157.835L246.948 182.887Q246.948 185.578 245.382 187.095L245.382 187.095Q244.257 188.220 242.495 188.416L242.495 188.416Q241.028 188.612 239.266 188.122L239.266 188.122Q238.875 188.024 238.679 187.682Q238.483 187.339 238.630 186.948L238.630 186.948Q238.826 186.410 239.119 185.480L239.119 185.480Q239.217 185.138 239.535 184.966Q239.853 184.795 240.196 184.844L240.196 184.844Q241.272 185.138 242.104 185.040L242.104 185.040Q243.523 184.893 243.523 182.887L243.523 182.887L243.523 157.835Q243.523 157.443 243.792 157.174Q244.061 156.905 244.453 156.905L244.453 156.905Z"/></svg>