<svg width="480px" height="360px" xmlns="http://www.w3.org/2000/svg"><rect x="216" y="124" width="80.5" height="80.5" fill-opacity="0"/><path fill="#F00" d="M243.344 174.032L247.305 174.032Q247.666 174.032 247.923 174.289Q248.180 174.547 248.180 174.907L248.180 174.907Q248.129 176.656 248.129 177.994L248.129 177.994Q248.077 179.486 247.254 180.720L247.254 180.720Q245.968 182.521 245.556 183.087L245.556 183.087Q245.299 183.447 244.887 183.447Q244.476 183.447 244.219 183.138L244.219 183.138Q244.116 183.035 243.961 182.855Q243.807 182.675 243.756 182.624L243.756 182.624Q243.293 182.058 243.756 181.492L243.756 181.492Q244.167 181.080 244.502 180.669Q244.836 180.257 245.042 180L245.042 180L243.344 180Q242.984 180 242.727 179.743Q242.469 179.486 242.469 179.125L242.469 179.125L242.469 174.907Q242.469 174.547 242.727 174.289Q242.984 174.032 243.344 174.032L243.344 174.032ZM247.305 153.762Q247.666 153.762 247.923 153.994Q248.180 154.225 248.180 154.585L248.180 154.585L248.180 158.804Q248.180 159.164 247.923 159.421Q247.666 159.678 247.305 159.678L247.305 159.678L243.344 159.678Q242.984 159.678 242.727 159.421Q242.469 159.164 242.469 158.804L242.469 158.804L242.469 154.585Q242.469 154.225 242.727 153.994Q242.984 153.762 243.344 153.762L243.344 153.762L247.305 153.762Z"/></svg>