<svg version="1.1" xmlns="http://www.w3.org/2000/svg" xmlns:xlink="http://www.w3.org/1999/xlink" width="33.01886" height="33.01886" viewBox="0,0,33.01886,33.01886"><g transform="translate(-303.49057,-163.49057)"><g data-paper-data="{&quot;isPaintingLayer&quot;:true}" fill-rule="nonzero" stroke-miterlimit="10" stroke-dasharray="" stroke-dashoffset="0" style="mix-blend-mode: normal"><path d="M320,196.50943c-9.1179,0 -16.50943,-7.39153 -16.50943,-16.50943c0,-9.1179 7.39153,-16.50943 16.50943,-16.50943c9.1179,0 16.50943,7.39153 16.50943,16.50943c0,9.1179 -7.39153,16.50943 -16.50943,16.50943z" data-paper-data="{&quot;index&quot;:null}" fill="#4d96ff" stroke="none" stroke-width="0" stroke-linecap="butt" stroke-linejoin="miter"/><g fill="none" stroke="#ffffff" stroke-width="2.5" stroke-linecap="round" stroke-linejoin="round"><path d="M315.43025,178.1721h-5.4837v-5.4837"/><path d="M324.56975,181.8279h5.4837v5.4837"/><path d="M327.75943,177.25815c-0.94218,-2.66251 -3.18444,-4.65546 -5.9391,-5.27873c-2.75466,-0.62328 -5.63647,0.21028 -7.63305,2.20786l-4.24072,3.98482M330.05345,181.8279l-4.24073,3.98482c-1.99658,1.99758 -4.87838,2.83114 -7.63305,2.20786c-2.75466,-0.62328 -4.99693,-2.61623 -5.9391,-5.27874"/></g></g></g></svg>