<svg width="480px" height="360px" xmlns="http://www.w3.org/2000/svg"><rect x="216" y="124" width="80.5" height="80.5" fill-opacity="0"/><path fill="#F00" d="M265.698 161.533L265.698 161.533Q265.795 161.631 265.844 161.704Q265.893 161.777 265.918 161.850Q265.942 161.924 265.991 162.046Q266.040 162.168 266.089 162.266L266.089 162.266Q263.597 169.740 258.076 169.740L258.076 169.740Q256.806 169.740 255.902 169.179Q254.998 168.617 254.070 167.542L254.070 167.542Q253.973 167.395 253.753 167.127Q253.533 166.858 253.386 166.663Q253.240 166.467 252.971 166.198Q252.702 165.930 252.507 165.759Q252.311 165.588 251.994 165.392Q251.676 165.197 251.359 165.075Q251.041 164.953 250.602 164.879Q250.162 164.806 249.722 164.806L249.722 164.806Q248.110 164.806 246.742 165.979Q245.374 167.151 244.788 168.812L244.788 168.812Q244.446 169.545 243.713 169.545L243.713 169.545L242.101 169.545Q241.905 169.545 241.515 169.203L241.515 169.203Q241.368 169.008 241.368 168.470L241.368 168.470Q242.296 165.344 244.837 163.267Q247.377 161.191 250.260 161.191L250.260 161.191Q251.725 161.191 252.947 161.704Q254.168 162.217 254.803 162.779Q255.438 163.340 256.269 164.269L256.269 164.269Q256.415 164.415 256.611 164.660Q256.806 164.904 257.002 165.148Q257.197 165.392 257.344 165.539L257.344 165.539Q258.076 166.272 258.614 166.272L258.614 166.272Q260.177 166.272 261.179 165.124Q262.180 163.976 262.620 162.070L262.620 162.070Q262.913 161.191 263.695 161.191L263.695 161.191L265.160 161.191Q265.356 161.191 265.698 161.533Z"/></svg>