<svg width="480px" height="360px" xmlns="http://www.w3.org/2000/svg"><rect x="216" y="124" width="80.5" height="80.5" fill-opacity="0"/><path fill="#F00" d="M257.832 181.368L257.832 181.368Q258.076 181.856 257.637 182.296L257.637 182.296Q257.295 182.638 256.708 182.638L256.708 182.638L255.096 182.638Q254.656 182.638 254.363 182.101L254.363 182.101Q254.021 180.782 249.844 166.638Q245.667 152.495 244.739 149.173L244.739 149.173Q244.495 148.684 244.934 148.293L244.934 148.293Q245.276 147.902 245.814 147.902L245.814 147.902L247.475 147.902Q247.915 147.902 248.208 148.440L248.208 148.440Q248.550 149.759 252.727 163.902Q256.904 178.046 257.832 181.368Z"/></svg>