<svg width="480px" height="360px" xmlns="http://www.w3.org/2000/svg"><rect x="216" y="124" width="80.5" height="80.5" fill-opacity="0"/><path fill="#F00" d="M261.105 152.446L261.105 152.446Q261.496 153.179 260.373 153.716L260.373 153.716L259.102 154.449L255.096 156.256L258.369 158.113L259.493 158.797Q259.884 158.944 259.908 159.383Q259.933 159.823 259.640 160.116L259.640 160.116Q259.298 160.800 258.760 161.386L258.760 161.386Q258.272 162.119 257.490 161.728L257.490 161.728L256.366 160.995L253.289 158.797L252.751 162.998Q252.751 163.731 252.556 164.464L252.556 164.464Q252.556 164.855 252.238 165.099Q251.921 165.344 251.481 165.344L251.481 165.344L250.015 165.344Q249.282 165.344 249.282 164.464L249.282 164.464L249.478 162.998L250.406 158.797L246.595 160.995Q245.863 161.386 245.276 161.728L245.276 161.728Q244.348 162.021 244.006 161.386L244.006 161.386Q243.957 161.191 243.860 160.971Q243.762 160.751 243.664 160.507Q243.566 160.263 243.469 160.116L243.469 160.116Q243.322 159.823 243.493 159.383Q243.664 158.944 244.006 158.797L244.006 158.797L245.276 158.113L249.282 156.256L246.009 154.449L244.934 153.716Q244.544 153.472 244.544 153.105Q244.544 152.739 244.934 152.446L244.934 152.446Q245.276 151.713 245.863 151.176L245.863 151.176Q246.351 150.443 247.133 150.834L247.133 150.834L248.208 151.566L251.285 153.716L251.823 149.563L252.018 148.098Q252.018 147.707 252.360 147.438Q252.702 147.169 253.093 147.169L253.093 147.169L254.559 147.169Q255.292 147.169 255.292 148.098L255.292 148.098L255.096 149.563L254.217 153.716L258.027 151.566Q258.760 151.176 259.298 150.834L259.298 150.834Q260.226 150.492 260.568 151.176L260.568 151.176Q260.666 151.371 260.837 151.835Q261.008 152.299 261.105 152.446Z"/></svg>