<svg width="480px" height="360px" xmlns="http://www.w3.org/2000/svg"><rect x="216" y="124" width="80.5" height="80.5" fill-opacity="0"/><path fill="#F00" d="M270.583 162.852L270.583 162.852Q270.827 163.096 270.583 163.585L270.583 163.585L270.388 165.197Q270.388 165.539 270.046 165.930L270.046 165.930Q269.948 165.930 269.679 166.027Q269.411 166.125 269.313 166.125L269.313 166.125L242.394 166.125Q242.052 166.125 241.856 165.930Q241.661 165.734 241.661 165.197L241.661 165.197L241.856 163.585Q241.856 163.194 242.198 162.852L242.198 162.852Q242.296 162.852 242.565 162.754Q242.834 162.656 242.931 162.656L242.931 162.656L270.046 162.656Q270.388 162.656 270.583 162.852Z"/></svg>