<svg width="480px" height="360px" xmlns="http://www.w3.org/2000/svg"><rect x="216" y="124" width="80.5" height="80.5" fill-opacity="0"/><path fill="#F00" d="M275.180 148Q275.621 148 275.914 148.343Q276.208 148.685 276.061 149.125L276.061 149.125Q270.434 171.976 268.673 179.315L268.673 179.315Q268.477 180 267.743 180L267.743 180L265.688 180Q264.954 180 264.807 179.315L264.807 179.315L258.838 155.095Q253.896 175.254 252.869 179.315L252.869 179.315Q252.722 180 251.988 180L251.988 180L249.933 180Q249.199 180 249.003 179.315L249.003 179.315Q247.535 173.346 241.615 149.125L241.615 149.125Q241.468 148.685 241.761 148.343Q242.055 148 242.495 148L242.495 148L244.110 148Q244.844 148 244.991 148.685L244.991 148.685L250.960 172.856Q255.902 152.746 256.930 148.685L256.930 148.685Q257.076 148 257.810 148L257.810 148L259.865 148Q260.599 148 260.746 148.685L260.746 148.685L266.716 172.856Q271.706 152.746 272.685 148.685L272.685 148.685Q272.881 148 273.566 148L273.566 148L275.180 148Z"/></svg>