<svg width="480px" height="360px" xmlns="http://www.w3.org/2000/svg"><rect x="216" y="124" width="80.5" height="80.5" fill-opacity="0"/><path fill="#F00" d="M253.211 176.575L259.474 176.575Q259.865 176.575 260.135 176.869Q260.404 177.162 260.404 177.505L260.404 177.505L260.404 179.070Q260.404 179.462 260.135 179.731Q259.865 180 259.474 180L259.474 180L243.474 180Q243.083 180 242.813 179.731Q242.544 179.462 242.544 179.070L242.544 179.070L242.544 177.505Q242.544 177.162 242.813 176.869Q243.083 176.575 243.474 176.575L243.474 176.575L249.786 176.575L249.786 152.208Q246.606 154.214 245.040 155.193L245.040 155.193Q244.697 155.388 244.330 155.291Q243.963 155.193 243.768 154.850L243.768 154.850Q243.621 154.654 243.352 154.190Q243.083 153.725 242.985 153.529L242.985 153.529Q242.544 152.746 243.278 152.257L243.278 152.257Q247.095 149.761 249.248 148.343L249.248 148.343Q249.786 148 250.422 148L250.422 148Q250.716 148 251.376 148Q252.037 148 252.232 148L252.232 148Q252.624 148 252.917 148.269Q253.211 148.538 253.211 148.930L253.211 148.930L253.211 176.575Z"/></svg>