<svg width="480px" height="360px" xmlns="http://www.w3.org/2000/svg"><rect x="216" y="124" width="80.5" height="80.5" fill-opacity="0"/><path fill="#F00" d="M261.333 166.495L261.333 166.495Q263.829 168.502 263.829 171.437L263.829 171.437Q263.829 175.156 260.722 177.847Q257.615 180.538 253.162 180.538L253.162 180.538Q250.813 180.538 247.927 179.609Q245.040 178.679 242.789 176.917L242.789 176.917Q242.495 176.624 242.471 176.232Q242.446 175.841 242.691 175.547L242.691 175.547Q243.425 174.813 243.768 174.422L243.768 174.422Q244.355 173.786 245.040 174.324L245.040 174.324Q246.801 175.694 249.076 176.404Q251.352 177.113 253.162 177.113L253.162 177.113Q256.147 177.113 258.300 175.474Q260.453 173.835 260.453 171.437L260.453 171.437Q260.453 169.823 258.446 168.648L258.446 168.648Q257.125 167.817 252.624 166.251L252.624 166.251Q248.024 164.636 245.969 163.168L245.969 163.168Q242.495 160.575 242.495 156.563L242.495 156.563Q242.495 152.844 245.602 150.153Q248.709 147.462 253.162 147.462L253.162 147.462Q255.511 147.462 258.422 148.391Q261.333 149.321 263.535 151.083L263.535 151.083Q263.878 151.376 263.902 151.768Q263.927 152.159 263.633 152.453L263.633 152.453Q262.899 153.235 262.508 153.627L262.508 153.627Q261.969 154.214 261.333 153.774L261.333 153.774Q256.930 150.838 253.162 150.838L253.162 150.838Q250.177 150.838 248.024 152.502Q245.872 154.165 245.872 156.563L245.872 156.563Q245.872 159.254 248.905 161.015L248.905 161.015Q249.884 161.554 251.058 162.043Q252.232 162.532 254.067 163.168Q255.902 163.804 256.440 164L256.440 164Q259.719 165.223 261.333 166.495Z"/></svg>