<svg width="480px" height="360px" xmlns="http://www.w3.org/2000/svg"><rect x="216" y="124" width="80.5" height="80.5" fill-opacity="0"/><path fill="#F00" d="M247.182 147.218L248.843 147.218Q249.820 147.218 249.527 148.489L249.527 148.489L248.989 151.566Q248.550 152.885 246.986 154.840L246.986 154.840Q246.644 155.182 246.253 155.182L246.253 155.182L245.716 154.840Q245.716 154.107 245.911 153.911L245.911 153.911Q245.960 153.863 246.376 153.301Q246.791 152.739 247.035 152.324Q247.279 151.908 247.377 151.566L247.377 151.566L246.449 151.566Q245.716 151.566 245.716 150.638L245.716 150.638Q245.716 149.563 246.107 148.098L246.107 148.098Q246.107 147.707 246.424 147.463Q246.742 147.218 247.182 147.218L247.182 147.218Z"/></svg>