<svg width="480px" height="360px" xmlns="http://www.w3.org/2000/svg"><rect x="216" y="124" width="80.5" height="80.5" fill-opacity="0"/><path fill="#F00" d="M265.052 157.443L265.052 158.128Q265.052 160.966 263.511 163.291Q261.969 165.615 259.474 166.740L259.474 166.740Q264.073 172.905 265.052 178.924L265.052 178.924Q265.101 179.364 264.832 179.682Q264.563 180 264.122 180L264.122 180Q263.633 180 262.557 180L262.557 180Q262.214 180 261.969 179.780Q261.725 179.560 261.676 179.217L261.676 179.217Q261.235 176.722 259.963 174.055Q258.691 171.388 257.713 170.043Q256.734 168.697 255.755 167.572L255.755 167.572L247.339 167.572L247.339 179.070Q247.339 179.462 247.046 179.731Q246.752 180 246.410 180L246.410 180L244.844 180Q244.453 180 244.183 179.731Q243.914 179.462 243.914 179.070L243.914 179.070L243.914 148.930Q243.914 148.538 244.183 148.269Q244.453 148 244.844 148L244.844 148L255.609 148Q259.523 148 262.287 150.765Q265.052 153.529 265.052 157.443L265.052 157.443ZM261.676 158.128L261.676 158.128L261.676 157.443Q261.676 154.948 259.890 153.162Q258.104 151.376 255.609 151.376L255.609 151.376L247.339 151.376L247.339 164.147L255.609 164.147Q258.104 164.147 259.890 162.385Q261.676 160.624 261.676 158.128Z"/></svg>