<svg width="480px" height="360px" xmlns="http://www.w3.org/2000/svg"><rect x="216" y="124" width="80.5" height="80.5" fill-opacity="0"/><path fill="#F00" d="M242.881 147.228L246.842 147.228Q247.203 147.228 247.460 147.486Q247.717 147.743 247.717 148.051L247.717 148.051Q247.666 149.852 247.666 151.190L247.666 151.190Q247.614 152.682 246.791 153.865L246.791 153.865Q246.482 154.277 245.891 155.125Q245.299 155.974 245.093 156.283L245.093 156.283Q244.836 156.592 244.424 156.617Q244.013 156.643 243.756 156.334L243.756 156.334Q243.498 156.077 243.293 155.820L243.293 155.820Q242.830 155.254 243.293 154.688L243.293 154.688Q244.219 153.711 244.579 153.145L244.579 153.145L242.881 153.145Q242.521 153.145 242.264 152.887Q242.006 152.630 242.006 152.322L242.006 152.322L242.006 148.051Q242.006 147.743 242.264 147.486Q242.521 147.228 242.881 147.228L242.881 147.228ZM255.537 147.228Q255.897 147.228 256.129 147.486Q256.360 147.743 256.360 148.051L256.360 148.051Q256.360 149.852 256.309 151.190L256.309 151.190Q256.309 152.682 255.434 153.865L255.434 153.865Q254.199 155.666 253.788 156.283L253.788 156.283Q253.531 156.592 253.119 156.617Q252.707 156.643 252.399 156.334L252.399 156.334Q252.193 156.077 251.987 155.820L251.987 155.820Q251.473 155.254 251.987 154.688L251.987 154.688Q252.913 153.711 253.222 153.145L253.222 153.145L251.524 153.145Q251.164 153.145 250.932 152.887Q250.701 152.630 250.701 152.322L250.701 152.322L250.701 148.051Q250.701 147.743 250.932 147.486Q251.164 147.228 251.524 147.228L251.524 147.228L255.537 147.228Z"/></svg>