<svg width="480px" height="360px" xmlns="http://www.w3.org/2000/svg"><rect x="216" y="124" width="80.5" height="80.5" fill-opacity="0"/><path fill="#F00" d="M267.694 177.113L267.694 177.113Q268.037 177.113 268.281 177.382Q268.526 177.651 268.526 177.994L268.526 177.994L268.526 179.706Q268.526 180.049 268.281 180.294Q268.037 180.538 267.694 180.538L267.694 180.538Q265.688 180.538 264.367 179.070L264.367 179.070Q263.633 178.287 262.899 177.456L262.899 177.456Q262.752 177.554 262.606 177.651L262.606 177.651Q258.936 180.538 253.260 180.538L253.260 180.538Q250.324 180.538 248.024 179.584Q245.725 178.630 244.330 176.624Q242.936 174.618 242.936 171.780L242.936 171.780Q242.936 165.615 249.590 161.260L249.590 161.260Q247.927 159.058 247.339 158.128L247.339 158.128Q246.165 156.171 246.165 154.557L246.165 154.557Q246.165 151.621 248.245 149.541Q250.324 147.462 253.260 147.462Q256.196 147.462 258.275 149.541Q260.355 151.621 260.355 154.557L260.355 154.557Q260.355 157.297 258.006 159.890L258.006 159.890Q256.734 161.358 254.875 162.581L254.875 162.581Q257.908 166.495 262.850 172.220L262.850 172.220Q263.927 170.165 263.927 167.817L263.927 167.817L263.927 167.034Q263.927 166.642 264.196 166.373Q264.465 166.104 264.856 166.104L264.856 166.104L266.422 166.104Q266.813 166.104 267.083 166.373Q267.352 166.642 267.352 167.034L267.352 167.034L267.352 167.817Q267.352 171.682 265.199 174.911L265.199 174.911Q265.884 175.694 266.862 176.771L266.862 176.771Q267.205 177.113 267.694 177.113ZM249.541 154.557L249.541 154.557Q249.541 155.388 250.667 157.003L250.667 157.003Q251.058 157.541 252.820 159.841L252.820 159.841Q254.385 158.862 255.462 157.639L255.462 157.639Q256.930 155.976 256.930 154.557L256.930 154.557Q256.930 152.991 255.853 151.914Q254.777 150.838 253.260 150.838Q251.743 150.838 250.642 151.914Q249.541 152.991 249.541 154.557ZM260.550 174.960L260.550 174.960Q260.550 174.960 260.599 174.936Q260.648 174.911 260.648 174.862L260.648 174.862Q254.875 168.257 251.645 163.951L251.645 163.951Q249.297 165.468 247.829 167.303Q246.361 169.138 246.361 171.804Q246.361 174.471 248.294 175.792Q250.226 177.113 253.260 177.113L253.260 177.113Q257.761 177.113 260.550 174.960Z"/></svg>