<svg width="480px" height="360px" xmlns="http://www.w3.org/2000/svg"><rect x="216" y="124" width="80.5" height="80.5" fill-opacity="0"/><path fill="#F00" d="M264.514 169.040L264.514 169.040Q264.514 169.235 264.514 169.578L264.514 169.578Q264.514 169.872 264.514 170.067L264.514 170.067Q264.514 175.009 262.361 177.505L262.361 177.505Q261.138 178.924 259.107 179.706Q257.076 180.489 254.043 180.538L254.043 180.538L253.945 180.538Q248.171 180.440 245.627 177.505L245.627 177.505Q243.670 175.205 243.474 170.948L243.474 170.948Q242.495 157.297 248.073 151.376L248.073 151.376Q249.346 150.006 250.936 149.101Q252.526 148.196 253.847 147.902Q255.168 147.609 256.465 147.462Q257.761 147.315 258.446 147.511L258.446 147.511Q258.838 147.511 259.083 147.853Q259.327 148.196 259.229 148.587L259.229 148.587Q259.131 149.125 258.936 150.104L258.936 150.104Q258.887 150.446 258.593 150.667Q258.300 150.887 257.957 150.887L257.957 150.887Q253.456 150.593 250.520 153.676L250.520 153.676Q249.737 154.508 249.003 155.731Q248.269 156.954 247.609 158.911Q246.948 160.869 246.850 162.875L246.850 162.875Q248.807 159.841 253.945 159.547L253.945 159.547Q255.168 159.450 256.367 159.621Q257.566 159.792 258.765 160.208Q259.963 160.624 260.991 161.382Q262.018 162.141 262.826 163.168Q263.633 164.196 264.073 165.713Q264.514 167.229 264.514 169.040ZM261.138 170.067L261.138 170.067Q261.138 169.872 261.089 169.627L261.089 169.627L261.089 169.480Q261.138 169.235 261.138 169.040L261.138 169.040Q261.138 165.370 259.768 163.853L259.768 163.853Q258.251 162.043 253.994 161.994L253.994 161.994Q249.737 162.043 248.220 163.853L248.220 163.853Q246.899 165.419 246.899 169.040L246.899 169.040Q246.899 169.235 246.899 169.480L246.899 169.480L246.801 169.480L246.801 169.627L246.899 169.627Q246.850 169.872 246.850 170.067L246.850 170.067Q246.850 173.737 248.220 175.254L248.220 175.254Q249.737 177.064 253.994 177.113L253.994 177.113Q258.251 177.064 259.768 175.254L259.768 175.254Q261.138 173.737 261.138 170.067Z"/></svg>