<svg width="480px" height="360px" xmlns="http://www.w3.org/2000/svg"><rect x="216" y="124" width="80.5" height="80.5" fill-opacity="0"/><path fill="#F00" d="M255.168 156.416L255.168 156.416Q255.511 156.465 255.755 156.709Q256 156.954 256 157.346L256 157.346L256 159.009Q256 159.498 255.633 159.768Q255.266 160.037 254.826 159.939L254.826 159.939Q254.385 159.792 253.896 159.792L253.896 159.792Q252.330 159.743 250.838 160.869Q249.346 161.994 248.318 163.364L248.318 163.364Q247.388 164.587 246.899 166.055L246.899 166.055L246.899 179.070Q246.899 179.462 246.606 179.731Q246.312 180 245.969 180L245.969 180L244.404 180Q244.012 180 243.743 179.731Q243.474 179.462 243.474 179.070L243.474 179.070L243.474 157.835Q243.474 157.443 243.743 157.174Q244.012 156.905 244.404 156.905L244.404 156.905L245.969 156.905Q246.361 156.905 246.630 157.174Q246.899 157.443 246.899 157.835L246.899 157.835L246.899 160.771Q247.046 160.477 247.144 160.379L247.144 160.379Q250.226 156.269 254.581 156.367L254.581 156.367Q254.924 156.367 255.168 156.416Z"/></svg>