<svg width="480px" height="360px" xmlns="http://www.w3.org/2000/svg"><rect x="216" y="124" width="80.5" height="80.5" fill-opacity="0"/><path fill="#F00" d="M242.349 175.645L243.914 175.645Q244.306 175.645 244.575 175.914Q244.844 176.183 244.844 176.575L244.844 176.575L244.844 179.706Q244.844 181.174 243.523 183.083L243.523 183.083Q243.278 183.425 242.887 183.425L242.887 183.425L242.202 183.131Q241.859 182.740 242.153 182.300L242.153 182.300Q243.229 180.881 243.278 180L243.278 180L242.349 180Q241.957 180 241.688 179.731Q241.419 179.462 241.419 179.070L241.419 179.070L241.419 176.575Q241.419 176.183 241.688 175.914Q241.957 175.645 242.349 175.645L242.349 175.645ZM248.709 175.645L250.275 175.645Q250.667 175.645 250.936 175.914Q251.205 176.183 251.205 176.575L251.205 176.575L251.205 179.706Q251.205 181.174 249.884 183.083L249.884 183.083Q249.639 183.425 249.248 183.425L249.248 183.425Q249.003 183.425 248.832 183.352Q248.661 183.278 248.612 183.229L248.612 183.229L248.563 183.131Q248.220 182.740 248.514 182.300L248.514 182.300Q249.590 180.832 249.639 180L249.639 180L248.709 180Q248.318 180 248.049 179.731Q247.780 179.462 247.780 179.070L247.780 179.070L247.780 176.575Q247.780 176.183 248.049 175.914Q248.318 175.645 248.709 175.645L248.709 175.645Z"/></svg>