<svg width="480px" height="360px" xmlns="http://www.w3.org/2000/svg"><rect x="216" y="124" width="80.5" height="80.5" fill-opacity="0"/><path fill="#F00" d="M265.248 159.352Q265.884 159.352 266.104 159.963Q266.324 160.575 265.835 160.966L265.835 160.966L257.321 168.355Q262.312 172.661 265.101 175.107L265.101 175.107Q265.590 175.498 265.370 176.110Q265.150 176.722 264.514 176.722L264.514 176.722L262.116 176.722Q261.774 176.722 261.529 176.526L261.529 176.526Q259.229 174.520 254.581 170.508L254.581 170.508Q253.945 169.969 253.945 169.089L253.945 169.089L253.945 167.621Q253.945 166.789 254.581 166.202L254.581 166.202Q260.355 161.260 262.263 159.596L262.263 159.596Q262.508 159.352 262.850 159.352L262.850 159.352L265.248 159.352ZM254.141 160.966L245.627 168.355Q250.618 172.661 253.407 175.107L253.407 175.107Q253.896 175.498 253.676 176.110Q253.456 176.722 252.820 176.722L252.820 176.722L250.422 176.722Q250.080 176.722 249.835 176.526L249.835 176.526Q249.101 175.890 242.887 170.508L242.887 170.508Q242.251 169.969 242.251 169.089L242.251 169.089L242.251 167.621Q242.251 166.789 242.887 166.202L242.887 166.202Q248.612 161.260 250.569 159.596L250.569 159.596Q250.813 159.352 251.156 159.352L251.156 159.352L253.554 159.352Q254.190 159.352 254.410 159.963Q254.630 160.575 254.141 160.966L254.141 160.966Z"/></svg>