<svg width="480px" height="360px" xmlns="http://www.w3.org/2000/svg"><rect x="216" y="124" width="80.5" height="80.5" fill-opacity="0"/><path fill="#F00" d="M240.391 175.750L242.003 175.750Q242.443 175.750 242.663 176.018Q242.882 176.287 242.736 176.824L242.736 176.824L242.198 180.440Q242.003 181.466 240.195 183.713L240.195 183.713Q239.853 184.104 239.463 184.104L239.463 184.104Q239.316 184.104 238.925 183.713L238.925 183.713Q238.681 183.224 239.096 182.809Q239.511 182.394 239.976 181.685Q240.440 180.977 240.586 180.293L240.586 180.293L240.586 180.098L239.658 180.098Q238.925 180.098 238.925 179.169L238.925 179.169Q238.925 178.095 239.316 176.629L239.316 176.629Q239.316 176.238 239.634 175.994Q239.951 175.750 240.391 175.750L240.391 175.750Z"/></svg>