<svg width="480px" height="360px" xmlns="http://www.w3.org/2000/svg"><rect x="216" y="124" width="80.5" height="80.5" fill-opacity="0"/><path fill="#F00" d="M260.322 182.881L260.322 182.881Q260.322 184.682 260.322 186.842L260.322 186.842Q260.322 187.203 260.039 187.460Q259.756 187.717 259.344 187.666L259.344 187.666Q258.264 187.511 257.158 187.228Q256.051 186.945 254.457 186.302Q252.862 185.659 251.704 184.785Q250.547 183.910 249.698 182.444Q248.849 180.977 248.849 179.177L248.849 179.177L248.849 173.003Q248.849 171.563 247.820 170.534Q246.791 169.505 245.350 169.505L245.350 169.505L243.395 169.505Q243.035 169.505 242.778 169.248Q242.521 168.990 242.521 168.630L242.521 168.630L242.521 164.669Q242.521 164.309 242.778 164.051Q243.035 163.794 243.395 163.794L243.395 163.794L245.350 163.794Q246.791 163.794 247.820 162.765Q248.849 161.736 248.849 160.296L248.849 160.296L248.849 155.871Q248.849 154.174 249.415 152.785Q249.981 151.395 250.984 150.495Q251.987 149.595 253.093 148.977Q254.199 148.360 255.486 148Q256.772 147.640 257.672 147.486Q258.572 147.331 259.395 147.280L259.395 147.280Q259.807 147.228 260.064 147.486Q260.322 147.743 260.322 148.154L260.322 148.154L260.322 152.116Q260.322 152.373 260.219 152.553Q260.116 152.733 259.936 152.862Q259.756 152.990 259.550 152.990L259.550 152.990Q258.778 153.042 258.058 153.196Q257.338 153.350 256.463 153.659Q255.588 153.968 255.048 154.534Q254.508 155.100 254.508 155.871L254.508 155.871L254.508 160.296Q254.508 164 251.987 166.624L251.987 166.624Q254.508 169.299 254.508 173.003L254.508 173.003L254.508 179.177Q254.508 179.897 255.048 180.463Q255.588 181.029 256.463 181.338Q257.338 181.646 258.058 181.801Q258.778 181.955 259.550 182.058L259.550 182.058Q259.859 182.058 260.090 182.315Q260.322 182.572 260.322 182.881Z"/></svg>