<svg width="480px" height="360px" xmlns="http://www.w3.org/2000/svg"><rect x="216" y="124" width="80.5" height="80.5" fill-opacity="0"/><path fill="#F00" d="M251.833 174.032L255.794 174.032Q256.154 174.032 256.412 174.289Q256.669 174.547 256.669 174.907L256.669 174.907L256.669 179.125Q256.669 179.486 256.412 179.743Q256.154 180 255.794 180L255.794 180L251.833 180Q251.473 180 251.215 179.743Q250.958 179.486 250.958 179.125L250.958 179.125L250.958 174.907Q250.958 174.547 251.215 174.289Q251.473 174.032 251.833 174.032L251.833 174.032ZM253.788 147.486L253.788 147.486Q257.595 147.486 260.296 150.238Q262.997 152.990 262.997 156.900L262.997 156.900Q262.997 160.759 259.498 163.434L259.498 163.434Q256.617 165.698 256.617 169.299L256.617 169.299L256.617 170.585Q256.617 170.791 256.514 170.997Q256.412 171.203 256.206 171.305Q256 171.408 255.794 171.408L255.794 171.408L251.781 171.408Q251.421 171.408 251.190 171.177Q250.958 170.945 250.958 170.585L250.958 170.585L250.958 169.299Q250.958 166.264 252.296 163.537Q253.633 160.810 256 158.958L256 158.958Q257.286 157.981 257.286 156.900L257.286 156.900Q257.286 155.357 256.257 154.277Q255.228 153.196 253.788 153.196L253.788 153.196Q250.598 153.196 249.106 154.688L249.106 154.688Q248.334 155.408 248.077 156.386L248.077 156.386Q247.871 157.055 247.203 157.055L247.203 157.055Q246.791 157.003 245.273 156.900Q243.756 156.797 243.138 156.797L243.138 156.797Q242.727 156.746 242.495 156.437Q242.264 156.129 242.315 155.768L242.315 155.768Q242.984 152.733 245.093 150.624L245.093 150.624Q248.283 147.486 253.788 147.486Z"/></svg>