<svg width="480px" height="360px" xmlns="http://www.w3.org/2000/svg"><rect x="216" y="124" width="80.5" height="80.5" fill-opacity="0"/><path fill="#F00" d="M251.676 152.641L251.676 152.641Q251.872 152.983 251.872 153.569L251.872 153.569Q251.579 154.107 250.944 154.107L250.944 154.107L249.869 154.107Q249.478 154.107 249.136 153.716L249.136 153.716Q248.745 153.276 245.667 148.635L245.667 148.635Q245.374 148.342 245.667 147.707L245.667 147.707Q245.960 147.169 246.595 147.169L246.595 147.169L248.208 147.169Q248.598 147.169 248.940 147.560L248.940 147.560Q249.234 148.049 250.235 149.979Q251.237 151.908 251.676 152.641Z"/></svg>