<svg width="480px" height="360px" xmlns="http://www.w3.org/2000/svg"><rect x="216" y="124" width="80.5" height="80.5" fill-opacity="0"/><path fill="#F00" d="M251.921 147.169L253.533 147.169Q253.826 147.169 254.046 147.463Q254.266 147.756 254.266 148.293L254.266 148.293L253.728 151.908Q253.533 152.934 251.725 155.182L251.725 155.182Q251.383 155.573 250.992 155.573L250.992 155.573Q250.797 155.573 250.455 155.182L250.455 155.182Q250.211 154.693 250.650 154.253L250.650 154.253Q251.872 153.032 252.116 151.713L252.116 151.713L252.116 151.566L251.188 151.566Q250.455 151.566 250.455 150.638L250.455 150.638Q250.455 149.563 250.797 148.098L250.797 148.098Q250.797 147.707 251.139 147.438Q251.481 147.169 251.921 147.169L251.921 147.169ZM246.449 147.169L248.110 147.169Q248.501 147.169 248.721 147.463Q248.940 147.756 248.843 148.293L248.843 148.293L248.256 151.908Q248.061 152.934 246.253 155.182L246.253 155.182Q245.911 155.573 245.569 155.573L245.569 155.573Q245.374 155.573 244.983 155.182L244.983 155.182Q244.739 154.693 245.179 154.253L245.179 154.253Q246.400 153.032 246.644 151.713L246.644 151.713L246.644 151.566L245.716 151.566Q244.983 151.566 244.983 150.638L244.983 150.638Q244.983 149.563 245.374 148.098L245.374 148.098Q245.374 147.707 245.692 147.438Q246.009 147.169 246.449 147.169L246.449 147.169Z"/></svg>