<svg width="480px" height="360px" xmlns="http://www.w3.org/2000/svg"><rect x="216" y="124" width="80.5" height="80.5" fill-opacity="0"/><path fill="#F00" d="M253.376 184.476L253.839 185.350Q254.148 185.916 254.508 186.482L254.508 186.482Q254.714 186.945 254.482 187.357Q254.251 187.768 253.736 187.768L253.736 187.768L249.209 187.768Q248.695 187.768 248.437 187.305L248.437 187.305Q247.511 185.402 246.611 183.113Q245.711 180.823 244.682 176.296Q243.653 171.768 243.653 167.498L243.653 167.498Q243.653 163.228 244.682 158.701Q245.711 154.174 246.611 151.884Q247.511 149.595 248.489 147.691L248.489 147.691Q248.695 147.228 249.209 147.228L249.209 147.228L253.788 147.228Q254.251 147.228 254.508 147.640Q254.765 148.051 254.508 148.514L254.508 148.514L253.839 149.698Q253.685 150.006 253.376 150.598Q253.068 151.190 252.296 153.119Q251.524 155.048 250.932 157.003Q250.341 158.958 249.852 161.865Q249.363 164.772 249.363 167.524Q249.363 170.277 249.826 173.132Q250.289 175.987 250.932 178.071Q251.576 180.154 252.244 181.878Q252.913 183.601 253.376 184.476L253.376 184.476Z"/></svg>