<svg width="480px" height="360px" xmlns="http://www.w3.org/2000/svg"><rect x="216" y="124" width="80.5" height="80.5" fill-opacity="0"/><path fill="#F00" d="M263.203 156.180Q263.511 156.180 263.768 156.437Q264.026 156.695 264.026 157.055L264.026 157.055L264.026 180.103Q264.026 182.006 262.637 183.756L262.637 183.756Q261.814 184.836 260.553 185.711Q259.293 186.585 257.415 187.177Q255.537 187.768 253.479 187.768L253.479 187.768Q246.945 187.768 243.859 184.219L243.859 184.219Q243.601 183.961 243.678 183.576Q243.756 183.190 244.064 182.984L244.064 182.984Q245.453 182.109 247.614 180.772L247.614 180.772Q248.129 180.463 248.592 180.823L248.592 180.823Q250.238 182.058 253.479 182.058L253.479 182.058Q255.794 182.058 257.441 180.926L257.441 180.926Q258.315 180.257 258.315 179.177L258.315 179.177L258.315 177.222Q256.206 180.514 251.215 180.514L251.215 180.514Q247.460 180.514 245.170 177.145Q242.881 173.775 242.881 167.550L242.881 167.550Q242.881 162.045 245.016 158.907Q247.151 155.768 251.164 155.666L251.164 155.666Q256.154 155.563 258.315 159.370L258.315 159.370L258.315 157.055Q258.315 156.797 258.444 156.617Q258.572 156.437 258.778 156.309Q258.984 156.180 259.190 156.180L259.190 156.180L263.203 156.180ZM258.315 171.666L258.315 171.666L258.315 165.286Q258.109 164.772 257.749 164.206Q257.389 163.640 256.720 162.920Q256.051 162.199 254.997 161.788Q253.942 161.376 252.707 161.376L252.707 161.376Q250.804 161.428 249.698 163.151Q248.592 164.875 248.592 167.550L248.592 167.550Q248.592 171.254 250.135 173.312L250.135 173.312Q251.215 174.804 252.605 174.804L252.605 174.804Q253.839 174.804 254.868 174.469Q255.897 174.135 256.592 173.569Q257.286 173.003 257.672 172.566Q258.058 172.129 258.315 171.666Z"/></svg>