<svg width="480px" height="360px" xmlns="http://www.w3.org/2000/svg"><rect x="216" y="124" width="80.5" height="80.5" fill-opacity="0"/><path fill="#F00" d="M264.525 148.293L264.525 148.293Q264.916 148.635 264.916 148.831L264.916 148.831Q264.525 150.296 264.525 150.834Q264.525 151.371 264.330 151.566L264.330 151.566Q263.499 153.081 256.342 165.344Q249.185 177.606 248.159 179.365L248.159 179.365Q247.915 179.902 247.279 179.902L247.279 179.902L245.618 179.902Q245.276 179.902 244.885 179.560L244.885 179.560Q244.690 179.072 244.885 178.632L244.885 178.632L260.715 151.371L244.690 151.371Q244.544 151.371 244.348 151.176L244.348 151.176Q244.153 151.176 244.153 150.834L244.153 150.834Q244.544 149.710 244.544 148.635L244.544 148.635L244.690 148.293Q244.885 148.098 245.276 148.098L245.276 148.098L263.988 148.098Q264.330 148.098 264.525 148.293Z"/></svg>