<svg width="480px" height="360px" xmlns="http://www.w3.org/2000/svg"><rect x="216" y="124" width="80.5" height="80.5" fill-opacity="0"/><path fill="#F00" d="M247.144 160.379L247.144 160.379Q248.563 158.471 250.177 157.419Q251.792 156.367 254.287 156.367L254.287 156.367Q255.511 156.367 256.636 156.807Q257.761 157.248 258.446 157.908Q259.131 158.569 259.670 159.205Q260.208 159.841 260.404 160.281L260.404 160.281L260.648 160.771Q260.697 160.673 260.820 160.502Q260.942 160.330 261.382 159.865Q261.823 159.401 262.287 158.985Q262.752 158.569 263.511 158.055Q264.269 157.541 265.052 157.174Q265.835 156.807 266.887 156.563Q267.939 156.318 268.966 156.367L268.966 156.367Q272.391 156.465 274.324 159.547Q276.257 162.630 276.257 167.865L276.257 167.865L276.257 179.070Q276.257 179.462 275.988 179.731Q275.719 180 275.327 180L275.327 180L273.810 180Q273.419 180 273.150 179.731Q272.881 179.462 272.881 179.070L272.881 179.070L272.881 167.865Q272.881 166.251 272.832 165.443Q272.783 164.636 272.563 163.560Q272.343 162.483 271.902 161.798L271.902 161.798Q270.728 159.841 268.575 159.792L268.575 159.792Q266.911 159.743 265.394 160.526Q263.878 161.309 263.046 162.434L263.046 162.434Q262.116 163.657 261.578 165.125L261.578 165.125L261.578 179.119Q261.578 179.413 261.382 179.657L261.382 179.657L261.333 179.657L261.333 179.706L261.333 179.706L261.284 179.706Q261.284 179.755 261.284 179.755L261.284 179.755L261.235 179.755L261.235 179.804Q260.991 180 260.697 180L260.697 180L260.648 180L259.083 180L259.034 180Q258.740 180 258.495 179.804L258.495 179.804L258.495 179.755L258.495 179.755L258.446 179.755Q258.446 179.755 258.446 179.706L258.446 179.706L258.398 179.706L258.398 179.657L258.398 179.657Q258.202 179.413 258.153 179.119L258.153 179.119L258.153 167.865Q258.153 166.251 258.128 165.443Q258.104 164.636 257.884 163.560Q257.664 162.483 257.223 161.798L257.223 161.798Q256 159.841 253.896 159.792L253.896 159.792Q252.232 159.743 250.691 160.526Q249.150 161.309 248.318 162.434L248.318 162.434Q247.388 163.657 246.899 165.125L246.899 165.125L246.899 179.070Q246.899 179.462 246.630 179.731Q246.361 180 245.969 180L245.969 180L244.404 180Q244.012 180 243.743 179.731Q243.474 179.462 243.474 179.070L243.474 179.070L243.474 157.835Q243.474 157.443 243.743 157.174Q244.012 156.905 244.404 156.905L244.404 156.905L245.969 156.905Q246.312 156.905 246.606 157.174Q246.899 157.443 246.899 157.835L246.899 157.835L246.899 160.771Q246.948 160.624 247.144 160.379Z"/></svg>