<svg width="480px" height="360px" xmlns="http://www.w3.org/2000/svg"><rect x="216" y="124" width="80.5" height="80.5" fill-opacity="0"/><path fill="#F00" d="M264.758 178.532L264.758 178.532Q265.101 178.972 264.856 179.486Q264.612 180 264.024 180L264.024 180L262.067 180Q261.627 180 261.333 179.609L261.333 179.609L249.933 164.391L247.339 167.523L247.339 179.070Q247.339 179.315 247.217 179.535Q247.095 179.755 246.875 179.878Q246.654 180 246.410 180L246.410 180L244.844 180Q244.453 180 244.183 179.731Q243.914 179.462 243.914 179.070L243.914 179.070L243.914 148.930Q243.914 148.538 244.183 148.269Q244.453 148 244.844 148L244.844 148L246.410 148Q246.752 148 247.046 148.269Q247.339 148.538 247.339 148.930L247.339 148.930L247.339 162.190Q257.125 150.446 258.936 148.294L258.936 148.294Q259.229 148 259.621 148L259.621 148L261.676 148Q262.263 148 262.508 148.538Q262.752 149.076 262.361 149.517L262.361 149.517L252.183 161.700Q261.529 174.177 264.758 178.532Z"/></svg>