<svg width="480px" height="360px" xmlns="http://www.w3.org/2000/svg"><rect x="216" y="124" width="80.5" height="80.5" fill-opacity="0"/><path fill="#F00" d="M260.942 181.419L260.942 181.419Q261.187 181.859 260.893 182.300Q260.599 182.740 260.110 182.740L260.110 182.740L258.398 182.740Q257.810 182.740 257.566 182.202L257.566 182.202Q256.685 180.343 250.055 166.300Q243.425 152.257 242.055 149.321L242.055 149.321Q241.810 148.832 242.104 148.416Q242.398 148 242.887 148L242.887 148L244.599 148Q245.187 148 245.431 148.489L245.431 148.489Q248.024 153.969 260.942 181.419Z"/></svg>