<svg width="480px" height="360px" xmlns="http://www.w3.org/2000/svg"><rect x="216" y="124" width="80.5" height="80.5" fill-opacity="0"/><path fill="#F00" d="M265.209 148.586L265.209 148.586Q265.209 149.319 265.063 149.661L265.063 149.661L252.702 161.875Q259.786 174.235 262.327 178.583L262.327 178.583Q262.620 178.876 262.327 179.511L262.327 179.511Q262.034 180.049 261.398 180.049L261.398 180.049L259.395 180.049Q259.053 180.049 258.711 179.658L258.711 179.658L249.966 164.415L246.889 167.493L244.885 179.121Q244.885 179.511 244.544 179.780Q244.202 180.049 243.762 180.049L243.762 180.049L242.150 180.049Q241.759 180.049 241.588 179.853Q241.417 179.658 241.417 179.121L241.417 179.121Q241.954 175.701 243.957 164.171Q245.960 152.641 246.693 148.928L246.693 148.928Q246.693 148.586 247.035 148.195L247.035 148.195Q247.133 148.195 247.402 148.122Q247.670 148.049 247.768 148.049L247.768 148.049L249.429 148.049Q250.162 148.049 250.162 148.928L250.162 148.928L247.768 162.217Q259.591 150.589 261.789 148.391L261.789 148.391Q262.131 148.049 262.522 148.049L262.522 148.049L264.525 148.049Q264.965 148.049 265.209 148.586Z"/></svg>