<svg version="1.1" xmlns="http://www.w3.org/2000/svg" xmlns:xlink="http://www.w3.org/1999/xlink" width="33.01886" height="33.01886" viewBox="0,0,33.01886,33.01886"><g transform="translate(-303.49057,-163.49057)"><g data-paper-data="{&quot;isPaintingLayer&quot;:true}" fill-rule="nonzero" stroke-miterlimit="10" stroke-dasharray="" stroke-dashoffset="0" style="mix-blend-mode: normal"><path d="M303.49057,180c0,-9.1179 7.39153,-16.50943 16.50943,-16.50943c9.1179,0 16.50943,7.39153 16.50943,16.50943c0,9.1179 -7.39153,16.50943 -16.50943,16.50943c-9.1179,0 -16.50943,-7.39153 -16.50943,-16.50943z" fill="#f9af36" stroke="none" stroke-width="0" stroke-linecap="butt" stroke-linejoin="miter"/><path d="M322.08491,171.83333c0,-1.933 1.567,-3.5 3.5,-3.5c1.933,0 3.5,1.567 3.5,3.5c0,1.933 -1.567,3.5 -3.5,3.5c-1.933,0 -3.5,-1.567 -3.5,-3.5z" fill="none" stroke="#ffffff" stroke-width="3" stroke-linecap="round" stroke-linejoin="round"/><path d="M308.08491,180c0,-1.933 1.567,-3.5 3.5,-3.5c1.933,0 3.5,1.567 3.5,3.5c0,1.933 -1.567,3.5 -3.5,3.5c-1.933,0 -3.5,-1.567 -3.5,-3.5z" fill="none" stroke="#ffffff" stroke-width="3" stroke-linecap="round" stroke-linejoin="round"/><path d="M322.08491,188.16667c0,-1.933 1.567,-3.5 3.5,-3.5c1.933,0 3.5,1.567 3.5,3.5c0,1.933 -1.567,3.5 -3.5,3.5c-1.933,0 -3.5,-1.567 -3.5,-3.5z" fill="none" stroke="#ffffff" stroke-width="3" stroke-linecap="round" stroke-linejoin="round"/><path d="M322.57491,186.405l-7.96833,-4.64333" fill="none" stroke="#ffffff" stroke-width="3" stroke-linecap="round" stroke-linejoin="round"/><path d="M322.56325,173.595l-7.95667,4.64333" fill="none" stroke="#ffffff" stroke-width="3" stroke-linecap="round" stroke-linejoin="round"/></g></g></svg>