<svg width="480px" height="360px" xmlns="http://www.w3.org/2000/svg"><rect x="216" y="124" width="80.5" height="80.5" fill-opacity="0"/><path fill="#F00" d="M268.553 148Q268.913 148 269.170 148.232Q269.428 148.463 269.428 148.823L269.428 148.823L269.428 169.350Q269.428 173.878 265.672 177.196Q261.916 180.514 256.540 180.514Q251.164 180.514 247.408 177.196Q243.653 173.878 243.653 169.350L243.653 169.350L243.653 148.823Q243.653 148.463 243.910 148.232Q244.167 148 244.527 148L244.527 148L248.489 148Q248.849 148 249.106 148.232Q249.363 148.463 249.363 148.823L249.363 148.823L249.363 169.350Q249.363 171.666 251.473 173.235Q253.582 174.804 256.540 174.804Q259.498 174.804 261.608 173.235Q263.717 171.666 263.717 169.350L263.717 169.350L263.717 148.823Q263.717 148.463 263.974 148.232Q264.232 148 264.592 148L264.592 148L268.553 148Z"/></svg>