<svg width="480px" height="360px" xmlns="http://www.w3.org/2000/svg"><rect x="216" y="124" width="80.5" height="80.5" fill-opacity="0"/><path fill="#F00" d="M248.598 160.507L248.598 160.507Q250.357 158.602 252.140 157.551Q253.924 156.501 256.415 156.501L256.415 156.501Q257.637 156.501 258.687 156.940Q259.737 157.380 260.324 158.040Q260.910 158.699 261.301 159.334Q261.692 159.969 261.838 160.409L261.838 160.409L261.985 160.898Q262.131 160.702 262.449 160.385Q262.766 160.067 263.719 159.310Q264.672 158.553 265.673 157.966Q266.675 157.380 268.165 156.916Q269.655 156.452 271.072 156.501L271.072 156.501Q274.443 156.598 275.860 159.676Q277.276 162.754 276.348 167.982L276.348 167.982L274.345 179.169Q274.345 179.414 274.174 179.634Q274.003 179.853 273.759 179.976Q273.515 180.098 273.270 180.098L273.270 180.098L271.707 180.098Q271.365 180.098 271.121 179.829Q270.876 179.560 270.974 179.169L270.974 179.169L272.928 167.982Q273.221 166.369 273.344 165.563Q273.466 164.757 273.417 163.682Q273.368 162.608 273.075 161.924L273.075 161.924Q272.195 159.969 270.095 159.921L270.095 159.921Q268.971 159.872 267.774 160.263Q266.577 160.653 265.649 161.240Q264.721 161.826 264.085 162.559L264.085 162.559Q262.913 163.780 262.131 165.246L262.131 165.246L259.689 179.169L259.689 179.218Q259.640 179.511 259.395 179.756L259.395 179.756L259.347 179.756L259.347 179.805L259.298 179.805L259.298 179.853L259.249 179.853L259.249 179.902Q258.956 180.098 258.663 180.098L258.663 180.098L258.614 180.098L257.050 180.098L257.002 180.098Q256.708 180.098 256.513 179.902L256.513 179.902L256.513 179.853L256.464 179.853L256.464 179.853L256.464 179.805L256.415 179.756L256.415 179.756Q256.269 179.511 256.269 179.218L256.269 179.218L256.318 179.169L258.272 167.982Q258.565 166.369 258.663 165.563Q258.760 164.757 258.736 163.682Q258.711 162.608 258.369 161.924L258.369 161.924Q257.539 159.969 255.438 159.921L255.438 159.921Q253.777 159.872 252.092 160.653Q250.406 161.435 249.429 162.559L249.429 162.559Q248.256 163.780 247.475 165.246L247.475 165.246L245.032 179.169Q244.934 179.560 244.617 179.829Q244.299 180.098 243.957 180.098L243.957 180.098L242.394 180.098Q242.003 180.098 241.783 179.829Q241.563 179.560 241.612 179.169L241.612 179.169Q244.641 162.119 245.374 157.966L245.374 157.966Q245.423 157.576 245.740 157.307Q246.058 157.038 246.449 157.038L246.449 157.038L248.012 157.038Q248.403 157.038 248.623 157.307Q248.843 157.576 248.745 157.966L248.745 157.966L248.256 160.898Q248.354 160.751 248.598 160.507Z"/></svg>