<svg width="480px" height="360px" xmlns="http://www.w3.org/2000/svg"><rect x="216" y="124" width="80.5" height="80.5" fill-opacity="0"/><path fill="#F00" d="M269.557 153.325L269.557 153.325Q269.557 153.863 269.020 154.058L269.020 154.058Q269.020 154.107 268.922 154.205Q268.824 154.302 268.678 154.400Q268.531 154.498 268.482 154.595L268.482 154.595L266.870 155.133Q266.089 155.377 265.747 154.742L265.747 154.742Q265.063 152.739 263.353 151.835Q261.643 150.931 258.467 150.931L258.467 150.931Q254.608 150.931 251.579 152.739L251.579 152.739Q250.113 153.716 249.014 155.133Q247.915 156.550 247.279 158.260Q246.644 159.969 246.327 161.215Q246.009 162.461 245.765 164.024L245.765 164.024Q245.472 165.685 245.374 166.882Q245.276 168.079 245.325 169.789Q245.374 171.499 245.985 172.916Q246.595 174.333 247.768 175.310L247.768 175.310Q250.162 177.118 254.119 177.118L254.119 177.118Q256.220 177.118 257.808 176.727Q259.395 176.336 260.617 175.505Q261.838 174.675 262.864 173.307L262.864 173.307Q263.206 172.574 263.206 172.379L263.206 172.379Q263.744 169.692 263.939 168.568L263.939 168.568Q264.085 168.177 263.866 167.933Q263.646 167.689 263.206 167.689L263.206 167.689L255.927 167.689Q255.194 167.689 255.194 166.760L255.194 166.760Q255.194 166.467 255.292 165.930Q255.389 165.392 255.389 165.148L255.389 165.148Q255.389 164.708 255.731 164.464Q256.073 164.220 256.464 164.220L256.464 164.220L265.405 164.220Q266.724 164.220 267.212 164.953L267.212 164.953Q268.043 165.783 267.750 166.956L267.750 166.956Q267.603 167.835 267.188 170.009Q266.773 172.183 266.675 172.769L266.675 172.769Q266.479 173.307 266.137 174.040L266.137 174.040Q262.131 180.586 253.777 180.586L253.777 180.586Q248.745 180.586 245.569 178.046L245.569 178.046Q241.026 174.089 242.834 164.024L242.834 164.024Q244.592 153.863 250.504 150.052L250.504 150.052Q254.315 147.511 259.591 147.511L259.591 147.511Q262.473 147.511 264.476 148.122Q266.479 148.733 267.701 150.003Q268.922 151.273 269.557 153.325Z"/></svg>