<svg width="480px" height="360px" xmlns="http://www.w3.org/2000/svg"><rect x="216" y="124" width="80.5" height="80.5" fill-opacity="0"/><path fill="#F00" d="M267.215 148L271.640 148Q272 148 272.232 148.232Q272.463 148.463 272.463 148.823L272.463 148.823L272.463 179.125Q272.463 179.486 272.206 179.743Q271.949 180 271.640 180L271.640 180L267.627 180Q267.267 180 267.010 179.743Q266.752 179.486 266.752 179.125L266.752 179.125L266.752 164.566Q262.482 176.656 261.505 179.434L261.505 179.434Q261.299 180 260.733 180L260.733 180L255.897 180Q255.280 180 255.074 179.434L255.074 179.434L249.826 164.566L249.826 179.125Q249.826 179.486 249.569 179.743Q249.312 180 248.952 180L248.952 180L244.990 180Q244.630 180 244.373 179.743Q244.116 179.486 244.116 179.125L244.116 179.125L244.116 148.823Q244.116 148.463 244.373 148.232Q244.630 148 244.990 148L244.990 148L249.363 148Q249.981 148 250.186 148.566L250.186 148.566L258.315 171.460Q265.158 152.116 266.392 148.566L266.392 148.566Q266.598 148 267.215 148L267.215 148Z"/></svg>