<svg width="480px" height="360px" xmlns="http://www.w3.org/2000/svg"><rect x="216" y="124" width="80.5" height="80.5" fill-opacity="0"/><path fill="#F00" d="M247.388 161.554Q246.850 164.783 246.850 167.841Q246.850 170.899 247.364 174.055Q247.878 177.211 248.612 179.560Q249.346 181.908 250.104 183.792Q250.862 185.676 251.352 186.654L251.352 186.654L251.890 187.633Q252.037 187.927 251.890 188.220Q251.743 188.514 251.401 188.514L251.401 188.514L249.052 188.514Q248.514 188.514 248.220 187.976L248.220 187.976Q247.193 185.872 246.263 183.425Q245.333 180.979 244.379 176.502Q243.425 172.024 243.425 167.817Q243.425 163.609 244.379 159.156Q245.333 154.703 246.263 152.257Q247.193 149.810 248.220 147.657L248.220 147.657Q248.465 147.168 249.052 147.168L249.052 147.168L251.401 147.168Q251.743 147.168 251.890 147.437Q252.037 147.706 251.890 148L251.890 148Q251.694 148.343 251.352 149.028Q251.009 149.713 250.128 151.817Q249.248 153.920 248.587 156.122Q247.927 158.324 247.388 161.554Z"/></svg>