<svg width="480px" height="360px" xmlns="http://www.w3.org/2000/svg"><rect x="216" y="124" width="80.5" height="80.5" fill-opacity="0"/><path fill="#F00" d="M259.670 161.994L259.670 161.994Q259.914 162.434 259.645 162.875Q259.376 163.315 258.838 163.315L258.838 163.315L257.125 163.315Q256.538 163.315 256.294 162.777L256.294 162.777L250.862 151.180Q246.508 160.428 245.382 162.777L245.382 162.777Q245.138 163.315 244.550 163.315L244.550 163.315L242.838 163.315Q242.349 163.315 242.055 162.875Q241.761 162.434 242.006 161.994L242.006 161.994Q242.838 160.232 245.529 154.483Q248.220 148.734 248.709 147.657L248.709 147.657Q248.954 147.168 249.541 147.168L249.541 147.168L252.135 147.168Q252.722 147.168 252.966 147.657L252.966 147.657Q255.021 152.012 259.670 161.994Z"/></svg>