<svg width="480px" height="360px" xmlns="http://www.w3.org/2000/svg"><rect x="216" y="124" width="80.5" height="80.5" fill-opacity="0"/><path fill="#F00" d="M269.264 148.049L270.925 148.049Q271.218 148.049 271.414 148.293Q271.609 148.537 271.463 148.928L271.463 148.928L267.847 169.838Q267.017 174.284 262.791 177.435Q258.565 180.586 253.289 180.586L253.289 180.586Q248.012 180.586 244.861 177.411Q241.710 174.235 242.540 169.838L242.540 169.838L246.205 148.928Q246.205 148.537 246.522 148.293Q246.840 148.049 247.279 148.049L247.279 148.049L248.940 148.049Q249.624 148.049 249.624 148.928L249.624 148.928L246.009 169.838Q245.667 171.890 246.669 173.576Q247.670 175.261 249.624 176.189Q251.579 177.118 254.021 177.118L254.021 177.118Q257.881 177.118 260.959 175.041Q264.037 172.965 264.574 169.838L264.574 169.838L268.189 148.928Q268.189 148.537 268.531 148.293Q268.873 148.049 269.264 148.049L269.264 148.049Z"/></svg>