<svg width="480px" height="360px" xmlns="http://www.w3.org/2000/svg"><rect x="216" y="124" width="80.5" height="80.5" fill-opacity="0"/><path fill="#F00" d="M250.422 146.972Q250.813 146.972 251.083 147.242Q251.352 147.511 251.352 147.902L251.352 147.902L251.352 187.535Q251.352 187.927 251.083 188.220Q250.813 188.514 250.422 188.514L250.422 188.514L243.180 188.514Q242.789 188.514 242.520 188.220Q242.251 187.927 242.251 187.584L242.251 187.584L242.251 186.018Q242.251 185.627 242.520 185.358Q242.789 185.089 243.180 185.089L243.180 185.089L247.976 185.089L247.976 150.398L243.180 150.398Q242.789 150.398 242.520 150.128Q242.251 149.859 242.251 149.468L242.251 149.468L242.251 147.902Q242.251 147.511 242.520 147.242Q242.789 146.972 243.180 146.972L243.180 146.972L250.422 146.972Z"/></svg>