<svg width="480px" height="360px" xmlns="http://www.w3.org/2000/svg"><rect x="216" y="124" width="80.5" height="80.5" fill-opacity="0"/><path fill="#F00" d="M267.524 148.823L267.524 153.350Q267.524 153.659 267.318 153.916L267.318 153.916L249.363 174.289L266.650 174.289Q267.010 174.289 267.267 174.547Q267.524 174.804 267.524 175.164L267.524 175.164L267.524 179.125Q267.524 179.486 267.267 179.743Q267.010 180 266.650 180L266.650 180L243.293 180Q242.932 180 242.675 179.743Q242.418 179.486 242.418 179.125L242.418 179.125L242.418 174.650Q242.418 174.289 242.624 174.084L242.624 174.084L260.527 153.659L243.293 153.659Q242.932 153.659 242.675 153.402Q242.418 153.145 242.418 152.836L242.418 152.836L242.418 148.823Q242.418 148.463 242.675 148.232Q242.932 148 243.293 148L243.293 148L266.650 148Q267.010 148 267.267 148.232Q267.524 148.463 267.524 148.823L267.524 148.823Z"/></svg>