<svg width="480px" height="360px" xmlns="http://www.w3.org/2000/svg"><rect x="216" y="124" width="80.5" height="80.5" fill-opacity="0"/><path fill="#F00" d="M244.939 148L256 148Q262.019 148 266.264 152.244Q270.508 156.489 270.508 162.508L270.508 162.508L270.508 165.492Q270.508 171.511 266.264 175.756Q262.019 180 256 180L256 180L244.939 180Q244.785 180 244.656 179.949Q244.527 179.897 244.424 179.820Q244.322 179.743 244.244 179.640Q244.167 179.537 244.116 179.408Q244.064 179.280 244.064 179.125L244.064 179.125L244.064 148.823Q244.064 148.463 244.322 148.232Q244.579 148 244.939 148L244.939 148ZM264.849 165.492L264.849 165.492L264.849 162.508Q264.849 158.855 262.251 156.257Q259.653 153.659 256 153.659L256 153.659L249.775 153.659L249.775 174.289L256 174.289Q259.653 174.289 262.251 171.717Q264.849 169.145 264.849 165.492Z"/></svg>