<svg width="480px" height="360px" xmlns="http://www.w3.org/2000/svg"><rect x="216" y="124" width="80.5" height="80.5" fill-opacity="0"/><path fill="#F00" d="M266.392 162.920Q267.473 162.920 268.219 163.666Q268.965 164.412 268.965 165.492L268.965 165.492L268.965 172.797Q268.965 175.524 266.907 177.325L266.907 177.325Q263.203 180.514 257.029 180.514L257.029 180.514Q251.678 180.514 248.232 177.891L248.232 177.891Q242.881 173.826 242.881 164L242.881 164L242.881 163.897Q242.932 154.122 248.232 150.109L248.232 150.109Q251.678 147.486 257.029 147.486L257.029 147.486Q261.453 147.486 264.129 148.977Q266.804 150.469 268.347 153.659L268.347 153.659Q268.502 153.968 268.373 154.302Q268.244 154.637 267.936 154.791L267.936 154.791Q265.518 155.820 264.232 156.386L264.232 156.386Q263.511 156.643 263.151 155.974L263.151 155.974Q262.585 154.997 261.736 154.379Q260.887 153.762 259.730 153.479Q258.572 153.196 257.029 153.196L257.029 153.196Q253.582 153.196 251.678 154.637L251.678 154.637Q250.598 155.460 249.904 156.617Q249.209 157.775 248.952 159.241Q248.695 160.707 248.643 161.659Q248.592 162.611 248.592 164Q248.592 165.389 248.643 166.341Q248.695 167.293 248.952 168.733Q249.209 170.174 249.904 171.357Q250.598 172.540 251.678 173.363L251.678 173.363Q253.582 174.804 257.029 174.804L257.029 174.804Q259.395 174.804 260.862 174.135Q262.328 173.466 263.151 171.974L263.151 171.974Q263.254 171.768 263.254 171.563L263.254 171.563L263.254 168.630L255.640 168.630Q255.331 168.630 255.074 168.373Q254.817 168.116 254.817 167.756L254.817 167.756L254.817 163.794Q254.817 163.434 255.074 163.177Q255.331 162.920 255.640 162.920L255.640 162.920L266.392 162.920Z"/></svg>