<svg width="480px" height="360px" xmlns="http://www.w3.org/2000/svg"><rect x="216" y="124" width="80.5" height="80.5" fill-opacity="0"/><path fill="#F00" d="M265.453 148.391L265.453 148.391Q265.502 148.586 265.502 148.928Q265.502 149.270 265.600 149.319L265.600 149.319L253.093 168.568L251.237 178.925Q251.237 179.316 250.895 179.658L250.895 179.658Q250.797 179.658 250.528 179.756Q250.260 179.853 250.162 179.853L250.162 179.853L248.501 179.853Q248.159 179.853 247.988 179.682Q247.817 179.511 247.817 178.925L247.817 178.925L249.624 168.568Q245.081 153.863 243.811 149.319L243.811 149.319Q243.566 148.831 243.957 148.391L243.957 148.391Q244.348 148.049 244.885 148.049L244.885 148.049L246.547 148.049Q246.986 148.049 247.231 148.586L247.231 148.586L251.969 164.415Q260.324 151.322 262.180 148.586L262.180 148.586Q262.424 148.049 263.060 148.049L263.060 148.049L264.721 148.049Q265.063 148.049 265.453 148.391Z"/></svg>