<svg width="480px" height="360px" xmlns="http://www.w3.org/2000/svg"><rect x="216" y="124" width="80.5" height="80.5" fill-opacity="0"/><path fill="#F00" d="M260.715 158.992L260.715 158.992Q262.718 161.191 262.376 167.200L262.376 167.200L261.985 169.008Q261.985 169.301 261.887 169.521Q261.789 169.740 261.643 169.740L261.643 169.740Q261.545 169.740 261.276 169.838Q261.008 169.936 260.910 169.936L260.910 169.936L246.009 169.936Q245.374 173.649 247.084 175.359L247.084 175.359Q248.452 177.020 252.556 177.020L252.556 177.020Q254.754 177.020 257.099 175.554L257.099 175.554Q258.125 175.212 258.369 175.750L258.369 175.750Q258.858 175.994 259.298 176.824L259.298 176.824Q259.444 177.020 259.444 177.557L259.444 177.557Q259.298 177.899 258.907 178.290L258.907 178.290Q255.634 180.440 252.018 180.440L252.018 180.440Q246.742 180.440 244.348 178.095L244.348 178.095Q241.515 175.212 242.736 168.470L242.736 168.470Q244.006 161.875 247.084 158.992L247.084 158.992Q249.624 156.452 254.363 156.452L254.363 156.452Q258.516 156.452 260.715 158.992ZM246.205 167.395L258.565 167.395Q258.907 165.539 258.834 163.902Q258.760 162.266 258.027 161.386L258.027 161.386Q256.855 159.921 253.826 159.921L253.826 159.921Q250.846 159.921 249.087 161.386L249.087 161.386Q247.133 162.901 246.205 167.395L246.205 167.395Z"/></svg>