<svg width="480px" height="360px" xmlns="http://www.w3.org/2000/svg"><rect x="216" y="124" width="80.5" height="80.5" fill-opacity="0"/><path fill="#F00" d="M244.404 156.856L245.969 156.856Q246.312 156.856 246.606 157.125Q246.899 157.394 246.899 157.786L246.899 157.786L246.899 179.021Q246.899 179.413 246.606 179.682Q246.312 179.951 245.969 179.951L245.969 179.951L244.404 179.951Q244.012 179.951 243.743 179.682Q243.474 179.413 243.474 179.021L243.474 179.021L243.474 157.786Q243.474 157.394 243.743 157.125Q244.012 156.856 244.404 156.856L244.404 156.856ZM244.404 148.196L245.969 148.196Q246.312 148.196 246.606 148.465Q246.899 148.734 246.899 149.125L246.899 149.125L246.899 151.621Q246.899 151.963 246.606 152.232Q246.312 152.502 245.969 152.502L245.969 152.502L244.404 152.502Q244.012 152.502 243.743 152.232Q243.474 151.963 243.474 151.621L243.474 151.621L243.474 149.125Q243.474 148.734 243.743 148.465Q244.012 148.196 244.404 148.196L244.404 148.196Z"/></svg>