<svg width="480px" height="360px" xmlns="http://www.w3.org/2000/svg"><rect x="216" y="124" width="80.5" height="80.5" fill-opacity="0"/><path fill="#F00" d="M271.021 148Q271.413 148 271.682 148.269Q271.951 148.538 271.951 148.930L271.951 148.930L271.951 179.070Q271.951 179.462 271.682 179.731Q271.413 180 271.021 180L271.021 180L269.456 180Q269.064 180 268.795 179.731Q268.526 179.462 268.526 179.070L268.526 179.070L268.526 156.318Q261.333 175.694 259.963 179.413L259.963 179.413Q259.768 180 259.083 180L259.083 180L256.783 180Q256.098 180 255.902 179.413L255.902 179.413L247.339 156.318L247.339 179.070Q247.339 179.462 247.046 179.731Q246.752 180 246.410 180L246.410 180L244.844 180Q244.453 180 244.183 179.731Q243.914 179.462 243.914 179.070L243.914 179.070L243.914 148.930Q243.914 148.538 244.183 148.269Q244.453 148 244.844 148L244.844 148L247.242 148Q247.878 148 248.073 148.587L248.073 148.587L257.908 175.107Q266.275 152.599 267.792 148.587L267.792 148.587Q267.988 148 268.624 148L268.624 148L271.021 148Z"/></svg>