<svg width="480px" height="360px" xmlns="http://www.w3.org/2000/svg"><rect x="216" y="124" width="80.5" height="80.5" fill-opacity="0"/><path fill="#F00" d="M261.916 176.965L261.916 176.965Q262.174 177.222 262.122 177.608Q262.071 177.994 261.814 178.199L261.814 178.199Q259.241 180.103 256.154 180.412L256.154 180.412L256.154 183.859Q256.154 184.116 256.051 184.322Q255.949 184.527 255.743 184.630Q255.537 184.733 255.331 184.733L255.331 184.733L251.318 184.733Q250.958 184.733 250.727 184.476Q250.495 184.219 250.495 183.859L250.495 183.859L250.495 179.949Q248.283 179.280 246.740 177.942L246.740 177.942Q243.190 174.958 243.190 168.116L243.190 168.116L243.190 168.013Q243.190 161.222 246.740 158.238L246.740 158.238Q248.283 156.900 250.495 156.232L250.495 156.232L250.495 152.013Q250.495 151.653 250.727 151.395Q250.958 151.138 251.318 151.138L251.318 151.138L255.331 151.138Q255.691 151.138 255.923 151.395Q256.154 151.653 256.154 152.013L256.154 152.013L256.154 155.768Q259.293 156.077 261.814 157.981L261.814 157.981Q262.071 158.238 262.122 158.598Q262.174 158.958 261.916 159.215L261.916 159.215Q260.939 160.347 259.241 162.251L259.241 162.251Q258.778 162.817 258.109 162.405L258.109 162.405Q256.669 161.376 254.971 161.376L254.971 161.376Q251.781 161.376 250.444 162.559L250.444 162.559Q249.466 163.383 249.183 164.695Q248.900 166.006 248.900 168.116L248.900 168.116L248.900 168.219Q248.900 170.225 249.183 171.511Q249.466 172.797 250.444 173.621L250.444 173.621Q251.781 174.804 254.971 174.804L254.971 174.804Q256.669 174.804 258.109 173.826L258.109 173.826Q258.727 173.363 259.241 173.929L259.241 173.929Q260.064 174.855 261.916 176.965Z"/></svg>