<svg width="480px" height="360px" xmlns="http://www.w3.org/2000/svg"><rect x="216" y="124" width="80.5" height="80.5" fill-opacity="0"/><path fill="#F00" d="M247.768 148.049L263.255 148.049Q263.695 148.049 263.866 148.293Q264.037 148.537 263.792 148.928L263.792 148.928Q263.792 149.221 263.695 149.759Q263.597 150.296 263.597 150.589L263.597 150.589Q263.597 150.980 263.279 151.224Q262.962 151.469 262.522 151.469L262.522 151.469L249.624 151.469L247.768 162.021L258.125 162.021L258.711 162.021Q258.858 162.217 258.858 162.754L258.858 162.754Q258.858 163.047 258.785 163.585Q258.711 164.122 258.711 164.415L258.711 164.415Q258.711 164.757 258.321 165.148L258.321 165.148Q258.223 165.148 257.954 165.221Q257.685 165.295 257.588 165.295L257.588 165.295L247.231 165.295L245.227 176.580L259.444 176.580Q259.591 176.580 259.713 176.629Q259.835 176.678 259.933 176.727L259.933 176.727L259.982 176.776Q260.128 176.922 260.128 177.508L260.128 177.508Q260.128 177.753 260.055 178.315Q259.982 178.876 259.982 179.121L259.982 179.121Q259.982 179.511 259.591 179.853L259.591 179.853Q259.493 179.853 259.224 179.951Q258.956 180.049 258.858 180.049L258.858 180.049L242.150 180.049Q241.808 180.049 241.612 179.853Q241.417 179.658 241.417 179.121L241.417 179.121Q241.954 175.701 243.982 164.171Q246.009 152.641 246.693 148.928L246.693 148.928Q246.693 148.586 247.035 148.195L247.035 148.195Q247.133 148.195 247.402 148.122Q247.670 148.049 247.768 148.049L247.768 148.049Z"/></svg>