<svg width="480px" height="360px" xmlns="http://www.w3.org/2000/svg"><rect x="216" y="124" width="80.5" height="80.5" fill-opacity="0"/><path fill="#F00" d="M263.768 174.289Q264.129 174.289 264.386 174.547Q264.643 174.804 264.643 175.164L264.643 175.164L264.643 179.125Q264.643 179.486 264.386 179.743Q264.129 180 263.768 180L263.768 180L244.270 180Q244.013 180 243.807 179.897Q243.601 179.794 243.498 179.588Q243.395 179.383 243.395 179.125L243.395 179.125L243.395 175.164Q243.395 174.958 243.473 174.804Q243.550 174.650 243.653 174.547Q243.756 174.444 243.910 174.367Q244.064 174.289 244.270 174.289L244.270 174.289L246.225 174.289L246.277 174.289L246.277 167.756L244.270 167.756Q243.910 167.756 243.653 167.498Q243.395 167.241 243.395 166.881L243.395 166.881L243.395 162.868Q243.395 162.508 243.653 162.277Q243.910 162.045 244.270 162.045L244.270 162.045L246.277 162.045L246.277 155.820Q246.277 152.373 248.746 149.929Q251.215 147.486 254.714 147.486Q258.212 147.486 260.707 149.929Q263.203 152.373 263.203 155.820L263.203 155.820L263.203 157.826Q263.203 158.084 263.074 158.264Q262.945 158.444 262.765 158.572Q262.585 158.701 262.328 158.701L262.328 158.701L258.315 158.701Q258.109 158.701 257.904 158.572Q257.698 158.444 257.595 158.264Q257.492 158.084 257.492 157.826L257.492 157.826L257.492 155.820Q257.492 154.740 256.669 153.968Q255.846 153.196 254.714 153.196Q253.582 153.196 252.759 153.968Q251.936 154.740 251.936 155.820L251.936 155.820L251.936 162.045L258.418 162.045Q258.675 162.045 258.855 162.148Q259.035 162.251 259.164 162.457Q259.293 162.662 259.293 162.868L259.293 162.868L259.293 166.881Q259.293 167.087 259.164 167.293Q259.035 167.498 258.855 167.601Q258.675 167.704 258.418 167.704L258.418 167.704L251.936 167.704L251.936 174.289L263.768 174.289Z"/></svg>