<svg version="1.1" xmlns="http://www.w3.org/2000/svg" xmlns:xlink="http://www.w3.org/1999/xlink" width="333.45" height="191.66818" viewBox="0,0,333.45,191.66818"><g transform="translate(-153.27499,-83.86113)"><g data-paper-data="{&quot;isPaintingLayer&quot;:true}" fill-rule="nonzero" stroke-linejoin="miter" stroke-miterlimit="10" stroke-dasharray="" stroke-dashoffset="0" style="mix-blend-mode: normal"><path d="M256.47499,264.7293v-104h224v99" fill="none" stroke="#350a00" stroke-width="12.5" stroke-linecap="round"/><path d="M153.27499,274.1293v-18.3l9,4.7l10.8,-4l10.6,5.6l6.3,-6.3v18.3z" fill="#0fbd8c" stroke="none" stroke-width="1" stroke-linecap="butt"/><path d="M240.07499,251.0293l1.3,18.3l-9.3,-4l-10.5,4.8l-10.9,-4.8l-5.9,6.8l-1.3,-18.3z" fill="#0fbd8c" stroke="none" stroke-width="1" stroke-linecap="butt"/><path d="M202.97499,267.8293l-1.3,6.9l-4.9,-2.2l-2.6,3l-0.6,-8.2z" fill="#0fbd8c" stroke="none" stroke-width="1" stroke-linecap="butt"/><path d="M166.57499,266.9293c0,0 0.6,-2.1 1.7,-2.9c1.1,-0.8 2.7,-1.2 3.6,-1.2c0.7,0 3,0.5 3.9,1c1.6,0.9 1.7,3.1 1.7,3.1" fill="none" stroke="#ffffff" stroke-width="1.5" stroke-linecap="round"/><path d="M164.67499,264.6293c0,0 0.8,-2.7 2.3,-3.8c1.5,-1 3.6,-1.6 4.8,-1.6c1,0 4,0.6 5.2,1.3c2.1,1.2 2.3,4.1 2.3,4.1" fill="none" stroke="#ffffff" stroke-width="1.5" stroke-linecap="round"/><path d="M174.17499,270.0293c0,1 -0.8,1.8 -1.8,1.8c-1,0 -1.8,-0.8 -1.8,-1.8c0,-1 0.8,-1.8 1.8,-1.8c1,0 1.8,0.8 1.8,1.8z" fill="#ffffff" stroke="none" stroke-width="1" stroke-linecap="butt"/><path d="M168.97499,268.4293c0,0 0.4,-1.3 1.1,-1.8c0.7,-0.5 1.7,-0.8 2.2,-0.8c0.4,0 1.8,0.3 2.4,0.6c1,0.6 1.1,1.9 1.1,1.9" fill="none" stroke="#ffffff" stroke-width="1.5" stroke-linecap="round"/><g><path d="M341.97499,129.9293c0,18.3 -16.5,24.2 -36.9,24.2c-20.4,0 -36.9,-5.9 -36.9,-24.2c0,-8.6 2.4,-18.5 7.7,-26.5l-4.3,-14.5c-0.8,-2.7 2,-5.3 4.6,-4.2l14.3,6c4.2,-1.9 9,-3 14.6,-3c5.5,0 10.3,1.2 14.5,3.1l14.4,-6c2.6,-1.1 5.4,1.5 4.6,4.2l-4.4,14.7c5.3,8 7.8,17.7 7.8,26.2z" fill="#ff7319" stroke="none" stroke-width="1" stroke-linecap="butt"/><path d="M333.97499,141.5293c0,9.6 -12.9,12.7 -28.9,12.7c-16,0 -28.9,-3.1 -28.9,-12.7c0,-9.6 8.6,-22 28.9,-22c19.8,0 28.9,12.4 28.9,22z" fill="#ffffff" stroke="none" stroke-width="1" stroke-linecap="butt"/><path d="M301.77499,123.9293c0,-1.3 1.4,-1.7 3.2,-1.7c1.8,0 3.2,0.4 3.2,1.7c0,1.3 -1,2.9 -3.2,2.9c-2.1,0 -3.2,-1.7 -3.2,-2.9z" fill="#945600" stroke="#000000" stroke-width="1.5" stroke-linecap="butt"/><g fill="none" stroke="#000000" stroke-width="2.5" stroke-linecap="round"><path d="M299.57499,133.5293c3,0 5.5,-2.5 5.5,-5.5c0,-0.2 0,-0.2 0,-0.2c0,-0.2 0,-0.3 0,-0.3c0,0 0,0.1 0,0.3c0,0 0,0 0,0.2c0,3.1 2.5,5.5 5.5,5.5"/></g><path d="M290.07499,115.9293c0,-1.71208 1.38792,-3.1 3.1,-3.1c1.71208,0 3.1,1.38792 3.1,3.1c0,1.71208 -1.38792,3.1 -3.1,3.1c-1.71208,0 -3.1,-1.38792 -3.1,-3.1z" fill="#000000" stroke="none" stroke-width="1" stroke-linecap="butt"/><path d="M302.87499,115.9293c0,-1.71208 1.38792,-3.1 3.1,-3.1c1.71208,0 3.1,1.38792 3.1,3.1c0,1.71208 -1.38792,3.1 -3.1,3.1c-1.71208,0 -3.1,-1.38792 -3.1,-3.1z" fill="#000000" stroke="none" stroke-width="1" stroke-linecap="butt"/><path d="M282.57499,96.3293c-2.1,1.8 -3.8,3.5 -5.4,6.1l-3.9,-13.5c-0.3,-1.6 1.2,-3 2.8,-2.5l12.9,5.4c-2.9,1.2 -4.6,2.8 -6.4,4.5z" fill="#77500c" stroke="none" stroke-width="1" stroke-linecap="butt"/><path d="M321.47499,91.8293l12.9,-5.4c1.6,-0.5 3.1,0.9 2.8,2.5l-3.9,13.5c-1.6,-2.6 -3.3,-4.3 -5.4,-6.1c-1.8,-1.7 -3.5,-3.3 -6.4,-4.5z" fill="#77500c" stroke="none" stroke-width="1" stroke-linecap="butt"/></g><path d="M335.56588,137.21973v0" fill="#ffffff" stroke="none" stroke-width="1" stroke-linecap="butt"/><path d="M278.56588,137.21973" fill="#ffffff" stroke="none" stroke-width="1" stroke-linecap="butt"/><path d="M343.46588,129.31973c0,18.3 -16.5,24.2 -36.9,24.2c-20.4,0 -36.9,-5.9 -36.9,-24.2c0,-8.6 2.4,-18.5 7.7,-26.5l-4.3,-14.5c-0.8,-2.7 2,-5.3 4.6,-4.2l14.3,6c4.2,-1.9 9,-3 14.6,-3c5.5,0 10.3,1.2 14.5,3.1l14.4,-6c2.6,-1.1 5.4,1.5 4.6,4.2l-4.4,14.7c5.3,7.9 7.8,17.7 7.8,26.2z" fill="#ff7319" stroke="none" stroke-width="1" stroke-linecap="butt"/><path d="M335.46588,140.91973c0,9.6 -12.9,12.7 -28.9,12.7c-16,0 -28.9,-3.1 -28.9,-12.7c0,-9.6 8.6,-22.1 28.9,-22.1c19.8,0 28.9,12.5 28.9,22.1z" fill="#ffffff" stroke="none" stroke-width="1" stroke-linecap="butt"/><path d="M303.36588,123.21973c0,-1.3 1.4,-1.7 3.2,-1.7c1.8,0 3.2,0.4 3.2,1.7c0,1.3 -1,2.9 -3.2,2.9c-2.2,0 -3.2,-1.6 -3.2,-2.9z" fill="#945600" stroke="#000000" stroke-width="1.5" stroke-linecap="butt"/><path d="M317.56588,127.41973c0,3 -2.5,5.5 -5.5,5.5c-3,0 -5.5,-2.4 -5.5,-5.5c0,-0.2 0,-0.2 0,-0.2c0,-0.2 0,-0.3 0,-0.3c0,0 0,0.1 0,0.3c0,0 0,0 0,0.2c0,3 -2.5,5.5 -5.5,5.5c-3,0 -5.5,-2.4 -5.5,-5.5" fill="none" stroke="#000000" stroke-width="2.5" stroke-linecap="round"/><path d="M297.06588,112.11973c0,-1.71208 1.38792,-3.1 3.1,-3.1c1.71208,0 3.1,1.38792 3.1,3.1c0,1.71208 -1.38792,1.06861 -3.1,1.06861c-1.71208,0 -3.1,0.64347 -3.1,-1.06861z" fill="#000000" stroke="none" stroke-width="1" stroke-linecap="butt"/><path d="M309.86588,112.11973c0,-1.71208 1.38792,-3.1 3.1,-3.1c1.71208,0 3.1,1.38792 3.1,3.1c0,1.71208 -1.38792,3.1 -3.1,3.1c-1.71208,0 -3.1,-1.38792 -3.1,-3.1z" fill="#000000" stroke="none" stroke-width="1" stroke-linecap="butt"/><path d="M284.06588,95.61973c-2,1.8 -3.8,3.5 -5.3,6.1l-3.9,-13.5c-0.3,-1.6 1.2,-3 2.8,-2.5l12.9,5.4c-3,1.2 -4.6,2.8 -6.5,4.5z" fill="#77500c" stroke="none" stroke-width="1" stroke-linecap="butt"/><path d="M322.96588,91.11973l12.9,-5.4c1.6,-0.5 3.1,0.9 2.8,2.5l-3.8,13.6c-1.6,-2.6 -3.3,-4.3 -5.4,-6.1c-1.9,-1.8 -3.6,-3.4 -6.5,-4.6z" fill="#77500c" stroke="none" stroke-width="1" stroke-linecap="butt"/><path d="M309.49228,114.86577c0.94869,-0.31623 1.26491,0.63245 1.26491,0.63245l0.01285,0.37239c1.57553,1.58633 3.34172,2.03077 3.92005,-0.2987c0,0 0.24253,-0.97014 1.21267,-0.72761c0.97015,0.24254 0.72761,1.21268 0.72761,1.21268c-0.99871,3.97014 -4.6829,3.80433 -7.27455,1.22784l-0.496,-1.15414c0,0 -0.31623,-0.94868 0.63245,-1.26491z" fill-opacity="0.41569" fill="#000000" stroke="none" stroke-width="0.5" stroke-linecap="butt"/><path d="M296.68269,114.14126c0.94869,-0.31623 1.26491,0.63245 1.26491,0.63245l0.01285,0.37239c1.57553,1.58633 3.34172,2.03077 3.92005,-0.2987c0,0 0.24253,-0.97014 1.21267,-0.7276c0.97015,0.24254 0.72761,1.21267 0.72761,1.21267c-0.99871,3.97014 -4.6829,3.80433 -7.27455,1.22784l-0.496,-1.15414c0,0 -0.31623,-0.94868 0.63245,-1.26491z" fill-opacity="0.51765" fill="#000000" stroke="none" stroke-width="0.5" stroke-linecap="butt"/></g></g></svg>