<svg width="480px" height="360px" xmlns="http://www.w3.org/2000/svg"><rect x="216" y="124" width="80.5" height="80.5" fill-opacity="0"/><path fill="#F00" d="M265.150 163.021Q265.541 163.021 265.810 163.291Q266.080 163.560 266.080 163.951L266.080 163.951L266.080 165.517Q266.080 165.908 265.810 166.177Q265.541 166.446 265.150 166.446L265.150 166.446L255.755 166.446L255.755 175.841Q255.755 176.232 255.486 176.502Q255.217 176.771 254.826 176.771L254.826 176.771L253.309 176.771Q252.917 176.771 252.648 176.502Q252.379 176.232 252.379 175.841L252.379 175.841L252.379 166.446L242.985 166.446Q242.593 166.446 242.324 166.177Q242.055 165.908 242.055 165.517L242.055 165.517L242.055 163.951Q242.055 163.560 242.324 163.291Q242.593 163.021 242.985 163.021L242.985 163.021L252.379 163.021L252.379 153.627Q252.379 153.284 252.648 152.991Q252.917 152.697 253.309 152.697L253.309 152.697L254.826 152.697Q255.217 152.697 255.486 152.991Q255.755 153.284 255.755 153.627L255.755 153.627L255.755 163.021L265.150 163.021Z"/></svg>