<svg width="480px" height="360px" xmlns="http://www.w3.org/2000/svg"><rect x="216" y="124" width="80.5" height="80.5" fill-opacity="0"/><path fill="#F00" d="M264.807 148Q265.297 148 265.590 148.391Q265.884 148.783 265.688 149.223L265.688 149.223Q257.957 172.073 255.511 179.364L255.511 179.364Q255.266 180 254.630 180L254.630 180L252.379 180Q251.694 180 251.498 179.364L251.498 179.364Q250.960 177.798 248.758 171.339Q246.557 164.881 244.306 158.177Q242.055 151.474 241.272 149.223L241.272 149.223Q241.125 148.734 241.394 148.367Q241.664 148 242.153 148L242.153 148L243.768 148Q244.453 148 244.648 148.587L244.648 148.587L253.505 174.667Q260.942 152.648 262.312 148.587L262.312 148.587Q262.508 148 263.193 148L263.193 148L264.807 148Z"/></svg>