<svg version="1.1" xmlns="http://www.w3.org/2000/svg" xmlns:xlink="http://www.w3.org/1999/xlink" width="38.06082" height="38.45468" viewBox="0,0,38.06082,38.45468"><g transform="translate(-300.96959,-160.77266)"><g data-paper-data="{&quot;isPaintingLayer&quot;:true}" fill-rule="nonzero" stroke="#ffffff" stroke-width="1" stroke-linecap="butt" stroke-linejoin="miter" stroke-miterlimit="10" stroke-dasharray="" stroke-dashoffset="0" style="mix-blend-mode: normal"><path d="M301.50631,189.42211c0,-6.08306 0,-13.52681 0,-17.0266c0,-3.7552 5.51807,-8.90927 9.50323,-8.90927c3.68872,0 11.4921,0 17.81853,0c5.26261,0 9.50322,5.28128 9.50322,8.90927c0,3.37134 0,10.95388 0,17.0266c0,5.5065 -4.62113,9.30524 -8.71129,9.30524c-6.23028,0 -13.31966,0 -17.42257,0c-4.34704,0 -10.69112,-4.16725 -10.69112,-9.30524z" fill="#ffffff"/><path d="M301.46959,187.37465c0,-6.12202 0,-13.61344 0,-17.13565c0,-3.77925 5.5534,-8.96633 9.56408,-8.96633c3.71234,0 11.5657,0 17.93265,0c5.29631,0 9.56409,5.3151 9.56409,8.96633c0,3.39293 0,11.02405 0,17.13566c0,5.54177 -4.65073,9.36483 -8.76708,9.36483c-6.27018,0 -13.40497,0 -17.53415,0c-4.37488,0 -10.75959,-4.19393 -10.75959,-9.36483z" fill="#f9af36"/></g></g></svg>