<svg width="480px" height="360px" xmlns="http://www.w3.org/2000/svg"><rect x="216" y="124" width="80.5" height="80.5" fill-opacity="0"/><path fill="#F00" d="M246.018 147.657L246.018 147.657Q247.046 149.810 247.976 152.257Q248.905 154.703 249.884 159.156Q250.862 163.609 250.862 167.817Q250.862 172.024 249.884 176.502Q248.905 180.979 247.976 183.425Q247.046 185.872 246.018 187.976L246.018 187.976Q245.774 188.465 245.187 188.465L245.187 188.465L242.887 188.465Q242.544 188.465 242.373 188.196Q242.202 187.927 242.398 187.633L242.398 187.633Q242.495 187.437 242.667 187.095Q242.838 186.752 243.376 185.627Q243.914 184.502 244.379 183.278Q244.844 182.055 245.431 180.220Q246.018 178.385 246.434 176.526Q246.850 174.667 247.144 172.367Q247.437 170.067 247.437 167.817L247.437 167.817Q247.437 164.783 246.924 161.602Q246.410 158.422 245.651 156.098Q244.893 153.774 244.159 151.865Q243.425 149.957 242.887 148.979L242.887 148.979L242.398 148Q242.202 147.706 242.373 147.437Q242.544 147.168 242.887 147.168L242.887 147.168L245.187 147.168Q245.774 147.168 246.018 147.657Z"/></svg>