<svg width="480px" height="360px" xmlns="http://www.w3.org/2000/svg"><rect x="216" y="124" width="80.5" height="80.5" fill-opacity="0"/><path fill="#F00" d="M262.431 178.662L262.431 178.662Q262.431 178.714 262.482 179.023L262.482 179.023Q262.585 179.383 262.328 179.691Q262.071 180 261.659 180L261.659 180L257.698 180Q256.977 180 256.875 179.280L256.875 179.280Q256.772 178.817 256.720 178.662L256.720 178.662Q256.566 177.479 256.566 176.244L256.566 176.244L256.566 176.193Q256.103 177.531 254.971 178.559Q253.839 179.588 252.656 180.051Q251.473 180.514 250.444 180.514L250.444 180.514Q247.151 180.514 244.990 178.662L244.990 178.662Q242.521 176.553 242.521 172.797L242.521 172.797Q242.521 169.916 243.936 168.450Q245.350 166.984 248.180 165.955L248.180 165.955Q251.113 164.823 256.566 164.823L256.566 164.823L256.566 162.714Q256.566 161.376 254.148 161.376L254.148 161.376Q250.804 161.376 249.363 163.280L249.363 163.280Q249.003 163.846 248.334 163.537L248.334 163.537Q247.563 163.228 244.630 161.942L244.630 161.942Q244.322 161.788 244.193 161.428Q244.064 161.068 244.270 160.707L244.270 160.707Q245.608 158.444 248.257 157.055Q250.907 155.666 254.148 155.666L254.148 155.666Q257.749 155.666 259.961 157.621L259.961 157.621Q262.225 159.576 262.225 162.714L262.225 162.714L262.225 176.244Q262.225 177.479 262.431 178.662ZM256.566 171.871L256.566 171.871L256.566 169.608Q253.479 169.608 251.524 170.071L251.524 170.071Q249.981 170.379 249.106 170.945Q248.232 171.511 248.232 172.797L248.232 172.797Q248.232 173.929 248.695 174.341L248.695 174.341Q249.260 174.804 250.444 174.804L250.444 174.804Q252.039 174.804 253.736 174.006Q255.434 173.209 256.566 171.871Z"/></svg>