<svg width="480px" height="360px" xmlns="http://www.w3.org/2000/svg"><rect x="216" y="124" width="80.5" height="80.5" fill-opacity="0"/><path fill="#F00" d="M241.713 148L262.850 148Q263.242 148 263.511 148.269Q263.780 148.538 263.780 148.930L263.780 148.930L263.780 150.446Q263.780 150.838 263.511 151.107Q263.242 151.376 262.850 151.376L262.850 151.376L253.994 151.376L253.994 179.070Q253.994 179.462 253.725 179.731Q253.456 180 253.064 180L253.064 180L251.498 180Q251.107 180 250.838 179.731Q250.569 179.462 250.569 179.070L250.569 179.070L250.569 151.376L241.713 151.376Q241.321 151.376 241.052 151.107Q240.783 150.838 240.783 150.446L240.783 150.446L240.783 148.930Q240.783 148.538 241.052 148.269Q241.321 148 241.713 148L241.713 148Z"/></svg>