<svg width="480px" height="360px" xmlns="http://www.w3.org/2000/svg"><rect x="216" y="124" width="80.5" height="80.5" fill-opacity="0"/><path fill="#F00" d="M269.704 148.782L269.704 148.782Q269.704 149.124 270.095 149.515L270.095 149.515Q269.557 152.934 267.530 164.464Q265.502 175.994 264.818 179.658L264.818 179.658Q264.818 180.049 264.427 180.391L264.427 180.391Q264.330 180.391 264.061 180.489Q263.792 180.586 263.695 180.586L263.695 180.586L260.959 180.586Q260.421 180.586 260.275 180.195L260.275 180.195L249.185 154.400L244.641 179.853Q244.641 180.244 244.299 180.513Q243.957 180.782 243.518 180.782L243.518 180.782L241.905 180.782Q241.515 180.782 241.344 180.586Q241.173 180.391 241.173 179.853L241.173 179.853Q241.710 176.434 243.713 164.879Q245.716 153.325 246.449 149.661L246.449 149.661Q246.449 149.270 246.766 149.026Q247.084 148.782 247.524 148.782L247.524 148.782L250.064 148.782Q250.602 148.782 250.797 149.124L250.797 149.124L261.887 174.968L266.431 149.515Q266.431 149.075 266.773 148.831Q267.115 148.586 267.505 148.586L267.505 148.586L269.166 148.586Q269.508 148.586 269.704 148.782Z"/></svg>