<svg width="480px" height="360px" xmlns="http://www.w3.org/2000/svg"><rect x="216" y="124" width="80.5" height="80.5" fill-opacity="0"/><path fill="#F00" d="M280.746 153.145L280.746 153.145Q285.119 158.186 285.119 167.653L285.119 167.653Q285.119 175.267 280.643 178.611L280.643 178.611Q278.791 180 276.399 180.334Q274.006 180.669 272.309 180.103L272.309 180.103Q269.633 179.331 268.502 177.531L268.502 177.531Q268.450 177.479 268.399 177.376L268.399 177.376Q265.312 180.514 261.402 180.514L261.402 180.514Q256.977 180.514 254.482 176.862Q251.987 173.209 252.553 167.704L252.553 167.704Q253.119 162.457 256.206 158.907Q259.293 155.357 263.460 155.357L263.460 155.357Q266.907 155.357 269.376 157.775L269.376 157.775L269.479 156.900Q269.479 156.746 269.556 156.592Q269.633 156.437 269.762 156.334Q269.891 156.232 270.045 156.180Q270.199 156.129 270.405 156.129L270.405 156.129Q270.817 156.180 272.283 156.309Q273.749 156.437 274.367 156.489L274.367 156.489Q274.521 156.489 274.675 156.566Q274.830 156.643 274.932 156.772Q275.035 156.900 275.087 157.055Q275.138 157.209 275.138 157.415L275.138 157.415L274.932 159.370L273.646 174.495Q274.315 174.752 274.778 174.752L274.778 174.752Q276.682 174.855 278.071 173.106Q279.460 171.357 279.460 167.653L279.460 167.653Q279.460 160.296 276.476 156.900L276.476 156.900Q274.521 154.688 271.563 153.942Q268.605 153.196 264.489 153.196L264.489 153.196Q260.733 153.196 257.260 155.151Q253.788 157.106 251.524 160.502Q249.260 163.897 249.055 167.807L249.055 167.807Q248.643 174.495 251.781 177.994L251.781 177.994Q255.537 182.109 264.489 182.109L264.489 182.109L266.495 182.109Q266.855 182.109 267.087 182.367Q267.318 182.624 267.318 182.984L267.318 182.984L267.318 186.945Q267.318 187.305 267.087 187.563Q266.855 187.820 266.495 187.820L266.495 187.820L264.489 187.820Q253.016 187.820 247.563 181.801L247.563 181.801Q242.778 176.553 243.344 167.498L243.344 167.498Q243.653 162.096 246.765 157.466Q249.878 152.836 254.611 150.161Q259.344 147.486 264.489 147.486L264.489 147.486Q275.807 147.486 280.746 153.145ZM268.347 167.704L268.347 167.704Q268.605 164.977 267.498 163.023Q266.392 161.068 264.334 161.068L264.334 161.068Q262.019 161.068 260.296 163.203Q258.572 165.338 258.264 168.270L258.264 168.270Q258.058 170.071 258.469 171.563Q258.881 173.055 259.884 173.981Q260.887 174.907 262.277 174.907L262.277 174.907Q264.540 174.907 266.289 172.772Q268.039 170.637 268.347 167.704Z"/></svg>