<svg width="480px" height="360px" xmlns="http://www.w3.org/2000/svg"><rect x="216" y="124" width="80.5" height="80.5" fill-opacity="0"/><path fill="#F00" d="M246.894 150.675Q247.254 150.675 247.511 150.932Q247.768 151.190 247.768 151.550L247.768 151.550L247.768 155.768Q247.768 156.129 247.511 156.386Q247.254 156.643 246.894 156.643L246.894 156.643L242.932 156.643Q242.572 156.643 242.315 156.386Q242.058 156.129 242.058 155.768L242.058 155.768Q242.109 154.019 242.109 152.682L242.109 152.682Q242.161 151.190 242.984 149.955L242.984 149.955Q244.270 148.154 244.682 147.588L244.682 147.588Q244.939 147.228 245.350 147.203Q245.762 147.177 246.019 147.537L246.019 147.537Q246.277 147.794 246.482 148.051L246.482 148.051Q246.945 148.617 246.431 149.183L246.431 149.183Q245.505 150.161 245.196 150.675L245.196 150.675L246.894 150.675Z"/></svg>