<svg width="480px" height="360px" xmlns="http://www.w3.org/2000/svg"><rect x="216" y="124" width="80.5" height="80.5" fill-opacity="0"/><path fill="#F00" d="M260.257 161.847L259.865 162.043Q260.110 162.141 260.502 162.336Q260.893 162.532 261.945 163.217Q262.997 163.902 263.780 164.783Q264.563 165.664 265.199 167.156Q265.835 168.648 265.835 170.361L265.835 170.361Q265.835 174.373 263.021 177.187Q260.208 180 256.245 180L256.245 180L244.795 180Q244.404 180 244.135 179.731Q243.865 179.462 243.865 179.070L243.865 179.070L243.865 148.930Q243.865 148.538 244.135 148.269Q244.404 148 244.795 148L244.795 148L255.657 148Q258.985 148 261.358 150.349Q263.731 152.697 263.731 156.073L263.731 156.073Q263.731 157.248 263.339 158.300Q262.948 159.352 262.361 160.012Q261.774 160.673 261.211 161.162Q260.648 161.651 260.257 161.847L260.257 161.847ZM255.657 151.376L247.291 151.376L247.291 160.771L255.657 160.771Q257.615 160.771 258.985 159.376Q260.355 157.982 260.355 156.049Q260.355 154.116 258.985 152.746Q257.615 151.376 255.657 151.376L255.657 151.376ZM247.291 176.575L256.245 176.575Q258.789 176.575 260.624 174.765Q262.459 172.954 262.459 170.385Q262.459 167.817 260.624 165.982Q258.789 164.147 256.245 164.147L256.245 164.147L247.291 164.147L247.291 176.575Z"/></svg>