<svg width="480px" height="360px" xmlns="http://www.w3.org/2000/svg"><rect x="216" y="124" width="80.5" height="80.5" fill-opacity="0"/><path fill="#F00" d="M276.836 148Q277.248 148 277.505 148.309Q277.762 148.617 277.659 149.029L277.659 149.029Q277.299 150.675 276.193 155.305Q275.087 159.936 273.981 164.566Q272.875 169.196 271.820 173.595Q270.765 177.994 270.457 179.331L270.457 179.331Q270.302 180 269.633 180L269.633 180L265.106 180Q264.437 180 264.283 179.331L264.283 179.331L259.704 160.244Q259.293 161.994 258.650 164.695Q258.006 167.395 256.772 172.617Q255.537 177.839 255.177 179.331L255.177 179.331Q255.023 180 254.354 180L254.354 180L249.826 180Q249.158 180 249.003 179.331L249.003 179.331Q248.489 177.222 245.402 164.283Q242.315 151.344 241.749 149.029L241.749 149.029Q241.698 148.617 241.955 148.309Q242.212 148 242.624 148L242.624 148L246.688 148Q247.357 148 247.563 148.617L247.563 148.617L252.090 167.704Q255.846 152.064 256.617 148.617L256.617 148.617Q256.823 148 257.492 148L257.492 148L261.968 148Q262.637 148 262.791 148.617L262.791 148.617L267.370 167.704Q271.074 152.064 271.897 148.617L271.897 148.617Q272.051 148 272.720 148L272.720 148L276.836 148Z"/></svg>