<svg width="480px" height="360px" xmlns="http://www.w3.org/2000/svg"><rect x="216" y="124" width="80.5" height="80.5" fill-opacity="0"/><path fill="#F00" d="M265.569 168.630L265.569 168.630Q265.569 168.630 265.569 169.093L265.569 169.093Q265.569 169.350 265.569 169.608L265.569 169.608Q265.569 174.598 263.254 177.222L263.254 177.222Q260.527 180.412 254.662 180.514L254.662 180.514L254.559 180.514Q248.643 180.412 245.916 177.222L245.916 177.222Q243.807 174.804 243.653 170.482L243.653 170.482Q242.675 157.363 248.180 151.498L248.180 151.498Q249.518 150.058 251.190 149.132Q252.862 148.206 254.251 147.923Q255.640 147.640 256.952 147.511Q258.264 147.383 258.932 147.537L258.932 147.537Q259.344 147.588 259.550 147.897Q259.756 148.206 259.678 148.566Q259.601 148.926 259.498 149.492Q259.395 150.058 259.293 150.547Q259.190 151.035 259.061 151.601Q258.932 152.167 258.881 152.476L258.881 152.476Q258.727 153.196 258.006 153.196L258.006 153.196Q254.559 153.042 252.347 155.408L252.347 155.408Q251.524 156.283 250.444 158.109Q249.363 159.936 249.312 161.325L249.312 161.325Q250.032 160.347 251.756 159.524Q253.479 158.701 254.662 158.650L254.662 158.650Q254.868 158.598 255.254 158.572Q255.640 158.547 256.772 158.547Q257.904 158.547 258.958 158.778Q260.013 159.010 261.273 159.678Q262.534 160.347 263.434 161.376Q264.334 162.405 264.952 164.283Q265.569 166.161 265.569 168.630ZM259.859 169.608L259.859 169.608Q259.859 169.402 259.859 169.248L259.859 169.248L259.859 168.990Q259.859 168.836 259.859 168.630L259.859 168.630Q259.859 165.749 258.984 164.720L258.984 164.720Q257.904 163.486 254.611 163.434L254.611 163.434Q251.267 163.486 250.238 164.720L250.238 164.720Q249.312 165.749 249.312 168.630L249.312 168.630Q249.312 168.836 249.312 168.990L249.312 168.990L249.260 168.990L249.260 169.196L249.312 169.248Q249.312 169.402 249.312 169.608L249.312 169.608Q249.312 172.489 250.238 173.518L250.238 173.518Q251.267 174.752 254.611 174.804L254.611 174.804Q257.904 174.752 258.984 173.518L258.984 173.518Q259.859 172.489 259.859 169.608Z"/></svg>