<svg width="480px" height="360px" xmlns="http://www.w3.org/2000/svg"><rect x="216" y="124" width="80.5" height="80.5" fill-opacity="0"/><path fill="#F00" d="M257.389 148Q257.749 148 257.981 148.232Q258.212 148.463 258.264 148.823L258.264 148.823L258.264 173.826Q258.264 176.605 256.180 178.559Q254.096 180.514 250.547 180.514L250.547 180.514Q247.305 180.514 245.145 179.254Q242.984 177.994 241.286 175.267L241.286 175.267Q241.080 174.958 241.158 174.624Q241.235 174.289 241.543 174.084L241.543 174.084Q242.521 173.518 245.042 172.077L245.042 172.077Q245.711 171.717 246.174 172.334L246.174 172.334Q247.974 174.804 250.547 174.804L250.547 174.804Q252.553 174.804 252.553 173.826L252.553 173.826L252.553 148.823Q252.553 148.463 252.785 148.232Q253.016 148 253.376 148L253.376 148L257.389 148Z"/></svg>