<svg width="480px" height="360px" xmlns="http://www.w3.org/2000/svg"><rect x="216" y="124" width="80.5" height="80.5" fill-opacity="0"/><path fill="#F00" d="M263.597 151.176L263.597 151.176Q263.988 151.566 263.988 151.933Q263.988 152.299 263.597 152.641L263.597 152.641Q262.522 153.374 262.131 153.716L262.131 153.716Q261.496 154.351 260.861 153.716L260.861 153.716Q258.174 150.980 254.901 150.980L254.901 150.980Q253.289 150.980 251.774 151.762Q250.260 152.544 249.258 153.838Q248.256 155.133 247.963 156.647L247.963 156.647Q247.231 159.481 249.624 161.191L249.624 161.191Q250.113 161.631 250.870 162.046Q251.627 162.461 252.263 162.754Q252.898 163.047 253.802 163.438Q254.705 163.829 255.243 164.073L255.243 164.073Q258.125 165.490 259.493 167.176Q260.861 168.861 260.324 171.548L260.324 171.548Q259.786 174.821 257.173 177.362Q254.559 179.902 251.237 180.440L251.237 180.440L250.699 183.566Q250.699 183.908 250.357 184.299L250.357 184.299Q250.260 184.299 249.966 184.373Q249.673 184.446 249.624 184.446L249.624 184.446L247.963 184.446Q247.231 184.446 247.231 183.566L247.231 183.566L247.768 180.440Q243.762 179.805 241.221 177.020L241.221 177.020Q241.075 176.824 241.075 176.287L241.075 176.287Q241.075 175.896 241.417 175.554L241.417 175.554Q241.612 175.359 242.052 174.992Q242.492 174.626 242.687 174.479L242.687 174.479Q243.322 173.844 243.957 174.479L243.957 174.479Q245.081 175.847 246.791 176.507Q248.501 177.166 249.966 177.166L249.966 177.166Q252.409 177.166 254.437 175.530Q256.464 173.893 256.855 171.548L256.855 171.548Q257.344 169.887 255.780 168.617L255.780 168.617Q254.705 167.737 251.432 166.272L251.432 166.272Q250.455 165.832 249.673 165.441Q248.892 165.050 248.061 164.513Q247.231 163.976 246.669 163.438Q246.107 162.901 245.545 162.168Q244.983 161.435 244.763 160.629Q244.544 159.823 244.397 158.797Q244.250 157.771 244.495 156.647L244.495 156.647Q245.081 153.374 247.695 150.834Q250.308 148.293 253.631 147.707L253.631 147.707L254.168 144.629Q254.168 144.287 254.510 143.896L254.510 143.896Q254.608 143.896 254.876 143.823Q255.145 143.750 255.243 143.750L255.243 143.750L256.855 143.750Q257.246 143.750 257.417 143.921Q257.588 144.092 257.588 144.629L257.588 144.629L257.050 147.707Q261.056 148.391 263.597 151.176Z"/></svg>