<svg width="480px" height="360px" xmlns="http://www.w3.org/2000/svg"><rect x="216" y="124" width="80.5" height="80.5" fill-opacity="0"/><path fill="#F00" d="M260.527 161.942L260.064 161.994Q260.322 162.045 260.785 162.174Q261.248 162.302 262.405 162.894Q263.563 163.486 264.463 164.283Q265.363 165.080 266.109 166.547Q266.855 168.013 266.855 169.865L266.855 169.865Q266.855 174.084 263.871 177.042Q260.887 180 256.720 180L256.720 180L244.939 180Q244.579 180 244.322 179.743Q244.064 179.486 244.064 179.125L244.064 179.125L244.064 148.823Q244.064 148.463 244.322 148.232Q244.579 148 244.939 148L244.939 148L256.206 148Q258.572 148 260.579 149.158Q262.585 150.315 263.743 152.322Q264.900 154.328 264.900 156.695L264.900 156.695Q264.900 158.084 264.412 159.138Q263.923 160.193 263.203 160.707Q262.482 161.222 261.762 161.556Q261.042 161.891 260.527 161.942L260.527 161.942ZM256.206 153.659L249.775 153.659L249.775 159.730L256.206 159.730Q257.441 159.730 258.341 158.830Q259.241 157.929 259.241 156.695Q259.241 155.460 258.341 154.559Q257.441 153.659 256.206 153.659L256.206 153.659ZM249.775 174.289L256.720 174.289Q258.572 174.289 259.859 173.003Q261.145 171.717 261.145 169.865L261.145 169.865Q261.145 168.682 260.553 167.653Q259.961 166.624 258.932 166.032Q257.904 165.441 256.720 165.441L256.720 165.441L249.775 165.441L249.775 174.289Z"/></svg>