<svg width="480px" height="360px" xmlns="http://www.w3.org/2000/svg"><rect x="216" y="124" width="80.5" height="80.5" fill-opacity="0"/><path fill="#F00" d="M259.293 156.180L263.305 156.180Q263.666 156.180 263.897 156.437Q264.129 156.695 264.129 157.055L264.129 157.055L264.129 179.125Q264.129 179.486 263.897 179.743Q263.666 180 263.305 180L263.305 180L259.293 180Q258.932 180 258.701 179.743Q258.469 179.486 258.469 179.125L258.469 179.125L258.469 177.325Q255.177 180.617 250.598 180.514L250.598 180.514Q243.395 180.309 243.395 168.630L243.395 168.630L243.395 157.055Q243.395 156.695 243.653 156.437Q243.910 156.180 244.270 156.180L244.270 156.180L248.232 156.180Q248.592 156.180 248.849 156.437Q249.106 156.695 249.106 157.055L249.106 157.055L249.106 168.630Q249.106 171.305 250.135 173.029Q251.164 174.752 253.016 174.804L253.016 174.804Q254.251 174.804 255.254 174.392Q256.257 173.981 256.900 173.260Q257.543 172.540 257.878 172Q258.212 171.460 258.469 170.894L258.469 170.894L258.469 157.055Q258.469 156.695 258.701 156.437Q258.932 156.180 259.293 156.180L259.293 156.180Z"/></svg>