<svg width="480px" height="360px" xmlns="http://www.w3.org/2000/svg"><rect x="216" y="124" width="80.5" height="80.5" fill-opacity="0"/><path fill="#F00" d="M256.073 156.843L256.073 156.843Q256.073 156.892 256.171 157.111Q256.269 157.331 256.269 157.576L256.269 157.576Q256.269 157.820 256.171 158.357Q256.073 158.895 256.073 159.188L256.073 159.188Q256.073 159.579 255.731 159.921L255.731 159.921Q255.634 159.921 255.365 160.018Q255.096 160.116 254.998 160.116L254.998 160.116L249.527 160.116L246.840 175.017Q246.498 175.945 246.986 176.482L246.986 176.482Q247.719 177.166 248.647 177.166L248.647 177.166Q249.869 177.166 251.530 176.482L251.530 176.482Q252.360 176.189 252.653 177.020L252.653 177.020Q252.702 177.264 252.800 177.777Q252.898 178.290 252.995 178.485L252.995 178.485Q252.995 179.023 252.800 179.169L252.800 179.169Q252.800 179.267 252.751 179.340Q252.702 179.414 252.629 179.463Q252.556 179.511 252.434 179.585Q252.311 179.658 252.263 179.756L252.263 179.756Q249.136 180.879 247.719 180.635L247.719 180.635Q245.374 180.391 244.104 178.827L244.104 178.827Q243.029 177.508 243.371 175.017L243.371 175.017L246.107 160.116L244.250 160.116Q243.566 160.116 243.566 159.188L243.566 159.188Q243.566 158.895 243.640 158.357Q243.713 157.820 243.713 157.576L243.713 157.576Q243.713 157.185 244.055 156.916Q244.397 156.647 244.837 156.647L244.837 156.647L246.644 156.647L247.719 150.638Q247.719 150.296 248.110 149.905L248.110 149.905Q248.159 149.905 248.452 149.832Q248.745 149.759 248.794 149.759L248.794 149.759L250.455 149.759Q250.797 149.759 250.992 149.930Q251.188 150.101 251.188 150.638L251.188 150.638L250.064 156.647L255.536 156.647Q255.927 156.647 256.073 156.843Z"/></svg>