<svg width="480px" height="360px" xmlns="http://www.w3.org/2000/svg"><rect x="216" y="124" width="80.5" height="80.5" fill-opacity="0"/><path fill="#F00" d="M265.518 160.244Q265.878 160.244 266.135 160.502Q266.392 160.759 266.392 161.119L266.392 161.119L266.392 161.428Q266.392 163.949 265.492 166.006Q264.592 168.064 262.894 169.299Q261.196 170.534 258.932 170.534L258.932 170.534Q256.772 170.534 254.765 168.836L254.765 168.836Q254.457 168.579 253.814 167.910Q253.170 167.241 252.810 166.932L252.810 166.932Q251.678 165.904 250.392 165.904L250.392 165.904Q249.621 165.904 249.029 166.341Q248.437 166.778 248.103 167.524Q247.768 168.270 247.768 169.093L247.768 169.093L247.768 169.711Q247.768 170.071 247.511 170.302Q247.254 170.534 246.894 170.534L246.894 170.534L242.932 170.534Q242.572 170.534 242.315 170.302Q242.058 170.071 242.058 169.711L242.058 169.711L242.058 169.093Q242.058 165.595 244.296 163.048Q246.534 160.502 249.723 160.244L249.723 160.244L251.164 160.244Q252.090 160.244 253.016 160.579Q253.942 160.913 254.611 161.428Q255.280 161.942 255.949 162.534Q256.617 163.125 257.106 163.640Q257.595 164.154 258.084 164.514Q258.572 164.875 258.932 164.875L258.932 164.875Q259.756 164.875 260.219 163.871Q260.682 162.868 260.682 161.428L260.682 161.428L260.682 161.119Q260.682 160.759 260.939 160.502Q261.196 160.244 261.556 160.244L261.556 160.244L265.518 160.244Z"/></svg>