<svg width="480px" height="360px" xmlns="http://www.w3.org/2000/svg"><rect x="216" y="124" width="80.5" height="80.5" fill-opacity="0"/><path fill="#F00" d="M264.746 148L268.759 148Q269.119 148 269.376 148.232Q269.633 148.463 269.633 148.823L269.633 148.823L269.633 179.125Q269.633 179.486 269.376 179.743Q269.119 180 268.759 180L268.759 180L264.746 180Q264.437 180 264.180 179.743Q263.923 179.486 263.923 179.125L263.923 179.125L263.923 166.830L249.775 166.830L249.775 179.125Q249.775 179.486 249.518 179.743Q249.260 180 248.900 180L248.900 180L244.939 180Q244.682 180 244.476 179.897Q244.270 179.794 244.167 179.588Q244.064 179.383 244.064 179.125L244.064 179.125L244.064 148.823Q244.064 148.463 244.322 148.232Q244.579 148 244.939 148L244.939 148L248.900 148Q249.260 148 249.518 148.232Q249.775 148.463 249.775 148.823L249.775 148.823L249.775 161.119L263.923 161.119L263.923 148.823Q263.923 148.463 264.180 148.232Q264.437 148 264.746 148L264.746 148Z"/></svg>