<svg width="480px" height="360px" xmlns="http://www.w3.org/2000/svg"><rect x="216" y="124" width="80.5" height="80.5" fill-opacity="0"/><path fill="#F00" d="M267.847 150.589L267.847 150.589Q271.511 154.498 269.508 163.145L269.508 163.145Q269.508 163.292 269.411 163.560Q269.313 163.829 269.313 164.024Q269.313 164.220 269.240 164.489Q269.166 164.757 269.166 164.953L269.166 164.953Q267.652 173.747 262.962 177.508L262.962 177.508Q261.350 178.583 260.959 178.779L260.959 178.779Q261.203 178.974 261.643 179.340Q262.082 179.707 263.060 180.537Q264.037 181.368 264.623 181.856L264.623 181.856Q264.965 182.198 264.965 182.589L264.965 182.589Q264.965 183.127 264.769 183.322L264.769 183.322Q264.427 183.860 263.499 184.739L263.499 184.739Q262.864 185.374 262.229 184.739L262.229 184.739L256.953 180.195Q254.803 180.586 253.337 180.586L253.337 180.586Q247.133 180.342 244.592 177.508L244.592 177.508Q242.785 175.652 242.394 172.354Q242.003 169.056 242.785 164.953L242.785 164.953Q242.785 164.757 242.882 164.489Q242.980 164.220 242.980 164.049Q242.980 163.878 243.053 163.585Q243.127 163.292 243.127 163.145L243.127 163.145Q244.592 154.302 249.331 150.589L249.331 150.589Q253.337 147.511 259.151 147.511L259.151 147.511Q265.307 147.756 267.847 150.589ZM266.235 163.145L266.235 163.145Q267.750 155.817 265.160 152.934L265.160 152.934Q263.255 150.785 258.614 150.785L258.614 150.785Q254.070 150.785 251.334 152.934L251.334 152.934Q247.817 155.719 246.595 163.145L246.595 163.145Q246.400 163.292 246.400 163.829L246.400 163.829L246.400 164.024Q246.400 164.122 246.327 164.391Q246.253 164.660 246.253 164.757L246.253 164.757Q245.569 168.031 245.765 170.718Q245.960 173.405 247.328 174.968L247.328 174.968Q249.234 177.118 253.875 177.118L253.875 177.118Q258.418 177.118 261.154 174.968L261.154 174.968Q264.623 172.134 265.893 164.757L265.893 164.757Q266.040 164.562 266.040 164.024L266.040 164.024L266.040 163.829Q266.040 163.780 266.137 163.487Q266.235 163.194 266.235 163.145Z"/></svg>