<svg width="480px" height="360px" xmlns="http://www.w3.org/2000/svg"><rect x="216" y="124" width="80.5" height="80.5" fill-opacity="0"/><path fill="#F00" d="M262.327 158.650L262.327 158.650Q262.424 158.650 262.547 158.821Q262.669 158.992 262.864 158.992L262.864 158.992Q262.864 159.383 262.522 159.725L262.522 159.725Q262.376 159.969 262.131 160.189Q261.887 160.409 261.618 160.653Q261.350 160.898 261.252 160.995L261.252 160.995Q260.519 161.728 259.982 161.191L259.982 161.191Q258.223 159.725 255.780 159.725L255.780 159.725Q251.774 159.725 249.624 161.386L249.624 161.386Q248.110 162.510 247.377 164.195Q246.644 165.881 246.156 168.470L246.156 168.470L246.156 168.666Q245.618 170.571 245.765 172.501Q245.911 174.431 247.084 175.554L247.084 175.554Q248.403 177.166 252.507 177.166L252.507 177.166Q254.754 177.166 257.050 175.750L257.050 175.750Q258.076 175.408 258.321 175.896L258.321 175.896Q258.809 176.140 259.249 177.020L259.249 177.020Q259.444 177.166 259.444 177.753L259.444 177.753Q259.249 178.095 258.858 178.485L258.858 178.485Q255.585 180.635 251.969 180.635L251.969 180.635Q246.693 180.635 244.348 178.290L244.348 178.290Q241.466 175.408 242.687 168.666L242.687 168.666L242.687 168.470Q243.908 161.728 247.768 158.846L247.768 158.846Q250.748 156.452 256.171 156.452L256.171 156.452Q259.542 156.452 262.327 158.650Z"/></svg>