<svg width="480px" height="360px" xmlns="http://www.w3.org/2000/svg"><rect x="216" y="124" width="80.5" height="80.5" fill-opacity="0"/><path fill="#F00" d="M256.904 156.452L256.904 156.452Q260.763 156.452 262.840 159.603Q264.916 162.754 263.988 167.737L263.988 167.737Q262.962 173.649 259.591 177.044Q256.220 180.440 252.507 180.440L252.507 180.440Q247.963 180.440 245.423 177.899L245.423 177.899L243.811 186.986Q243.811 187.426 243.469 187.670Q243.127 187.915 242.687 187.915L242.687 187.915L241.075 187.915Q240.342 187.915 240.342 186.986L240.342 186.986Q240.733 184.739 242.907 172.476Q245.081 160.214 245.423 157.918L245.423 157.918Q245.423 157.527 245.765 157.258Q246.107 156.989 246.547 156.989L246.547 156.989L248.159 156.989Q248.892 156.989 248.892 157.918L248.892 157.918L248.696 159.383Q252.263 156.452 256.904 156.452ZM260.519 167.933L260.519 167.933Q261.203 164.366 259.982 162.144Q258.760 159.921 256.171 159.921L256.171 159.921Q254.412 159.921 252.800 160.580Q251.188 161.240 250.137 162.266Q249.087 163.292 248.501 164.049Q247.915 164.806 247.621 165.392L247.621 165.392L246.351 172.818Q248.110 177.166 253.093 177.166L253.093 177.166Q255.585 177.166 257.661 174.675Q259.737 172.183 260.519 167.933Z"/></svg>