<svg width="480px" height="360px" xmlns="http://www.w3.org/2000/svg"><rect x="216" y="124" width="80.5" height="80.5" fill-opacity="0"/><path fill="#F00" d="M248.900 147.486L248.900 147.486Q250.701 147.486 252.219 148.360Q253.736 149.235 254.637 150.752Q255.537 152.270 255.537 154.071L255.537 154.071Q255.537 156.797 253.582 158.727Q251.627 160.656 248.900 160.656Q246.174 160.656 244.244 158.727Q242.315 156.797 242.315 154.071Q242.315 151.344 244.244 149.415Q246.174 147.486 248.900 147.486ZM248.283 154.714Q248.540 154.997 248.926 154.997Q249.312 154.997 249.569 154.714Q249.826 154.431 249.826 154.071Q249.826 153.711 249.569 153.453Q249.312 153.196 248.926 153.196Q248.540 153.196 248.283 153.453Q248.026 153.711 248.026 154.071Q248.026 154.431 248.283 154.714Z"/></svg>