<svg width="480px" height="360px" xmlns="http://www.w3.org/2000/svg"><rect x="216" y="124" width="80.5" height="80.5" fill-opacity="0"/><path fill="#F00" d="M257.286 162.765L257.286 162.765Q264.952 165.595 264.952 170.842L264.952 170.842Q264.952 174.752 261.711 177.633Q258.469 180.514 253.839 180.514L253.839 180.514Q251.576 180.514 248.437 179.460Q245.299 178.405 243.035 176.553L243.035 176.553Q242.727 176.347 242.727 175.987Q242.727 175.627 242.984 175.318L242.984 175.318Q244.682 173.466 245.711 172.437L245.711 172.437Q246.225 171.820 246.842 172.334L246.842 172.334Q247.614 172.952 248.592 173.415Q249.569 173.878 250.495 174.186Q251.421 174.495 252.296 174.650Q253.170 174.804 253.839 174.804L253.839 174.804Q254.920 174.804 255.897 174.521Q256.875 174.238 257.621 173.723Q258.367 173.209 258.804 172.463Q259.241 171.717 259.241 170.842L259.241 170.842Q259.241 170.071 258.058 169.350L258.058 169.350Q256.926 168.682 252.913 167.293L252.913 167.293Q248.489 165.749 246.482 164.257L246.482 164.257Q242.727 161.531 242.727 157.158L242.727 157.158Q242.727 155.254 243.601 153.479Q244.476 151.704 245.942 150.392Q247.408 149.080 249.492 148.283Q251.576 147.486 253.891 147.486L253.891 147.486Q255.331 147.486 257.158 147.871Q258.984 148.257 261.042 149.183Q263.100 150.109 264.643 151.344L264.643 151.344Q264.952 151.550 264.977 151.910Q265.003 152.270 264.746 152.579L264.746 152.579Q262.482 154.945 261.916 155.511L261.916 155.511Q261.453 156.077 260.836 155.614L260.836 155.614Q257.235 153.196 253.891 153.196L253.891 153.196Q251.678 153.196 250.058 154.328Q248.437 155.460 248.437 157.183Q248.437 158.907 250.598 160.141L250.598 160.141Q251.473 160.656 252.527 161.068Q253.582 161.479 255.177 162.045Q256.772 162.611 257.286 162.765Z"/></svg>