<svg width="480px" height="360px" xmlns="http://www.w3.org/2000/svg"><rect x="216" y="124" width="80.5" height="80.5" fill-opacity="0"/><path fill="#F00" d="M259.982 148.586L259.982 148.586Q260.861 152.250 263.304 163.682Q265.747 175.115 266.333 178.779L266.333 178.779Q266.577 179.267 266.186 179.658L266.186 179.658Q265.453 180.049 265.258 180.049L265.258 180.049L263.597 180.049Q262.913 180.049 262.913 179.511L262.913 179.511L261.252 171.695L246.156 171.695Q242.882 177.655 241.808 179.511L241.808 179.511Q241.515 180.049 240.879 180.049L240.879 180.049L239.267 180.049Q238.876 180.049 238.534 179.658L238.534 179.658Q238.534 178.925 238.730 178.779L238.730 178.779Q240.049 176.336 243.811 169.789Q247.573 163.243 251.456 156.476Q255.340 149.710 255.976 148.586L255.976 148.586Q256.269 148.049 256.904 148.049L256.904 148.049L259.249 148.049Q259.982 148.049 259.982 148.586ZM257.246 152.592L248.354 168.226L260.715 168.226L257.246 152.592Z"/></svg>