<svg width="480px" height="360px" xmlns="http://www.w3.org/2000/svg"><rect x="216" y="124" width="80.5" height="80.5" fill-opacity="0"/><path fill="#F00" d="M253.191 147.169Q253.582 147.169 253.753 147.365Q253.924 147.560 253.924 148.293L253.924 148.293Q253.435 151.371 250.431 168.495Q247.426 185.618 247.035 187.915L247.035 187.915Q247.035 188.256 246.644 188.647L246.644 188.647Q246.595 188.647 246.302 188.745Q246.009 188.843 245.960 188.843L245.960 188.843L238.681 188.843Q237.948 188.843 237.948 187.915L237.948 187.915Q237.948 187.621 238.046 187.084Q238.144 186.547 238.144 186.253L238.144 186.253Q238.144 185.911 238.485 185.569L238.485 185.569Q238.583 185.569 238.852 185.472Q239.121 185.374 239.218 185.374L239.218 185.374L243.957 185.374L250.113 150.638L245.374 150.638Q245.032 150.638 244.861 150.467Q244.690 150.296 244.690 149.710L244.690 149.710Q244.690 149.466 244.763 148.928Q244.837 148.391 244.837 148.098L244.837 148.098Q244.837 147.707 245.179 147.438Q245.521 147.169 245.960 147.169L245.960 147.169L253.191 147.169Z"/></svg>