<svg width="480px" height="360px" xmlns="http://www.w3.org/2000/svg"><rect x="216" y="124" width="80.5" height="80.5" fill-opacity="0"/><path fill="#F00" d="M255.657 155.878L255.657 155.878Q255.657 160.135 253.700 161.994L253.700 161.994Q252.086 163.511 249.199 163.609L249.199 163.609L249.150 163.609Q246.263 163.511 244.648 161.994L244.648 161.994Q242.691 160.135 242.691 155.878L242.691 155.878Q242.691 155.633 242.691 155.511Q242.691 155.388 242.691 155.144L242.691 155.144Q242.691 150.887 244.648 149.028L244.648 149.028Q246.263 147.511 249.150 147.462L249.150 147.462L249.199 147.462Q252.086 147.511 253.700 149.028L253.700 149.028Q255.657 150.887 255.657 155.144L255.657 155.144Q255.657 155.388 255.657 155.511Q255.657 155.633 255.657 155.878ZM252.232 155.878L252.232 155.878Q252.232 155.682 252.232 155.584L252.232 155.584L252.232 155.486Q252.232 155.388 252.232 155.144L252.232 155.144Q252.232 152.355 251.352 151.523L251.352 151.523Q250.716 150.887 249.150 150.838L249.150 150.838Q247.633 150.887 246.997 151.523L246.997 151.523Q246.116 152.355 246.116 155.144L246.116 155.144Q246.116 155.388 246.116 155.486L246.116 155.486L246.116 155.584Q246.116 155.682 246.116 155.878L246.116 155.878Q246.116 158.667 246.997 159.547L246.997 159.547Q247.633 160.135 249.150 160.183L249.150 160.183Q250.716 160.135 251.352 159.547L251.352 159.547Q252.232 158.667 252.232 155.878ZM273.713 165.957L273.713 165.957Q275.670 167.817 275.670 172.073L275.670 172.073Q275.670 172.318 275.670 172.440Q275.670 172.563 275.670 172.807L275.670 172.807Q275.670 177.113 273.713 178.972L273.713 178.972Q272.098 180.489 269.260 180.538L269.260 180.538L269.162 180.538Q266.275 180.489 264.661 178.972L264.661 178.972Q262.703 177.113 262.703 172.807L262.703 172.807Q262.703 172.563 262.703 172.440Q262.703 172.318 262.703 172.073L262.703 172.073Q262.703 167.817 264.661 165.957L264.661 165.957Q266.275 164.440 269.162 164.391L269.162 164.391L269.260 164.391Q272.098 164.440 273.713 165.957ZM272.245 172.807L272.245 172.807Q272.245 172.612 272.245 172.514L272.245 172.514L272.245 172.416Q272.245 172.318 272.245 172.073L272.245 172.073Q272.245 169.284 271.364 168.453L271.364 168.453Q270.728 167.817 269.211 167.768L269.211 167.768Q267.694 167.817 267.009 168.453L267.009 168.453Q266.128 169.284 266.128 172.073L266.128 172.073Q266.128 172.318 266.128 172.416L266.128 172.416L266.128 172.514Q266.128 172.612 266.128 172.807L266.128 172.807Q266.128 175.645 267.009 176.477L267.009 176.477Q267.694 177.113 269.211 177.113L269.211 177.113Q270.728 177.113 271.364 176.477L271.364 176.477Q272.245 175.645 272.245 172.807ZM267.645 148.049Q268.135 148.049 268.404 148.489Q268.673 148.930 268.477 149.419L268.477 149.419Q259.327 167.572 253.309 179.511L253.309 179.511Q253.064 180 252.477 180L252.477 180L250.765 180Q250.275 180 249.982 179.560Q249.688 179.119 249.933 178.630L249.933 178.630Q253.994 170.557 265.052 148.587L265.052 148.587Q265.346 148.049 265.884 148.049L265.884 148.049L267.645 148.049ZM290.104 172.073L290.104 172.073Q290.104 172.122 290.104 172.465L290.104 172.465Q290.104 172.807 290.104 172.807L290.104 172.807Q290.104 177.113 288.147 178.972L288.147 178.972Q286.532 180.489 283.694 180.538L283.694 180.538L283.596 180.538Q280.758 180.489 279.144 178.972L279.144 178.972Q277.187 177.113 277.187 172.807L277.187 172.807Q277.187 172.661 277.187 172.465L277.187 172.465Q277.187 172.122 277.187 172.073L277.187 172.073Q277.187 167.817 279.144 165.957L279.144 165.957Q280.758 164.440 283.596 164.391L283.596 164.391L283.694 164.391Q286.532 164.440 288.147 165.957L288.147 165.957Q290.104 167.817 290.104 172.073ZM286.728 172.807L286.728 172.807Q286.728 172.807 286.728 172.514L286.728 172.514L286.728 172.416Q286.728 172.122 286.728 172.073L286.728 172.073Q286.728 169.284 285.847 168.453L285.847 168.453Q285.162 167.817 283.645 167.768L283.645 167.768Q282.128 167.817 281.492 168.453L281.492 168.453Q280.563 169.284 280.563 172.073L280.563 172.073Q280.563 172.269 280.563 172.416L280.563 172.416L280.563 172.514Q280.563 172.807 280.563 172.807L280.563 172.807Q280.563 175.645 281.492 176.477L281.492 176.477Q282.128 177.113 283.645 177.113L283.645 177.113Q285.162 177.113 285.847 176.477L285.847 176.477Q286.728 175.645 286.728 172.807Z"/></svg>