<svg width="480px" height="360px" xmlns="http://www.w3.org/2000/svg"><rect x="216" y="124" width="80.5" height="80.5" fill-opacity="0"/><path fill="#F00" d="M260.697 177.015L260.697 177.015Q260.942 177.358 260.917 177.749Q260.893 178.141 260.550 178.385L260.550 178.385Q257.615 180.538 254.043 180.538L254.043 180.538Q248.807 180.538 246.018 178.141L246.018 178.141Q242.642 175.254 242.642 168.453L242.642 168.453L242.642 168.355Q242.642 161.651 246.018 158.765L246.018 158.765Q248.807 156.367 254.043 156.367L254.043 156.367Q257.615 156.367 260.550 158.520L260.550 158.520Q260.844 158.765 260.893 159.156Q260.942 159.547 260.697 159.841L260.697 159.841Q260.404 160.183 259.670 161.064L259.670 161.064Q259.083 161.700 258.398 161.162L258.398 161.162Q256.440 159.792 254.043 159.792L254.043 159.792Q250.080 159.792 248.220 161.358L248.220 161.358Q246.948 162.434 246.508 164.196Q246.067 165.957 246.067 168.453L246.067 168.453L246.067 168.599Q246.067 171.046 246.508 172.758Q246.948 174.471 248.220 175.547L248.220 175.547Q250.080 177.113 254.043 177.113L254.043 177.113Q256.440 177.113 258.398 175.743L258.398 175.743Q259.083 175.205 259.621 175.841L259.621 175.841Q260.012 176.281 260.697 177.015Z"/></svg>