<svg width="480px" height="360px" xmlns="http://www.w3.org/2000/svg"><rect x="216" y="124" width="80.5" height="80.5" fill-opacity="0"/><path fill="#F00" d="M263.305 148L267.318 148Q267.678 148 267.910 148.232Q268.141 148.463 268.141 148.823L268.141 148.823L268.141 179.125Q268.141 179.486 267.910 179.743Q267.678 180 267.318 180L267.318 180L261.814 180Q261.299 180 261.042 179.537L261.042 179.537L249.775 158.547L249.775 179.125Q249.775 179.486 249.518 179.743Q249.260 180 248.900 180L248.900 180L244.939 180Q244.579 180 244.322 179.743Q244.064 179.486 244.064 179.125L244.064 179.125L244.064 148.823Q244.064 148.463 244.322 148.232Q244.579 148 244.939 148L244.939 148L250.238 148Q250.752 148 250.958 148.412L250.958 148.412L262.482 169.505L262.482 148.823Q262.482 148.463 262.714 148.232Q262.945 148 263.305 148L263.305 148Z"/></svg>