<svg width="480px" height="360px" xmlns="http://www.w3.org/2000/svg"><rect x="216" y="124" width="80.5" height="80.5" fill-opacity="0"/><path fill="#F00" d="M242.691 167.768L262.410 167.768Q262.801 167.768 263.070 168.037Q263.339 168.306 263.339 168.697L263.339 168.697L263.339 170.214Q263.339 170.606 263.070 170.875Q262.801 171.144 262.410 171.144L262.410 171.144L242.691 171.144Q242.300 171.144 242.031 170.875Q241.761 170.606 241.761 170.214L241.761 170.214L241.761 168.697Q241.761 168.306 242.031 168.037Q242.300 167.768 242.691 167.768L242.691 167.768ZM242.691 158.667L262.410 158.667Q262.801 158.667 263.070 158.936Q263.339 159.205 263.339 159.596L263.339 159.596L263.339 161.113Q263.339 161.505 263.070 161.774Q262.801 162.043 262.410 162.043L262.410 162.043L242.691 162.043Q242.300 162.043 242.031 161.774Q241.761 161.505 241.761 161.113L241.761 161.113L241.761 159.596Q241.761 159.205 242.031 158.936Q242.300 158.667 242.691 158.667L242.691 158.667Z"/></svg>