<svg width="480px" height="360px" xmlns="http://www.w3.org/2000/svg"><rect x="216" y="124" width="80.5" height="80.5" fill-opacity="0"/><path fill="#F00" d="M252.746 150.202Q257.223 147.462 262.459 147.462Q267.694 147.462 272.171 150.202Q276.648 152.942 279.242 157.664Q281.835 162.385 281.835 167.963L281.835 167.963Q281.835 170.703 281.297 172.905Q280.758 175.107 279.976 176.428Q279.193 177.749 278.067 178.679L278.067 178.679Q276.453 180.049 274.398 180.391Q272.343 180.734 270.924 180.147L270.924 180.147Q270.239 179.951 269.676 179.609Q269.113 179.266 268.697 178.850Q268.281 178.434 268.012 177.969Q267.743 177.505 267.596 177.064L267.596 177.064Q264.220 180.685 260.012 180.685L260.012 180.685Q255.755 180.685 253.040 177.040Q250.324 173.394 250.911 168.159L250.911 168.159Q251.450 163.119 254.801 159.572Q258.153 156.024 262.263 156.024L262.263 156.024Q266.324 156.024 268.966 159.352L268.966 159.352Q269.064 158.520 269.113 157.835L269.113 157.835Q269.162 157.443 269.456 157.199Q269.749 156.954 270.141 156.954L270.141 156.954Q270.336 157.003 270.606 157.028Q270.875 157.052 271.168 157.076Q271.462 157.101 271.657 157.101L271.657 157.101Q272.049 157.150 272.294 157.443Q272.538 157.737 272.538 158.128L272.538 158.128L270.924 176.281Q271.070 176.477 271.217 176.526L271.217 176.526Q271.902 177.064 272.979 177.113L272.979 177.113Q275.229 177.211 276.820 175.009Q278.410 172.807 278.410 167.963L278.410 167.963Q278.410 163.315 276.281 159.376Q274.153 155.437 270.483 153.138Q266.813 150.838 262.459 150.838Q258.104 150.838 254.434 153.138Q250.765 155.437 248.636 159.376Q246.508 163.315 246.508 167.963Q246.508 172.612 248.636 176.550Q250.765 180.489 254.434 182.789Q258.104 185.089 262.459 185.089L262.459 185.089L263.242 185.089Q263.633 185.089 263.902 185.358Q264.171 185.627 264.171 186.018L264.171 186.018L264.171 187.584Q264.171 187.927 263.902 188.220Q263.633 188.514 263.242 188.514L263.242 188.514L262.459 188.514Q257.223 188.514 252.746 185.774Q248.269 183.034 245.676 178.287Q243.083 173.541 243.083 167.963Q243.083 162.385 245.676 157.664Q248.269 152.942 252.746 150.202ZM267.988 168.159L267.988 168.159Q268.232 165.810 267.596 163.829Q266.960 161.847 265.541 160.648Q264.122 159.450 262.263 159.450L262.263 159.450Q259.327 159.450 257.003 162.116Q254.679 164.783 254.287 168.550L254.287 168.550Q254.043 170.899 254.703 172.881Q255.364 174.862 256.758 176.061Q258.153 177.260 260.012 177.260L260.012 177.260Q262.997 177.260 265.297 174.593Q267.596 171.927 267.988 168.159Z"/></svg>