<svg width="480px" height="360px" xmlns="http://www.w3.org/2000/svg"><rect x="216" y="124" width="80.5" height="80.5" fill-opacity="0"/><path fill="#F00" d="M258.691 158.324L252.330 168.453Q256.783 175.498 258.691 178.581L258.691 178.581Q258.985 179.021 258.740 179.511Q258.495 180 257.908 180L257.908 180L256.098 180Q255.609 180 255.315 179.560L255.315 179.560L250.324 171.633Q246.410 177.847 245.333 179.560L245.333 179.560Q245.089 180 244.550 180L244.550 180L242.740 180Q242.202 180 241.933 179.511Q241.664 179.021 241.957 178.581L241.957 178.581L248.318 168.453Q243.914 161.407 241.957 158.324L241.957 158.324Q241.664 157.884 241.933 157.394Q242.202 156.905 242.740 156.905L242.740 156.905L244.550 156.905Q245.089 156.905 245.333 157.346L245.333 157.346L250.324 165.272Q254.239 159.058 255.315 157.346L255.315 157.346Q255.609 156.905 256.098 156.905L256.098 156.905L257.908 156.905Q258.495 156.905 258.740 157.370Q258.985 157.835 258.691 158.324L258.691 158.324Z"/></svg>