<svg width="480px" height="360px" xmlns="http://www.w3.org/2000/svg"><rect x="216" y="124" width="80.5" height="80.5" fill-opacity="0"/><path fill="#F00" d="M266.333 148.293L266.333 148.293Q266.431 148.391 266.528 148.562Q266.626 148.733 266.724 148.831L266.724 148.831Q266.724 149.075 266.626 149.637Q266.528 150.198 266.528 150.443L266.528 150.443Q266.528 150.834 266.186 151.176L266.186 151.176Q266.089 151.176 265.820 151.273Q265.551 151.371 265.453 151.371L265.453 151.371L251.285 151.371L248.696 158.113Q252.605 157.722 254.901 158.113L254.901 158.113Q260.373 158.748 262.376 162.461L262.376 162.461Q264.085 165.295 263.255 170.082L263.255 170.082Q262.571 173.942 258.760 177.289Q254.950 180.635 250.699 180.635L250.699 180.635Q248.403 180.635 245.692 179.682Q242.980 178.730 241.075 176.824L241.075 176.824Q240.879 176.629 240.879 176.092L240.879 176.092Q240.879 175.750 241.270 175.359L241.270 175.359Q241.466 175.163 241.905 174.821Q242.345 174.479 242.540 174.284L242.540 174.284Q243.371 173.844 243.811 174.284L243.811 174.284Q247.279 177.166 251.285 177.166L251.285 177.166Q254.168 177.166 256.782 174.870Q259.395 172.574 259.786 169.936L259.786 169.936Q260.324 166.174 259.249 164.269L259.249 164.269Q257.930 162.070 253.826 161.386L253.826 161.386Q251.823 161.044 247.426 161.533L247.426 161.533L247.084 161.533Q246.351 161.533 244.885 161.191L244.885 161.191Q244.739 161.191 244.348 160.800L244.348 160.800L244.348 160.116L248.892 148.098L265.795 148.098Q266.186 148.098 266.333 148.293Z"/></svg>