<svg width="480px" height="360px" xmlns="http://www.w3.org/2000/svg"><rect x="216" y="124" width="80.5" height="80.5" fill-opacity="0"/><path fill="#F00" d="M267.212 148.489L267.212 148.489Q267.212 149.026 266.870 149.368L266.870 149.368L255.389 167.005L260.666 167.005Q261.056 167.005 261.227 167.200Q261.398 167.395 261.398 167.933L261.398 167.933Q261.398 168.128 261.325 168.397Q261.252 168.666 261.252 168.812L261.252 168.812Q261.252 169.203 260.861 169.545L260.861 169.545Q260.763 169.545 260.495 169.643Q260.226 169.740 260.128 169.740L260.128 169.740L254.119 169.740L253.777 172.281L259.786 172.281Q260.128 172.281 260.324 172.476Q260.519 172.672 260.519 173.209L260.519 173.209Q260.519 173.356 260.421 173.649Q260.324 173.942 260.324 174.089L260.324 174.089Q260.324 174.479 259.982 174.821L259.982 174.821Q259.884 174.821 259.591 174.919Q259.298 175.017 259.249 175.017L259.249 175.017L253.240 175.017L252.507 179.023Q252.507 179.365 252.116 179.756L252.116 179.756Q252.067 179.756 251.774 179.829Q251.481 179.902 251.432 179.902L251.432 179.902L249.771 179.902Q249.429 179.902 249.234 179.731Q249.038 179.560 249.038 179.023L249.038 179.023L249.771 175.017L243.762 175.017Q243.420 175.017 243.224 174.846Q243.029 174.675 243.029 174.089L243.029 174.089Q243.029 173.942 243.127 173.649Q243.224 173.356 243.224 173.209L243.224 173.209Q243.518 172.574 243.762 172.476L243.762 172.476Q243.860 172.476 244.128 172.379Q244.397 172.281 244.495 172.281L244.495 172.281L250.504 172.281L250.846 169.740L244.885 169.740Q244.495 169.740 244.324 169.569Q244.153 169.398 244.153 168.812L244.153 168.812Q244.153 168.666 244.226 168.397Q244.299 168.128 244.299 167.933L244.299 167.933Q244.299 167.542 244.690 167.200L244.690 167.200Q244.788 167.200 245.056 167.102Q245.325 167.005 245.423 167.005L245.423 167.005L250.699 167.005Q246.693 153.716 245.423 149.368L245.423 149.368Q245.227 149.026 245.618 148.293L245.618 148.293Q245.960 147.902 246.498 147.902L246.498 147.902L248.159 147.902Q248.598 147.902 248.892 148.489L248.892 148.489L253.777 164.464Q262.131 151.371 263.939 148.635L263.939 148.635Q264.232 148.098 264.867 148.098L264.867 148.098L266.479 148.098Q266.870 148.098 267.212 148.489Z"/></svg>