<svg width="480px" height="360px" xmlns="http://www.w3.org/2000/svg"><rect x="216" y="124" width="80.5" height="80.5" fill-opacity="0"/><path fill="#F00" d="M261.814 157.055L261.814 161.531Q261.814 161.891 261.608 162.148L261.608 162.148L249.929 174.341L260.990 174.341Q261.350 174.341 261.582 174.572Q261.814 174.804 261.814 175.164L261.814 175.164L261.814 179.177Q261.814 179.486 261.582 179.743Q261.350 180 260.990 180L260.990 180L243.653 180Q243.293 180 243.035 179.743Q242.778 179.486 242.778 179.177L242.778 179.177L242.778 174.650Q242.778 174.289 243.035 174.084L243.035 174.084L254.920 161.891L243.653 161.891Q243.293 161.891 243.035 161.633Q242.778 161.376 242.778 161.016L242.778 161.016L242.778 157.055Q242.778 156.695 243.035 156.437Q243.293 156.180 243.653 156.180L243.653 156.180L260.990 156.180Q261.350 156.180 261.582 156.437Q261.814 156.695 261.814 157.055L261.814 157.055Z"/></svg>