<svg width="480px" height="360px" xmlns="http://www.w3.org/2000/svg"><rect x="216" y="124" width="80.5" height="80.5" fill-opacity="0"/><path fill="#F00" d="M244.939 148L261.659 148Q262.019 148 262.277 148.232Q262.534 148.463 262.534 148.823L262.534 148.823L262.534 152.836Q262.534 153.042 262.431 153.248Q262.328 153.453 262.122 153.556Q261.916 153.659 261.659 153.659L261.659 153.659L249.775 153.659L249.775 161.273L259.293 161.273Q259.653 161.273 259.910 161.531Q260.167 161.788 260.167 162.148L260.167 162.148L260.167 166.161Q260.167 166.521 259.910 166.752Q259.653 166.984 259.293 166.984L259.293 166.984L249.775 166.984L249.775 179.125Q249.775 179.486 249.518 179.743Q249.260 180 248.900 180L248.900 180L244.939 180Q244.682 180 244.476 179.897Q244.270 179.794 244.167 179.588Q244.064 179.383 244.064 179.125L244.064 179.125L244.064 148.823Q244.064 148.463 244.322 148.232Q244.579 148 244.939 148L244.939 148Z"/></svg>