<svg width="480px" height="360px" xmlns="http://www.w3.org/2000/svg"><rect x="216" y="124" width="80.5" height="80.5" fill-opacity="0"/><path fill="#F00" d="M259.190 163.794Q259.550 163.794 259.807 164.051Q260.064 164.309 260.064 164.669L260.064 164.669L260.064 168.630Q260.064 168.990 259.807 169.248Q259.550 169.505 259.190 169.505L259.190 169.505L257.286 169.505Q255.794 169.505 254.765 170.534Q253.736 171.563 253.736 173.003L253.736 173.003L253.736 179.177Q253.736 180.669 253.170 181.955Q252.605 183.241 251.627 184.090Q250.650 184.939 249.569 185.608Q248.489 186.277 247.177 186.688Q245.865 187.100 244.990 187.331Q244.116 187.563 243.241 187.666L243.241 187.666Q242.830 187.717 242.547 187.460Q242.264 187.203 242.264 186.842L242.264 186.842Q242.264 186.277 242.264 184.836Q242.264 183.395 242.264 182.881L242.264 182.881Q242.264 182.572 242.495 182.315Q242.727 182.058 243.035 182.058L243.035 182.058Q243.807 181.955 244.527 181.801Q245.248 181.646 246.122 181.338Q246.997 181.029 247.537 180.463Q248.077 179.897 248.077 179.177L248.077 179.177L248.077 173.003Q248.077 169.299 250.598 166.624L250.598 166.624Q248.077 164 248.077 160.296L248.077 160.296L248.077 155.871Q248.077 155.100 247.537 154.534Q246.997 153.968 246.122 153.659Q245.248 153.350 244.527 153.222Q243.807 153.093 243.035 152.990L243.035 152.990Q242.727 152.939 242.495 152.707Q242.264 152.476 242.264 152.116L242.264 152.116L242.264 148.154Q242.264 147.743 242.547 147.511Q242.830 147.280 243.190 147.280L243.190 147.280Q243.807 147.331 244.424 147.434Q245.042 147.537 245.968 147.717Q246.894 147.897 247.717 148.206Q248.540 148.514 249.466 148.952Q250.392 149.389 251.138 150.058Q251.884 150.727 252.476 151.524Q253.068 152.322 253.402 153.453Q253.736 154.585 253.736 155.871L253.736 155.871L253.736 160.296Q253.736 161.736 254.765 162.765Q255.794 163.794 257.286 163.794L257.286 163.794L259.190 163.794Z"/></svg>