<svg width="480px" height="360px" xmlns="http://www.w3.org/2000/svg"><rect x="216" y="124" width="80.5" height="80.5" fill-opacity="0"/><path fill="#F00" d="M254.508 166.418L254.508 166.418Q260.630 168.630 260.630 172.900L260.630 172.900Q260.630 175.936 258.058 178.225Q255.486 180.514 251.781 180.514L251.781 180.514Q250.135 180.514 247.434 179.666Q244.733 178.817 242.932 177.479L242.932 177.479Q242.675 177.273 242.624 176.887Q242.572 176.502 242.830 176.244L242.830 176.244Q242.984 176.090 245.505 173.260L245.505 173.260Q246.071 172.695 246.688 173.158L246.688 173.158Q247.768 173.878 249.286 174.341Q250.804 174.804 251.781 174.804L251.781 174.804Q253.273 174.804 254.251 174.032L254.251 174.032Q254.920 173.518 254.920 172.952L254.920 172.952Q254.817 172.849 254.765 172.797L254.765 172.797Q254.457 172.592 253.994 172.334L253.994 172.334Q253.273 172.026 250.855 171.203L250.855 171.203Q247.563 170.122 246.019 168.990L246.019 168.990Q242.932 166.830 242.932 163.331L242.932 163.331Q242.932 160.244 245.505 157.955Q248.077 155.666 251.781 155.666L251.781 155.666Q252.862 155.666 254.379 156.026Q255.897 156.386 257.595 157.106Q259.293 157.826 260.527 158.701L260.527 158.701Q260.836 158.907 260.862 159.293Q260.887 159.678 260.630 159.936L260.630 159.936Q260.116 160.502 257.904 162.971L257.904 162.971Q257.441 163.486 256.823 163.125L256.823 163.125Q253.994 161.325 251.781 161.376L251.781 161.376Q250.238 161.428 249.312 162.148L249.312 162.148Q248.643 162.714 248.643 163.331L248.643 163.331Q248.643 164 249.775 164.617L249.775 164.617Q250.135 164.823 250.598 165.029Q251.061 165.235 251.576 165.441Q252.090 165.646 252.553 165.775Q253.016 165.904 253.582 166.109Q254.148 166.315 254.508 166.418Z"/></svg>