<svg width="480px" height="360px" xmlns="http://www.w3.org/2000/svg"><rect x="216" y="124" width="80.5" height="80.5" fill-opacity="0"/><path fill="#F00" d="M249.003 147.168L250.569 147.168Q250.960 147.168 251.229 147.437Q251.498 147.706 251.498 148.098L251.498 148.098L251.498 151.180Q251.498 152.648 250.177 154.557L250.177 154.557Q249.933 154.899 249.541 154.899L249.541 154.899Q249.297 154.899 249.125 154.850Q248.954 154.801 248.905 154.703L248.905 154.703L248.856 154.654Q248.514 154.214 248.807 153.823L248.807 153.823Q249.884 152.355 249.933 151.474L249.933 151.474L249.003 151.474Q248.612 151.474 248.343 151.205Q248.073 150.936 248.073 150.544L248.073 150.544L248.073 148.098Q248.073 147.902 248.147 147.731Q248.220 147.560 248.343 147.437Q248.465 147.315 248.636 147.242Q248.807 147.168 249.003 147.168L249.003 147.168ZM242.642 147.168L244.208 147.168Q244.599 147.168 244.869 147.437Q245.138 147.706 245.138 148.098L245.138 148.098L245.138 151.180Q245.138 152.648 243.817 154.557L243.817 154.557Q243.572 154.899 243.180 154.899L243.180 154.899Q242.936 154.899 242.765 154.850Q242.593 154.801 242.544 154.703L242.544 154.703L242.495 154.654Q242.153 154.214 242.446 153.823L242.446 153.823Q243.523 152.355 243.572 151.474L243.572 151.474L242.642 151.474Q242.251 151.474 241.982 151.205Q241.713 150.936 241.713 150.544L241.713 150.544L241.713 148.098Q241.713 147.706 241.982 147.437Q242.251 147.168 242.642 147.168L242.642 147.168Z"/></svg>