<svg width="480px" height="360px" xmlns="http://www.w3.org/2000/svg"><rect x="216" y="124" width="80.5" height="80.5" fill-opacity="0"/><path fill="#F00" d="M260.257 156.905L261.823 156.905Q262.214 156.905 262.483 157.174Q262.752 157.443 262.752 157.835L262.752 157.835L262.752 186.997Q262.752 187.291 262.630 187.486Q262.508 187.682 262.287 187.804Q262.067 187.927 261.823 187.927L261.823 187.927L260.257 187.927Q259.865 187.927 259.596 187.657Q259.327 187.388 259.327 186.997L259.327 186.997L259.327 177.945Q256.147 180.538 251.743 180.538L251.743 180.538Q248.024 180.538 245.284 177.138Q242.544 173.737 242.544 167.865L242.544 167.865Q242.544 162.777 245.162 159.621Q247.780 156.465 251.694 156.367L251.694 156.367Q256.147 156.269 259.327 159.303L259.327 159.303L259.327 157.835Q259.327 157.443 259.596 157.174Q259.865 156.905 260.257 156.905L260.257 156.905ZM259.327 172.709L259.327 172.709L259.327 165.174Q259.083 164.489 258.642 163.804Q258.202 163.119 257.321 162.067Q256.440 161.015 254.972 160.379Q253.505 159.743 251.792 159.792L251.792 159.792Q249.150 159.841 247.560 162.092Q245.969 164.343 245.969 167.865L245.969 167.865Q245.969 170.654 246.728 172.807Q247.486 174.960 248.807 176.061Q250.128 177.162 251.743 177.162L251.743 177.162Q253.113 177.162 254.336 176.771Q255.560 176.379 256.367 175.865Q257.174 175.352 257.835 174.667Q258.495 173.982 258.813 173.541Q259.131 173.101 259.327 172.709Z"/></svg>