<svg width="480px" height="360px" xmlns="http://www.w3.org/2000/svg"><rect x="216" y="124" width="80.5" height="80.5" fill-opacity="0"/><path fill="#F00" d="M266.804 168.013Q267.113 168.013 267.370 168.270Q267.627 168.527 267.627 168.887L267.627 168.887L267.627 172.900Q267.627 173.209 267.370 173.466Q267.113 173.723 266.804 173.723L266.804 173.723L264.334 173.723L264.334 179.125Q264.334 179.486 264.077 179.743Q263.820 180 263.460 180L263.460 180L259.498 180Q259.138 180 258.881 179.743Q258.624 179.486 258.624 179.125L258.624 179.125L258.624 173.723L243.498 173.723Q243.138 173.723 242.881 173.466Q242.624 173.209 242.624 172.900L242.624 172.900L242.624 169.505Q242.624 169.196 242.778 168.990L242.778 168.990Q249.209 160.141 257.698 148.309L257.698 148.309Q257.955 148 258.418 148L258.418 148L263.460 148Q263.820 148 264.077 148.232Q264.334 148.463 264.334 148.823L264.334 148.823L264.334 168.013L266.804 168.013ZM250.495 168.013L258.624 168.013L258.624 156.797L250.495 168.013Z"/></svg>