<svg width="480px" height="360px" xmlns="http://www.w3.org/2000/svg"><rect x="216" y="124" width="80.5" height="80.5" fill-opacity="0"/><path fill="#F00" d="M263.203 156.180Q263.511 156.180 263.768 156.437Q264.026 156.695 264.026 157.055L264.026 157.055L264.026 186.431Q264.026 186.791 263.768 187.023Q263.511 187.254 263.203 187.254L263.203 187.254L259.190 187.254Q258.830 187.254 258.572 187.023Q258.315 186.791 258.315 186.431L258.315 186.431L258.315 177.222Q256.206 180.514 251.215 180.514L251.215 180.514Q247.511 180.514 245.196 177.145Q242.881 173.775 242.881 167.550L242.881 167.550Q242.881 162.045 245.016 158.907Q247.151 155.768 251.164 155.666L251.164 155.666Q256.154 155.563 258.315 159.370L258.315 159.370L258.315 157.055Q258.315 156.797 258.444 156.617Q258.572 156.437 258.752 156.309Q258.932 156.180 259.190 156.180L259.190 156.180L263.203 156.180ZM258.315 171.666L258.315 171.666L258.315 165.286Q258.109 164.772 257.723 164.206Q257.338 163.640 256.695 162.920Q256.051 162.199 254.997 161.788Q253.942 161.376 252.707 161.376L252.707 161.376Q250.804 161.428 249.698 163.151Q248.592 164.875 248.592 167.550L248.592 167.550Q248.592 171.254 250.135 173.312L250.135 173.312Q251.215 174.804 252.605 174.804L252.605 174.804Q254.199 174.804 255.511 174.161Q256.823 173.518 257.389 172.926Q257.955 172.334 258.315 171.666Z"/></svg>