<svg width="480px" height="360px" xmlns="http://www.w3.org/2000/svg"><rect x="216" y="124" width="80.5" height="80.5" fill-opacity="0"/><path fill="#F00" d="M255.511 147.609Q255.853 147.755 256.024 148.098Q256.196 148.440 256.049 148.832L256.049 148.832Q255.902 149.223 255.511 150.251L255.511 150.251Q255.364 150.593 255.021 150.765Q254.679 150.936 254.336 150.789L254.336 150.789Q251.939 149.908 250.765 150.006L250.765 150.006Q247.927 150.251 247.927 152.159L247.927 152.159L247.927 156.563L253.456 156.563Q253.847 156.563 254.116 156.832Q254.385 157.101 254.385 157.492L254.385 157.492L254.385 159.009Q254.385 159.401 254.116 159.670Q253.847 159.939 253.456 159.939L253.456 159.939L247.927 159.939L247.927 179.070Q247.927 179.462 247.657 179.731Q247.388 180 246.997 180L246.997 180L245.480 180Q245.089 180 244.820 179.731Q244.550 179.462 244.550 179.070L244.550 179.070L244.550 159.939L242.740 159.939Q242.349 159.939 242.080 159.670Q241.810 159.401 241.810 159.009L241.810 159.009L241.810 157.492Q241.810 157.101 242.080 156.832Q242.349 156.563 242.740 156.563L242.740 156.563L244.550 156.563L244.550 152.159Q244.550 149.761 246.165 148.294L246.165 148.294Q247.731 146.826 250.471 146.630L250.471 146.630Q252.281 146.483 255.511 147.609L255.511 147.609Z"/></svg>