<svg width="480px" height="360px" xmlns="http://www.w3.org/2000/svg"><rect x="216" y="124" width="80.5" height="80.5" fill-opacity="0"/><path fill="#F00" d="M267.505 156.452Q267.847 156.452 268.043 156.647Q268.238 156.843 268.238 157.380L268.238 157.380Q268.238 157.673 268.140 158.211Q268.043 158.748 268.043 158.992L268.043 158.992Q268.043 159.383 267.701 159.725L267.701 159.725Q267.603 159.725 267.334 159.823Q267.066 159.921 266.968 159.921L266.968 159.921L257.148 159.921L252.214 187.377Q252.214 187.768 251.896 188.037Q251.579 188.305 251.139 188.305L251.139 188.305L249.527 188.305Q248.794 188.305 248.794 187.377L248.794 187.377L253.679 159.921L243.860 159.921Q243.518 159.921 243.322 159.750Q243.127 159.579 243.127 158.992L243.127 158.992Q243.127 158.797 243.176 158.504Q243.224 158.211 243.273 157.918Q243.322 157.624 243.322 157.380L243.322 157.380Q243.322 157.038 243.664 156.647L243.664 156.647Q243.762 156.647 244.031 156.550Q244.299 156.452 244.397 156.452L244.397 156.452L254.217 156.452L255.487 149.221Q255.487 148.782 255.829 148.537Q256.171 148.293 256.611 148.293L256.611 148.293L258.223 148.293Q258.956 148.293 258.956 149.221L258.956 149.221L257.685 156.452L267.505 156.452Z"/></svg>