<svg width="480px" height="360px" xmlns="http://www.w3.org/2000/svg"><rect x="216" y="124" width="80.5" height="80.5" fill-opacity="0"/><path fill="#F00" d="M264.281 150.785L264.281 150.785Q266.479 153.521 265.942 157.478L265.942 157.478L265.747 158.211Q264.916 162.070 261.740 164.953L261.740 164.953Q258.760 167.689 254.656 167.689L254.656 167.689L246.840 167.689L244.837 179.121Q244.837 179.511 244.495 179.853L244.495 179.853Q244.397 179.853 244.104 179.951Q243.811 180.049 243.762 180.049L243.762 180.049L242.101 180.049Q241.759 180.049 241.563 179.853Q241.368 179.658 241.368 179.121L241.368 179.121Q241.905 175.701 243.933 164.171Q245.960 152.641 246.644 148.928L246.644 148.928Q246.644 148.586 247.035 148.195L247.035 148.195Q247.084 148.195 247.377 148.122Q247.670 148.049 247.719 148.049L247.719 148.049L258.125 148.049Q262.082 148.049 264.281 150.785ZM262.278 158.211L262.473 157.478Q262.766 154.937 261.398 153.325L261.398 153.325Q260.079 151.469 257.392 151.469L257.392 151.469L249.576 151.469L247.377 164.220L255.194 164.220Q257.637 164.220 259.737 162.412L259.737 162.412Q261.740 160.702 262.278 158.211L262.278 158.211Z"/></svg>