<svg width="480px" height="360px" xmlns="http://www.w3.org/2000/svg"><rect x="216" y="124" width="80.5" height="80.5" fill-opacity="0"/><path fill="#F00" d="M267.061 173.158Q267.421 173.260 267.550 173.621Q267.678 173.981 267.524 174.289L267.524 174.289Q266.135 177.273 263.614 178.817L263.614 178.817Q260.836 180.514 256.514 180.514L256.514 180.514Q251.370 180.514 248.026 177.839L248.026 177.839Q242.881 173.775 242.881 163.974Q242.881 154.174 248.026 150.109L248.026 150.109Q251.370 147.486 256.514 147.486L256.514 147.486Q260.836 147.486 263.614 149.183L263.614 149.183Q266.084 150.675 267.524 153.659L267.524 153.659Q267.678 154.019 267.550 154.354Q267.421 154.688 267.061 154.842L267.061 154.842Q265.929 155.305 263.357 156.334L263.357 156.334Q262.637 156.643 262.277 155.974L262.277 155.974Q260.785 153.196 256.514 153.196L256.514 153.196Q253.325 153.196 251.524 154.585L251.524 154.585Q250.495 155.408 249.852 156.592Q249.209 157.775 248.952 159.241Q248.695 160.707 248.643 161.633Q248.592 162.559 248.592 163.974Q248.592 165.389 248.643 166.341Q248.695 167.293 248.952 168.759Q249.209 170.225 249.852 171.383Q250.495 172.540 251.524 173.363L251.524 173.363Q253.325 174.804 256.514 174.804L256.514 174.804Q260.785 174.804 262.277 172.026L262.277 172.026Q262.637 171.357 263.357 171.666L263.357 171.666Q264.283 172.026 267.061 173.158L267.061 173.158Z"/></svg>