<svg version="1.1" xmlns="http://www.w3.org/2000/svg" xmlns:xlink="http://www.w3.org/1999/xlink" width="519.6" height="158.59504" viewBox="0,0,519.6,158.59504"><g transform="translate(-56.95,-97.45248)"><g data-paper-data="{&quot;isPaintingLayer&quot;:true}" fill-rule="nonzero" stroke-linejoin="miter" stroke-miterlimit="10" stroke-dasharray="" stroke-dashoffset="0" style="mix-blend-mode: normal"><g fill="#f9a637" stroke="none" stroke-width="1" stroke-linecap="butt"><path d="M274.74998,236.44752c2.1,0.1 3.8,0.9 5.1,2.6c1.3,1.7 1.9,3.9 1.9,6.8v9.1c0,0.2 -0.1,0.4 -0.2,0.5c-0.1,0.1 -0.3,0.2 -0.5,0.2h-3.2c-0.2,0 -0.3,-0.1 -0.5,-0.2c-0.1,-0.1 -0.2,-0.3 -0.2,-0.5v-9.1c0,-0.9 -0.1,-1.7 -0.4,-2.5c-0.2,-0.7 -0.6,-1.3 -1.1,-1.7c-0.5,-0.4 -1,-0.6 -1.7,-0.7c-0.6,0 -1.2,0.1 -1.7,0.3c-0.5,0.2 -1,0.5 -1.3,0.9c-0.3,0.4 -0.6,0.7 -0.8,1c-0.2,0.3 -0.3,0.6 -0.4,0.9v11c0,0.2 -0.1,0.3 -0.2,0.4v0v0v0v0c-0.1,0.1 -0.2,0.2 -0.4,0.2v0h-3.2c-0.1,0 -0.3,-0.1 -0.4,-0.2v0v0v0c-0.1,-0.1 -0.1,-0.2 -0.2,-0.4v-9.2c0,-0.9 -0.1,-1.7 -0.3,-2.5c-0.2,-0.7 -0.6,-1.3 -1.1,-1.7c-0.5,-0.4 -1,-0.6 -1.7,-0.7c-0.6,0 -1.2,0.1 -1.7,0.3c-0.5,0.2 -1,0.5 -1.3,0.9c-0.3,0.4 -0.6,0.7 -0.8,1c-0.2,0.3 -0.3,0.6 -0.4,0.9v10.9c0,0.2 -0.1,0.4 -0.2,0.5c-0.1,0.1 -0.3,0.2 -0.5,0.2h-3.1c-0.2,0 -0.4,-0.1 -0.5,-0.2c-0.1,-0.1 -0.2,-0.3 -0.2,-0.5v-17.4c0,-0.2 0.1,-0.4 0.2,-0.5c0.1,-0.1 0.3,-0.2 0.5,-0.2h3.1c0.2,0 0.4,0.1 0.5,0.2c0.1,0.1 0.2,0.3 0.2,0.5v1.4c0.8,-0.8 1.6,-1.5 2.4,-1.9c0.8,-0.4 1.8,-0.6 3,-0.6c0.8,0 1.7,0.2 2.5,0.6c0.8,0.4 1.4,0.8 1.8,1.2l0.6,0.7c0.1,-0.1 0.1,-0.2 0.2,-0.3c0.1,-0.1 0.3,-0.3 0.7,-0.6c0.4,-0.3 0.8,-0.5 1.2,-0.8c0.4,-0.2 1.1,-0.4 1.8,-0.6c0.8,-0.1 1.6,-0.2 2.5,-0.2z"/><path d="M303.34998,245.44752v0.8v1.5c0,0.2 -0.1,0.4 -0.2,0.5c-0.1,0.1 -0.3,0.2 -0.5,0.2h-10.7c0.2,0.9 0.5,1.7 1.1,2.1c0.7,0.6 1.9,0.9 3.6,0.9c1.1,0 2,-0.3 2.9,-0.8c0.3,-0.2 0.6,-0.2 0.9,0.1c0.3,0.3 1,1.1 2.1,2.4c0.1,0.1 0.2,0.3 0.2,0.5c0,0.2 -0.1,0.4 -0.3,0.5c-1.7,1.2 -3.6,1.8 -5.8,1.8c-2.8,0 -5,-0.7 -6.5,-2c-1.9,-1.6 -2.8,-4.2 -2.8,-7.8v0c0,-3.5 0.8,-6 2.3,-7.6c1.4,-1.4 3.3,-2.2 5.7,-2.2c2.5,0 4.4,0.7 5.7,2.2c1.4,1.5 2.2,3.8 2.3,6.9zM291.84998,245.44752h7c0,-1.8 -0.4,-3.1 -1,-3.7c-0.5,-0.5 -1.3,-0.8 -2.5,-0.8c-1.2,0 -2,0.3 -2.5,0.8c-0.6,0.6 -1,1.9 -1,3.7z"/><path d="M324.94998,229.94752c0.1,0.1 0.2,0.3 0.2,0.4v24.4c0,0.2 -0.1,0.3 -0.2,0.5c-0.1,0.1 -0.3,0.2 -0.4,0.2h-3.2c-0.2,0 -0.4,-0.1 -0.5,-0.2c-0.1,-0.1 -0.2,-0.3 -0.2,-0.5v-1.4c-1.1,1.7 -3,2.6 -5.6,2.6c-1.9,0 -3.5,-0.9 -4.7,-2.7c-1.2,-1.8 -1.8,-4.3 -1.8,-7.6c0,-2.9 0.6,-5.2 1.7,-6.8c1.1,-1.6 2.7,-2.5 4.8,-2.6c2.6,-0.1 4.5,0.9 5.6,2.9v-8.9c0,-0.1 0,-0.2 0.1,-0.3c0.1,-0.1 0.1,-0.2 0.2,-0.2c0.1,-0.1 0.2,-0.1 0.3,-0.1h3.2c0.2,0.1 0.4,0.2 0.5,0.3zM320.64998,249.04752v-5c-0.1,-0.3 -0.3,-0.6 -0.4,-0.9c-0.2,-0.3 -0.5,-0.6 -0.8,-1c-0.4,-0.4 -0.8,-0.7 -1.4,-0.9c-0.6,-0.2 -1.2,-0.3 -1.8,-0.3c-1,0 -1.8,0.5 -2.4,1.4c-0.6,0.9 -0.9,2.1 -0.9,3.5c0,1.9 0.4,3.5 1.2,4.5c0.6,0.8 1.2,1.2 1.9,1.2c0.5,0 1,-0.1 1.5,-0.2c0.5,-0.1 0.9,-0.3 1.2,-0.5c0.3,-0.2 0.6,-0.4 0.9,-0.6c0.3,-0.2 0.5,-0.5 0.6,-0.6c0.2,-0.3 0.3,-0.4 0.4,-0.6z"/><path d="M336.04998,230.04752c0.1,0.1 0.2,0.3 0.2,0.5v3.3c0,0.2 -0.1,0.4 -0.2,0.5c-0.1,0.1 -0.3,0.2 -0.5,0.2h-3.1c-0.2,0 -0.4,-0.1 -0.5,-0.2c-0.1,-0.1 -0.2,-0.3 -0.2,-0.5v-3.3c0,-0.2 0.1,-0.3 0.2,-0.5c0.1,-0.1 0.3,-0.2 0.5,-0.2h3.1c0.2,0 0.3,0.1 0.5,0.2zM335.54998,236.84752c0.2,0 0.4,0.1 0.5,0.2c0.1,0.1 0.2,0.3 0.2,0.5v17.4c0,0.2 -0.1,0.4 -0.2,0.5c-0.1,0.1 -0.3,0.2 -0.5,0.2h-3.1c-0.1,0 -0.3,0 -0.4,-0.1c-0.1,-0.1 -0.2,-0.1 -0.2,-0.2c-0.1,-0.1 -0.1,-0.2 -0.1,-0.4v-17.4c0,-0.2 0.1,-0.4 0.2,-0.5c0.1,-0.1 0.3,-0.2 0.5,-0.2z"/><path d="M357.44998,254.54752c0,0 0,0.1 0,0.3c0.1,0.2 0,0.4 -0.1,0.5c-0.1,0.2 -0.3,0.2 -0.5,0.2h-3.1c-0.4,0 -0.6,-0.2 -0.6,-0.6c-0.1,-0.2 -0.1,-0.4 -0.1,-0.5c-0.1,-0.6 -0.1,-1.3 -0.1,-1.9v0c-0.2,0.7 -0.7,1.3 -1.3,1.9c-0.6,0.5 -1.2,0.9 -1.8,1.2c-0.6,0.2 -1.2,0.4 -1.7,0.4c-1.7,0 -3.2,-0.5 -4.3,-1.5c-1.3,-1.1 -1.9,-2.7 -1.9,-4.6c0,-1.5 0.4,-2.7 1.1,-3.4c0.7,-0.8 1.9,-1.4 3.3,-2c1.5,-0.6 3.7,-0.9 6.6,-0.9v-1.7c0,-0.7 -0.6,-1.1 -1.9,-1.1c-1.8,0 -3,0.5 -3.8,1.5c-0.2,0.3 -0.5,0.4 -0.8,0.2c-0.4,-0.2 -1.4,-0.6 -2.9,-1.3c-0.2,-0.1 -0.3,-0.2 -0.3,-0.4c-0.1,-0.2 0,-0.4 0.1,-0.6c0.7,-1.2 1.8,-2.2 3.1,-2.9c1.4,-0.7 2.9,-1.1 4.6,-1.1c1.9,0 3.4,0.5 4.6,1.5c1.2,1 1.8,2.4 1.8,4v10.9c-0.2,0.7 -0.1,1.3 0,1.9zM352.84998,249.24752v-1.8c-1.6,0 -2.9,0.1 -4,0.4c-0.8,0.2 -1.4,0.4 -1.9,0.7c-0.5,0.3 -0.7,0.8 -0.7,1.5c0,0.6 0.1,1 0.4,1.2c0.3,0.2 0.8,0.4 1.4,0.4c0.8,0 1.7,-0.2 2.6,-0.6c0.8,-0.6 1.6,-1.1 2.2,-1.8z"/></g><path d="M115.05,182.55248c0,-2 2.2,-2.7 5,-2.7c2.8,0 5,0.6 5,2.7c0,2.1 -1.6,4.5 -5,4.5c-3.4,0 -5,-2.5 -5,-4.5z" fill="#f9a637" stroke="#f9a637" stroke-width="1" stroke-linecap="butt"/><path d="M134.35,188.15248c0,3.9 -3.3,7.2 -7.2,7.2c-3.9,0 -7.2,-3.1 -7.2,-7.2c0,-0.3 0,-0.3 0,-0.3c0,-0.3 0,-0.4 0,-0.4c0,0 0,0.1 0,0.4c0,0 0,0 0,0.3c0,3.9 -3.3,7.2 -7.2,7.2c-3.9,0 -7.2,-3.1 -7.2,-7.2" fill="none" stroke="#f9a637" stroke-width="3" stroke-linecap="round"/><path d="M107.25,169.35248c0,-2.7 2.2,-4.9 4.9,-4.9c2.7,0 4.9,2.2 4.9,4.9c0,2.7 -2.2,4.9 -4.9,4.9c-2.7,0 -4.9,-2.2 -4.9,-4.9z" fill="#f9a637" stroke="#f9a637" stroke-width="1" stroke-linecap="butt"/><path d="M123.15,169.35248c0,-2.7 2.2,-4.9 4.9,-4.9c2.7,0 4.9,2.2 4.9,4.9c0,2.7 -2.2,4.9 -4.9,4.9c-2.7,0 -4.9,-2.2 -4.9,-4.9z" fill="#f9a637" stroke="#f9a637" stroke-width="1" stroke-linecap="butt"/><path d="M63.45,209.95248v4v-110h4.4l52,46.7h0.4l52,-46.7h4.4v110v-4" fill="none" stroke="#f9a637" stroke-width="13" stroke-linecap="round"/><g fill="#f9a637" stroke="none" stroke-width="1" stroke-linecap="butt"><path d="M259.65,175.95248h0.1v5.8c0,0.8 -0.3,1.5 -0.9,2c-0.6,0.5 -1.2,0.8 -1.9,0.8h-45.2c0.5,7.6 2.6,13.1 6.4,16.4c3.8,3.2 9.7,4.8 17.7,4.8c4.8,0 9.2,-1.4 13.2,-4.2c1.4,-1.1 2.6,-1 3.7,0.3c0.6,0.6 1.7,1.8 3.3,3.6c0.5,0.6 0.7,1.3 0.7,2.2c-0.1,0.8 -0.4,1.5 -1.1,2c-5.9,4.4 -12.5,6.5 -19.8,6.5c-10.6,0 -18.7,-2.4 -24.4,-7.3c-6.8,-5.8 -10.3,-15.7 -10.3,-29.4v-0.1c0,-13.5 2.8,-23.1 8.3,-28.8c4.9,-5.2 11.8,-7.7 20.9,-7.7c9.1,0 16.1,2.6 21,7.7c5.2,5.1 7.9,13.6 8.3,25.4zM211.65,175.95248h37.8c-0.3,-8.8 -2.1,-15 -5.5,-18.4c-2.8,-3.1 -7.2,-4.6 -13.4,-4.6c-6.1,0 -10.7,1.5 -13.5,4.6c-3.5,3.5 -5.2,9.6 -5.4,18.4z"/><path d="M334.45,177.65248c0,0.5 -0.1,1.1 -0.1,1.8c0.1,0.7 0.1,1.3 0.1,1.8c0,6.4 -0.7,12 -2.1,16.7c-1.4,4.7 -3.6,8.4 -6.7,11.3c-4.8,4.5 -11.4,6.8 -20.1,7h-0.3c-8.6,-0.2 -15.3,-2.5 -19.9,-7c-5.8,-5.5 -8.8,-14.8 -8.8,-28c0,-0.5 0,-1.1 0,-1.8c0,-0.7 0,-1.3 0,-1.8c0,-13.2 2.9,-22.5 8.8,-28c4.7,-4.5 11.3,-6.8 19.9,-7h0.3c8.6,0.2 15.3,2.5 20.1,7c5.8,5.5 8.8,14.8 8.8,28zM324.05,181.15248c0,-0.6 0,-1.1 0,-1.6v-0.3c0,-0.7 0,-1.2 0,-1.6c0,-5.1 -0.4,-9.2 -1.1,-12.5c-0.7,-3.3 -2.2,-5.9 -4.4,-8c-2.8,-2.6 -7.1,-4 -13.1,-4.2c-5.9,0.2 -10.3,1.6 -13.1,4.2c-2.1,2.1 -3.5,4.8 -4.2,8c-0.7,3.3 -1.1,7.4 -1.1,12.5c0,0.5 0,1 0,1.6v0.3c0,0.6 0,1.1 0,1.6c0,5.1 0.4,9.2 1.1,12.5c0.7,3.3 2.2,5.9 4.2,8c2.8,2.6 7.1,3.9 13.1,4c5.9,-0.1 10.3,-1.4 13.1,-4c2.2,-2.1 3.6,-4.8 4.4,-8c0.8,-3.2 1.1,-7.4 1.1,-12.5z"/><path d="M447.85,145.55248c0.6,0.8 0.7,1.6 0.4,2.5c-4.6,13.6 -11.8,35.1 -21.7,64.5c-0.4,1.3 -1.3,1.9 -2.7,1.9h-6.8c-1.3,0 -2.2,-0.6 -2.7,-1.9l-16.5,-49.4l-16.5,49.4c-0.4,1.3 -1.3,1.9 -2.7,1.9h-6.8c-1.3,0 -2.2,-0.6 -2.7,-1.9c-1.1,-3.5 -4.7,-14.2 -10.7,-32.1c-6,-17.9 -9.7,-28.7 -10.9,-32.4c-0.3,-0.9 -0.2,-1.7 0.4,-2.5c0.5,-0.8 1.3,-1.2 2.3,-1.2h4.9c1.4,0 2.3,0.6 2.7,1.9l17.4,51.9c9.5,-28.2 15.3,-45.5 17.4,-51.9c0.4,-1.3 1.3,-1.9 2.7,-1.9h5.1c1.4,0 2.3,0.6 2.8,1.9l17.2,51.9c9.5,-28.2 15.3,-45.5 17.4,-51.9c0.5,-1.3 1.4,-1.9 2.7,-1.9h5.1c0.9,0 1.6,0.4 2.2,1.2z"/><path d="M519.55,175.95248v0l0.1,5.8c0,0.8 -0.3,1.5 -0.9,2c-0.6,0.5 -1.2,0.8 -1.9,0.8h-45.2c0.5,7.6 2.6,13.1 6.4,16.4c3.8,3.2 9.7,4.8 17.7,4.8c4.8,0 9.2,-1.4 13.2,-4.2c1.4,-1.1 2.6,-1 3.7,0.3c0.6,0.6 1.7,1.8 3.3,3.6c0.5,0.6 0.7,1.3 0.7,2.2c-0.1,0.8 -0.4,1.5 -1.1,2c-5.9,4.4 -12.5,6.5 -19.8,6.5c-10.6,0 -18.7,-2.4 -24.4,-7.3c-6.8,-5.8 -10.3,-15.7 -10.3,-29.4v-0.1c0,-13.5 2.8,-23.1 8.3,-28.8c4.9,-5.2 11.8,-7.7 20.9,-7.7c9.1,0 16.1,2.6 21,7.7c5.1,5.1 7.9,13.6 8.3,25.4zM471.45,175.95248h37.8c-0.3,-8.8 -2.1,-15 -5.5,-18.4c-2.8,-3.1 -7.2,-4.6 -13.4,-4.6c-6.1,0 -10.7,1.5 -13.5,4.6c-3.4,3.5 -5.2,9.6 -5.4,18.4z"/><path d="M574.05,142.85248c0.7,0.1 1.3,0.4 1.8,0.9c0.5,0.5 0.7,1.1 0.7,1.9v5.1c0,1 -0.4,1.8 -1.1,2.3c-0.7,0.5 -1.6,0.7 -2.5,0.5c-0.9,-0.3 -1.8,-0.4 -2.8,-0.4c-3.2,-0.1 -6.3,1 -9.3,3.3c-3,2.3 -5.6,4.8 -7.7,7.6c-1.9,2.5 -3.3,5.2 -4.3,8.2v39.4c0,0.8 -0.3,1.5 -0.9,2c-0.6,0.5 -1.2,0.8 -1.9,0.8h-4.8c-0.8,0 -1.5,-0.3 -2,-0.8c-0.5,-0.5 -0.8,-1.2 -0.8,-2v-64.5c0,-0.8 0.3,-1.5 0.8,-2c0.5,-0.5 1.2,-0.8 2,-0.8h4.8c0.8,0 1.5,0.3 2,0.8c0.5,0.5 0.8,1.2 0.8,2v8.9c0.3,-0.6 0.5,-1 0.7,-1.2c6.2,-8.3 13.8,-12.4 22.6,-12.2c0.8,0 1.4,0.1 1.9,0.2z"/></g></g></g></svg>