<svg width="480px" height="360px" xmlns="http://www.w3.org/2000/svg"><rect x="216" y="124" width="80.5" height="80.5" fill-opacity="0"/><path fill="#F00" d="M259.444 155.915L259.444 155.915Q259.835 156.256 259.835 156.647L259.835 156.647Q259.444 158.113 259.444 158.455L259.444 158.455Q259.444 159.090 258.907 159.383L258.907 159.383Q257.783 159.872 254.656 161.362Q251.530 162.852 248.940 164.122L248.940 164.122L246.351 165.344Q254.754 170.082 256.757 171.353L256.757 171.353Q257.099 171.548 257.099 172.281L257.099 172.281Q257.002 172.525 256.904 173.185Q256.806 173.844 256.757 174.089L256.757 174.089Q256.757 174.528 256.171 174.821L256.171 174.821Q255.585 175.115 255.292 174.821L255.292 174.821Q243.713 167.982 242.198 167.200L242.198 167.200Q241.808 167.005 241.808 166.272L241.808 166.272Q241.905 165.979 242.003 165.344Q242.101 164.708 242.198 164.464L242.198 164.464Q242.198 163.829 242.736 163.536L242.736 163.536Q243.762 163.096 246.840 161.582Q249.918 160.067 253.460 158.357Q257.002 156.647 258.565 155.915L258.565 155.915Q259.151 155.621 259.444 155.915Z"/></svg>