<svg width="480px" height="360px" xmlns="http://www.w3.org/2000/svg"><rect x="216" y="124" width="80.5" height="80.5" fill-opacity="0"/><path fill="#F00" d="M252.165 160.653L250.553 160.653Q250.113 160.653 249.893 160.409Q249.673 160.165 249.820 159.725L249.820 159.725Q249.820 158.650 250.162 157.185L250.162 157.185Q250.162 156.794 250.504 156.550Q250.846 156.305 251.285 156.305L251.285 156.305L252.898 156.305Q253.631 156.305 253.631 157.185L253.631 157.185Q253.631 158.308 253.289 159.725L253.289 159.725Q253.289 160.116 252.947 160.385Q252.605 160.653 252.165 160.653L252.165 160.653ZM256.904 180.098L256.904 180.098Q256.904 180.195 256.904 180.464Q256.904 180.733 256.904 180.831L256.904 180.831Q253.728 188.452 246.351 188.452L246.351 188.452Q242.785 188.452 240.684 185.838Q238.583 183.224 239.267 179.560L239.267 179.560Q239.707 176.336 243.273 173.747L243.273 173.747Q244.104 173.160 244.812 172.452Q245.521 171.744 246.131 170.962Q246.742 170.180 247.231 169.325Q247.719 168.470 248.037 167.566Q248.354 166.663 248.550 165.734L248.550 165.734Q248.550 165.539 248.623 165.221Q248.696 164.904 248.696 164.855L248.696 164.855Q248.696 164.464 249.038 164.195Q249.380 163.927 249.820 163.927L249.820 163.927L251.432 163.927Q251.823 163.927 251.994 164.098Q252.165 164.269 252.165 164.855L252.165 164.855Q252.165 164.904 252.067 165.221Q251.969 165.539 251.969 165.734L251.969 165.734Q251.432 168.910 249.624 171.744Q247.817 174.577 245.081 176.482L245.081 176.482Q244.348 177.069 243.982 177.435Q243.615 177.802 243.200 178.437Q242.785 179.072 242.736 179.756L242.736 179.756Q242.296 182.052 243.518 183.615Q244.739 185.179 246.889 185.179L246.889 185.179Q248.452 185.179 249.698 184.666Q250.944 184.153 251.725 183.347Q252.507 182.540 252.947 181.856Q253.386 181.173 253.631 180.489L253.631 180.489Q253.777 180.195 254.119 179.976Q254.461 179.756 254.705 179.756L254.705 179.756L256.366 179.756Q256.513 179.756 256.904 180.098Z"/></svg>