<svg width="480px" height="360px" xmlns="http://www.w3.org/2000/svg"><rect x="216" y="124" width="80.5" height="80.5" fill-opacity="0"/><path fill="#F00" d="M265.055 157.518L265.055 157.518Q266.032 170.585 260.527 176.502L260.527 176.502Q259.190 177.891 257.518 178.842Q255.846 179.794 254.457 180.051Q253.068 180.309 251.756 180.463Q250.444 180.617 249.775 180.412L249.775 180.412Q249.363 180.412 249.158 180.103Q248.952 179.794 249.003 179.434L249.003 179.434Q249.106 178.920 249.260 178.199Q249.415 177.479 249.595 176.656Q249.775 175.833 249.826 175.473L249.826 175.473Q249.981 174.752 250.701 174.804L250.701 174.804Q254.148 174.958 256.360 172.592L256.360 172.592Q257.183 171.717 258.264 169.891Q259.344 168.064 259.344 166.624L259.344 166.624Q258.675 167.601 256.952 168.450Q255.228 169.299 254.045 169.299L254.045 169.299Q253.839 169.350 253.453 169.402Q253.068 169.453 251.910 169.428Q250.752 169.402 249.723 169.196Q248.695 168.990 247.434 168.322Q246.174 167.653 245.273 166.598Q244.373 165.543 243.756 163.666Q243.138 161.788 243.138 159.370L243.138 159.370Q243.138 159.061 243.138 158.855L243.138 158.855Q243.138 158.650 243.138 158.392L243.138 158.392Q243.138 153.402 245.453 150.727L245.453 150.727Q248.180 147.588 254.045 147.486L254.045 147.486L254.148 147.486Q260.064 147.588 262.791 150.727L262.791 150.727Q264.900 153.145 265.055 157.518ZM259.395 159.370L259.395 159.370Q259.395 159.164 259.344 158.958L259.344 158.958L259.447 158.958L259.447 158.752L259.344 158.752Q259.395 158.598 259.395 158.392L259.395 158.392Q259.395 155.511 258.469 154.482L258.469 154.482Q257.389 153.248 254.096 153.196L254.096 153.196Q250.804 153.248 249.723 154.482L249.723 154.482Q248.849 155.511 248.849 158.392L248.849 158.392Q248.849 158.598 248.849 158.752L248.849 158.752L248.849 158.958Q248.849 159.164 248.849 159.370L248.849 159.370Q248.849 162.199 249.723 163.280L249.723 163.280Q250.804 164.463 254.096 164.566L254.096 164.566Q257.441 164.463 258.469 163.280L258.469 163.280Q259.395 162.199 259.395 159.370Z"/></svg>