<svg width="480px" height="360px" xmlns="http://www.w3.org/2000/svg"><rect x="216" y="124" width="80.5" height="80.5" fill-opacity="0"/><path fill="#F00" d="M262.180 156.989L263.841 156.989Q264.281 156.989 264.452 157.258Q264.623 157.527 264.379 157.918L264.379 157.918L260.177 181.563Q259.933 184.006 257.441 185.911L257.441 185.911Q253.973 188.452 248.940 188.452L248.940 188.452Q246.937 188.452 245.350 187.988Q243.762 187.524 242.785 186.766Q241.808 186.009 241.246 185.325Q240.684 184.641 240.391 183.908L240.391 183.908Q240 183.566 240.391 183.176L240.391 183.176Q240.391 183.127 240.464 183.029Q240.537 182.931 240.708 182.809Q240.879 182.687 240.928 182.638L240.928 182.638Q241.466 182.296 242.540 181.905L242.540 181.905Q242.834 181.759 243.176 181.881Q243.518 182.003 243.664 182.296L243.664 182.296Q245.569 185.179 249.624 185.179L249.624 185.179Q252.556 185.179 255.096 183.908L255.096 183.908Q256.660 182.980 256.904 181.759L256.904 181.759L257.637 178.095Q253.631 180.635 249.624 180.635L249.624 180.635Q246.009 180.635 243.860 177.191Q241.710 173.747 242.736 167.933L242.736 167.933Q243.518 162.901 246.693 159.750Q249.869 156.598 253.826 156.452L253.826 156.452Q258.125 156.256 260.910 159.383L260.910 159.383Q261.105 158.455 261.105 157.918L261.105 157.918Q261.105 157.527 261.423 157.258Q261.740 156.989 262.180 156.989L262.180 156.989ZM258.760 172.623L258.760 172.623L260.031 165.197Q259.933 164.757 259.762 164.195Q259.591 163.634 259.102 162.779Q258.614 161.924 257.930 161.264Q257.246 160.605 256.073 160.140Q254.901 159.676 253.484 159.725L253.484 159.725Q250.895 159.725 248.892 161.948Q246.889 164.171 246.205 167.737L246.205 167.737Q245.521 172.037 246.693 174.528Q247.866 177.020 250.357 177.020L250.357 177.020Q255.243 177.020 258.760 172.623Z"/></svg>