<svg width="480px" height="360px" xmlns="http://www.w3.org/2000/svg"><rect x="216" y="124" width="80.5" height="80.5" fill-opacity="0"/><path fill="#F00" d="M263.923 178.662L263.923 178.662Q264.180 179.125 263.949 179.563Q263.717 180 263.203 180L263.203 180L258.418 180Q257.955 180 257.749 179.588L257.749 179.588L250.598 168.733L249.415 169.916L249.415 179.125Q249.415 179.486 249.158 179.743Q248.900 180 248.540 180L248.540 180L244.579 180Q244.424 180 244.296 179.949Q244.167 179.897 244.064 179.820Q243.961 179.743 243.884 179.640Q243.807 179.537 243.756 179.408Q243.704 179.280 243.704 179.125L243.704 179.125L243.704 148.051Q243.704 147.743 243.961 147.486Q244.219 147.228 244.579 147.228L244.579 147.228L248.540 147.228Q248.900 147.228 249.158 147.486Q249.415 147.743 249.415 148.051L249.415 148.051L249.415 161.942Q253.942 157.518 255.074 156.437L255.074 156.437Q255.331 156.180 255.691 156.180L255.691 156.180L261.402 156.180Q261.968 156.180 262.174 156.720Q262.379 157.260 261.968 157.672L261.968 157.672L254.765 164.720Q261.505 174.958 263.923 178.662Z"/></svg>