<svg width="480px" height="360px" xmlns="http://www.w3.org/2000/svg"><rect x="216" y="124" width="80.5" height="80.5" fill-opacity="0"/><path fill="#F00" d="M261.872 167.327L261.872 167.327L261.920 167.327L261.920 169.235Q261.920 169.627 261.627 169.896Q261.333 170.165 260.991 170.165L260.991 170.165L246.116 170.165Q246.361 173.933 248.220 175.547L248.220 175.547Q250.080 177.113 254.043 177.113L254.043 177.113Q256.391 177.113 258.398 175.743L258.398 175.743Q259.083 175.205 259.621 175.841L259.621 175.841Q259.914 176.135 260.697 177.015L260.697 177.015Q260.942 177.309 260.917 177.725Q260.893 178.141 260.550 178.385L260.550 178.385Q257.615 180.538 254.043 180.538L254.043 180.538Q248.807 180.538 246.018 178.141L246.018 178.141Q242.642 175.254 242.642 168.453L242.642 168.453L242.642 168.404Q242.642 161.749 245.382 158.911L245.382 158.911Q247.780 156.367 252.257 156.367Q256.734 156.367 259.180 158.911L259.180 158.911Q261.676 161.505 261.872 167.327ZM246.067 167.327L246.067 167.327L258.495 167.327Q258.349 162.972 256.685 161.260L256.685 161.260Q255.315 159.743 252.281 159.743Q249.248 159.743 247.829 161.260L247.829 161.260Q246.165 162.972 246.067 167.327Z"/></svg>