<svg width="480px" height="360px" xmlns="http://www.w3.org/2000/svg"><rect x="216" y="124" width="80.5" height="80.5" fill-opacity="0"/><path fill="#F00" d="M263.046 169.774Q263.437 169.774 263.706 170.043Q263.976 170.312 263.976 170.703L263.976 170.703L263.976 172.269Q263.976 172.661 263.706 172.930Q263.437 173.199 263.046 173.199L263.046 173.199L262.116 173.199L262.116 179.070Q262.116 179.462 261.823 179.731Q261.529 180 261.187 180L261.187 180L259.621 180Q259.229 180 258.960 179.731Q258.691 179.462 258.691 179.070L258.691 179.070L258.691 173.199L243.327 173.199Q242.936 173.199 242.667 172.930Q242.398 172.661 242.398 172.269L242.398 172.269L242.398 169.284Q242.398 168.697 242.789 168.159L242.789 168.159Q244.061 166.495 250.716 157.810Q257.370 149.125 257.957 148.343L257.957 148.343Q258.251 148 258.691 148L258.691 148L261.187 148Q261.529 148 261.823 148.269Q262.116 148.538 262.116 148.930L262.116 148.930L262.116 169.774L263.046 169.774ZM245.872 169.774L258.691 169.774L258.691 152.991L245.872 169.774Z"/></svg>