<svg width="480px" height="360px" xmlns="http://www.w3.org/2000/svg"><rect x="216" y="124" width="80.5" height="80.5" fill-opacity="0"/><path fill="#F00" d="M263.100 167.087L263.100 167.087L263.100 168.116L263.100 170.071Q263.100 170.431 262.868 170.688Q262.637 170.945 262.277 170.945L262.277 170.945L248.695 170.945Q249.003 172.746 250.084 173.621L250.084 173.621Q251.421 174.804 254.611 174.804L254.611 174.804Q256.617 174.804 258.264 173.775L258.264 173.775Q258.881 173.363 259.344 173.929L259.344 173.929Q259.859 174.495 262.019 176.965L262.019 176.965Q262.277 177.222 262.251 177.582Q262.225 177.942 261.916 178.199L261.916 178.199Q258.675 180.514 254.611 180.514L254.611 180.514Q249.312 180.514 246.379 177.942L246.379 177.942Q242.830 174.958 242.830 168.116L242.830 168.116L242.830 168.064Q242.830 161.428 245.711 158.392L245.711 158.392Q248.283 155.666 252.965 155.666Q257.646 155.666 260.219 158.392L260.219 158.392Q262.894 161.170 263.100 167.087ZM248.540 167.087L248.540 167.087L257.389 167.087Q257.338 163.640 256.103 162.354L256.103 162.354Q255.177 161.376 252.965 161.376Q250.752 161.376 249.826 162.354L249.826 162.354Q248.592 163.640 248.540 167.087Z"/></svg>