<svg width="480px" height="360px" xmlns="http://www.w3.org/2000/svg"><rect x="216" y="124" width="80.5" height="80.5" fill-opacity="0"/><path fill="#F00" d="M254.119 161.924L254.119 161.924Q252.116 163.585 249.380 163.585L249.380 163.585Q246.302 163.585 245.179 161.924L245.179 161.924Q243.420 159.921 244.299 155.768L244.299 155.768L244.299 155.377L244.299 155.035Q245.179 150.540 247.377 148.831L247.377 148.831Q249.331 147.218 252.116 147.218L252.116 147.218Q254.901 147.463 256.269 148.831L256.269 148.831Q258.027 150.834 257.197 155.035L257.197 155.035L257.197 155.377L257.197 155.719Q256.269 160.214 254.119 161.924ZM247.573 155.573L247.573 155.915Q247.426 157.087 247.377 157.502Q247.328 157.918 247.402 158.577Q247.475 159.237 247.719 159.579L247.719 159.579Q248.208 160.311 249.722 160.311L249.722 160.311Q251.432 160.018 252.116 159.579L252.116 159.579Q252.263 159.432 252.409 159.261Q252.556 159.090 252.653 158.919Q252.751 158.748 252.849 158.504Q252.947 158.260 253.020 158.089Q253.093 157.918 253.166 157.576Q253.240 157.234 253.289 157.087Q253.337 156.940 253.435 156.525Q253.533 156.110 253.533 155.915L253.533 155.915L253.533 155.377L253.533 155.035Q254.168 152.202 253.386 151.371L253.386 151.371Q252.898 150.638 251.383 150.638L251.383 150.638Q249.673 150.931 248.989 151.371L248.989 151.371Q248.794 151.518 248.647 151.689Q248.501 151.860 248.379 152.153Q248.256 152.446 248.183 152.592Q248.110 152.739 247.988 153.154Q247.866 153.569 247.841 153.692Q247.817 153.814 247.695 154.351Q247.573 154.889 247.573 155.035L247.573 155.035L247.573 155.573ZM269.166 164.464L269.166 164.464Q272.098 164.464 273.173 166.125L273.173 166.125Q274.931 168.079 274.101 172.281L274.101 172.281L274.101 172.672L274.101 173.014Q273.221 177.508 271.023 179.218L271.023 179.218Q269.020 180.831 266.284 180.831L266.284 180.831Q263.499 180.586 262.082 179.218L262.082 179.218Q260.373 177.215 261.203 173.014L261.203 173.014L261.203 172.672L261.203 172.281Q262.082 167.835 264.281 166.125L264.281 166.125Q266.577 164.464 269.166 164.464ZM270.827 172.476L270.827 172.085Q271.414 169.496 270.632 168.470L270.632 168.470Q270.144 167.737 268.629 167.737L268.629 167.737Q266.968 168.031 266.284 168.470L266.284 168.470Q266.089 168.617 265.942 168.788Q265.795 168.959 265.649 169.227Q265.502 169.496 265.429 169.667Q265.356 169.838 265.258 170.229Q265.160 170.620 265.111 170.766Q265.063 170.913 264.965 171.450Q264.867 171.988 264.818 172.085L264.818 172.085L264.818 172.672L264.818 173.014Q264.183 175.847 265.014 176.629L265.014 176.629Q265.502 177.362 267.017 177.362L267.017 177.362Q268.727 177.118 269.362 176.629L269.362 176.629Q269.557 176.482 269.704 176.311Q269.850 176.140 269.997 175.872Q270.144 175.603 270.217 175.456Q270.290 175.310 270.388 174.895Q270.485 174.479 270.534 174.333Q270.583 174.186 270.681 173.673Q270.779 173.160 270.827 173.014L270.827 173.014L270.827 172.476ZM287.731 165.930L287.731 165.930Q289.490 167.933 288.660 172.085L288.660 172.085L288.660 172.476L288.660 172.818Q287.731 177.313 285.533 179.023L285.533 179.023Q283.579 180.635 280.843 180.635L280.843 180.635Q278.009 180.391 276.641 179.023L276.641 179.023Q274.882 177.020 275.713 172.818L275.713 172.818L275.713 172.476L275.713 172.085Q276.641 167.640 278.840 165.930L278.840 165.930Q280.794 164.269 283.530 164.269L283.530 164.269Q286.363 164.562 287.731 165.930ZM285.191 172.476L285.191 172.085Q285.826 169.301 284.995 168.470L284.995 168.470Q284.507 167.737 282.992 167.737L282.992 167.737Q281.331 168.031 280.647 168.470L280.647 168.470Q280.452 168.617 280.305 168.788Q280.159 168.959 280.012 169.227Q279.866 169.496 279.792 169.667Q279.719 169.838 279.621 170.229Q279.524 170.620 279.475 170.766Q279.426 170.913 279.328 171.450Q279.231 171.988 279.182 172.085L279.182 172.085L279.182 172.672L279.182 173.014Q278.547 175.847 279.377 176.629L279.377 176.629Q279.866 177.362 281.380 177.362L281.380 177.362Q283.090 177.118 283.725 176.629L283.725 176.629Q283.921 176.482 284.067 176.311Q284.214 176.140 284.360 175.872Q284.507 175.603 284.580 175.456Q284.653 175.310 284.751 174.895Q284.849 174.479 284.898 174.333Q284.947 174.186 285.044 173.673Q285.142 173.160 285.191 173.014L285.191 173.014L285.191 172.476ZM271.169 148.489L271.169 148.489Q271.169 149.221 271.023 149.368L271.023 149.368Q264.818 158.650 250.650 179.365L250.650 179.365Q250.357 179.902 249.722 179.902L249.722 179.902L247.915 179.902Q247.377 179.902 247.182 179.560L247.182 179.560Q247.182 179.023 247.377 178.632L247.377 178.632Q249.673 175.408 258.663 162.095Q267.652 148.782 267.750 148.635L267.750 148.635Q267.994 148.098 268.629 148.098L268.629 148.098L270.437 148.098Q271.023 148.098 271.169 148.489Z"/></svg>