<svg width="480px" height="360px" xmlns="http://www.w3.org/2000/svg"><rect x="216" y="124" width="80.5" height="80.5" fill-opacity="0"/><path fill="#F00" d="M244.322 169.505L244.322 169.505Q244.270 168.424 244.141 164.669Q244.013 160.913 243.910 157.723Q243.807 154.534 243.756 153.762L243.756 153.762Q243.756 153.556 243.756 153.299L243.756 153.299L243.756 148.823Q243.756 148.463 244.013 148.232Q244.270 148 244.630 148L244.630 148L248.489 148Q248.849 148 249.106 148.232Q249.363 148.463 249.363 148.823L249.363 148.823L249.363 153.299Q249.363 153.505 249.363 153.762L249.363 153.762Q249.312 154.740 249.080 161.453Q248.849 168.167 248.797 169.505L248.797 169.505Q248.797 169.865 248.540 170.096Q248.283 170.328 247.974 170.328L247.974 170.328L245.145 170.328Q244.939 170.328 244.733 170.225Q244.527 170.122 244.424 169.942Q244.322 169.762 244.322 169.505ZM248.592 174.032Q248.952 174.032 249.209 174.289Q249.466 174.547 249.466 174.907L249.466 174.907L249.466 179.125Q249.466 179.486 249.209 179.743Q248.952 180 248.592 180L248.592 180L244.630 180Q244.270 180 244.013 179.743Q243.756 179.486 243.756 179.125L243.756 179.125L243.756 174.907Q243.756 174.547 244.013 174.289Q244.270 174.032 244.630 174.032L244.630 174.032L248.592 174.032Z"/></svg>