<svg width="480px" height="360px" xmlns="http://www.w3.org/2000/svg"><rect x="216" y="124" width="80.5" height="80.5" fill-opacity="0"/><path fill="#F00" d="M249.038 147.707L249.038 147.707Q252.067 158.015 250.113 167.933L250.113 167.933Q248.354 177.899 241.759 188.110L241.759 188.110Q241.466 188.647 240.831 188.647L240.831 188.647L238.485 188.647Q238.339 188.647 238.241 188.525Q238.144 188.403 238.144 188.256L238.144 188.256Q238.144 187.915 238.290 187.719L238.290 187.719Q238.583 187.377 239.023 186.718Q239.463 186.058 240.708 183.933Q241.954 181.808 243.005 179.609Q244.055 177.411 245.179 174.186Q246.302 170.962 246.840 167.933L246.840 167.933Q247.377 164.855 247.377 161.679Q247.377 158.504 247.060 156.183Q246.742 153.863 246.327 151.957Q245.911 150.052 245.569 149.075L245.569 149.075L245.227 148.098Q245.227 147.707 245.374 147.560L245.374 147.560Q245.765 147.169 245.960 147.169L245.960 147.169L248.305 147.169Q248.745 147.169 249.038 147.707Z"/></svg>