<svg width="480px" height="360px" xmlns="http://www.w3.org/2000/svg"><rect x="216" y="124" width="80.5" height="80.5" fill-opacity="0"/><path fill="#F00" d="M269.273 174.804L269.273 174.804Q269.633 174.804 269.865 175.061Q270.096 175.318 270.096 175.627L270.096 175.627L270.096 179.640Q270.096 180 269.865 180.257Q269.633 180.514 269.273 180.514L269.273 180.514Q269.068 180.514 268.656 180.514L268.656 180.514Q265.158 180.514 262.688 178.096L262.688 178.096Q259.087 180.514 253.942 180.514L253.942 180.514Q249.209 180.514 246.199 178.045Q243.190 175.576 243.190 171.151L243.190 171.151Q243.190 165.338 248.746 161.170L248.746 161.170Q247.871 159.987 247.460 159.267L247.460 159.267Q246.174 157.158 246.174 155.305L246.174 155.305Q246.174 153.711 246.791 152.270Q247.408 150.830 248.437 149.775Q249.466 148.720 250.932 148.103Q252.399 147.486 253.942 147.486L253.942 147.486Q257.183 147.486 259.473 149.775Q261.762 152.064 261.762 155.305L261.762 155.305Q261.762 158.289 259.293 161.068L259.293 161.068Q258.469 162.045 257.286 162.971L257.286 162.971Q259.395 165.646 262.328 169.042L262.328 169.042Q262.534 168.270 262.534 167.498L262.534 167.498L262.534 166.572Q262.534 166.212 262.765 165.955Q262.997 165.698 263.357 165.698L263.357 165.698L267.370 165.698Q267.730 165.698 267.961 165.955Q268.193 166.212 268.193 166.572L268.193 166.572L268.193 167.498Q268.193 170.894 266.547 173.878L266.547 173.878Q267.370 174.804 268.656 174.804L268.656 174.804Q268.862 174.804 269.273 174.804ZM255.434 153.814Q254.817 153.196 253.942 153.196Q253.068 153.196 252.450 153.814Q251.833 154.431 251.833 155.305L251.833 155.305Q251.833 155.666 252.656 156.849L252.656 156.849Q253.068 157.415 253.839 158.444L253.839 158.444Q254.508 157.878 255.023 157.312L255.023 157.312Q256.051 156.129 256.051 155.305L256.051 155.305Q256.051 154.431 255.434 153.814ZM253.942 174.804L253.942 174.804Q256.875 174.804 258.830 173.723L258.830 173.723Q254.817 169.042 252.193 165.698L252.193 165.698Q248.900 168.064 248.900 171.151L248.900 171.151Q248.900 173.055 250.315 173.929Q251.730 174.804 253.942 174.804Z"/></svg>