<svg width="480px" height="360px" xmlns="http://www.w3.org/2000/svg"><rect x="216" y="124" width="80.5" height="80.5" fill-opacity="0"/><path fill="#F00" d="M266.128 156.269Q266.520 156.269 266.789 156.538Q267.058 156.807 267.058 157.199L267.058 157.199L267.058 158.765Q267.058 159.156 266.789 159.425Q266.520 159.694 266.128 159.694L266.128 159.694L256.294 159.694L256.294 187.095Q256.294 187.486 256.024 187.755Q255.755 188.024 255.364 188.024L255.364 188.024L253.798 188.024Q253.407 188.024 253.138 187.755Q252.869 187.486 252.869 187.095L252.869 187.095L252.869 159.694L243.034 159.694Q242.642 159.694 242.373 159.425Q242.104 159.156 242.104 158.765L242.104 158.765L242.104 157.199Q242.104 156.807 242.373 156.538Q242.642 156.269 243.034 156.269L243.034 156.269L252.869 156.269L252.869 148.979Q252.869 148.587 253.138 148.318Q253.407 148.049 253.798 148.049L253.798 148.049L255.364 148.049Q255.755 148.049 256.024 148.318Q256.294 148.587 256.294 148.979L256.294 148.979L256.294 156.269L266.128 156.269Z"/></svg>