<svg width="480px" height="360px" xmlns="http://www.w3.org/2000/svg"><rect x="216" y="124" width="80.5" height="80.5" fill-opacity="0"/><path fill="#F00" d="M266.373 173.443L266.373 173.443Q266.716 173.590 266.862 173.957Q267.009 174.324 266.862 174.667L266.862 174.667Q265.492 177.456 263.144 178.924L263.144 178.924Q260.502 180.538 256.196 180.538L256.196 180.538Q251.058 180.538 247.780 177.945L247.780 177.945Q242.740 173.982 242.740 164Q242.740 154.018 247.780 150.006L247.780 150.006Q251.058 147.462 256.196 147.462L256.196 147.462Q260.453 147.462 263.144 149.076L263.144 149.076Q265.492 150.495 266.862 153.284L266.862 153.284Q267.009 153.676 266.862 154.043Q266.716 154.410 266.373 154.557L266.373 154.557Q265.443 154.948 264.905 155.144L264.905 155.144Q264.122 155.437 263.731 154.703L263.731 154.703Q262.703 152.697 260.917 151.768Q259.131 150.838 256.196 150.838L256.196 150.838Q252.232 150.838 249.884 152.697L249.884 152.697Q248.905 153.480 248.171 154.654Q247.437 155.829 247.046 156.930Q246.654 158.031 246.459 159.450Q246.263 160.869 246.214 161.823Q246.165 162.777 246.165 164L246.165 164Q246.165 164.979 246.190 165.786Q246.214 166.593 246.336 167.743Q246.459 168.893 246.703 169.847Q246.948 170.801 247.339 171.829Q247.731 172.856 248.391 173.737Q249.052 174.618 249.884 175.303L249.884 175.303Q252.232 177.113 256.196 177.113L256.196 177.113Q259.131 177.113 260.917 176.208Q262.703 175.303 263.731 173.297L263.731 173.297Q264.122 172.514 264.905 172.856L264.905 172.856Q265.884 173.248 266.373 173.443Z"/></svg>