<svg width="480px" height="360px" xmlns="http://www.w3.org/2000/svg"><rect x="216" y="124" width="80.5" height="80.5" fill-opacity="0"/><path fill="#F00" d="M247.719 148.049L258.467 148.049Q262.424 148.049 264.721 150.785Q267.017 153.521 266.479 157.478L266.479 157.478L266.284 158.211Q265.747 161.093 263.841 163.389Q261.936 165.685 259.200 166.760L259.200 166.760Q262.669 172.818 262.669 178.925L262.669 178.925Q262.669 179.316 262.302 179.682Q261.936 180.049 261.545 180.049L261.545 180.049L259.933 180.049Q259.640 180.049 259.420 179.805Q259.200 179.560 259.200 179.316L259.200 179.316Q259.200 175.750 257.930 172.550Q256.660 169.350 255.389 167.689L255.389 167.689L246.840 167.689L244.837 179.121Q244.837 179.511 244.495 179.853L244.495 179.853Q244.397 179.853 244.104 179.951Q243.811 180.049 243.762 180.049L243.762 180.049L242.101 180.049Q241.759 180.049 241.563 179.853Q241.368 179.658 241.368 179.121L241.368 179.121Q241.905 175.701 243.933 164.171Q245.960 152.641 246.644 148.928L246.644 148.928Q246.644 148.586 247.035 148.195L247.035 148.195Q247.084 148.195 247.377 148.122Q247.670 148.049 247.719 148.049L247.719 148.049ZM262.669 158.211L262.815 157.478Q263.060 156.256 262.766 155.157Q262.473 154.058 261.789 153.252Q261.105 152.446 260.055 151.957Q259.005 151.469 257.734 151.469L257.734 151.469L249.380 151.469L247.182 164.220L255.585 164.220Q258.027 164.220 260.128 162.437Q262.229 160.653 262.669 158.211L262.669 158.211Z"/></svg>