<svg width="480px" height="360px" xmlns="http://www.w3.org/2000/svg"><rect x="216" y="124" width="80.5" height="80.5" fill-opacity="0"/><path fill="#F00" d="M261.040 177.015L261.040 177.015Q261.284 177.309 261.260 177.700Q261.235 178.092 260.893 178.336L260.893 178.336Q257.957 180.489 254.385 180.489L254.385 180.489L254.336 180.489L254.336 184.159Q254.336 184.550 254.043 184.820Q253.749 185.089 253.407 185.089L253.407 185.089L251.841 185.089Q251.450 185.089 251.180 184.820Q250.911 184.550 250.911 184.159L250.911 184.159L250.911 180.196Q248.122 179.609 246.361 178.092L246.361 178.092Q242.985 175.205 242.985 168.404L242.985 168.404L242.985 168.355Q242.985 161.602 246.361 158.765L246.361 158.765Q248.122 157.199 250.911 156.661L250.911 156.661L250.911 152.306Q250.911 151.914 251.180 151.645Q251.450 151.376 251.841 151.376L251.841 151.376L253.407 151.376Q253.749 151.376 254.043 151.645Q254.336 151.914 254.336 152.306L254.336 152.306L254.336 156.318L254.385 156.318Q257.957 156.318 260.893 158.471L260.893 158.471Q261.187 158.716 261.235 159.131Q261.284 159.547 261.040 159.841L261.040 159.841Q260.746 160.135 260.012 161.015L260.012 161.015Q259.425 161.651 258.740 161.162L258.740 161.162Q256.783 159.743 254.385 159.743L254.385 159.743Q250.422 159.743 248.563 161.309L248.563 161.309Q247.291 162.434 246.850 164.171Q246.410 165.908 246.410 168.404L246.410 168.404L246.410 168.502Q246.410 170.067 246.557 171.242Q246.703 172.416 247.193 173.590Q247.682 174.765 248.563 175.498L248.563 175.498Q250.422 177.113 254.385 177.113L254.385 177.113Q256.783 177.113 258.740 175.694L258.740 175.694Q259.425 175.205 259.963 175.841L259.963 175.841Q260.355 176.232 261.040 177.015Z"/></svg>