<svg width="480px" height="360px" xmlns="http://www.w3.org/2000/svg"><rect x="216" y="124" width="80.5" height="80.5" fill-opacity="0"/><path fill="#F00" d="M242.736 175.750L244.397 175.750Q244.837 175.750 245.056 175.994Q245.276 176.238 245.130 176.629L245.130 176.629Q245.130 177.753 244.739 179.169L244.739 179.169Q244.739 179.560 244.421 179.829Q244.104 180.098 243.664 180.098L243.664 180.098L242.052 180.098Q241.319 180.098 241.319 179.169L241.319 179.169Q241.319 178.095 241.661 176.629L241.661 176.629Q241.661 176.238 242.003 175.994Q242.345 175.750 242.736 175.750L242.736 175.750ZM247.475 148.293L249.136 148.293Q249.380 148.293 249.576 148.391Q249.771 148.489 249.844 148.708Q249.918 148.928 249.869 149.173L249.869 149.173L249.136 153.911Q246.205 168.275 245.472 172.085L245.472 172.085Q245.179 173.014 244.397 173.014L244.397 173.014L243.664 173.014Q242.931 173.014 242.931 172.085L242.931 172.085L245.667 153.911L246.400 149.173Q246.400 148.782 246.718 148.537Q247.035 148.293 247.475 148.293L247.475 148.293Z"/></svg>