<svg width="480px" height="360px" xmlns="http://www.w3.org/2000/svg"><rect x="216" y="124" width="80.5" height="80.5" fill-opacity="0"/><path fill="#F00" d="M265.518 163.228L265.518 163.228Q265.518 163.691 265.518 164L265.518 164Q265.518 164.412 265.518 164.772L265.518 164.772Q265.518 175.061 260.939 178.508L260.939 178.508Q260.116 179.125 259.190 179.537Q258.264 179.949 257.106 180.206Q255.949 180.463 254.662 180.514L254.662 180.514L254.508 180.514Q250.752 180.412 248.232 178.508L248.232 178.508Q243.601 175.061 243.601 164.772L243.601 164.772Q243.601 164.412 243.601 164L243.601 164Q243.601 163.537 243.601 163.228L243.601 163.228Q243.601 152.887 248.232 149.441L248.232 149.441Q250.752 147.588 254.508 147.486L254.508 147.486L254.662 147.486Q258.418 147.588 260.939 149.441L260.939 149.441Q265.518 152.887 265.518 163.228ZM259.859 164.772L259.859 164.772Q259.859 164.463 259.807 164.051L259.807 164.051L259.807 163.897Q259.859 163.537 259.859 163.228L259.859 163.228Q259.859 159.781 259.395 157.672L259.395 157.672Q258.881 155.305 257.801 154.277L257.801 154.277Q256.720 153.248 254.559 153.196L254.559 153.196Q252.399 153.248 251.318 154.277Q250.238 155.305 249.775 157.672L249.775 157.672Q249.312 159.781 249.312 163.228L249.312 163.228Q249.312 163.537 249.312 163.897L249.312 163.897L249.312 164.051Q249.312 164.463 249.312 164.772L249.312 164.772Q249.312 168.167 249.775 170.328L249.775 170.328Q250.238 172.695 251.318 173.723L251.318 173.723Q252.399 174.701 254.559 174.804L254.559 174.804Q256.720 174.701 257.801 173.723L257.801 173.723Q258.881 172.695 259.395 170.328L259.395 170.328Q259.859 168.167 259.859 164.772Z"/></svg>