<svg width="480px" height="360px" xmlns="http://www.w3.org/2000/svg"><rect x="216" y="124" width="80.5" height="80.5" fill-opacity="0"/><path fill="#F00" d="M274.296 148.195L274.296 148.195Q274.394 148.293 274.467 148.562Q274.540 148.831 274.638 148.928L274.638 148.928Q274.101 152.397 272.098 163.927Q270.095 175.456 269.362 179.121L269.362 179.121Q269.362 179.511 269.020 179.853L269.020 179.853Q268.922 179.853 268.653 179.951Q268.385 180.049 268.287 180.049L268.287 180.049L266.675 180.049Q266.284 180.049 266.113 179.853Q265.942 179.658 265.942 179.121L265.942 179.121L269.948 156.403Q259.395 175.847 257.392 179.511L257.392 179.511Q257.099 180.049 256.464 180.049L256.464 180.049L254.119 180.049Q253.386 180.049 253.386 179.511L253.386 179.511L248.843 156.403L244.837 179.121Q244.837 179.511 244.495 179.853L244.495 179.853Q244.397 179.853 244.104 179.951Q243.811 180.049 243.762 180.049L243.762 180.049L242.101 180.049Q241.759 180.049 241.563 179.853Q241.368 179.658 241.368 179.121L241.368 179.121Q241.905 175.701 243.933 164.171Q245.960 152.641 246.644 148.928L246.644 148.928Q246.644 148.586 247.035 148.195L247.035 148.195Q247.084 148.195 247.377 148.122Q247.670 148.049 247.719 148.049L247.719 148.049L250.113 148.049Q250.846 148.049 250.846 148.586L250.846 148.586L255.927 175.115Q268.287 152.592 270.485 148.586L270.485 148.586Q270.730 148.049 271.365 148.049L271.365 148.049L273.759 148.049Q274.101 148.049 274.296 148.195Z"/></svg>