<svg width="480px" height="360px" xmlns="http://www.w3.org/2000/svg"><rect x="216" y="124" width="80.5" height="80.5" fill-opacity="0"/><path fill="#F00" d="M248.540 147.331Q248.900 147.331 249.158 147.563Q249.415 147.794 249.415 148.154L249.415 148.154L249.415 152.373Q249.415 152.733 249.158 152.990Q248.900 153.248 248.540 153.248L248.540 153.248L244.579 153.248Q244.219 153.248 243.961 152.990Q243.704 152.733 243.704 152.373L243.704 152.373L243.704 148.154Q243.704 147.794 243.961 147.563Q244.219 147.331 244.579 147.331L244.579 147.331L248.540 147.331ZM244.579 156.180L248.540 156.180Q248.900 156.180 249.158 156.437Q249.415 156.695 249.415 157.055L249.415 157.055L249.415 179.125Q249.415 179.486 249.158 179.743Q248.900 180 248.540 180L248.540 180L244.579 180Q244.322 180 244.116 179.897Q243.910 179.794 243.807 179.588Q243.704 179.383 243.704 179.125L243.704 179.125L243.704 157.055Q243.704 156.695 243.961 156.437Q244.219 156.180 244.579 156.180L244.579 156.180Z"/></svg>