<svg width="480px" height="360px" xmlns="http://www.w3.org/2000/svg"><rect x="216" y="124" width="80.5" height="80.5" fill-opacity="0"/><path fill="#F00" d="M261.505 166.984L261.505 166.984Q265.826 173.209 266.238 179.074L266.238 179.074Q266.289 179.434 266.032 179.717Q265.775 180 265.415 180L265.415 180Q264.283 180 261.402 180L261.402 180Q261.042 180 260.810 179.768Q260.579 179.537 260.527 179.228L260.527 179.228Q260.064 173.878 255.640 168.527L255.640 168.527L249.775 168.527L249.775 179.125Q249.775 179.486 249.518 179.743Q249.260 180 248.900 180L248.900 180L244.939 180Q244.579 180 244.322 179.743Q244.064 179.486 244.064 179.125L244.064 179.125L244.064 148.823Q244.064 148.463 244.322 148.232Q244.579 148 244.939 148L244.939 148L256.103 148Q260.270 148 263.177 150.907Q266.084 153.814 266.084 157.929L266.084 157.929L266.084 158.598Q266.084 161.170 264.849 163.383Q263.614 165.595 261.505 166.984ZM260.424 158.598L260.424 158.598L260.424 157.929Q260.424 156.180 259.164 154.920Q257.904 153.659 256.103 153.659L256.103 153.659L249.775 153.659L249.775 162.868L256.103 162.868Q257.286 162.868 258.264 162.277Q259.241 161.685 259.833 160.707Q260.424 159.730 260.424 158.598Z"/></svg>