<svg width="480px" height="360px" xmlns="http://www.w3.org/2000/svg"><rect x="216" y="124" width="80.5" height="80.5" fill-opacity="0"/><path fill="#F00" d="M261.969 148Q262.459 148 262.728 148.416Q262.997 148.832 262.801 149.321L262.801 149.321L253.651 168.697L253.651 179.070Q253.651 179.462 253.382 179.731Q253.113 180 252.722 180L252.722 180L251.156 180Q250.765 180 250.495 179.731Q250.226 179.462 250.226 179.070L250.226 179.070L250.226 168.697Q243.229 153.872 241.076 149.321L241.076 149.321Q240.832 148.832 241.125 148.416Q241.419 148 241.908 148L241.908 148L243.621 148Q244.208 148 244.453 148.489L244.453 148.489L251.939 164.343Q258.104 151.327 259.425 148.489L259.425 148.489Q259.670 148 260.257 148L260.257 148L261.969 148Z"/></svg>