<svg width="480px" height="360px" xmlns="http://www.w3.org/2000/svg"><rect x="216" y="124" width="80.5" height="80.5" fill-opacity="0"/><path fill="#F00" d="M267.066 148.586L267.066 148.586Q267.066 149.124 266.919 149.515L266.919 149.515L255.096 164.024Q259.982 174.577 261.789 178.583L261.789 178.583Q261.789 179.121 261.643 179.511L261.643 179.511Q261.350 180.049 260.715 180.049L260.715 180.049L258.907 180.049Q258.516 180.049 258.174 179.658L258.174 179.658L252.556 167.298Q244.348 177.508 242.540 179.658L242.540 179.658Q242.198 180.049 241.612 180.049L241.612 180.049L239.805 180.049Q239.365 180.049 239.072 179.511L239.072 179.511Q238.925 179.316 239.267 178.583L239.267 178.583L251.090 164.024Q246.156 153.472 244.348 149.515L244.348 149.515Q244.348 148.928 244.544 148.586L244.544 148.586Q244.788 148.049 245.472 148.049L245.472 148.049L247.279 148.049Q247.621 148.049 248.012 148.391L248.012 148.391L253.631 160.751Q261.838 150.589 263.646 148.391L263.646 148.391Q263.988 148.049 264.525 148.049L264.525 148.049L266.333 148.049Q266.821 148.049 267.066 148.586Z"/></svg>