<svg width="480px" height="360px" xmlns="http://www.w3.org/2000/svg"><rect x="216" y="124" width="80.5" height="80.5" fill-opacity="0"/><path fill="#F00" d="M242.691 147.168L244.257 147.168Q244.502 147.168 244.722 147.291Q244.942 147.413 245.064 147.609Q245.187 147.804 245.187 148.098L245.187 148.098L245.187 151.670Q245.187 152.893 243.768 155.046L243.768 155.046Q243.572 155.388 243.180 155.413Q242.789 155.437 242.544 155.144L242.544 155.144Q242.202 154.703 242.544 154.312L242.544 154.312Q243.621 153.089 243.621 151.670L243.621 151.670L243.621 151.474L242.691 151.474Q242.300 151.474 242.031 151.205Q241.761 150.936 241.761 150.544L241.761 150.544L241.761 148.098Q241.761 147.706 242.031 147.437Q242.300 147.168 242.691 147.168L242.691 147.168ZM248.024 147.168L249.541 147.168Q249.835 147.168 250.031 147.291Q250.226 147.413 250.349 147.609Q250.471 147.804 250.471 148.098L250.471 148.098L250.471 151.670Q250.471 152.942 249.101 155.046L249.101 155.046Q248.905 155.388 248.514 155.413Q248.122 155.437 247.878 155.144L247.878 155.144Q247.535 154.703 247.878 154.312L247.878 154.312Q248.954 153.089 248.954 151.670L248.954 151.670L248.954 151.474L248.024 151.474Q247.633 151.474 247.364 151.205Q247.095 150.936 247.095 150.544L247.095 150.544L247.095 148.098Q247.095 147.902 247.168 147.731Q247.242 147.560 247.364 147.437Q247.486 147.315 247.657 147.242Q247.829 147.168 248.024 147.168L248.024 147.168Z"/></svg>