<svg width="480px" height="360px" xmlns="http://www.w3.org/2000/svg"><rect x="216" y="124" width="80.5" height="80.5" fill-opacity="0"/><path fill="#F00" d="M261.578 176.575Q261.969 176.575 262.239 176.844Q262.508 177.113 262.508 177.505L262.508 177.505L262.508 179.070Q262.508 179.462 262.239 179.731Q261.969 180 261.578 180L261.578 180L244.844 180Q244.453 180 244.183 179.731Q243.914 179.462 243.914 179.070L243.914 179.070L243.914 148.930Q243.914 148.538 244.183 148.269Q244.453 148 244.844 148L244.844 148L260.257 148Q260.648 148 260.917 148.269Q261.187 148.538 261.187 148.930L261.187 148.930L261.187 150.446Q261.187 150.838 260.917 151.107Q260.648 151.376 260.257 151.376L260.257 151.376L247.339 151.376L247.339 161.945L257.713 161.945Q258.104 161.945 258.373 162.214Q258.642 162.483 258.642 162.875L258.642 162.875L258.642 164.440Q258.642 164.832 258.373 165.101Q258.104 165.370 257.713 165.370L257.713 165.370L247.339 165.370L247.339 176.575L261.578 176.575Z"/></svg>