<svg width="480px" height="360px" xmlns="http://www.w3.org/2000/svg"><rect x="216" y="124" width="80.5" height="80.5" fill-opacity="0"/><path fill="#F00" d="M259.241 162.457L259.241 162.457Q259.653 162.714 259.653 163.228L259.653 163.228L259.653 167.190Q259.653 167.704 259.241 167.961L259.241 167.961Q249.826 172.952 244.270 175.884L244.270 175.884Q243.859 176.090 243.447 175.859Q243.035 175.627 243.035 175.113L243.035 175.113L243.035 170.637Q243.035 170.122 243.498 169.865L243.498 169.865L252.244 165.235Q251.473 164.823 250.289 164.180Q249.106 163.537 246.714 162.277Q244.322 161.016 243.498 160.553L243.498 160.553Q243.035 160.296 243.035 159.781L243.035 159.781L243.035 155.305Q243.035 154.791 243.447 154.559Q243.859 154.328 244.270 154.534L244.270 154.534Q253.119 159.215 259.241 162.457Z"/></svg>