<svg width="480px" height="360px" xmlns="http://www.w3.org/2000/svg"><rect x="216" y="124" width="80.5" height="80.5" fill-opacity="0"/><path fill="#F00" d="M265.492 164.245Q266.667 164.245 267.474 165.052Q268.281 165.859 268.281 167.034L268.281 167.034L268.281 172.856Q268.281 173.492 268.037 174.031L268.037 174.031Q264.856 180.538 256.685 180.538L256.685 180.538Q251.401 180.538 248.024 177.994L248.024 177.994Q242.740 173.982 242.740 163.976Q242.740 153.969 248.024 150.006L248.024 150.006Q251.401 147.462 256.685 147.462L256.685 147.462Q260.991 147.462 263.609 148.856Q266.226 150.251 267.743 153.284L267.743 153.284Q267.939 153.627 267.792 154.018Q267.645 154.410 267.254 154.557L267.254 154.557Q267.009 154.654 265.835 155.144L265.835 155.144Q265.052 155.486 264.661 154.752L264.661 154.752Q263.584 152.697 261.676 151.768Q259.768 150.838 256.685 150.838L256.685 150.838Q252.526 150.838 250.080 152.697L250.080 152.697Q248.758 153.725 247.902 155.144Q247.046 156.563 246.703 158.251Q246.361 159.939 246.263 161.187Q246.165 162.434 246.165 164Q246.165 165.566 246.263 166.789Q246.361 168.012 246.703 169.725Q247.046 171.437 247.902 172.856Q248.758 174.275 250.080 175.254L250.080 175.254Q252.526 177.113 256.685 177.113L256.685 177.113Q259.768 177.113 261.676 176.183Q263.584 175.254 264.661 173.199L264.661 173.199Q264.856 172.807 264.856 172.367L264.856 172.367Q264.856 171.535 264.856 168.550L264.856 168.550Q264.856 168.159 264.587 167.890Q264.318 167.621 263.927 167.621L263.927 167.621L256.636 167.621Q256.245 167.621 255.976 167.352Q255.706 167.083 255.706 166.691L255.706 166.691L255.706 165.174Q255.706 164.783 255.976 164.514Q256.245 164.245 256.636 164.245L256.636 164.245L265.492 164.245Z"/></svg>