<svg width="480px" height="360px" xmlns="http://www.w3.org/2000/svg"><rect x="216" y="124" width="80.5" height="80.5" fill-opacity="0"/><path fill="#F00" d="M260.697 157.248L260.697 157.248Q260.991 157.737 260.550 157.982L260.550 157.982L250.911 183.817Q250.177 185.774 248.318 187.291L248.318 187.291Q246.654 188.709 244.159 188.367L244.159 188.367Q243.865 188.367 243.327 188.294Q242.789 188.220 242.495 188.220L242.495 188.220Q242.349 188.220 241.957 187.829L241.957 187.829Q241.761 187.633 241.761 187.095L241.761 187.095Q241.761 186.948 241.859 186.459Q241.957 185.969 241.957 185.676L241.957 185.676Q241.957 185.480 242.349 185.089L242.349 185.089Q242.495 184.942 243.034 184.942L243.034 184.942Q243.327 184.942 243.865 185.015Q244.404 185.089 244.697 185.089L244.697 185.089Q245.676 185.089 246.508 184.550L246.508 184.550Q247.633 183.474 247.780 182.740L247.780 182.740L249.248 178.728Q243.229 162.875 241.419 158.177L241.419 158.177Q241.419 157.590 241.615 157.248L241.615 157.248Q241.957 156.905 242.349 156.905L242.349 156.905L243.963 156.905Q244.599 156.905 244.893 157.443L244.893 157.443L251.058 173.982Q256.147 160.526 257.419 157.443L257.419 157.443Q257.419 156.905 258.153 156.905L258.153 156.905L260.012 156.905Q260.355 156.905 260.697 157.248Z"/></svg>