<svg width="480px" height="360px" xmlns="http://www.w3.org/2000/svg"><rect x="216" y="124" width="80.5" height="80.5" fill-opacity="0"/><path fill="#F00" d="M267.017 167.005L267.017 167.005Q267.017 167.151 266.968 167.347Q266.919 167.542 266.919 167.689Q266.919 167.835 267.017 167.933L267.017 167.933Q266.089 171.988 263.548 175.017L263.548 175.017Q264.085 175.750 264.818 176.824L264.818 176.824Q265.209 177.166 265.551 177.166L265.551 177.166Q266.284 177.166 266.284 178.095L266.284 178.095Q266.186 178.241 266.137 178.534Q266.089 178.827 266.040 179.169Q265.991 179.511 265.893 179.707L265.893 179.707Q265.893 179.902 265.551 180.293L265.551 180.293Q265.209 180.440 264.818 180.440L264.818 180.440Q262.913 180.440 261.740 179.023L261.740 179.023Q261.447 178.437 260.666 177.362L260.666 177.362Q260.568 177.362 260.470 177.460Q260.373 177.557 260.275 177.557L260.275 177.557Q256.513 180.440 250.455 180.440L250.455 180.440Q245.911 180.440 243.420 178.192Q240.928 175.945 241.759 171.744L241.759 171.744Q242.052 169.838 242.907 168.202Q243.762 166.565 245.032 165.270Q246.302 163.976 247.524 163.047Q248.745 162.119 250.260 161.191L250.260 161.191Q250.064 160.800 249.453 159.701Q248.843 158.602 248.647 158.113L248.647 158.113Q247.817 156.159 248.110 154.449L248.110 154.449Q248.354 152.983 249.136 151.664Q249.918 150.345 251.041 149.417Q252.165 148.489 253.582 147.927Q254.998 147.365 256.464 147.365L256.464 147.365Q259.347 147.365 261.081 149.417Q262.815 151.469 262.278 154.449L262.278 154.449Q261.789 157.282 259.005 159.725L259.005 159.725Q257.637 161.093 255.389 162.461L255.389 162.461Q257.979 166.907 261.545 172.085L261.545 172.085Q263.157 169.545 263.353 167.737L263.353 167.737L263.548 167.005Q263.548 166.614 263.890 166.345Q264.232 166.076 264.623 166.076L264.623 166.076L266.284 166.076Q267.017 166.076 267.017 167.005ZM251.383 154.644L251.383 154.644Q251.383 155.182 252.116 156.989L252.116 156.989Q252.214 157.331 252.434 157.698Q252.653 158.064 252.849 158.382Q253.044 158.699 253.313 159.139Q253.582 159.579 253.728 159.921L253.728 159.921Q255.536 158.992 256.806 157.722L256.806 157.722Q257.441 157.136 257.734 156.794Q258.027 156.452 258.394 155.841Q258.760 155.231 258.809 154.644L258.809 154.644Q258.956 153.911 258.785 153.227Q258.614 152.544 258.174 152.055Q257.734 151.566 257.099 151.273Q256.464 150.980 255.731 150.980L255.731 150.980Q254.217 150.980 252.922 152.055Q251.627 153.130 251.383 154.644ZM251.188 177.166L251.188 177.166Q255.389 177.166 258.809 175.017L258.809 175.017Q258.467 174.431 255.780 170.229Q253.093 166.027 251.921 164.073L251.921 164.073Q249.185 165.637 247.426 167.420Q245.667 169.203 245.179 171.890L245.179 171.890Q244.788 174.479 246.522 175.823Q248.256 177.166 251.188 177.166Z"/></svg>