<svg width="480px" height="360px" xmlns="http://www.w3.org/2000/svg"><rect x="216" y="124" width="80.5" height="80.5" fill-opacity="0"/><path fill="#F00" d="M267.939 148Q268.330 148 268.599 148.269Q268.869 148.538 268.917 148.930L268.917 148.930L268.917 179.070Q268.917 179.462 268.624 179.731Q268.330 180 267.939 180L267.939 180L266.422 180Q266.031 180 265.761 179.731Q265.492 179.462 265.492 179.070L265.492 179.070L265.492 165.713L247.339 165.713L247.339 179.070Q247.339 179.462 247.046 179.731Q246.752 180 246.410 180L246.410 180L244.844 180Q244.453 180 244.183 179.731Q243.914 179.462 243.914 179.070L243.914 179.070L243.914 148.930Q243.914 148.538 244.183 148.269Q244.453 148 244.844 148L244.844 148L246.410 148Q246.752 148 247.046 148.269Q247.339 148.538 247.339 148.930L247.339 148.930L247.339 162.287L265.492 162.287L265.492 148.930Q265.492 148.538 265.761 148.269Q266.031 148 266.422 148L266.422 148L267.939 148Z"/></svg>