<svg width="480px" height="360px" xmlns="http://www.w3.org/2000/svg"><rect x="216" y="124" width="80.5" height="80.5" fill-opacity="0"/><path fill="#F00" d="M269.456 164.832L269.456 164.832Q269.456 173.835 265.443 177.505L265.443 177.505Q264.612 178.239 263.584 178.826L263.584 178.826Q266.471 180.930 267.890 181.957L267.890 181.957Q268.183 182.202 268.232 182.569Q268.281 182.936 268.086 183.278L268.086 183.278Q267.939 183.474 267.621 183.890Q267.303 184.306 267.156 184.502L267.156 184.502Q266.911 184.844 266.544 184.893Q266.177 184.942 265.835 184.697L265.835 184.697L259.719 180.196Q258.104 180.489 256.245 180.538L256.245 180.538L256.147 180.538Q250.177 180.391 246.948 177.505L246.948 177.505Q242.936 173.835 242.936 164.832L242.936 164.832Q242.936 164.636 242.936 164L242.936 164Q242.936 163.511 242.936 163.119L242.936 163.119Q242.936 154.165 246.948 150.495L246.948 150.495Q250.177 147.560 256.147 147.462L256.147 147.462L256.245 147.462Q262.214 147.560 265.443 150.495L265.443 150.495Q269.456 154.165 269.456 163.119L269.456 163.119Q269.456 163.315 269.456 164L269.456 164Q269.456 164.489 269.456 164.832ZM263.144 174.960L263.144 174.960Q264.807 173.443 265.419 170.972Q266.031 168.502 266.031 164.832L266.031 164.832Q266.031 164.636 266.031 164.049L266.031 164.049L266.031 163.951Q266.031 163.462 266.031 163.119L266.031 163.119Q266.031 159.450 265.419 156.979Q264.807 154.508 263.144 152.991L263.144 152.991Q260.893 150.936 256.196 150.838L256.196 150.838Q251.498 150.936 249.248 152.991L249.248 152.991Q248.367 153.774 247.804 154.850Q247.242 155.927 246.924 157.248Q246.606 158.569 246.483 159.963Q246.361 161.358 246.361 163.119L246.361 163.119Q246.361 163.315 246.361 163.951L246.361 163.951L246.361 164.049Q246.361 164.489 246.361 164.832L246.361 164.832Q246.361 167.229 246.581 168.991Q246.801 170.752 247.462 172.343Q248.122 173.933 249.248 174.960L249.248 174.960Q251.498 177.015 256.196 177.113L256.196 177.113Q260.893 177.015 263.144 174.960Z"/></svg>