<svg width="480px" height="360px" xmlns="http://www.w3.org/2000/svg"><rect x="216" y="124" width="80.5" height="80.5" fill-opacity="0"/><path fill="#F00" d="M247.878 148L247.878 148Q249.052 148 250.128 148.440Q251.205 148.881 251.963 149.664Q252.722 150.446 253.187 151.523Q253.651 152.599 253.651 153.774L253.651 153.774Q253.651 156.171 251.963 157.859Q250.275 159.547 247.878 159.547Q245.480 159.547 243.792 157.859Q242.104 156.171 242.104 153.774Q242.104 151.376 243.792 149.688Q245.480 148 247.878 148ZM246.214 155.437Q246.899 156.122 247.878 156.122Q248.856 156.122 249.566 155.437Q250.275 154.752 250.275 153.774Q250.275 152.795 249.566 152.086Q248.856 151.376 247.878 151.376L247.878 151.376Q247.242 151.376 246.703 151.694Q246.165 152.012 245.847 152.575Q245.529 153.138 245.529 153.774L245.529 153.774Q245.529 154.752 246.214 155.437Z"/></svg>