<svg width="480px" height="360px" xmlns="http://www.w3.org/2000/svg"><rect x="216" y="124" width="80.5" height="80.5" fill-opacity="0"/><path fill="#F00" d="M261.936 148.098Q262.327 148.098 262.693 148.464Q263.060 148.831 262.522 149.368L262.522 149.368Q261.252 151.273 257.954 156.403Q254.656 161.533 251.383 166.589Q248.110 171.646 245.105 176.311Q242.101 180.977 241.221 182.296L241.221 182.296Q240.977 182.834 240.342 182.834L240.342 182.834L238.681 182.834Q238.339 182.834 237.948 182.443L237.948 182.443Q237.948 181.905 238.144 181.563L238.144 181.563Q239.951 178.779 249.014 164.708Q258.076 150.638 259.395 148.635L259.395 148.635Q259.689 148.098 260.324 148.098L260.324 148.098L261.936 148.098Z"/></svg>