<svg width="480px" height="360px" xmlns="http://www.w3.org/2000/svg"><rect x="216" y="124" width="80.5" height="80.5" fill-opacity="0"/><path fill="#F00" d="M260.306 156.905Q260.697 156.905 260.966 157.174Q261.235 157.443 261.235 157.835L261.235 157.835L261.235 179.070Q261.235 179.462 260.966 179.731Q260.697 180 260.306 180L260.306 180L258.740 180Q258.349 180 258.080 179.731Q257.810 179.462 257.810 179.070L257.810 179.070L257.810 176.135Q257.713 176.232 257.566 176.526L257.566 176.526Q254.483 180.636 250.128 180.538L250.128 180.538Q246.752 180.440 244.942 177.382Q243.131 174.324 243.131 169.040L243.131 169.040L243.131 157.835Q243.131 157.443 243.401 157.174Q243.670 156.905 244.061 156.905L244.061 156.905L245.627 156.905Q245.969 156.905 246.263 157.174Q246.557 157.443 246.557 157.835L246.557 157.835L246.557 169.040Q246.557 170.654 246.581 171.462Q246.606 172.269 246.826 173.321Q247.046 174.373 247.486 175.107L247.486 175.107Q248.709 177.064 250.813 177.113L250.813 177.113Q252.477 177.162 254.018 176.379Q255.560 175.596 256.343 174.471L256.343 174.471Q257.272 173.248 257.810 171.780L257.810 171.780L257.810 157.835Q257.810 157.443 258.080 157.174Q258.349 156.905 258.740 156.905L258.740 156.905L260.306 156.905Z"/></svg>