<svg width="480px" height="360px" xmlns="http://www.w3.org/2000/svg"><rect x="216" y="124" width="80.5" height="80.5" fill-opacity="0"/><path fill="#F00" d="M244.495 163.194L246.156 163.194Q246.302 163.194 246.424 163.243Q246.547 163.292 246.644 163.340L246.644 163.340L246.693 163.389Q246.840 163.585 246.840 164.122L246.840 164.122L242.882 187.035Q242.882 187.377 242.492 187.719L242.492 187.719Q242.394 187.719 242.125 187.817Q241.856 187.915 241.759 187.915L241.759 187.915L240.147 187.915Q239.756 187.915 239.585 187.744Q239.414 187.573 239.414 187.035L239.414 187.035L243.420 164.122Q243.420 163.731 243.762 163.389L243.762 163.389Q243.860 163.389 244.128 163.292Q244.397 163.194 244.495 163.194L244.495 163.194ZM245.765 156.110L247.426 156.110Q247.817 156.110 248.037 156.354Q248.256 156.598 248.110 157.038L248.110 157.038L247.768 159.579Q247.768 159.969 247.426 160.214Q247.084 160.458 246.693 160.458L246.693 160.458L245.032 160.458Q244.299 160.458 244.299 159.579L244.299 159.579L244.690 157.038Q244.690 156.598 245.008 156.354Q245.325 156.110 245.765 156.110L245.765 156.110Z"/></svg>