<svg width="480px" height="360px" xmlns="http://www.w3.org/2000/svg"><rect x="216" y="124" width="80.5" height="80.5" fill-opacity="0"/><path fill="#F00" d="M252.849 150.638L253.777 150.638Q254.119 150.638 254.315 150.834Q254.510 151.029 254.510 151.176L254.510 151.176Q254.510 152.299 254.119 153.765L254.119 153.765Q254.119 154.156 253.802 154.400Q253.484 154.644 253.044 154.644L253.044 154.644L251.432 154.644Q250.699 154.644 250.699 153.765L250.699 153.765L251.237 150.638Q251.676 149.319 253.240 147.365L253.240 147.365Q253.582 147.023 253.973 147.023L253.973 147.023Q254.119 147.023 254.266 147.121Q254.412 147.218 254.461 147.267L254.461 147.267L254.510 147.365Q254.510 148.098 254.315 148.293L254.315 148.293Q254.266 148.391 253.875 148.928Q253.484 149.466 253.215 149.905Q252.947 150.345 252.849 150.638L252.849 150.638ZM248.110 147.463L248.159 147.560Q248.159 148.098 247.963 148.098L247.963 148.098Q247.915 148.195 247.499 148.733Q247.084 149.270 246.840 149.710Q246.595 150.150 246.498 150.492L246.498 150.492L247.426 150.492Q248.159 150.492 248.159 151.371L248.159 151.371Q248.159 152.495 247.768 153.911L247.768 153.911Q247.768 154.302 247.450 154.571Q247.133 154.840 246.693 154.840L246.693 154.840L245.032 154.840Q244.348 154.840 244.348 153.911L244.348 153.911L244.885 150.834Q245.325 149.515 246.889 147.560L246.889 147.560Q247.231 147.218 247.621 147.218L247.621 147.218Q247.768 147.218 247.890 147.292Q248.012 147.365 248.110 147.463L248.110 147.463Z"/></svg>