<svg width="480px" height="360px" xmlns="http://www.w3.org/2000/svg"><rect x="216" y="124" width="80.5" height="80.5" fill-opacity="0"/><path fill="#F00" d="M247.915 147.023L255.145 147.023Q255.585 147.023 255.805 147.267Q256.024 147.511 255.878 147.902L255.878 147.902Q255.878 148.195 255.805 148.733Q255.731 149.270 255.731 149.563L255.731 149.563Q255.731 149.905 255.340 150.296L255.340 150.296Q255.243 150.296 254.974 150.369Q254.705 150.443 254.608 150.443L254.608 150.443L249.918 150.443L243.713 184.983L248.452 184.983Q248.794 184.983 248.989 185.179Q249.185 185.374 249.185 185.911L249.185 185.911Q249.185 186.205 249.087 186.742Q248.989 187.279 248.989 187.524L248.989 187.524Q248.989 187.963 248.647 188.208Q248.305 188.452 247.915 188.452L247.915 188.452L240.635 188.452Q240.244 188.452 240.073 188.281Q239.902 188.110 239.902 187.524L239.902 187.524Q240.391 184.446 243.395 167.322Q246.400 150.198 246.791 147.902L246.791 147.902Q246.791 147.560 247.182 147.169L247.182 147.169Q247.279 147.169 247.548 147.096Q247.817 147.023 247.915 147.023L247.915 147.023Z"/></svg>