<svg width="480px" height="360px" xmlns="http://www.w3.org/2000/svg"><rect x="216" y="124" width="80.5" height="80.5" fill-opacity="0"/><path fill="#F00" d="M269.211 178.728L269.211 178.728Q269.358 179.168 269.089 179.584Q268.820 180 268.330 180L268.330 180L266.667 180Q266.031 180 265.786 179.413L265.786 179.413L262.752 171.682L247.633 171.682Q245.333 177.505 244.599 179.413L244.599 179.413Q244.355 180 243.719 180L243.719 180L242.055 180Q241.566 180 241.297 179.584Q241.028 179.168 241.174 178.728L241.174 178.728Q244.697 169.823 253.113 148.587L253.113 148.587Q253.358 148 253.994 148L253.994 148L256.391 148Q257.028 148 257.272 148.587L257.272 148.587Q261.284 158.716 269.211 178.728ZM255.217 152.599L249.003 168.257L261.382 168.257L255.217 152.599Z"/></svg>