<svg width="480px" height="360px" xmlns="http://www.w3.org/2000/svg"><rect x="216" y="124" width="80.5" height="80.5" fill-opacity="0"/><path fill="#F00" d="M266.275 148L267.841 148Q268.086 148 268.281 148.122Q268.477 148.245 268.624 148.440Q268.771 148.636 268.771 148.930L268.771 148.930L268.771 169.823Q268.771 174.226 265.076 177.382Q261.382 180.538 256.147 180.538Q250.911 180.538 247.217 177.382Q243.523 174.226 243.523 169.823L243.523 169.823L243.523 148.930Q243.523 148.734 243.596 148.563Q243.670 148.391 243.792 148.269Q243.914 148.147 244.086 148.073Q244.257 148 244.453 148L244.453 148L246.018 148Q246.361 148 246.654 148.269Q246.948 148.538 246.948 148.930L246.948 148.930L246.948 169.823Q246.948 172.905 249.639 175.009Q252.330 177.113 256.122 177.113Q259.914 177.113 262.630 175.009Q265.346 172.905 265.346 169.823L265.346 169.823L265.346 148.930Q265.346 148.538 265.615 148.269Q265.884 148 266.275 148L266.275 148Z"/></svg>