<svg width="480px" height="360px" xmlns="http://www.w3.org/2000/svg"><rect x="216" y="124" width="80.5" height="80.5" fill-opacity="0"/><path fill="#F00" d="M243.327 150.593L244.257 150.593Q244.648 150.593 244.917 150.862Q245.187 151.131 245.187 151.523L245.187 151.523L245.187 153.969Q245.187 154.361 244.917 154.630Q244.648 154.899 244.257 154.899L244.257 154.899L242.691 154.899Q242.300 154.899 242.031 154.630Q241.761 154.361 241.761 153.969L241.761 153.969L241.761 150.887Q241.761 149.419 243.083 147.511L243.083 147.511Q243.327 147.168 243.719 147.168L243.719 147.168Q243.963 147.168 244.135 147.242Q244.306 147.315 244.355 147.364L244.355 147.364L244.404 147.413Q244.746 147.853 244.453 148.245L244.453 148.245Q243.376 149.713 243.327 150.593L243.327 150.593Z"/></svg>