<svg width="480px" height="360px" xmlns="http://www.w3.org/2000/svg"><rect x="216" y="124" width="80.5" height="80.5" fill-opacity="0"/><path fill="#F00" d="M258.076 147.365L258.076 147.365Q258.174 147.463 258.467 148.293L258.467 148.293Q258.467 148.440 258.369 149.002Q258.272 149.563 258.272 149.710L258.272 149.710Q257.979 150.345 257.392 150.638L257.392 150.638Q256.415 150.882 255.585 151.273Q254.754 151.664 253.826 152.666Q252.898 153.667 252.653 154.986L252.653 154.986Q252.458 155.817 252.189 157.551Q251.921 159.285 251.725 160.116L251.725 160.116Q250.944 164.269 246.986 167.005L246.986 167.005Q247.084 167.053 247.231 167.176Q247.377 167.298 247.524 167.444Q247.670 167.591 247.719 167.737L247.719 167.737Q249.771 170.034 249.185 173.747L249.185 173.747Q249.038 174.626 248.794 175.896Q248.550 177.166 248.305 178.437Q248.061 179.707 247.915 180.635L247.915 180.635Q247.621 182.638 248.647 183.908L248.647 183.908Q249.136 184.788 250.846 185.179L250.846 185.179Q251.090 185.179 251.237 185.472Q251.383 185.765 251.383 186.107L251.383 186.107Q251.383 186.253 251.285 186.742Q251.188 187.231 251.188 187.524L251.188 187.524Q250.992 187.915 250.650 188.256L250.650 188.256Q250.455 188.452 249.918 188.452L249.918 188.452Q246.840 188.012 245.716 186.253L245.716 186.253Q243.957 183.615 244.446 180.635L244.446 180.635Q244.641 179.560 245.105 177.191Q245.569 174.821 245.716 173.747L245.716 173.747Q246.058 171.597 244.837 170.082L244.837 170.082Q243.957 168.910 242.296 168.617L242.296 168.617Q241.710 168.617 241.710 167.737L241.710 167.737Q241.808 167.591 241.856 167.298Q241.905 167.005 241.954 166.663Q242.003 166.321 242.101 166.076L242.101 166.076Q242.101 165.783 242.369 165.490Q242.638 165.197 243.029 165.197L243.029 165.197Q244.250 165.002 245.374 164.269Q246.498 163.536 247.255 162.437Q248.012 161.337 248.256 160.116L248.256 160.116Q248.452 159.432 248.598 158.479Q248.745 157.527 248.892 156.598Q249.038 155.670 249.185 154.986L249.185 154.986Q249.527 153.081 250.479 151.591Q251.432 150.101 252.776 149.221Q254.119 148.342 255.194 147.902Q256.269 147.463 257.392 147.169L257.392 147.169Q257.930 147.169 258.076 147.365Z"/></svg>