<svg width="480px" height="360px" xmlns="http://www.w3.org/2000/svg"><rect x="216" y="124" width="80.5" height="80.5" fill-opacity="0"/><path fill="#F00" d="M258.349 163.560L258.349 163.560Q258.838 163.804 258.838 164.391L258.838 164.391L258.838 166.251Q258.838 166.838 258.349 167.083L258.349 167.083Q257.419 167.621 254.606 169.089Q251.792 170.557 248.416 172.367Q245.040 174.177 243.817 174.813L243.817 174.813Q243.327 175.058 242.887 174.789Q242.446 174.520 242.446 173.982L242.446 173.982L242.446 172.220Q242.446 171.682 242.936 171.388L242.936 171.388L254.434 165.321Q245.187 160.428 242.936 159.205L242.936 159.205Q242.446 158.960 242.446 158.422L242.446 158.422L242.446 156.661Q242.446 156.122 242.887 155.853Q243.327 155.584 243.817 155.829L243.817 155.829Q252.428 160.379 258.349 163.560Z"/></svg>