<svg width="480px" height="360px" xmlns="http://www.w3.org/2000/svg"><rect x="216" y="124" width="80.5" height="80.5" fill-opacity="0"/><path fill="#F00" d="M256.953 156.452L257.490 156.452Q258.076 156.452 258.369 157.380L258.369 157.380Q258.272 157.576 258.198 158.162Q258.125 158.748 258.027 158.992L258.027 158.992Q257.832 159.383 257.490 159.725L257.490 159.725Q257.099 159.921 256.562 159.921L256.562 159.921Q256.220 159.725 255.682 159.725L255.682 159.725Q253.093 159.725 249.478 163.389L249.478 163.389Q247.866 165.002 247.475 166.076L247.475 166.076L245.130 179.169Q245.130 179.560 244.739 179.902L244.739 179.902Q244.641 179.902 244.373 180Q244.104 180.098 244.006 180.098L244.006 180.098L242.394 180.098Q242.003 180.098 241.832 179.927Q241.661 179.756 241.661 179.169L241.661 179.169Q244.739 162.070 245.472 157.918L245.472 157.918Q245.472 157.527 245.814 157.258Q246.156 156.989 246.547 156.989L246.547 156.989L248.208 156.989Q248.550 156.989 248.745 157.185Q248.940 157.380 248.940 157.918L248.940 157.918L248.403 160.849L248.745 160.458Q249.966 159.237 250.968 158.455Q251.969 157.673 253.606 157.038Q255.243 156.403 256.953 156.452L256.953 156.452Z"/></svg>