<svg version="1.1" xmlns="http://www.w3.org/2000/svg" xmlns:xlink="http://www.w3.org/1999/xlink" width="33.01886" height="33.01886" viewBox="0,0,33.01886,33.01886"><g transform="translate(-303.49057,-163.49057)"><g data-paper-data="{&quot;isPaintingLayer&quot;:true}" fill-rule="nonzero" stroke-miterlimit="10" stroke-dasharray="" stroke-dashoffset="0" style="mix-blend-mode: normal"><path d="M303.49057,180c0,-9.1179 7.39153,-16.50943 16.50943,-16.50943c9.1179,0 16.50943,7.39153 16.50943,16.50943c0,9.1179 -7.39153,16.50943 -16.50943,16.50943c-9.1179,0 -16.50943,-7.39153 -16.50943,-16.50943z" fill="#f9af36" stroke="none" stroke-width="0" stroke-linecap="butt" stroke-linejoin="miter"/><path d="M315.33333,188.16668c-4.51033,0 -8.16667,-3.65634 -8.16667,-8.16666v0c0,-4.51032 3.65634,-8.16666 8.16667,-8.16666h9.33333c4.51033,0 8.16667,3.65634 8.16667,8.16666v0c0,4.51032 -3.65634,8.16666 -8.16667,8.16666z" fill="#800000" stroke="#ffffff" stroke-width="2" stroke-linecap="round" stroke-linejoin="round"/><path d="M315.33333,183.50001c-1.933,0 -3.5,-1.567 -3.5,-3.5c0,-1.933 1.567,-3.5 3.5,-3.5c1.933,0 3.5,1.567 3.5,3.5c0,1.933 -1.567,3.5 -3.5,3.5z" fill="#ffffff" stroke="#ffffff" stroke-width="2" stroke-linecap="round" stroke-linejoin="round"/></g></g></svg>