<svg width="480px" height="360px" xmlns="http://www.w3.org/2000/svg"><rect x="216" y="124" width="80.5" height="80.5" fill-opacity="0"/><path fill="#F00" d="M242.109 148L267.215 148Q267.576 148 267.833 148.232Q268.090 148.463 268.090 148.823L268.090 148.823L268.090 152.836Q268.090 153.196 267.833 153.428Q267.576 153.659 267.215 153.659L267.215 153.659L257.492 153.659L257.492 179.125Q257.492 179.383 257.389 179.588Q257.286 179.794 257.080 179.897Q256.875 180 256.669 180L256.669 180L252.656 180Q252.296 180 252.064 179.743Q251.833 179.486 251.833 179.125L251.833 179.125L251.833 153.659L242.109 153.659Q241.749 153.659 241.492 153.428Q241.235 153.196 241.235 152.836L241.235 152.836L241.235 148.823Q241.235 148.463 241.492 148.232Q241.749 148 242.109 148L242.109 148Z"/></svg>