<svg width="480px" height="360px" xmlns="http://www.w3.org/2000/svg"><rect x="216" y="124" width="80.5" height="80.5" fill-opacity="0"/><path fill="#F00" d="M247.719 148.049L263.206 148.049Q263.402 148.049 263.573 148.098Q263.744 148.147 263.841 148.244Q263.939 148.342 263.963 148.489Q263.988 148.635 263.939 148.782L263.939 148.782Q263.939 149.026 263.841 149.588Q263.744 150.150 263.744 150.394L263.744 150.394Q263.744 150.785 263.402 151.053Q263.060 151.322 262.669 151.322L262.669 151.322L249.722 151.322L247.719 162.412L258.125 162.412Q258.467 162.412 258.663 162.583Q258.858 162.754 258.858 163.292L258.858 163.292Q258.858 163.585 258.760 164.122Q258.663 164.660 258.663 164.953L258.663 164.953Q258.663 165.295 258.272 165.685L258.272 165.685Q258.174 165.685 257.905 165.759Q257.637 165.832 257.539 165.832L257.539 165.832L247.182 165.832L244.837 179.121Q244.837 179.511 244.495 179.780Q244.153 180.049 243.762 180.049L243.762 180.049L242.101 180.049Q241.759 180.049 241.563 179.853Q241.368 179.658 241.368 179.121L241.368 179.121Q241.905 175.701 243.933 164.171Q245.960 152.641 246.644 148.928L246.644 148.928Q246.644 148.586 247.035 148.195L247.035 148.195Q247.084 148.195 247.377 148.122Q247.670 148.049 247.719 148.049L247.719 148.049Z"/></svg>