<svg width="480px" height="360px" xmlns="http://www.w3.org/2000/svg"><rect x="216" y="124" width="80.5" height="80.5" fill-opacity="0"/><path fill="#F00" d="M261.187 148Q261.578 148 261.847 148.269Q262.116 148.538 262.116 148.930L262.116 148.930L262.116 150.838Q262.116 151.229 261.969 151.572L261.969 151.572Q253.896 171.535 250.716 179.413L250.716 179.413Q250.471 180 249.835 180L249.835 180L248.171 180Q247.682 180 247.388 179.584Q247.095 179.168 247.291 178.728L247.291 178.728L258.398 151.376L242.446 151.376Q242.153 151.376 241.982 151.205Q241.810 151.034 241.810 150.789L241.810 150.789L241.810 148.587Q241.810 148.343 241.982 148.171Q242.153 148 242.446 148L242.446 148L261.187 148Z"/></svg>