<svg width="480px" height="360px" xmlns="http://www.w3.org/2000/svg"><rect x="216" y="124" width="80.5" height="80.5" fill-opacity="0"/><path fill="#F00" d="M243.327 150.593L244.257 150.593Q244.648 150.593 244.917 150.862Q245.187 151.131 245.187 151.523L245.187 151.523L245.187 153.969Q245.187 154.361 244.917 154.630Q244.648 154.899 244.257 154.899L244.257 154.899L242.691 154.899Q242.300 154.899 242.031 154.630Q241.761 154.361 241.761 153.969L241.761 153.969L241.761 150.887Q241.761 149.419 243.083 147.511L243.083 147.511Q243.327 147.168 243.719 147.168L243.719 147.168Q243.963 147.168 244.135 147.217Q244.306 147.266 244.355 147.364L244.355 147.364L244.404 147.413Q244.746 147.853 244.453 148.245L244.453 148.245Q243.376 149.713 243.327 150.593L243.327 150.593ZM249.688 150.593L250.618 150.593Q250.813 150.593 250.985 150.667Q251.156 150.740 251.278 150.862Q251.401 150.985 251.474 151.156Q251.547 151.327 251.547 151.523L251.547 151.523L251.547 153.969Q251.547 154.165 251.474 154.336Q251.401 154.508 251.278 154.630Q251.156 154.752 250.985 154.826Q250.813 154.899 250.618 154.899L250.618 154.899L249.052 154.899Q248.661 154.899 248.391 154.630Q248.122 154.361 248.122 153.969L248.122 153.969L248.122 150.887Q248.122 149.419 249.492 147.511L249.492 147.511Q249.688 147.168 250.080 147.168L250.080 147.168Q250.324 147.168 250.495 147.217Q250.667 147.266 250.716 147.364L250.716 147.364L250.765 147.413Q251.107 147.853 250.813 148.245L250.813 148.245Q249.737 149.713 249.688 150.593L249.688 150.593Z"/></svg>