<svg width="480px" height="360px" xmlns="http://www.w3.org/2000/svg"><rect x="216" y="124" width="80.5" height="80.5" fill-opacity="0"/><path fill="#F00" d="M266.289 161.839Q266.650 161.839 266.907 162.071Q267.164 162.302 267.164 162.662L267.164 162.662L267.164 166.675Q267.164 167.035 266.907 167.293Q266.650 167.550 266.289 167.550L266.289 167.550L257.646 167.550L257.646 176.141Q257.646 176.502 257.389 176.759Q257.132 177.016 256.823 177.016L256.823 177.016L252.810 177.016Q252.450 177.016 252.193 176.759Q251.936 176.502 251.936 176.141L251.936 176.141L251.936 167.550L243.344 167.550Q242.984 167.550 242.727 167.293Q242.469 167.035 242.469 166.675L242.469 166.675L242.469 162.662Q242.469 162.354 242.727 162.096Q242.984 161.839 243.344 161.839L243.344 161.839L251.936 161.839L251.936 153.196Q251.936 152.836 252.193 152.579Q252.450 152.322 252.810 152.322L252.810 152.322L256.823 152.322Q257.183 152.322 257.415 152.579Q257.646 152.836 257.646 153.196L257.646 153.196L257.646 161.839L266.289 161.839Z"/></svg>