<svg width="480px" height="360px" xmlns="http://www.w3.org/2000/svg"><rect x="216" y="124" width="80.5" height="80.5" fill-opacity="0"/><path fill="#F00" d="M262.473 156.989Q262.864 156.989 263.035 157.185Q263.206 157.380 263.206 158.113L263.206 158.113Q260.128 175.212 259.395 179.365L259.395 179.365Q259.395 179.756 259.053 180.024Q258.711 180.293 258.321 180.293L258.321 180.293L256.660 180.293Q256.318 180.293 256.122 180.098Q255.927 179.902 255.927 179.365L255.927 179.365L256.464 176.482L256.122 176.824Q254.217 178.730 252.311 179.829Q250.406 180.928 247.963 180.831L247.963 180.831Q244.592 180.831 243.322 177.728Q242.052 174.626 243.029 169.350L243.029 169.350L245.032 158.113Q245.032 157.722 245.374 157.453Q245.716 157.185 246.107 157.185L246.107 157.185L247.768 157.185Q248.501 157.185 248.501 158.113L248.501 158.113L246.498 169.350Q245.472 173.747 246.302 175.359L246.302 175.359Q247.182 177.362 249.234 177.362L249.234 177.362Q250.846 177.362 252.482 176.556Q254.119 175.750 255.194 174.626L255.194 174.626Q256.855 173.014 257.197 171.939L257.197 171.939L259.737 157.918Q259.737 157.576 260.128 157.185L260.128 157.185Q260.177 157.185 260.324 157.136Q260.470 157.087 260.617 157.038Q260.763 156.989 260.861 156.989L260.861 156.989L262.473 156.989Z"/></svg>