<svg width="480px" height="360px" xmlns="http://www.w3.org/2000/svg"><rect x="216" y="124" width="80.5" height="80.5" fill-opacity="0"/><path fill="#F00" d="M263.682 148Q264.171 148 264.465 148.416Q264.758 148.832 264.514 149.321L264.514 149.321L256.196 166.936L261.431 166.936Q261.823 166.936 262.092 167.205Q262.361 167.474 262.361 167.865L262.361 167.865L262.361 168.795Q262.361 169.187 262.092 169.456Q261.823 169.725 261.431 169.725L261.431 169.725L255.364 169.725L255.364 172.220L261.431 172.220Q261.823 172.220 262.092 172.489Q262.361 172.758 262.361 173.150L262.361 173.150L262.361 174.080Q262.361 174.471 262.092 174.740Q261.823 175.009 261.431 175.009L261.431 175.009L255.364 175.009L255.364 179.070Q255.364 179.462 255.095 179.731Q254.826 180 254.434 180L254.434 180L252.869 180Q252.477 180 252.208 179.731Q251.939 179.462 251.939 179.070L251.939 179.070L251.939 175.009L245.872 175.009Q245.480 175.009 245.211 174.740Q244.942 174.471 244.942 174.080L244.942 174.080L244.942 173.150Q244.942 172.758 245.211 172.489Q245.480 172.220 245.872 172.220L245.872 172.220L251.939 172.220L251.939 169.725L245.872 169.725Q245.480 169.725 245.211 169.431Q244.942 169.138 244.942 168.795L244.942 168.795L244.942 167.865Q244.942 167.474 245.211 167.205Q245.480 166.936 245.872 166.936L245.872 166.936L251.107 166.936Q250.422 165.419 249.321 163.095Q248.220 160.771 245.945 156Q243.670 151.229 242.789 149.321L242.789 149.321Q242.544 148.832 242.838 148.416Q243.131 148 243.621 148L243.621 148L245.333 148Q245.920 148 246.165 148.489L246.165 148.489L253.651 164.343Q259.817 151.327 261.138 148.489L261.138 148.489Q261.382 148 261.969 148L261.969 148L263.682 148Z"/></svg>