<svg width="480px" height="360px" xmlns="http://www.w3.org/2000/svg"><rect x="216" y="124" width="80.5" height="80.5" fill-opacity="0"/><path fill="#F00" d="M263.976 157.052L263.976 157.052Q264.954 170.703 259.425 176.624L259.425 176.624Q258.104 177.994 256.514 178.899Q254.924 179.804 253.602 180.073Q252.281 180.343 251.009 180.489Q249.737 180.636 249.052 180.489L249.052 180.489Q248.612 180.440 248.367 180.122Q248.122 179.804 248.220 179.364L248.220 179.364Q248.269 179.217 248.318 178.924Q248.367 178.630 248.416 178.336Q248.465 178.043 248.514 177.847L248.514 177.847Q248.612 177.505 248.881 177.309Q249.150 177.113 249.492 177.113L249.492 177.113Q253.994 177.407 256.930 174.275L256.930 174.275Q257.272 173.933 257.639 173.419Q258.006 172.905 258.422 172.245Q258.838 171.584 259.205 170.777Q259.572 169.969 259.865 169.089Q260.159 168.208 260.355 167.180Q260.550 166.153 260.599 165.125L260.599 165.125Q258.642 168.159 253.505 168.453L253.505 168.453Q252.281 168.502 251.083 168.355Q249.884 168.208 248.685 167.792Q247.486 167.376 246.459 166.618Q245.431 165.859 244.648 164.832Q243.865 163.804 243.401 162.287Q242.936 160.771 242.936 158.960L242.936 158.960Q242.936 158.716 242.936 158.422L242.936 158.422Q242.936 158.128 242.936 157.884L242.936 157.884Q242.936 152.991 245.089 150.495L245.089 150.495Q247.633 147.560 253.456 147.462L253.456 147.462L253.505 147.462Q259.278 147.560 261.823 150.495L261.823 150.495Q263.829 152.795 263.976 157.052ZM260.599 158.960L260.599 158.960Q260.599 158.716 260.599 158.520L260.599 158.520L260.648 158.471L260.648 158.373L260.599 158.373Q260.599 158.128 260.599 157.884L260.599 157.884Q260.599 154.263 259.278 152.746L259.278 152.746Q257.713 150.936 253.456 150.838L253.456 150.838Q249.199 150.936 247.682 152.746L247.682 152.746Q246.361 154.263 246.361 157.884L246.361 157.884Q246.361 158.128 246.361 158.373L246.361 158.373L246.361 158.471Q246.361 158.765 246.361 158.960L246.361 158.960Q246.361 162.581 247.682 164.147L247.682 164.147Q249.199 165.908 253.456 166.006L253.456 166.006Q257.713 165.908 259.278 164.147L259.278 164.147Q260.599 162.581 260.599 158.960Z"/></svg>