<svg width="480px" height="360px" xmlns="http://www.w3.org/2000/svg"><rect x="216" y="124" width="80.5" height="80.5" fill-opacity="0"/><path fill="#F00" d="M244.990 182.109L264.540 182.109Q264.849 182.109 265.106 182.367Q265.363 182.624 265.363 182.984L265.363 182.984L265.363 186.945Q265.363 187.203 265.260 187.383Q265.158 187.563 264.952 187.691Q264.746 187.820 264.540 187.820L264.540 187.820L244.990 187.820Q244.630 187.820 244.373 187.563Q244.116 187.305 244.116 186.945L244.116 186.945L244.116 182.984Q244.116 182.624 244.373 182.367Q244.630 182.109 244.990 182.109L244.990 182.109Z"/></svg>