<svg width="480px" height="360px" xmlns="http://www.w3.org/2000/svg"><rect x="216" y="124" width="80.5" height="80.5" fill-opacity="0"/><path fill="#F00" d="M248.598 175.750L250.260 175.750Q250.553 175.750 250.773 175.994Q250.992 176.238 250.992 176.629L250.992 176.629Q250.992 177.753 250.602 179.169L250.602 179.169Q250.602 179.560 250.284 179.829Q249.966 180.098 249.527 180.098L249.527 180.098L247.866 180.098Q247.182 180.098 247.182 179.169L247.182 179.169Q247.182 178.095 247.524 176.629L247.524 176.629Q247.524 176.238 247.866 175.994Q248.208 175.750 248.598 175.750L248.598 175.750ZM254.266 147.707L254.266 147.707Q257.783 147.707 259.933 150.345Q262.082 152.983 261.545 156.647L261.545 156.647Q261.056 159.872 257.539 162.461L257.539 162.461Q255.438 163.976 254.046 166.076Q252.653 168.177 252.263 170.473L252.263 170.473Q252.263 170.669 252.165 170.986Q252.067 171.304 252.067 171.353L252.067 171.353Q252.067 171.744 251.725 172.012Q251.383 172.281 250.992 172.281L250.992 172.281L249.331 172.281Q248.989 172.281 248.794 172.085Q248.598 171.890 248.598 171.353L248.598 171.353Q248.598 171.304 248.696 170.986Q248.794 170.669 248.794 170.473L248.794 170.473Q249.331 167.298 251.163 164.464Q252.995 161.631 255.682 159.725L255.682 159.725Q256.415 159.139 256.782 158.773Q257.148 158.406 257.563 157.771Q257.979 157.136 258.076 156.452L258.076 156.452Q258.321 154.937 257.881 153.692Q257.441 152.446 256.391 151.713Q255.340 150.980 253.875 150.980L253.875 150.980Q252.653 150.980 251.579 151.347Q250.504 151.713 249.795 152.226Q249.087 152.739 248.501 153.447Q247.915 154.156 247.646 154.669Q247.377 155.182 247.182 155.719L247.182 155.719Q247.084 155.915 246.889 156.085Q246.693 156.256 246.473 156.354Q246.253 156.452 246.058 156.452L246.058 156.452L244.446 156.452Q244.055 156.452 243.713 156.110L243.713 156.110L243.713 155.377Q246.889 147.707 254.266 147.707Z"/></svg>