<svg width="480px" height="360px" xmlns="http://www.w3.org/2000/svg"><rect x="216" y="124" width="80.5" height="80.5" fill-opacity="0"/><path fill="#F00" d="M267.113 178.611L267.113 178.611Q267.421 179.074 267.190 179.537Q266.958 180 266.392 180L266.392 180L261.402 180Q260.990 180 260.733 179.640L260.733 179.640L250.804 166.418L249.775 167.704L249.775 179.125Q249.775 179.486 249.518 179.743Q249.260 180 248.900 180L248.900 180L244.939 180Q244.579 180 244.322 179.743Q244.064 179.486 244.064 179.125L244.064 179.125L244.064 148.823Q244.064 148.463 244.322 148.232Q244.579 148 244.939 148L244.939 148L248.900 148Q249.158 148 249.338 148.103Q249.518 148.206 249.646 148.412Q249.775 148.617 249.775 148.823L249.775 148.823L249.775 158.804Q257.080 150.058 258.572 148.309L258.572 148.309Q258.830 148 259.190 148L259.190 148L264.437 148Q264.952 148 265.183 148.489Q265.415 148.977 265.055 149.389L265.055 149.389L254.559 161.942Q263.923 174.444 267.113 178.611Z"/></svg>