<svg width="480px" height="360px" xmlns="http://www.w3.org/2000/svg"><rect x="216" y="124" width="80.5" height="80.5" fill-opacity="0"/><path fill="#F00" d="M252.086 148L253.651 148Q254.043 148 254.312 148.269Q254.581 148.538 254.581 148.930L254.581 148.930L254.581 174.667Q254.581 177.113 252.697 178.826Q250.813 180.538 247.633 180.538L247.633 180.538Q245.578 180.538 244.159 179.927Q242.740 179.315 241.174 177.798L241.174 177.798Q240.881 177.505 240.881 177.113Q240.881 176.722 241.174 176.453Q241.468 176.183 242.300 175.401L242.300 175.401Q242.936 174.813 243.572 175.401L243.572 175.401Q245.382 177.113 247.633 177.113L247.633 177.113Q249.199 177.113 250.177 176.453Q251.156 175.792 251.156 174.667L251.156 174.667L251.156 148.930Q251.156 148.538 251.425 148.269Q251.694 148 252.086 148L252.086 148Z"/></svg>