<svg width="480px" height="360px" xmlns="http://www.w3.org/2000/svg"><rect x="216" y="124" width="80.5" height="80.5" fill-opacity="0"/><path fill="#F00" d="M266.084 155.974Q266.444 155.974 266.675 156.206Q266.907 156.437 266.907 156.797L266.907 156.797L266.907 160.810Q266.907 161.170 266.675 161.402Q266.444 161.633 266.084 161.633L266.084 161.633L262.894 161.633L262.379 165.801L265.158 165.801Q265.518 165.801 265.749 166.058Q265.981 166.315 265.981 166.624L265.981 166.624L265.981 170.637Q265.981 170.997 265.749 171.254Q265.518 171.511 265.158 171.511L265.158 171.511L261.711 171.511Q260.990 177.170 260.733 179.228L260.733 179.228Q260.682 179.588 260.450 179.794Q260.219 180 259.910 180L259.910 180L255.846 180Q255.486 180 255.228 179.717Q254.971 179.434 255.023 179.023L255.023 179.023L255.949 171.511L251.936 171.511Q251.215 177.170 250.958 179.228L250.958 179.228Q250.907 179.588 250.675 179.794Q250.444 180 250.135 180L250.135 180L246.122 180Q245.711 180 245.453 179.717Q245.196 179.434 245.248 179.023L245.248 179.023L246.174 171.511L244.219 171.511Q243.859 171.511 243.601 171.254Q243.344 170.997 243.344 170.637L243.344 170.637L243.344 166.624Q243.344 166.315 243.601 166.058Q243.859 165.801 244.219 165.801L244.219 165.801L246.894 165.801L247.408 161.633L245.145 161.633Q244.785 161.633 244.527 161.402Q244.270 161.170 244.270 160.810L244.270 160.810L244.270 156.797Q244.270 156.437 244.527 156.206Q244.785 155.974 245.145 155.974L245.145 155.974L248.077 155.974Q248.746 150.727 248.952 148.720L248.952 148.720Q249.055 148 249.826 148L249.826 148L253.839 148Q254.199 148 254.457 148.283Q254.714 148.566 254.662 148.926L254.662 148.926L253.839 155.974L257.852 155.974Q258.521 150.727 258.727 148.720L258.727 148.720Q258.778 148.514 258.881 148.334Q258.984 148.154 259.190 148.077Q259.395 148 259.601 148L259.601 148L263.614 148Q263.974 148 264.232 148.283Q264.489 148.566 264.437 148.926L264.437 148.926L263.614 155.974L266.084 155.974ZM252.605 165.801L256.669 165.801L257.132 161.633L253.119 161.633L252.605 165.801Z"/></svg>