<svg width="480px" height="360px" xmlns="http://www.w3.org/2000/svg"><rect x="216" y="124" width="80.5" height="80.5" fill-opacity="0"/><path fill="#F00" d="M267.847 150.589L267.847 150.589Q271.414 154.400 269.704 163.145L269.704 163.145Q269.704 163.292 269.606 163.585Q269.508 163.878 269.508 164.049Q269.508 164.220 269.411 164.489Q269.313 164.757 269.313 164.953L269.313 164.953Q267.847 173.747 263.157 177.508L263.157 177.508Q259.102 180.586 253.337 180.586L253.337 180.586Q247.133 180.342 244.592 177.508L244.592 177.508Q242.785 175.652 242.394 172.354Q242.003 169.056 242.785 164.953L242.785 164.953Q242.785 164.757 242.882 164.489Q242.980 164.220 242.980 164.049Q242.980 163.878 243.053 163.585Q243.127 163.292 243.127 163.145L243.127 163.145Q244.592 154.302 249.331 150.589L249.331 150.589Q253.337 147.511 259.151 147.511L259.151 147.511Q265.307 147.756 267.847 150.589ZM266.431 163.145L266.431 163.145Q267.652 155.719 265.307 152.934L265.307 152.934Q263.402 150.785 258.760 150.785L258.760 150.785Q254.217 150.785 251.530 152.934L251.530 152.934Q248.012 155.719 246.791 163.145L246.791 163.145Q246.595 163.292 246.595 163.878L246.595 163.878L246.595 164.024Q246.595 164.122 246.498 164.391Q246.400 164.660 246.400 164.757L246.400 164.757Q245.765 168.031 245.936 170.718Q246.107 173.405 247.524 174.968L247.524 174.968Q249.429 177.118 254.070 177.118L254.070 177.118Q258.614 177.118 261.350 174.968L261.350 174.968Q264.818 172.134 266.040 164.757L266.040 164.757Q266.235 164.562 266.235 164.024L266.235 164.024L266.235 163.878Q266.235 163.780 266.333 163.487Q266.431 163.194 266.431 163.145Z"/></svg>