<svg width="480px" height="360px" xmlns="http://www.w3.org/2000/svg"><rect x="216" y="124" width="80.5" height="80.5" fill-opacity="0"/><path fill="#F00" d="M244.697 175.645L246.263 175.645Q246.606 175.645 246.899 175.939Q247.193 176.232 247.193 176.575L247.193 176.575L247.193 179.070Q247.193 179.462 246.899 179.731Q246.606 180 246.263 180L246.263 180L244.697 180Q244.306 180 244.037 179.731Q243.768 179.462 243.768 179.070L243.768 179.070L243.768 176.575Q243.768 176.232 244.037 175.939Q244.306 175.645 244.697 175.645L244.697 175.645ZM244.697 148.245L246.263 148.245Q246.606 148.245 246.899 148.514Q247.193 148.783 247.193 149.174L247.193 149.174L247.193 153.823Q246.801 168.208 246.752 171.976L246.752 171.976Q246.703 172.367 246.434 172.612Q246.165 172.856 245.823 172.856L245.823 172.856L245.138 172.856Q244.746 172.856 244.477 172.612Q244.208 172.367 244.208 171.976L244.208 171.976L243.768 153.823L243.768 149.174Q243.768 148.783 244.037 148.514Q244.306 148.245 244.697 148.245L244.697 148.245Z"/></svg>