<svg width="480px" height="360px" xmlns="http://www.w3.org/2000/svg"><rect x="216" y="124" width="80.5" height="80.5" fill-opacity="0"/><path fill="#F00" d="M262.019 163.331L261.505 163.537Q261.608 163.537 261.788 163.614Q261.968 163.691 262.457 163.974Q262.945 164.257 263.383 164.592Q263.820 164.926 264.386 165.518Q264.952 166.109 265.338 166.778Q265.723 167.447 266.006 168.450Q266.289 169.453 266.289 170.534L266.289 170.534Q266.289 174.598 263.151 177.556Q260.013 180.514 255.588 180.514L255.588 180.514Q253.068 180.514 250.830 179.820Q248.592 179.125 247.074 177.994Q245.556 176.862 244.656 175.961Q243.756 175.061 243.087 174.135L243.087 174.135Q242.881 173.826 242.958 173.466Q243.035 173.106 243.344 172.900L243.344 172.900Q244.476 172.283 246.842 170.945L246.842 170.945Q247.511 170.585 247.974 171.151L247.974 171.151Q248.592 171.974 249.415 172.669Q250.238 173.363 251.936 174.084Q253.633 174.804 255.588 174.804L255.588 174.804Q257.646 174.804 259.113 173.569Q260.579 172.334 260.579 170.534L260.579 170.534Q260.579 168.527 258.624 167.293L258.624 167.293Q257.029 166.315 255.125 166.315L255.125 166.315Q254.354 166.315 252.810 166.315L252.810 166.315Q252.605 166.315 252.399 166.186Q252.193 166.058 252.090 165.852Q251.987 165.646 251.987 165.441L251.987 165.441L251.987 161.428Q251.987 161.119 252.219 160.862Q252.450 160.605 252.810 160.605L252.810 160.605L255.023 160.605Q257.286 160.605 259.190 159.318L259.190 159.318Q260.579 158.289 260.579 156.900L260.579 156.900Q260.579 155.305 259.087 154.251Q257.595 153.196 255.588 153.196L255.588 153.196Q250.855 153.196 247.923 156.489L247.923 156.489Q247.460 157.055 246.842 156.695L246.842 156.695Q245.402 155.820 243.395 154.585L243.395 154.585Q243.087 154.379 243.010 153.994Q242.932 153.608 243.138 153.350L243.138 153.350Q243.807 152.476 244.707 151.653Q245.608 150.830 247.151 149.801Q248.695 148.772 250.881 148.129Q253.068 147.486 255.588 147.486L255.588 147.486Q260.064 147.486 263.177 150.264Q266.289 153.042 266.289 156.900L266.289 156.900Q266.289 158.289 265.801 159.498Q265.312 160.707 264.592 161.428Q263.871 162.148 263.177 162.637Q262.482 163.125 262.019 163.331L262.019 163.331Z"/></svg>