<svg width="480px" height="360px" xmlns="http://www.w3.org/2000/svg"><rect x="216" y="124" width="80.5" height="80.5" fill-opacity="0"/><path fill="#F00" d="M246.585 174.032Q246.945 174.032 247.203 174.289Q247.460 174.547 247.460 174.907L247.460 174.907Q247.408 176.656 247.408 177.994L247.408 177.994Q247.357 179.486 246.482 180.720L246.482 180.720Q245.248 182.521 244.836 183.087L244.836 183.087Q244.579 183.447 244.167 183.447Q243.756 183.447 243.498 183.138L243.498 183.138Q243.395 183.035 243.035 182.624L243.035 182.624Q242.572 182.058 243.035 181.492L243.035 181.492Q243.447 181.080 243.781 180.669Q244.116 180.257 244.322 180L244.322 180L242.624 180Q242.264 180 242.006 179.743Q241.749 179.486 241.749 179.125L241.749 179.125L241.749 174.907Q241.749 174.547 242.006 174.289Q242.264 174.032 242.624 174.032L242.624 174.032L246.585 174.032Z"/></svg>