<svg width="480px" height="360px" xmlns="http://www.w3.org/2000/svg"><rect x="216" y="124" width="80.5" height="80.5" fill-opacity="0"/><path fill="#F00" d="M265.991 151.127L265.991 151.127Q266.186 151.322 266.186 151.689Q266.186 152.055 265.795 152.397L265.795 152.397Q265.649 152.641 265.429 152.861Q265.209 153.081 264.940 153.325Q264.672 153.569 264.525 153.667L264.525 153.667Q263.988 154.205 263.255 153.863L263.255 153.863Q259.200 150.931 255.634 150.931L255.634 150.931Q252.605 150.931 250.137 152.544Q247.670 154.156 247.279 156.598L247.279 156.598Q246.791 159.285 249.478 160.947L249.478 160.947Q250.113 161.386 251.017 161.826Q251.921 162.266 252.678 162.534Q253.435 162.803 254.583 163.218Q255.731 163.634 256.366 163.878L256.366 163.878Q259.689 165.197 260.910 166.418L260.910 166.418Q263.011 168.519 262.522 171.304L262.522 171.304Q261.838 175.017 258.247 177.704Q254.656 180.391 250.162 180.391L250.162 180.391Q247.866 180.391 245.154 179.463Q242.443 178.534 240.537 176.776L240.537 176.776Q240.342 176.580 240.342 176.043L240.342 176.043Q240.342 175.652 240.733 175.310L240.733 175.310Q240.928 175.115 241.368 174.748Q241.808 174.382 242.003 174.235L242.003 174.235Q242.834 173.795 243.273 174.235L243.273 174.235Q244.788 175.603 246.913 176.263Q249.038 176.922 250.895 176.922L250.895 176.922Q253.973 176.922 256.415 175.310Q258.858 173.698 259.249 171.304L259.249 171.304Q259.493 169.692 257.832 168.568L257.832 168.568Q256.366 167.689 252.360 166.223L252.360 166.223Q248.012 164.415 246.351 163.145L246.351 163.145Q243.224 160.605 244.006 156.598L244.006 156.598Q244.690 152.885 248.305 150.198Q251.921 147.511 256.366 147.511L256.366 147.511Q258.663 147.511 261.374 148.440Q264.085 149.368 265.991 151.127Z"/></svg>