<svg width="480px" height="360px" xmlns="http://www.w3.org/2000/svg"><rect x="216" y="124" width="80.5" height="80.5" fill-opacity="0"/><path fill="#F00" d="M257.286 155.666L257.286 155.666Q264.489 155.871 264.489 167.550L264.489 167.550L264.489 179.125Q264.489 179.486 264.257 179.743Q264.026 180 263.666 180L263.666 180L259.653 180Q259.293 180 259.035 179.743Q258.778 179.486 258.778 179.125L258.778 179.125L258.778 167.550Q258.778 165.801 258.341 164.412Q257.904 163.023 257.003 162.225Q256.103 161.428 254.868 161.376L254.868 161.376Q253.685 161.376 252.682 161.788Q251.678 162.199 251.035 162.920Q250.392 163.640 250.032 164.180Q249.672 164.720 249.466 165.286L249.466 165.286L249.466 179.125Q249.466 179.486 249.209 179.743Q248.952 180 248.592 180L248.592 180L244.630 180Q244.373 180 244.167 179.897Q243.961 179.794 243.859 179.588Q243.756 179.383 243.756 179.125L243.756 179.125L243.756 148.051Q243.756 147.743 244.013 147.486Q244.270 147.228 244.630 147.228L244.630 147.228L248.592 147.228Q248.952 147.228 249.209 147.486Q249.466 147.743 249.466 148.051L249.466 148.051L249.466 158.855Q252.759 155.563 257.286 155.666Z"/></svg>