<svg width="480px" height="360px" xmlns="http://www.w3.org/2000/svg"><rect x="216" y="124" width="80.5" height="80.5" fill-opacity="0"/><path fill="#F00" d="M258.544 156.661L258.544 158.422Q258.544 158.960 258.055 159.205L258.055 159.205L246.606 165.321Q255.804 170.214 258.055 171.437L258.055 171.437Q258.544 171.682 258.544 172.220L258.544 172.220L258.544 173.982Q258.544 174.520 258.104 174.789Q257.664 175.058 257.223 174.813L257.223 174.813Q244.648 168.159 242.642 167.083L242.642 167.083Q242.153 166.838 242.153 166.251L242.153 166.251L242.153 164.391Q242.153 163.804 242.642 163.560L242.642 163.560Q243.621 163.021 249.492 159.914Q255.364 156.807 257.223 155.829L257.223 155.829Q257.664 155.584 258.104 155.853Q258.544 156.122 258.544 156.661L258.544 156.661Z"/></svg>