<svg width="480px" height="360px" xmlns="http://www.w3.org/2000/svg"><rect x="216" y="124" width="80.5" height="80.5" fill-opacity="0"/><path fill="#F00" d="M276.397 157.380L276.397 157.380Q276.690 157.624 276.055 158.260L276.055 158.260Q270.046 170.278 265.160 179.560L265.160 179.560Q264.867 180.098 264.232 180.098L264.232 180.098L262.034 180.098Q261.350 180.098 261.350 179.560L261.350 179.560L258.809 163.389L250.406 179.560Q250.162 180.098 249.527 180.098L249.527 180.098L247.328 180.098Q246.595 180.098 246.595 179.560L246.595 179.560Q246.351 177.313 245.154 169.594Q243.957 161.875 243.322 158.260L243.322 158.260Q243.322 157.722 243.713 157.380L243.713 157.380Q244.446 156.989 244.592 156.989L244.592 156.989L246.253 156.989Q246.986 156.989 246.986 157.576L246.986 157.576L249.673 174.626Q256.806 160.653 258.418 157.576L258.418 157.576Q258.711 156.989 259.347 156.989L259.347 156.989L260.959 156.989Q261.692 156.989 261.692 157.576L261.692 157.576L264.427 174.626Q271.511 160.653 273.173 157.576L273.173 157.576Q273.417 156.989 274.052 156.989L274.052 156.989L275.713 156.989Q276.055 156.989 276.397 157.380Z"/></svg>