<svg width="480px" height="360px" xmlns="http://www.w3.org/2000/svg"><rect x="216" y="124" width="80.5" height="80.5" fill-opacity="0"/><path fill="#F00" d="M260.697 159.645L254.092 166.251Q258.887 171.046 260.697 172.856L260.697 172.856Q260.991 173.101 260.991 173.492Q260.991 173.884 260.697 174.177L260.697 174.177Q260.550 174.324 259.621 175.254L259.621 175.254Q259.327 175.547 258.936 175.547Q258.544 175.547 258.300 175.254L258.300 175.254L251.694 168.648Q246.850 173.492 245.089 175.254L245.089 175.254Q244.795 175.547 244.404 175.547Q244.012 175.547 243.768 175.254L243.768 175.254Q242.838 174.324 242.691 174.177L242.691 174.177Q242.398 173.884 242.398 173.492Q242.398 173.101 242.691 172.856L242.691 172.856L249.297 166.251Q244.453 161.407 242.691 159.645L242.691 159.645Q242.398 159.352 242.398 158.960Q242.398 158.569 242.691 158.324L242.691 158.324Q242.838 158.177 243.768 157.248L243.768 157.248Q244.012 156.954 244.404 156.954Q244.795 156.954 245.089 157.248L245.089 157.248L251.694 163.853Q256.489 159.009 258.300 157.248L258.300 157.248Q258.544 156.954 258.936 156.954Q259.327 156.954 259.621 157.248L259.621 157.248Q260.550 158.128 260.697 158.324L260.697 158.324Q260.991 158.618 260.991 158.985Q260.991 159.352 260.697 159.645L260.697 159.645Z"/></svg>