<svg width="480px" height="360px" xmlns="http://www.w3.org/2000/svg"><rect x="216" y="124" width="80.5" height="80.5" fill-opacity="0"/><path fill="#F00" d="M262.815 149.368L262.815 149.368Q266.870 152.641 264.818 163.194L264.818 163.194Q264.818 163.389 264.721 163.658Q264.623 163.927 264.623 164.098Q264.623 164.269 264.525 164.537Q264.427 164.806 264.427 165.002L264.427 165.002Q262.718 175.456 257.539 178.827L257.539 178.827Q254.803 180.635 251.188 180.635L251.188 180.635L250.992 180.635Q247.475 180.635 245.325 178.827L245.325 178.827Q243.273 177.020 242.858 173.429Q242.443 169.838 243.371 165.002L243.371 165.002Q243.371 164.806 243.444 164.537Q243.518 164.269 243.518 164.098Q243.518 163.927 243.615 163.658Q243.713 163.389 243.713 163.194L243.713 163.194Q245.472 152.739 250.602 149.368L250.602 149.368Q253.337 147.560 257.002 147.560L257.002 147.560L257.148 147.560Q260.666 147.560 262.815 149.368ZM261.545 163.194L261.545 163.194Q261.838 161.240 261.960 159.798Q262.082 158.357 262.058 156.892Q262.034 155.426 261.716 154.400Q261.398 153.374 260.788 152.544Q260.177 151.713 259.127 151.298Q258.076 150.882 256.611 150.834L256.611 150.834Q254.803 150.931 253.411 151.591Q252.018 152.250 251.066 153.276Q250.113 154.302 249.380 155.915Q248.647 157.527 248.208 159.188Q247.768 160.849 247.328 163.194L247.328 163.194Q247.182 163.389 247.182 163.927L247.182 163.927Q247.182 164.024 247.084 164.293Q246.986 164.562 246.986 164.660L246.986 164.660Q246.400 168.324 246.351 171.035Q246.302 173.747 247.646 175.334Q248.989 176.922 251.872 177.020L251.872 177.020Q253.728 176.873 255.121 176.214Q256.513 175.554 257.466 174.553Q258.418 173.551 259.151 171.939Q259.884 170.327 260.324 168.641Q260.763 166.956 261.154 164.660L261.154 164.660Q261.350 164.464 261.350 163.927L261.350 163.927Q261.350 163.829 261.447 163.560Q261.545 163.292 261.545 163.194Z"/></svg>