<svg width="480px" height="360px" xmlns="http://www.w3.org/2000/svg"><rect x="216" y="124" width="80.5" height="80.5" fill-opacity="0"/><path fill="#F00" d="M254.532 164.979L254.532 164.979Q254.875 165.028 255.119 165.297Q255.364 165.566 255.364 165.908L255.364 165.908Q255.364 167.131 255.315 167.621L255.315 167.621Q255.315 167.963 255.095 168.232Q254.875 168.502 254.532 168.550L254.532 168.550Q252.869 168.795 251.645 170.018L251.645 170.018Q250.128 171.535 250.128 173.688L250.128 173.688L250.128 180.636Q250.128 183.670 247.780 186.312L247.780 186.312Q246.361 187.878 243.278 188.465L243.278 188.465Q242.838 188.563 242.495 188.269Q242.153 187.976 242.153 187.584L242.153 187.584L242.153 186.067Q242.153 185.284 242.936 185.138L242.936 185.138Q244.502 184.844 245.382 183.865L245.382 183.865Q246.752 182.446 246.752 180.636L246.752 180.636L246.752 173.688Q246.752 170.116 249.248 167.572L249.248 167.572Q249.688 167.131 250.226 166.789L250.226 166.789Q248.612 165.566 247.682 163.755Q246.752 161.945 246.752 159.841L246.752 159.841L246.752 154.850Q246.752 153.774 246.336 152.942Q245.920 152.110 245.260 151.621Q244.599 151.131 244.012 150.838Q243.425 150.544 242.838 150.398L242.838 150.398Q242.153 150.202 242.153 149.517L242.153 149.517Q242.153 148.489 242.153 147.951L242.153 147.951Q242.153 147.511 242.495 147.242Q242.838 146.972 243.278 147.070L243.278 147.070Q243.963 147.217 244.575 147.437Q245.187 147.657 246.018 148.073Q246.850 148.489 247.535 149.101Q248.220 149.713 248.832 150.495Q249.443 151.278 249.786 152.404Q250.128 153.529 250.128 154.850L250.128 154.850L250.128 159.841Q250.128 161.798 251.401 163.266Q252.673 164.734 254.532 164.979Z"/></svg>