<svg width="480px" height="360px" xmlns="http://www.w3.org/2000/svg"><rect x="216" y="124" width="80.5" height="80.5" fill-opacity="0"/><path fill="#F00" d="M243.293 147.074L252.502 147.074Q252.862 147.074 253.119 147.331Q253.376 147.588 253.376 147.949L253.376 147.949L253.376 186.997Q253.376 187.357 253.119 187.588Q252.862 187.820 252.502 187.820L252.502 187.820L243.293 187.820Q242.932 187.820 242.675 187.563Q242.418 187.305 242.418 186.997L242.418 186.997L242.418 182.984Q242.418 182.624 242.675 182.392Q242.932 182.161 243.293 182.161L243.293 182.161L247.666 182.161L247.666 152.785L243.293 152.785Q242.932 152.785 242.675 152.527Q242.418 152.270 242.418 151.910L242.418 151.910L242.418 147.949Q242.418 147.588 242.675 147.331Q242.932 147.074 243.293 147.074L243.293 147.074Z"/></svg>