<svg width="480px" height="360px" xmlns="http://www.w3.org/2000/svg"><rect x="216" y="124" width="80.5" height="80.5" fill-opacity="0"/><path fill="#F00" d="M263.203 147.228Q263.511 147.228 263.768 147.486Q264.026 147.743 264.026 148.051L264.026 148.051L264.026 178.971Q264.026 179.331 263.768 179.563Q263.511 179.794 263.203 179.794L263.203 179.794L259.190 179.794Q258.830 179.794 258.572 179.563Q258.315 179.331 258.315 178.971L258.315 178.971L258.315 177.222Q256.206 180.514 251.215 180.514L251.215 180.514Q247.511 180.514 245.196 177.145Q242.881 173.775 242.881 167.550L242.881 167.550Q242.881 162.045 245.016 158.907Q247.151 155.768 251.164 155.666L251.164 155.666Q256.154 155.563 258.315 159.370L258.315 159.370L258.315 148.051Q258.315 147.846 258.444 147.640Q258.572 147.434 258.752 147.331Q258.932 147.228 259.190 147.228L259.190 147.228L263.203 147.228ZM258.315 171.666L258.315 171.666L258.315 165.286Q258.109 164.772 257.749 164.206Q257.389 163.640 256.720 162.920Q256.051 162.199 254.997 161.788Q253.942 161.376 252.707 161.376L252.707 161.376Q250.804 161.428 249.698 163.151Q248.592 164.875 248.592 167.550L248.592 167.550Q248.592 171.254 250.135 173.312L250.135 173.312Q251.215 174.804 252.605 174.804L252.605 174.804Q253.582 174.804 254.482 174.547Q255.383 174.289 255.974 173.955Q256.566 173.621 257.080 173.158Q257.595 172.695 257.852 172.334Q258.109 171.974 258.315 171.666Z"/></svg>