<svg width="480px" height="360px" xmlns="http://www.w3.org/2000/svg"><rect x="216" y="124" width="80.5" height="80.5" fill-opacity="0"/><path fill="#F00" d="M256.098 156.367L256.098 156.367Q259.865 156.465 261.798 159.498Q263.731 162.532 263.731 167.865L263.731 167.865Q263.731 171.927 262.777 174.789Q261.823 177.651 260.110 179.095Q258.398 180.538 256.049 180.538L256.049 180.538Q250.471 180.538 246.948 176.379L246.948 176.379L246.948 179.070Q246.948 179.462 246.654 179.731Q246.361 180 246.018 180L246.018 180L244.453 180Q244.061 180 243.792 179.731Q243.523 179.462 243.523 179.070L243.523 179.070L243.523 148.098Q243.523 147.706 243.792 147.437Q244.061 147.168 244.453 147.168L244.453 147.168L246.018 147.168Q246.361 147.168 246.654 147.437Q246.948 147.706 246.948 148.098L246.948 148.098L246.948 161.064Q250.471 156.220 256.098 156.367ZM255.168 177.113L255.168 177.113Q257.566 177.113 258.936 174.642Q260.306 172.171 260.306 167.865L260.306 167.865Q260.306 164.196 258.985 162.018Q257.664 159.841 255.119 159.792L255.119 159.792Q253.700 159.743 252.379 160.183Q251.058 160.624 250.177 161.284Q249.297 161.945 248.563 162.752Q247.829 163.560 247.462 164.147Q247.095 164.734 246.948 165.174L246.948 165.174L246.948 172.661Q247.193 173.150 247.780 173.810Q248.367 174.471 249.370 175.254Q250.373 176.037 251.914 176.575Q253.456 177.113 255.168 177.113Z"/></svg>