<svg width="480px" height="360px" xmlns="http://www.w3.org/2000/svg"><rect x="216" y="124" width="80.5" height="80.5" fill-opacity="0"/><path fill="#F00" d="M265.878 148Q266.341 148 266.598 148.386Q266.855 148.772 266.650 149.183L266.650 149.183L258.469 166.521L261.916 166.521Q262.277 166.521 262.534 166.778Q262.791 167.035 262.791 167.395L262.791 167.395L262.791 168.527Q262.791 168.887 262.534 169.145Q262.277 169.402 261.916 169.402L261.916 169.402L257.492 169.402L257.492 171.408L261.916 171.408Q262.277 171.408 262.534 171.666Q262.791 171.923 262.791 172.283L262.791 172.283L262.791 173.415Q262.791 173.775 262.534 174.032Q262.277 174.289 261.916 174.289L261.916 174.289L257.492 174.289L257.492 179.125Q257.492 179.383 257.363 179.588Q257.235 179.794 257.055 179.897Q256.875 180 256.617 180L256.617 180L252.656 180Q252.296 180 252.039 179.743Q251.781 179.486 251.781 179.125L251.781 179.125L251.781 174.289L247.305 174.289Q246.997 174.289 246.740 174.032Q246.482 173.775 246.482 173.415L246.482 173.415L246.482 172.283Q246.482 171.923 246.740 171.666Q246.997 171.408 247.305 171.408L247.305 171.408L251.781 171.408L251.781 169.402L247.305 169.402Q246.997 169.402 246.740 169.145Q246.482 168.887 246.482 168.527L246.482 168.527L246.482 167.395Q246.482 167.035 246.714 166.778Q246.945 166.521 247.305 166.521L247.305 166.521L250.804 166.521Q244.579 153.299 242.624 149.183L242.624 149.183Q242.418 148.772 242.650 148.386Q242.881 148 243.395 148L243.395 148L247.768 148Q248.334 148 248.540 148.463L248.540 148.463L254.611 161.325Q259.550 150.881 260.682 148.463L260.682 148.463Q260.939 148 261.453 148L261.453 148L265.878 148Z"/></svg>