<svg width="480px" height="360px" xmlns="http://www.w3.org/2000/svg"><rect x="216" y="124" width="80.5" height="80.5" fill-opacity="0"/><path fill="#F00" d="M264.367 161.211Q264.807 161.211 265.076 161.505Q265.346 161.798 265.297 162.190L265.297 162.190Q265.199 163.070 265.028 163.878Q264.856 164.685 264.391 165.810Q263.927 166.936 263.242 167.743Q262.557 168.550 261.358 169.138Q260.159 169.725 258.691 169.725L258.691 169.725Q256.538 169.725 254.239 167.474L254.239 167.474Q254.190 167.376 253.676 166.862Q253.162 166.349 252.991 166.202Q252.820 166.055 252.330 165.664Q251.841 165.272 251.474 165.125Q251.107 164.979 250.544 164.832Q249.982 164.685 249.394 164.685L249.394 164.685Q247.780 164.685 246.606 165.835Q245.431 166.985 245.187 168.746L245.187 168.746Q245.138 169.089 244.869 169.309Q244.599 169.529 244.257 169.529L244.257 169.529Q243.180 169.529 242.691 169.529L242.691 169.529Q242.251 169.529 241.982 169.235Q241.713 168.942 241.761 168.502L241.761 168.502Q241.957 166.985 242.618 165.639Q243.278 164.294 244.281 163.339Q245.284 162.385 246.606 161.823Q247.927 161.260 249.394 161.260L249.394 161.260Q251.498 161.260 252.991 162.067Q254.483 162.875 255.902 164.294L255.902 164.294Q257.125 165.517 257.321 165.664L257.321 165.664Q258.055 166.349 258.691 166.349L258.691 166.349Q260.159 166.349 260.966 165.125Q261.774 163.902 261.920 162.043L261.920 162.043Q261.969 161.700 262.239 161.456Q262.508 161.211 262.850 161.211L262.850 161.211Q263.878 161.211 264.367 161.211L264.367 161.211Z"/></svg>