<svg width="480px" height="360px" xmlns="http://www.w3.org/2000/svg"><rect x="216" y="124" width="80.5" height="80.5" fill-opacity="0"/><path fill="#F00" d="M261.823 167.865L261.823 167.865Q261.823 168.110 261.774 168.453L261.774 168.453Q261.823 168.795 261.823 169.040L261.823 169.040Q261.823 172.220 261.138 174.520Q260.453 176.820 258.936 178.239L258.936 178.239Q256.587 180.440 252.330 180.538L252.330 180.538L252.232 180.538Q247.976 180.440 245.676 178.239L245.676 178.239Q242.789 175.547 242.789 169.040L242.789 169.040Q242.789 168.795 242.789 168.453L242.789 168.453Q242.789 168.110 242.789 167.865L242.789 167.865Q242.789 161.358 245.676 158.667L245.676 158.667Q247.976 156.465 252.232 156.367L252.232 156.367L252.330 156.367Q256.587 156.465 258.936 158.667L258.936 158.667Q261.823 161.358 261.823 167.865ZM258.398 169.040L258.398 169.040Q258.398 168.746 258.398 168.502L258.398 168.502L258.398 168.404Q258.398 168.061 258.398 167.865L258.398 167.865Q258.398 165.370 258.031 163.755Q257.664 162.141 256.587 161.113L256.587 161.113Q255.217 159.841 252.281 159.743L252.281 159.743Q249.346 159.841 247.976 161.113L247.976 161.113Q246.948 162.141 246.581 163.755Q246.214 165.370 246.214 167.865L246.214 167.865Q246.214 168.110 246.214 168.404L246.214 168.404L246.214 168.502Q246.214 168.795 246.214 169.040L246.214 169.040Q246.214 171.535 246.581 173.150Q246.948 174.765 247.976 175.792L247.976 175.792Q249.346 177.064 252.281 177.113L252.281 177.113Q255.217 177.064 256.587 175.792L256.587 175.792Q257.664 174.765 258.031 173.150Q258.398 171.535 258.398 169.040Z"/></svg>