<svg width="480px" height="360px" xmlns="http://www.w3.org/2000/svg"><rect x="216" y="124" width="80.5" height="80.5" fill-opacity="0"/><path fill="#F00" d="M256.953 156.452L256.953 156.452Q260.324 156.452 261.594 159.432Q262.864 162.412 261.887 167.542L261.887 167.542L259.884 178.827Q259.884 179.218 259.542 179.487Q259.200 179.756 258.760 179.756L258.760 179.756L257.148 179.756Q256.415 179.756 256.415 178.827L256.415 178.827L258.418 167.542Q259.444 163.194 258.614 161.533L258.614 161.533Q257.734 159.579 255.682 159.579L255.682 159.579Q254.070 159.579 252.434 160.385Q250.797 161.191 249.673 162.266L249.673 162.266Q248.061 163.927 247.670 165.002L247.670 165.002L245.130 179.023Q245.130 179.365 244.788 179.756L244.788 179.756Q244.690 179.756 244.421 179.829Q244.153 179.902 244.055 179.902L244.055 179.902L242.443 179.902Q242.052 179.902 241.881 179.731Q241.710 179.560 241.710 179.023L241.710 179.023Q242.150 176.629 244.421 163.536Q246.693 150.443 247.133 148.098L247.133 148.098Q247.133 147.756 247.524 147.365L247.524 147.365Q247.621 147.365 247.890 147.267Q248.159 147.169 248.256 147.169L248.256 147.169L249.869 147.169Q250.602 147.169 250.602 148.098L250.602 148.098L248.403 160.849L248.794 160.458Q250.015 159.237 251.017 158.455Q252.018 157.673 253.655 157.038Q255.292 156.403 256.953 156.452Z"/></svg>