<svg width="480px" height="360px" xmlns="http://www.w3.org/2000/svg"><rect x="216" y="124" width="80.5" height="80.5" fill-opacity="0"/><path fill="#F00" d="M244.110 163.168L245.676 163.168Q246.067 163.168 246.336 163.437Q246.606 163.706 246.606 164.098L246.606 164.098L246.606 187.046Q246.606 187.388 246.312 187.657Q246.018 187.927 245.676 187.927L245.676 187.927L244.110 187.927Q243.719 187.927 243.450 187.657Q243.180 187.388 243.180 187.046L243.180 187.046L243.180 164.098Q243.180 163.706 243.450 163.437Q243.719 163.168 244.110 163.168L244.110 163.168ZM244.110 156.073L245.676 156.073Q245.920 156.073 246.141 156.196Q246.361 156.318 246.483 156.514Q246.606 156.709 246.606 157.003L246.606 157.003L246.606 159.450Q246.606 159.841 246.312 160.110Q246.018 160.379 245.676 160.379L245.676 160.379L244.110 160.379Q243.719 160.379 243.450 160.110Q243.180 159.841 243.180 159.450L243.180 159.450L243.180 157.003Q243.180 156.612 243.450 156.343Q243.719 156.073 244.110 156.073L244.110 156.073Z"/></svg>