<svg width="480px" height="360px" xmlns="http://www.w3.org/2000/svg"><rect x="216" y="124" width="80.5" height="80.5" fill-opacity="0"/><path fill="#F00" d="M253.376 161.222L249.415 161.222Q249.055 161.222 248.797 160.965Q248.540 160.707 248.540 160.347L248.540 160.347L248.540 156.129Q248.540 155.768 248.797 155.537Q249.055 155.305 249.415 155.305L249.415 155.305L253.376 155.305Q253.736 155.305 253.994 155.537Q254.251 155.768 254.251 156.129L254.251 156.129L254.251 160.347Q254.251 160.707 253.994 160.965Q253.736 161.222 253.376 161.222L253.376 161.222ZM262.688 178.817L262.688 178.817Q262.945 179.125 262.842 179.486L262.842 179.486Q262.225 182.521 260.064 184.630L260.064 184.630Q256.926 187.768 251.421 187.768L251.421 187.768Q247.614 187.768 244.913 185.016Q242.212 182.264 242.212 178.354L242.212 178.354Q242.212 174.495 245.659 171.820L245.659 171.820Q248.540 169.608 248.540 165.955L248.540 165.955L248.540 164.669Q248.540 164.309 248.797 164.077Q249.055 163.846 249.415 163.846L249.415 163.846L253.376 163.846Q253.736 163.846 253.994 164.077Q254.251 164.309 254.251 164.669L254.251 164.669L254.251 165.955Q254.251 168.990 252.913 171.717Q251.576 174.444 249.158 176.296L249.158 176.296Q247.923 177.273 247.923 178.354L247.923 178.354Q247.923 179.897 248.926 180.977Q249.929 182.058 251.421 182.058L251.421 182.058Q254.559 182.058 256.103 180.566L256.103 180.566Q256.875 179.846 257.132 178.868L257.132 178.868Q257.338 178.199 258.006 178.251L258.006 178.251Q258.418 178.251 259.936 178.354Q261.453 178.457 262.071 178.457L262.071 178.457Q262.482 178.508 262.688 178.817Z"/></svg>