<svg width="480px" height="360px" xmlns="http://www.w3.org/2000/svg"><rect x="216" y="124" width="80.5" height="80.5" fill-opacity="0"/><path fill="#F00" d="M245.227 176.580L257.783 176.580Q258.223 176.580 258.394 176.824Q258.565 177.069 258.321 177.508L258.321 177.508Q258.321 177.753 258.223 178.315Q258.125 178.876 258.125 179.121L258.125 179.121Q258.125 179.511 257.783 179.853L257.783 179.853Q257.685 179.853 257.417 179.951Q257.148 180.049 257.050 180.049L257.050 180.049L242.150 180.049Q241.808 180.049 241.612 179.853Q241.417 179.658 241.417 179.121L241.417 179.121Q241.954 175.701 243.982 164.171Q246.009 152.641 246.693 148.928L246.693 148.928Q246.693 148.586 247.035 148.195L247.035 148.195Q247.133 148.195 247.402 148.122Q247.670 148.049 247.768 148.049L247.768 148.049L249.429 148.049Q250.162 148.049 250.162 148.928L250.162 148.928L245.227 176.580Z"/></svg>