<svg width="480px" height="360px" xmlns="http://www.w3.org/2000/svg"><rect x="216" y="124" width="80.5" height="80.5" fill-opacity="0"/><path fill="#F00" d="M262.482 157.518L255.640 168.116Q260.476 175.576 262.482 178.662L262.482 178.662Q262.740 179.125 262.508 179.563Q262.277 180 261.762 180L261.762 180L257.080 180Q256.617 180 256.360 179.588L256.360 179.588L252.296 173.312Q251.936 173.878 251.395 174.727Q250.855 175.576 249.749 177.273Q248.643 178.971 248.232 179.588L248.232 179.588Q247.974 180 247.511 180L247.511 180L242.830 180Q242.315 180 242.058 179.563Q241.801 179.125 242.109 178.662L242.109 178.662L248.900 168.116Q244.064 160.605 242.109 157.518L242.109 157.518Q241.801 157.055 242.058 156.617Q242.315 156.180 242.830 156.180L242.830 156.180L247.511 156.180Q247.974 156.180 248.232 156.592L248.232 156.592L252.296 162.868Q255.434 157.981 256.360 156.592L256.360 156.592Q256.617 156.180 257.080 156.180L257.080 156.180L261.762 156.180Q262.277 156.180 262.508 156.617Q262.740 157.055 262.482 157.518L262.482 157.518Z"/></svg>