<svg width="480px" height="360px" xmlns="http://www.w3.org/2000/svg"><rect x="216" y="124" width="80.5" height="80.5" fill-opacity="0"/><path fill="#F00" d="M267.318 149.286L257.955 164.051Q264.900 174.855 267.318 178.662L267.318 178.662Q267.576 179.125 267.344 179.563Q267.113 180 266.598 180L266.598 180L261.865 180Q261.402 180 261.145 179.588L261.145 179.588L254.611 169.350Q253.994 170.277 253.093 171.717Q252.193 173.158 250.418 175.961Q248.643 178.765 248.129 179.588L248.129 179.588Q247.871 180 247.408 180L247.408 180L242.675 180Q242.161 180 241.904 179.563Q241.646 179.125 241.955 178.714L241.955 178.714L251.215 164.051Q244.270 153.145 241.852 149.286L241.852 149.286Q241.543 148.875 241.801 148.437Q242.058 148 242.572 148L242.572 148L247.305 148Q247.768 148 248.026 148.360L248.026 148.360L254.611 158.701Q259.910 150.315 261.145 148.360L261.145 148.360Q261.402 148 261.865 148L261.865 148L266.598 148Q267.113 148 267.344 148.437Q267.576 148.875 267.318 149.286L267.318 149.286Z"/></svg>