<svg width="480px" height="360px" xmlns="http://www.w3.org/2000/svg"><rect x="216" y="124" width="80.5" height="80.5" fill-opacity="0"/><path fill="#F00" d="M246.595 156.989L248.256 156.989Q248.989 156.989 248.989 157.918L248.989 157.918L244.592 183.029Q244.104 185.667 242.247 187.182L242.247 187.182Q240.977 188.208 239.169 188.452L239.169 188.452Q237.508 188.452 236.092 188.110L236.092 188.110Q235.505 188.110 235.505 187.719L235.505 187.719Q235.163 187.377 235.505 186.986L235.505 186.986Q235.554 186.889 235.725 186.620Q235.896 186.351 236.043 186.082Q236.189 185.814 236.238 185.569L236.238 185.569Q237.020 184.788 237.508 185.032L237.508 185.032Q238.241 185.179 239.365 185.179L239.365 185.179Q240.831 184.934 241.173 183.029L241.173 183.029L245.521 157.918Q245.521 157.527 245.863 157.258Q246.205 156.989 246.595 156.989L246.595 156.989ZM248.061 148.293L249.722 148.293Q250.455 148.293 250.455 149.173L250.455 149.173L250.064 151.713Q250.064 152.153 249.747 152.397Q249.429 152.641 248.989 152.641L248.989 152.641L247.328 152.641Q246.595 152.641 246.595 151.713L246.595 151.713L246.986 149.173Q246.986 148.782 247.304 148.537Q247.621 148.293 248.061 148.293L248.061 148.293Z"/></svg>